<svg version="1.1" xmlns="http://www.w3.org/2000/svg" xmlns:xlink="http://www.w3.org/1999/xlink" width="49.55378" height="25.69236" viewBox="0,0,49.55378,25.69236"><g transform="translate(-215.22311,-166.65382)"><g stroke="#000000" stroke-miterlimit="10"><path d="M217.72311,175.53231c0,-2.99246 2.42586,-5.41833 5.41832,-5.41833c2.99246,0 5.41833,2.42587 5.41833,5.41833c0,2.99246 -2.42587,5.41833 -5.41833,5.41833c-2.99246,0 -5.41832,-2.42587 -5.41832,-5.41833z" fill="#000000" stroke-width="5" stroke-linecap="butt"></path><path d="M251.44023,174.57215c0,-2.99246 2.42587,-5.41833 5.41833,-5.41833c2.99246,0 5.41833,2.42587 5.41833,5.41833c0,2.99246 -2.42587,5.41833 -5.41833,5.41833c-2.99246,0 -5.41833,-2.42587 -5.41833,-5.41833z" fill="#000000" stroke-width="5" stroke-linecap="butt"></path><path d="M226.09909,190.41985l26.85894,0.42633" fill="none" stroke-width="3" stroke-linecap="round"></path></g></g></svg>