<svg version="1.1" xmlns="http://www.w3.org/2000/svg" xmlns:xlink="http://www.w3.org/1999/xlink" width="181.29207" height="211.96981" viewBox="0,0,181.29207,211.96981"><g transform="translate(-202.53737,-68.50811)"><g stroke-miterlimit="10"><path d="M355.69422,232.51136c-6.054,0 -10.96175,-4.90774 -10.96175,-10.96175c0,-6.054 4.90774,-10.96175 10.96175,-10.96175c6.054,0 10.96175,4.90774 10.96175,10.96175c0,6.054 -4.90774,10.96175 -10.96175,10.96175z" fill="#d6aa6c" stroke="#804a0f" stroke-width="2.5" stroke-linecap="butt"></path><path d="M320.8171,261.16742c13.03151,0 28.42624,3.79846 28.42624,11.14755c0,6.9775 -6.47669,6.68852 -19.5082,6.68852c-13.03151,0 -22.48088,0.66056 -22.48088,-6.31694c0,-6.9775 0.53133,-11.51913 13.56284,-11.51913z" fill="#c7bed6" stroke="#5f5775" stroke-width="2.5" stroke-linecap="butt"></path><path d="M307.80053,272.89424c0,6.9775 -9.44937,6.31694 -22.48088,6.31694c-13.03151,0 -19.5082,0.28897 -19.5082,-6.68853c0,-7.34909 15.39473,-11.14754 28.42624,-11.14754c13.03151,0 13.56285,4.54163 13.56285,11.51913z" fill="#f1f2ff" stroke="#5f5775" stroke-width="2.5" stroke-linecap="butt"></path><g stroke="#12002b" stroke-width="2.5" stroke-linecap="butt"><path d="M309.82784,263.70653l-0.37159,-41.6175h17.83607l8.91804,40.50275z" fill="#0d0b3e"></path><path d="M308.5875,264.92167l-1.10573,-8.59553l29.85474,-2.94862l1.10573,11.19553z" fill="#5a5e90"></path></g><g stroke="#12002b" stroke-width="2.5" stroke-linecap="butt"><path d="M281.41801,262.79394l8.91804,-40.50275h17.83607l-0.37158,41.6175z" fill="#313663"></path><path d="M278.48176,264.32305l1.10573,-11.19553l29.85474,2.94862l-1.10573,8.59553z" fill="#7b7fa8"></path></g><g stroke-linecap="butt"><path d="M285.80615,228.19831c0,0 -6.79122,-53.1146 -2.43442,-58.50548c1.36963,-1.69471 11.70801,-1.08174 22.27616,-1.00393c11.16682,0.08221 22.62901,-0.21949 25.52987,3.73344c2.95688,4.02926 0.01366,54.51397 0.01366,54.51397z" fill="#ffb400" stroke="#651f00" stroke-width="2.5"></path><path d="M330.99953,203.93781c0,0 -3.18456,6.92856 -17.31792,6.64118c-4.2846,-0.08712 -17.27386,-7.44165 -24.50462,-16.35551c-5.2579,-6.48177 -5.8216,-15.3196 -5.8216,-15.3196c0,0 -0.34966,-7.97223 0.66667,-8.53342c1.29827,-0.71687 11.20376,-0.89738 21.29582,-0.74571c10.29089,0.15467 20.78241,0.66137 23.23305,1.99041c3.61066,1.95815 2.63545,13.50722 2.63545,13.50722z" fill="#df7b00" stroke="none" stroke-width="0"></path></g><path d="M305.86595,175.24003c-2.32004,0.05433 -6.59966,-1.34041 -6.59966,-1.34041l-3.4902,-14.00001l21,-0.16666l-3.05882,14.33334c0,0 -5.43055,1.11706 -7.85132,1.17374z" fill="#d6aa6c" stroke="#804a0f" stroke-width="2.5" stroke-linecap="butt"></path><g><g stroke="#804a0f" stroke-width="2.5" stroke-linecap="butt"><g><path d="M325.17776,140.06303c0,-6.15662 4.99093,-11.14755 11.14755,-11.14755c6.15662,0 11.14754,4.99093 11.14754,11.14755c0,6.15662 -4.99093,11.14754 -11.14754,11.14754c-6.15662,0 -11.14755,-4.99092 -11.14755,-11.14754z" fill="#d6aa6c"></path><g fill="#ffe4b7"><path d="M270.80937,131.80674c0,-20.11162 16.30369,-36.41531 36.41531,-36.41531c20.11162,0 36.41531,16.30369 36.41531,36.41531c0,20.11162 -16.30369,36.41531 -36.41531,36.41531c-20.11162,0 -36.41531,-16.30369 -36.41531,-36.41531z"></path><path d="M258.86633,140.63675c0,-6.15662 4.99093,-11.14754 11.14754,-11.14754c6.15662,0 11.14754,4.99093 11.14754,11.14754c0,6.15662 -4.99093,11.14754 -11.14754,11.14754c-6.15662,0 -11.14754,-4.99093 -11.14754,-11.14754z"></path></g></g></g><g fill="none" stroke="#d6aa6c" stroke-width="0.5" stroke-linecap="round"><path d="M271.63458,142.92104l-4.85714,-4.42857"></path><path d="M266.92029,142.92103l4.57143,-3.85714"></path></g></g><path d="M336.24271,157.18293c-2.05384,2.49758 -7.66323,-3.15082 -7.66323,-3.15082c0,0 -1.23066,6.70743 -4.33382,6.74291c-7.17767,0.08208 -29.01366,1.17611 -39.00296,-4.25876c-9.9893,-5.43486 -19.33334,-40.33332 -19.33334,-40.33332l72.53334,1.33334c0,0 4.64321,31.34492 -2.19999,39.66665z" fill="#683318" stroke="#45180a" stroke-width="4.5" stroke-linecap="butt"></path><g stroke-linecap="butt"><g stroke="#45180a"><path d="M308.51106,88.35249c16.05398,1.85793 31.17534,13.68767 35.48635,29.91259c1.91174,7.19501 -4.35632,27.05117 -4.35632,27.05117l-17.54499,-19.57838c0,0 -8.58273,0.57187 -12.47029,0.1447c-2.43006,0.2324 -23.65784,0.92717 -39.45337,-2.34275c-0.74171,-0.15355 -0.58331,12.67817 -0.58331,12.67817l-6.94745,-12.43298c0,0 -4.03546,-2.20668 -5.83874,-3.18525c-5.07486,-2.75393 -8.41067,-10.49598 -8.41067,-10.49598l21.89934,-8.19265l-11.01553,-19.68979c0,0 37.7169,4.79816 49.23499,6.13115z" fill="#865b00" stroke-width="2.5"></path><path d="M284.8454,104.28601c-4.41599,-0.29827 -12.92264,-1.88971 -12.92264,-1.88971l-10.4,-18.6l33.05,20.4c0,0 -5.26059,0.39141 -9.72736,0.08971z" fill="#683318" stroke-width="0"></path><path d="M322.52272,124.32964c0,0 -15.0106,1.21355 -29.01412,0.86348c-11.3342,-0.28335 -21.18197,-3.28644 -23.88108,-2.49493c-1.72501,0.50586 -1.55536,8.59429 -1.55536,8.59429l-4.84945,-8.51284c0,0 -5.82299,-2.57897 -7.94562,-4.47301c-2.20739,-1.96967 -5.55438,-7.37699 -5.55438,-7.37699c0,0 16.80486,5.16934 33.97168,6.54679c17.16682,1.37745 44.12832,-0.28013 44.12832,-0.28013l6.33848,25.55009l-11.63848,-18.41676z" fill="#683318" stroke-width="0"></path></g><g fill="#f5c827" stroke="#000000" stroke-width="0"><path d="M319.04726,94.41475c3.62649,-1.20031 7.76213,1.43946 9.23722,5.89611c1.47509,4.45665 -0.26896,9.04252 -3.89545,10.24284c-3.62649,1.20031 -7.76213,-1.43946 -9.23722,-5.89611c-1.47509,-4.45665 0.26896,-9.04252 3.89545,-10.24284z"></path><path d="M307.45932,99.29516c-0.81631,-2.46632 0.14885,-5.00414 2.15575,-5.6684c2.0069,-0.66426 4.29557,0.7966 5.11188,3.26291c0.81631,2.46631 -0.14885,5.00413 -2.15575,5.66839c-2.0069,0.66425 -4.29557,-0.7966 -5.11188,-3.26291z"></path><path d="M336.05716,111.39069c1.28619,-0.26504 2.39991,1.13532 2.48756,3.12778c0.08765,1.99246 -0.88395,3.82252 -2.17014,4.08756c-1.28619,0.26504 -2.39991,-1.13532 -2.48756,-3.12778c-0.08765,-1.99246 0.88395,-3.82252 2.17014,-4.08756z"></path><path d="M300.49286,92.1014c1.28619,-0.26504 2.39991,1.13532 2.48756,3.12778c0.08765,1.99246 -0.88395,3.82253 -2.17014,4.08756c-1.28618,0.26503 -2.39991,-1.13532 -2.48756,-3.12778c-0.08765,-1.99245 0.88396,-3.82253 2.17014,-4.08756z"></path><path d="M331.88979,103.70989c1.74969,0.48117 2.55757,3.09135 1.80444,5.83c-0.75313,2.73865 -2.78207,4.56871 -4.53177,4.08754c-1.74969,-0.48117 -2.55757,-3.09135 -1.80444,-5.83c0.75313,-2.73865 2.78207,-4.56871 4.53177,-4.08754z"></path></g></g><path d="M262.33079,234.19989c-6.77228,0 -12.2623,-5.49002 -12.2623,-12.2623c0,-6.77228 5.49002,-12.2623 12.2623,-12.2623c6.77228,0 12.2623,5.49002 12.2623,12.2623c0,6.77228 -5.49002,12.2623 -12.2623,12.2623z" fill="#ffe4b7" stroke="#804a0f" stroke-width="2.5" stroke-linecap="butt"></path><path d="M336.24272,157.18294c-1.06738,0.76642 -7.66323,-3.15082 -7.66323,-3.15082c0,0 -1.23066,6.70743 -4.33382,6.74291c-7.17767,0.08208 -29.01366,1.17611 -39.00296,-4.25876c-9.9893,-5.43486 -19.33334,-40.33332 -19.33334,-40.33332l60.81108,2.75087l12.35558,18.74913c0,0 1.07625,16.69275 -2.83332,19.5z" fill="#683318" stroke="none" stroke-width="0" stroke-linecap="butt"></path><g stroke-linecap="butt"><path d="M285.40121,177.39591c0,-14.58243 20.22517,-11.624 34.21492,-11.624c13.98975,0 26.33068,1.77271 26.33068,9.20209c0,2.13611 -5.28615,5.29653 -5.20626,8.05116c0.21956,7.57078 -15.15703,11.40093 -25.12442,11.40093c-13.98975,0 -30.21492,-2.44776 -30.21492,-17.03018z" fill="#c23200" stroke="#490012" stroke-width="2.5"></path><path d="M320.20974,170.60089c11.39087,0 19.625,1.42157 19.625,2.25c0,0.82843 -14.23413,1.25 -25.625,1.25c-11.39087,0 -20.625,-0.67157 -20.625,-1.5c0,-0.82843 15.23413,-2 26.625,-2z" fill="#670000" stroke="none" stroke-width="0"></path></g><path d="M294.99328,107.97542c1.06066,1.06066 0,2.12132 0,2.12132l-1.12528,1.12528c-1.97439,1.97091 -3.57445,4.1048 -5.36193,6.24187c-0.64691,0.77343 -1.31646,1.52782 -1.9893,2.2788c-0.46175,0.51538 -0.89038,1.0669 -1.3863,1.54807c3.84234,-1.01072 8.61928,-0.26069 12.5031,-0.23295c5.35317,0.03826 11.03132,-0.0545 16.65242,0.32438c-0.29117,-0.27361 -0.47302,-0.66222 -0.47302,-1.09331c0,-0.64386 0.40567,-1.19298 0.97536,-1.40569l1.84303,-0.73721l0.00146,0.00365l0.00896,-0.00778c12.67001,-4.84983 25.541,-8.44638 37.86353,-14.22028c2.3949,-1.12217 4.81722,-2.18764 7.21786,-3.29655c-9.44546,-0.40533 -18.92477,-0.0608 -28.37129,0.2177c-3.62802,0.10696 -7.24181,0.23607 -10.87039,0.31542c-0.81896,0.01791 -4.88897,0.3237 -5.11227,0.2713c-0.06668,-0.01565 -0.13299,-0.03238 -0.19897,-0.05012l-0.00431,0.01938l-2.89972,-0.64438c-0.68639,-0.13765 -1.20345,-0.74379 -1.20345,-1.47069c0,-0.56856 0.31633,-1.06323 0.78258,-1.31764l2.30316,-1.31275c4.38753,-2.49645 9.12872,-4.25849 13.71523,-6.36082c11.30364,-5.18084 24.18236,-8.92921 36.34107,-11.60257c1.83452,-0.40336 3.72798,-0.93397 5.62061,-1.34633c-14.932,-3.06796 -30.30023,-3.4946 -45.48757,-1.39979c-17.27727,2.38307 -32.79525,9.8331 -48.23855,17.55475c0,0 -1.34164,0.67082 -2.01246,-0.67082c-0.67082,-1.34164 0.67082,-2.01246 0.67082,-2.01246c15.74122,-7.87061 31.56161,-15.41455 49.17028,-17.84334c18.18173,-2.50782 36.6131,-1.47312 54.28934,3.28301l0.05993,0.05313l0.01074,-0.02834l1.54025,0.58363c0.58325,0.20556 1.00125,0.76151 1.00125,1.41509c0,0.82843 -0.67157,1.5 -1.5,1.5h-1.50038v-0.28945c-1.20924,0.19933 -2.14897,0.06457 -4.3526,0.28215c-3.41267,0.33696 -6.972,1.42108 -10.30818,2.21812c-11.39914,2.72335 -23.41127,6.15223 -34.0546,11.03042c-3.82251,1.75184 -7.76687,3.25491 -11.50404,5.17219c3.4752,-0.43866 7.27721,-0.01251 10.62331,-0.18869c11.35031,-0.59761 22.89632,-0.91093 34.24558,-0.24199l2.96965,0.02244c0.82387,0.00532 1.4901,0.67484 1.4901,1.49997c0,0.55425 -0.30061,1.03829 -0.74767,1.29798l-1.83946,1.11129l-0.20831,-0.34481c-3.10023,2.28451 -6.65882,3.55372 -10.36467,5.29015c-10.50192,4.92083 -21.3954,8.27347 -32.22853,12.15074c2.13065,0 4.26131,0 6.39196,0c12.80027,0 25.45319,1.32933 38.17595,2.65425l0.1275,0.07481l0.01204,-0.04014l2.8412,0.85236c0.63488,0.17463 1.10126,0.75606 1.10126,1.44642c0,0.73104 -0.52296,1.33994 -1.21519,1.473l-2.9057,0.62008l-0.08106,-0.37987c-4.4633,1.3403 -8.86939,1.45353 -13.87138,1.85779c-4.59346,0.37124 -9.50202,0.8299 -14.36074,1.6785c2.27776,2.07704 3.71403,5.5007 4.13166,8.80563c2.13303,0.10807 4.26595,0.22173 6.39884,0.34023c2.97928,0.16552 5.9628,0.38663 8.94456,0.4975c0.86244,0.03207 4.25576,-0.06849 4.45951,-0.00058h3c0.82843,0 1.5,0.67157 1.5,1.5c0,0.82843 -0.67157,1.5 -1.5,1.5h-3c-6.58389,0 -13.20806,0.14595 -19.82439,0.12729c-0.03339,0.21317 -0.07247,0.42253 -0.11732,0.62753c-0.04424,0.20221 -2.42404,5.41346 -2.58261,5.76231c-2.96889,6.41475 -9.28996,11.37812 -15.12835,15.13137c-0.07561,0.0486 -0.15128,0.09706 -0.22702,0.14538c7.64546,0.71223 15.30095,1.34202 22.96886,1.91001c1.99818,0.14802 3.99582,0.30336 5.99286,0.466l2.64929,0.21577c0.77806,0.05531 1.3921,0.70403 1.3921,1.49618c0,0.71385 -0.49866,1.31124 -1.16664,1.46282l-2.87999,0.72l-0.07724,-0.30894c-4.95469,2.03264 -10.23791,3.05249 -15.5331,4.31146c-12.08655,2.87365 -24.30699,4.98136 -36.38392,7.86932c-6.49609,1.55341 -13.36962,3.13267 -19.34964,6.23722c-0.36385,0.18889 -0.72974,0.3791 -1.09318,0.57498c4.78324,1.54454 9.45367,3.40492 13.9453,5.65981c0.21027,0.10556 0.41988,0.21352 0.62888,0.32364c4.12474,0.27045 8.25461,0.47716 12.38757,0.71211c20.81031,1.18521 41.8097,0.56999 62.64686,0.56999c1,0 2,0 3,0h3c0.82843,0 1.5,0.67157 1.5,1.5c0,0.76392 -0.57106,1.39446 -1.30957,1.48803l-2.94797,0.42142l-0.05853,-0.40945h-0.05518c-5.99549,1.63055 -12.21649,1.20032 -18.58327,1.13323c0.63375,0.19691 1.26237,0.4902 1.88815,0.91734c3.90498,2.66544 3.99397,6.71391 4.40688,10.89756c0.84383,8.54985 -2.17925,18.49664 -8.16716,24.71464c-2.075,2.12706 -4.10835,4.68703 -6.4125,6.55905c-2.30415,1.87203 -5.22622,3.33813 -7.73307,4.93365c-8.86769,5.64395 -18.32652,9.95278 -28.03106,13.78554c2.95111,-0.19547 5.908,-0.29961 8.86788,-0.29961c4.94786,0 10.57509,-0.0634 15.33516,1.55059c1.91396,0.64896 5.94594,2.57118 5.24151,5.60178c-0.31267,1.34517 -2.26689,1.58304 -3.45785,2.28222c-2.62302,1.5399 -2.93141,1.43592 -5.83157,2.26101c-10.1246,2.88041 -20.55358,4.15179 -31.06076,4.79838c-16.17656,0.99548 -32.17393,1.57683 -48.35319,0.36577l-0.11586,-0.07292l-0.01171,0.04685l-1.46993,-0.36748c-0.66798,-0.15159 -1.16664,-0.74897 -1.16664,-1.46282c0,-0.6308 0.38938,-1.17066 0.9409,-1.39234l2.59388,-1.11166l0.0703,0.16403c5.12383,-3.23073 10.72435,-5.81988 15.8539,-9.05911c10.13472,-6.39992 20.23019,-12.87736 30.25578,-19.44763c3.76934,-2.46846 8.3239,-5.25042 11.4864,-8.47013c1.97543,-2.01116 3.56228,-4.79189 5.26403,-7.04272c1.65894,-2.1942 2.10971,-4.48541 3.02603,-7.06869c0.19941,-0.56217 0.70559,-1.0724 0.65196,-1.66647c-0.16437,-1.82087 -1.45142,-3.35686 -2.12171,-5.05783c-1.32326,-3.35801 -4.16098,-6.37902 -7.28307,-8.91044c-12.0544,1.39414 -24.12798,2.48597 -36.30257,3.02308c-20.47035,0.9031 -41.96649,1.56408 -62.25943,-1.67352c-2.00257,-0.32041 -10.05727,-0.37897 -8.95872,-4.71868c0.35631,-1.40756 2.59807,-1.30896 3.95566,-1.82388c2.85772,-1.0839 5.99812,-1.58871 9.01354,-1.903c13.57549,-1.41491 26.8991,-2.02411 40.54424,-2.2768c11.81845,-0.21886 23.64548,-0.54241 35.47188,-0.779c-2.50693,-0.19609 -5.0113,-0.42911 -7.51212,-0.72167c-1.84114,-0.21539 -8.46208,-1.02636 -9.38061,-2.99885c-0.75178,-1.61441 -0.49493,-2.80324 0.19671,-3.74633c-9.36456,-2.52593 -19.0627,-3.96461 -28.59482,-4.91782c-4.96904,-0.4969 -9.83623,-0.62267 -14.82878,-0.66391l-2.71878,-0.01008c-0.8262,-0.00262 -1.49515,-0.67318 -1.49515,-1.49999c0,-0.80836 0.63942,-1.46736 1.44007,-1.49882l2.98873,-0.13585l0.00666,0.14653c0.41734,0.00365 0.83386,0.00792 1.2497,0.01297c6.18466,-1.06195 12.73603,-0.62842 18.9915,-0.90643c11.66471,-0.51841 22.82679,-1.60004 34.14559,-4.65474c9.84785,-2.65772 19.70603,-5.55587 28.86471,-10.00413c-9.05924,-0.93041 -18.1058,-1.9885 -27.14364,-3.20845c-13.73345,-1.85377 -28.15243,-3.83157 -41.19648,-8.73146c-1.79351,-0.67372 -7.46263,-2.71506 -8.49992,-4.19693c-3.79375,-5.41976 3.53873,-8.49937 7.57088,-9.25205c4.92198,-0.85334 9.91062,-2.04537 14.8764,-2.57592c15.878,-1.69644 32.2193,-1.05678 48.1537,-0.85549c1.60964,0.02033 3.21903,0.04613 4.8282,0.07705c0.23256,-0.67588 1.38106,-1.17562 1.89967,-1.79649c4.25632,-3.23249 9.25144,-5.46929 14.55442,-7.03847c-10.16452,-4.40175 -22.59294,-3.80071 -33.40966,-3.87802c-3.70317,-0.02648 -7.48804,0.2242 -11.18138,-0.01829c-1.35843,-0.08919 -2.99668,0.41051 -4.06039,-0.43907c-0.80764,-0.64506 -0.66465,-2.09766 -0.34731,-3.08137c0.36113,-1.11948 1.46847,-1.83829 2.22493,-2.73909c2.46007,-2.92951 4.79598,-5.972 7.49872,-8.67922l1.12528,-1.12528c0,0 1.06066,-1.06066 2.12132,0zM333.42143,125.73234c0.20386,0.09673 1.11629,0.52833 2.15789,1.02615c7.11704,-1.59302 14.55237,-2.20284 21.34231,-2.56304c1.16857,-0.06199 2.45494,-0.2772 3.77642,-0.50045c-7.50618,-0.78671 -15.02051,-1.60971 -22.55599,-1.907c-6.71677,-0.26499 -14.26075,1.00704 -20.95362,-0.29927v0.1348c5.67044,0.56762 11.21436,1.72754 16.23299,4.10882zM335.56541,129.86886c-6.02484,1.38071 -11.80457,3.51405 -16.61719,6.99851c7.30255,0.1815 14.60106,0.46278 21.89806,0.81366c-0.44505,-2.71579 -1.70911,-5.50548 -3.6447,-6.88976c-0.51155,-0.36585 -1.06403,-0.661 -1.63616,-0.92241zM340.82935,141.7748c-4.46769,-0.0517 -8.92843,-0.2003 -13.36738,-0.54158c-2.29926,-0.17677 -7.09537,-0.0654 -10.19618,-1.40125c-2.52044,-0.0597 -5.04171,-0.10667 -7.5642,-0.13853c-15.8145,-0.19977 -32.03872,-0.84491 -47.7971,0.83875c-4.90028,0.52356 -9.82533,1.70668 -14.68264,2.5488c-0.74102,0.11576 -1.53683,0.04464 -2.22307,0.34729c-0.8133,0.35868 -1.40102,1.09839 -2.14788,1.58037c-0.60642,0.39135 -1.54499,0.40667 -1.90259,1.03358c-0.86181,1.51085 2.59305,2.26693 2.69938,2.31421c2.67903,1.19118 4.99527,2.393 7.82227,3.20876c12.44678,3.59164 24.92311,6.03371 37.76625,7.7673c10.50753,1.41833 21.02687,2.61707 31.56428,3.65041c1.22451,-0.69469 2.43333,-1.42324 3.62463,-2.18907c5.2909,-3.40129 11.4073,-7.97618 14.01952,-13.84924c0.78424,-1.72532 1.97797,-3.31068 2.38303,-5.16209c0.00056,-0.00257 0.00112,-0.00514 0.00168,-0.00771zM300.37705,199.97222c-14.39105,0.23076 -28.78607,0.65304 -43.16826,0.91938c-11.52377,0.2134 -22.85737,0.4579 -34.32294,1.644c-2.90352,0.30036 -5.96489,0.38018 -8.83464,0.9092c-2.71232,0.5 -4.73347,1.66925 -7.52046,1.2525c-0.35771,-0.05349 0.71503,0.10979 1.07349,0.15795c1.8256,0.24526 3.64938,0.50588 5.46825,0.7969c20.08214,3.22272 41.39438,2.53253 61.65323,1.63875c11.02637,-0.48646 21.96904,-1.43155 32.88991,-2.64396c-0.87959,-0.59656 -1.74573,-1.15088 -2.57197,-1.65966c-1.55361,-0.95668 -3.10196,-1.99828 -4.66662,-3.01506zM300.69089,262.86094c13.23012,-4.83936 26.25029,-9.96393 38.17446,-17.55322c2.40893,-1.53319 5.23741,-2.93178 7.45216,-4.73117c2.21475,-1.79939 4.16284,-4.28158 6.15679,-6.32555c5.41298,-5.46464 8.0987,-14.73418 7.32948,-22.32125c-0.34497,-3.4026 -0.09073,-6.47993 -3.1514,-8.74487c-1.69181,-1.25196 -4.54797,-0.61908 -6.38528,-0.52742c-4.7903,0.23898 -9.54949,0.8722 -14.31645,1.3954c-7.01496,0.98249 -14.01744,1.92129 -21.02352,2.7668c3.17705,3.11328 5.77403,6.74855 7.41607,11.02694c0.42008,1.09453 1.13971,2.12889 1.22081,3.29846c0.0224,0.32301 -1.69041,5.36257 -1.7533,5.54932c-3.19047,9.47329 -11.96545,16.00758 -20.02944,21.29599c-11.41542,7.48109 -22.86214,15.0139 -34.5651,22.03568c-0.22768,0.13661 -0.46553,0.28446 -0.71242,0.44135l0.02584,-0.00574l0.0648,0.29149c4.61632,-1.87666 9.4853,-2.90683 14.42084,-4.08532c6.48863,-1.54934 13.0579,-2.86745 19.67566,-3.80687zM258.01084,275.47721c14.48884,0.72741 28.8251,0.24045 43.34435,-0.65304c9.16993,-0.5643 18.69118,-1.36518 27.54083,-3.87261c2.89308,-0.81972 5.4184,-1.82737 8.19412,-2.87573c0.6082,-0.22971 1.57625,0.15764 1.90871,-0.40106c0.24788,-0.41656 -0.69687,-0.68754 -1.11347,-0.93535c-0.68079,-0.40496 -1.39273,-0.78264 -2.15234,-1.00727c-4.60888,-1.36297 -9.67083,-1.40763 -14.42009,-1.40763c-6.65524,0 -13.29502,0.53832 -19.8865,1.46162c-0.52411,0.19155 -1.04855,0.38266 -1.57326,0.57346c-4.595,1.66838 -9.38721,2.78428 -14.10233,4.07022c-6.10235,1.66428 -12.4786,3.63036 -18.82426,3.64713h-3c-0.65626,0 -1.21409,-0.42144 -1.4176,-1.00845c-1.4577,0.91514 -2.9977,1.79718 -4.49817,2.4087zM347.75907,199.8084c-9.5608,0 -19.12161,0 -28.68241,0c-4.43899,-0.00012 -8.87906,0.03233 -13.31971,0.08715c0.2865,0.18138 0.57303,0.36066 0.85974,0.53721c1.84819,1.13808 3.63018,2.37451 5.30462,3.72264c7.88523,-0.92415 15.76332,-1.97466 23.65759,-3.07942c4.05801,-0.44584 8.11008,-0.96706 12.18017,-1.26759zM288.13413,193.6954c-2.94572,-1.18449 -5.95127,-2.22301 -8.99896,-3.13686c-0.05261,0.04742 -0.10472,0.09543 -0.15632,0.14403c-0.34102,0.32121 -0.91613,0.91906 -0.60445,1.26882c0.45064,0.50569 1.35373,0.13442 2.00873,0.307c1.67571,0.4415 3.35195,0.93708 5.07375,1.13283c0.89209,0.10142 1.78452,0.19584 2.67725,0.28418zM347.26242,168.26727c-8.62073,-0.64663 -17.22599,-1.37273 -25.81915,-2.20741c-10.47106,5.77834 -22.00891,9.24054 -33.54777,12.35463c-10.05682,2.71412 -20.07711,3.9097 -30.28827,4.52244c7.1317,1.01144 14.25922,2.40041 21.18831,4.39847c0.21536,-0.13798 0.42345,-0.27296 0.61821,-0.40684c6.57404,-4.51913 15.01255,-6.40953 22.67111,-8.24092c13.04848,-3.12029 26.24679,-5.4364 39.30178,-8.5696c1.65883,-0.39812 3.73717,-1.18478 5.87577,-1.85075z" fill="#865b00" stroke="#865b00" stroke-width="2" stroke-linecap="butt"></path><path d="M335.36587,240.71768c-2.56087,4.65994 -6.34254,7.2556 -9.58309,10.08771c-0.35571,0.31088 -0.71162,0.61962 -1.06773,0.9262c-0.19139,0.90414 -0.57646,1.64406 -1.06717,2.06586l-2.89539,2.61851c-0.37373,0.4562 -0.80308,0.77278 -1.25442,1.03361c-0.82562,0.66009 -1.65364,1.31387 -2.49059,1.92696c0.37466,0.02015 0.73785,0.14755 1.08198,0.4367c0.03661,0.03076 0.07222,0.06337 0.10687,0.09774v-0.1024h3.43326c1.18479,0 2.14526,1.67893 2.14526,3.75c0,0.51723 -0.0599,1.01 -0.16825,1.45826c1.51162,-0.04308 3.02375,-0.04225 4.53683,0.04543c1.00336,0.05815 2.00104,0.30266 3.00411,0.37509c0.84796,0.06124 1.76919,-0.57175 2.54601,0.02571c0.08175,0.06287 0.16227,0.12939 0.24169,0.19924l0.0165,-0.11537l1.67309,0.73116c0.95533,0.37897 1.66849,1.87243 1.66849,3.65706c0,1.93054 -0.83454,3.52035 -1.9074,3.72721l-1.6884,0.36892l-0.00779,-0.1089l-0.125,0.13061c-2.1825,0.00504 -5.13438,-0.79518 -7.29993,-0.04118c-4.01646,1.39845 -7.99748,3.7462 -12.11784,4.57385c-1.99527,0.40079 -8.48606,0.93958 -10.05523,-1.39685c-0.2063,-0.30718 -0.36566,-0.63937 -0.48415,-0.99042c-0.21889,0.20424 -0.44333,0.37258 -0.68725,0.42557c-3.14853,0.68398 -6.56797,-1.73439 -9.68187,-2.18863h-1.43534c-1.18479,0 -2.14526,-1.67893 -2.14526,-3.75c0,-1.65917 0.61641,-3.06667 1.47076,-3.5609l2.18808,-1.36602c-0.96973,-0.69108 -1.79458,-1.89925 -2.31237,-3.95216c-0.46682,-1.85083 0.83256,-3.80529 1.45812,-5.50696c2.3505,-6.39387 6.24867,-11.79521 9.79406,-16.06922c1.40303,-1.69136 2.85017,-3.29558 4.33211,-4.82075c-1.85107,-2.173 -2.09821,-4.13921 -1.60268,-5.80812c-1.25797,0.22407 -2.52821,0.47866 -3.63757,-0.41674c-1.08167,-0.87306 -2.27985,-2.44135 -2.81603,-4.34075c-2.21182,0.07679 -4.44655,-0.01459 -6.78388,-0.1141c-1.48602,-0.06725 -2.97908,0.05929 -4.45808,-0.20174c-1.38289,-0.24406 -2.73521,-0.86726 -4.10197,-1.30901c-4.94733,-1.59901 -13.36034,-4.01343 -14.31288,-15.12506c-0.28231,-3.29318 0.65998,-6.69185 1.59539,-9.59268c0.8533,-2.64618 2.19431,-4.81692 3.61515,-6.56576c1.28825,-1.58564 2.89574,-2.17249 4.34891,-3.23681c2.04077,-1.49468 3.62429,-2.43747 5.26874,-3.20276c-0.52028,-0.04925 -0.86488,-0.09331 -0.90392,-0.12561c-0.17224,-0.14248 -0.33808,-0.30131 -0.49845,-0.47418l-0.01983,0.05438l-2.85016,-3.17549c-0.61353,-0.65991 -1.0226,-1.84452 -1.0226,-3.19614c0,-1.66415 0.62012,-3.07511 1.47846,-3.56532l3.99896,-2.46664l0.01621,0.0803l0.18298,-0.18448c0.10888,-0.02829 0.21776,-0.0564 0.32663,-0.08434c-0.08017,-0.02842 -0.12623,-0.04526 -0.13278,-0.04868c-1.59017,-0.8278 -3.29169,-1.4745 -4.63265,-3.18252c-0.99525,-1.26766 -2.14134,-2.8569 -2.62186,-4.81606c-2.37826,-0.09405 -4.7653,-0.28077 -7.11671,-0.90619c-1.48941,-0.39615 -3.07711,-0.18569 -4.46711,-1.20137c-0.0706,-0.05159 -0.1408,-0.10453 -0.21061,-0.15877l-0.00789,0.03622l-3.96262,-2.6388c-0.83227,-0.51569 -1.42836,-1.90391 -1.42836,-3.5355c0,-1.53403 0.52694,-2.85292 1.28168,-3.43376l3.17507,-2.59008l0.03132,0.11733l0.2114,-0.28472c3.31677,-1.18945 6.64686,-2.27953 9.98619,-3.2922c0.44072,-1.14838 0.98626,-2.20458 1.52453,-3.13311c0.65528,-1.13036 1.53788,-1.69479 2.42952,-2.23356c-2.83749,-0.45865 -5.46515,-2.16576 -5.50446,-8.4273c-0.01391,-2.2159 1.95522,-2.87236 3.0741,-3.9142c3.83891,-3.57458 8.46533,-4.57945 12.64478,-6.28506c2.57545,-1.05102 5.16007,-2.02321 7.74844,-2.96423c-0.1896,-0.25256 -0.33699,-0.53361 -0.43741,-0.85208c-0.40361,0.16927 -0.80791,0.26353 -1.21124,0.1426c-0.06441,-0.01931 -0.12863,-0.03997 -0.19266,-0.06191v0.07706h-2.78953c-1.18479,0 -2.14525,-1.67893 -2.14525,-3.75c0,-1.68671 0.63705,-3.11333 1.51351,-3.58475l1.40807,-0.82085c6.00759,-3.51298 12.18115,-5.89465 18.33838,-8.38567c2.40343,-1.92373 4.93364,-3.39075 7.53606,-4.0835c3.49809,-1.93977 7.04222,-3.70074 10.59388,-4.88504c0.05801,-0.03839 0.11599,-0.0769 0.17397,-0.11554c2.14893,-1.43243 4.28112,-2.95549 6.36165,-4.66893c0.35083,-0.28893 1.2136,-1.13075 2.22247,-2.06487c-1.29762,0.01791 -2.58042,0.09534 -3.80438,0.29918c-5.11503,0.85186 -10.46939,3.76601 -15.2325,7.04218c-1.81481,1.24827 -5.44118,4.21098 -7.13267,6.03727c-0.70089,0.75674 -1.15827,2.26508 -1.95223,2.64911c-1.48113,0.71641 -3.06717,0.34701 -4.60074,0.52051l2.29697,-8.44758c1.97988,-2.40525 3.99936,-4.72988 6.07066,-6.87815c-4.9205,3.89569 -9.66613,8.46809 -13.89341,14.21766c0,0 -1.69336,2.30228 -3.01042,-0.65779c-1.31706,-2.96007 0.3763,-5.26235 0.3763,-5.26235c7.3623,-10.006 16.17407,-16.69057 24.8886,-22.29001c4.24039,-2.72462 8.58386,-5.11012 13.12147,-5.13157c0.51594,-0.00244 3.19572,-0.02193 3.49698,0.10032c2.51193,1.01925 4.69341,4.75887 6.95675,6.72l0.04036,0.08625l0.01173,-0.03588l1.46589,1.46426c0.66564,0.63662 1.11706,1.87217 1.11706,3.29203c0,0.10442 -0.00244,0.20785 -0.00723,0.31011c0.4015,0.68147 0.65097,1.63513 0.65097,2.69064c0,1.42933 -0.45746,2.67188 -1.13041,3.30469l-3.39637,3.33957l-0.01216,-0.03778c-0.04188,0.0546 -0.08397,0.10878 -0.12626,0.16254c-0.81435,1.03518 -1.90557,1.15694 -2.81862,1.89894c-0.34744,0.28234 -0.69379,0.56887 -1.03946,0.85808c0.51572,0.48546 1.01301,1.42167 1.01301,3.22716c0,3.75 -2.14526,3.75 -2.14526,3.75c-1.78436,0 -3.57917,-0.35834 -5.35305,-0.02087c-1.27375,0.24232 -2.55245,0.59598 -3.83201,1.03439c-0.39097,0.24845 -0.7827,0.49164 -1.17513,0.7299c0.30552,0.64796 0.48902,1.47829 0.48902,2.38354c0,1.50515 -0.50728,2.80318 -1.23928,3.40017l-2.89308,2.49134c2.54453,-0.5559 6.30739,-1.37687 6.36106,-1.38221c1.58659,-0.15778 3.25518,-0.81257 4.76743,0.04118c0.10975,0.06196 0.21702,0.13243 0.32209,0.21046l0.01267,-0.06644l1.88428,1.09794c0.8766,0.47126 1.51379,1.89801 1.51379,3.58491c0,1.08063 -0.26148,2.0545 -0.67988,2.73882c0.30664,0.05356 0.61025,0.14292 0.90943,0.28429c0.05432,0.02567 0.10843,0.05226 0.16237,0.07975l0.00396,-0.03695l3.39575,1.11299c1.01446,0.29776 1.78742,1.84012 1.78742,3.69806c0,1.53977 -0.53089,2.86279 -1.29016,3.44026l-2.74563,2.21515l-0.02064,-0.07816l-0.12216,0.18262c-9.03136,4.72804 -18.33291,7.99266 -27.726,10.24089c2.40403,-0.37678 4.81283,-0.6207 7.22962,-0.62097c1.46765,-0.00017 2.9722,-0.56655 4.40294,0.00515c0.03684,0.01472 0.07362,0.02977 0.11035,0.04513l0.00179,-0.02968l4.05237,0.74566c1.09104,0.17628 1.9453,1.78072 1.9453,3.73393c0,1.75792 -0.69197,3.23332 -1.62576,3.6393l-2.28467,1.08919c-2.61514,1.44311 -5.23424,2.78297 -7.85969,4.00857c1.49016,1.05929 2.81469,2.58606 3.33879,4.99125c0.41383,1.89916 -0.80156,3.8154 -1.20234,5.7231c-0.828,1.55966 -1.51794,3.38448 -2.48399,4.67899c-0.5688,0.76219 -1.33337,0.92089 -2.00856,1.34106c-1.00677,0.62653 -2.02774,1.19858 -3.0597,1.70203c1.43721,-0.09337 2.87483,-0.16668 4.31278,-0.1658c1.46571,0.00089 2.98477,-0.6804 4.39712,0.00463c0.03485,0.01691 0.06957,0.03441 0.10415,0.05248l0.00221,-0.03859l2.32703,0.40583c1.09607,0.16762 1.95585,1.77609 1.95585,3.73558c0,2.02093 -0.91452,3.66849 -2.05962,3.74707l-4.27441,0.33932l-0.0007,-0.02706l-0.04795,0.02996c-0.39698,0.00009 -0.79395,0.00017 -1.19093,0.00025c0.18297,0.55206 0.2877,1.19321 0.2877,1.87713c0,0.7538 -0.12723,1.45566 -0.34621,2.04352c2.27776,0.91151 6.76527,6.00609 7.38797,6.61894c-0.99331,2.32621 -1.67922,5.17403 -2.97991,6.97864c-0.9601,1.33207 -2.32638,1.35202 -3.4941,2.00359c-1.41786,0.79115 -2.81079,1.75022 -4.26242,2.32448c-6.94509,2.74744 -14.21438,2.58883 -21.28884,2.49032c-2.50729,-0.03491 -7.00378,0.37311 -9.32464,-1.75044c-1.24761,-1.14154 -3.02345,-2.65371 -3.38969,-4.89411c-1.9805,1.15623 -3.9751,2.30888 -5.71402,4.28293c-2.40046,2.72503 -4.94166,8.84405 -1.74491,12.76223c1.00347,1.22992 2.28731,1.54053 3.42371,2.34273c4.30459,3.03866 9.06433,3.80837 13.67372,3.99184c3.37502,0.1441 6.58587,0.35611 9.82527,-0.07328c1.06923,-0.92416 2.12754,-1.52876 2.73954,-1.51818c0.07129,0.00123 0.14249,0.00398 0.21362,0.00816l-0.00516,-0.07211l3.3997,-0.74285c0.09792,-0.02392 0.19797,-0.03629 0.29966,-0.03629c1.18479,0 2.14525,1.67893 2.14525,3.75c0,1.22975 -0.33863,2.32124 -0.86178,3.00509c1.72171,-0.25479 3.43965,-0.59684 5.15103,-1.00336l0.12155,0.06949l-0.00106,-0.08025l2.82938,-0.11327c0.01898,-0.00087 0.038,-0.0013 0.0571,-0.0013c1.1696,0 2.12059,1.63615 2.14478,3.67053c3.08247,-2.18919 6.19554,-4.17199 9.27335,-6.00574c1.86685,-1.11227 6.83973,-4.44995 8.86037,-4.03676c0.09994,0.02044 0.19898,0.04679 0.2972,0.07853l0.00352,-0.06776l2.33859,0.37163c1.10416,0.15351 1.97281,1.76846 1.97281,3.73806c0,1.49701 -0.50181,2.78914 -1.22743,3.39043l-2.53338,2.21423l-0.02681,-0.09374l-0.13231,0.21894c-0.38835,0.21288 -0.7777,0.42951 -1.16799,0.64917c1.15639,0.05684 2.08382,1.71334 2.08382,3.74849c0,1.15712 -0.29981,2.19183 -0.77105,2.87971l-1.91353,2.83034c0.38437,2.15934 -0.23203,4.21275 -1.60323,6.70786zM317.87375,248.07804l0.00503,0.05715l-2.75137,0.73993c-0.11843,0.03542 -0.24016,0.05387 -0.36435,0.05387c-1.18479,0 -2.14526,-1.67893 -2.14526,-3.75c0,-1.19717 0.32093,-2.26332 0.8206,-2.9499l2.13032,-2.97911l0.03726,0.08143l0.09736,-0.25509c1.08958,-1.09163 2.17916,-2.18327 3.26875,-3.2749c0.95508,-0.9223 1.91547,-1.82897 2.88685,-2.66793c-1.73836,0.75222 -3.47919,1.38557 -5.21763,1.84278c-1.58981,1.31089 -3.16807,2.68801 -4.73721,4.13983c-3.73603,3.45671 -7.13162,7.19575 -10.40529,11.8422c-1.05097,1.49168 -2.20574,2.7816 -3.15888,4.46214c-0.58751,1.03588 -1.0162,2.32936 -1.50152,3.52552c1.59832,-0.18344 3.22523,0.14327 4.81409,-0.23993c2.2551,-0.54388 4.45146,-1.3093 6.62244,-2.2748c3.30621,-2.16384 6.52656,-4.76526 9.72835,-7.34957c-0.01385,-0.17213 -0.02101,-0.34802 -0.02101,-0.52682c0,-0.16642 0.0062,-0.33031 0.01822,-0.491c-0.04226,0.00554 -0.08451,0.01027 -0.12675,0.01421zM288.88131,191.14773c-0.35908,0.2864 -0.72181,0.55334 -1.10316,0.77927c1.03406,0.2532 2.04206,0.87839 3.08419,1.03569c2.58738,0.39055 5.19398,0.11872 7.79088,0.07931c5.52838,-0.0839 11.19383,-0.20506 16.6175,-2.35064c1.07948,-0.42704 2.66432,-1.83446 4.19355,-2.63254c-0.32326,-0.28393 -0.63734,-0.63584 -0.99035,-0.70023c-4.00817,-0.73113 -8.41132,0.06805 -12.4328,0.29874c-2.80096,0.16067 -5.61876,-0.08704 -8.4031,0.46922c-2.78434,0.55626 -5.49753,1.90881 -8.24698,2.85718c-0.16933,0.05841 -0.3393,0.11271 -0.50973,0.16401zM310.16351,153.49289c-0.68653,0.24404 -1.37368,0.4795 -2.06149,0.70619l1.28428,0.74833c0.8766,0.47126 1.5138,1.89801 1.5138,3.58491c0,1.80837 -0.73226,3.31778 -1.70675,3.67159l-0.65707,0.26394c0.09482,-0.02318 0.18965,-0.04663 0.28449,-0.07035c3.35027,-0.8379 6.64848,-1.55822 8.9796,-5.72185c-1.34933,-0.00448 -2.75335,-1.50685 -4.09598,-2.14924c-1.15446,-0.55236 -2.34389,-0.84474 -3.54088,-1.03352zM286.96362,142.97402c5.62349,-1.43193 11.25874,-2.72287 16.88653,-3.9761c0.00728,-0.00162 0.01457,-0.00324 0.02185,-0.00487c-4.61266,0.78458 -9.23257,1.36279 -13.83887,1.78688c-0.18644,0.12904 -0.37265,0.25861 -0.55863,0.3887c-0.84065,0.58805 -1.67766,1.19031 -2.51088,1.80539zM288.95117,133.36856c1.86775,-1.25369 3.75342,-2.41579 5.65809,-3.44899c2.0918,-1.13471 4.18139,-2.26006 6.27404,-3.34813c-0.20395,-0.26527 -0.39275,-0.56118 -0.56358,-0.89131c-2.17365,0.76089 -4.34571,1.53406 -6.5109,2.36013c-4.06835,1.55217 -8.38054,2.88314 -12.35768,5.03446c-0.20416,0.11043 -0.40481,0.24137 -0.60324,0.38512c1.07684,0.10407 2.16261,0.24081 2.83058,0.31757c1.75524,-0.11567 3.51315,-0.251 5.27268,-0.40886zM318.58277,118.94154c1.65443,-0.50991 3.31939,-0.95169 4.99724,-1.31264c0.08662,-0.01863 0.17317,-0.03734 0.25964,-0.0561c0.12637,-0.06331 0.25265,-0.12712 0.37886,-0.19142c-0.32182,0.07649 -0.64378,0.15048 -0.96594,0.22068c-1.56079,0.34014 -3.11723,0.80589 -4.6698,1.33947zM300.16731,269.2223c0.68512,0.13327 1.34986,0.1639 1.97647,0.02555c0.35705,-0.07883 0.59332,-0.73888 0.93144,-0.95428c0.23532,-0.14991 0.47248,-0.29032 0.71112,-0.42282l-0.76466,-0.3819c-0.95316,0.56925 -1.90636,1.13886 -2.85439,1.73345zM330.17801,228.83647c0.45639,-0.03427 0.91757,-0.0306 1.38398,0.015c1.01299,-0.88617 2.0299,-1.75837 3.05485,-2.60191c-1.46979,0.85781 -2.95045,1.73252 -4.43883,2.58691zM304.51108,176.3827c-4.62671,0.49055 -9.23444,1.15459 -13.84214,2.08487c2.07432,0.16409 4.15482,0.3676 6.22408,0.35801c2.52697,-0.93892 5.09982,-1.69459 7.61806,-2.44288zM274.2881,154.24457c-1.44957,0.43307 -2.89834,0.87357 -4.3463,1.32115c2.32425,0.39165 4.67044,1.09397 6.9685,1.23552c-0.9966,-0.55996 -1.9835,-1.35033 -2.6222,-2.55666zM310.3828,145.75044c1.11735,-0.41259 2.23309,-0.84822 3.34737,-1.30599c-1.55397,0.32932 -3.10453,0.72636 -4.65866,1.05286c0.43935,0.07169 0.8766,0.15581 1.31128,0.25313zM332.14708,123.30273c-2.6217,0.30964 -5.21589,1.14808 -7.82393,1.72241c-3.96653,1.86194 -7.99035,3.20329 -12.12264,3.68456c-1.61799,0.63633 -3.23145,1.32673 -4.838,2.06717c8.34537,-1.65872 16.6445,-4.04856 24.78458,-7.47414z" fill-opacity="0.50196" fill="#875c00" stroke="none" stroke-width="0.5" stroke-linecap="butt"></path><path d="M351.14024,240.71768c-4.47652,4.65994 -11.08704,7.2556 -16.75168,10.08771c-0.62181,0.31088 -1.24394,0.61962 -1.86644,0.9262c-0.33455,0.90414 -1.00768,1.64406 -1.86547,2.06586l-5.06127,2.61851c-0.6533,0.4562 -1.40382,0.77278 -2.19279,1.03361c-1.44321,0.66009 -2.89063,1.31387 -4.35366,1.92696c0.65492,0.02015 1.2898,0.14755 1.89136,0.4367c0.06399,0.03076 0.12623,0.06337 0.1868,0.09774v-0.1024h6.0015c2.07107,0 3.75,1.67893 3.75,3.75c0,0.51723 -0.10471,1.01 -0.2941,1.45826c2.64238,-0.04308 5.28564,-0.04225 7.93059,0.04543c1.75393,0.05815 3.49791,0.30266 5.25131,0.37509c1.48228,0.06124 3.09263,-0.57175 4.45055,0.02571c0.14289,0.06287 0.28366,0.12939 0.42248,0.19924l0.02884,-0.11537l2.92465,0.73116c1.66995,0.37897 2.91659,1.87243 2.91659,3.65706c0,1.93054 -1.45882,3.52035 -3.33423,3.72721l-2.95139,0.36892l-0.01361,-0.1089l-0.2185,0.13061c-3.81512,0.00504 -8.97512,-0.79518 -12.76061,-0.04118c-7.02095,1.39845 -13.97995,3.7462 -21.18253,4.57385c-3.48782,0.40079 -14.83402,0.93958 -17.577,-1.39685c-0.36063,-0.30718 -0.63919,-0.63937 -0.84633,-0.99042c-0.38262,0.20424 -0.77495,0.37258 -1.20134,0.42557c-5.50377,0.68398 -11.48112,-1.73439 -16.92436,-2.18863h-2.50903c-2.07107,0 -3.75,-1.67893 -3.75,-3.75c0,-1.65917 1.07752,-3.06667 2.57096,-3.5609l3.82486,-1.36602c-1.69513,-0.69108 -3.13701,-1.89925 -4.04214,-3.95216c-0.81603,-1.85083 1.45534,-3.80529 2.54886,-5.50696c4.10879,-6.39387 10.92295,-11.79521 17.12046,-16.06922c2.45255,-1.69136 4.98221,-3.29558 7.57272,-4.82075c-3.23576,-2.173 -3.66776,-4.13921 -2.80155,-5.80812c-2.199,0.22407 -4.41943,0.47866 -6.35864,-0.41674c-1.89081,-0.87306 -3.98528,-2.44135 -4.92255,-4.34075c-3.86637,0.07679 -7.77276,-0.01459 -11.85852,-0.1141c-2.59764,-0.06725 -5.20756,0.05929 -7.79293,-0.20174c-2.41735,-0.24406 -4.78128,-0.86726 -7.17042,-1.30901c-8.64816,-1.59901 -23.35449,-4.01343 -25.01957,-15.12506c-0.49349,-3.29318 1.15367,-6.69185 2.78882,-9.59268c1.49161,-2.64618 3.83575,-4.81692 6.31944,-6.56576c2.25192,-1.58564 5.06188,-2.17249 7.60209,-3.23681c3.56736,-1.49468 6.33543,-2.43747 9.21,-3.20276c-0.90946,-0.04925 -1.51185,-0.09331 -1.5801,-0.12561c-0.30108,-0.14248 -0.59098,-0.30131 -0.87131,-0.47418l-0.03466,0.05438l-4.9822,-3.17549c-1.07248,-0.65991 -1.78756,-1.84452 -1.78756,-3.19614c0,-1.66415 1.08399,-3.07511 2.58441,-3.56532l6.99037,-2.46664l0.02833,0.0803l0.31986,-0.18448c0.19032,-0.02829 0.38064,-0.0564 0.57095,-0.08434c-0.14013,-0.02842 -0.22064,-0.04526 -0.2321,-0.04868c-2.77969,-0.8278 -5.75402,-1.4745 -8.09808,-3.18252c-1.73973,-1.26766 -3.74316,-2.8569 -4.58314,-4.81606c-4.15731,-0.09405 -8.32996,-0.28077 -12.44032,-0.90619c-2.60356,-0.39615 -5.37893,-0.18569 -7.80871,-1.20137c-0.12341,-0.05159 -0.24612,-0.10453 -0.36816,-0.15877l-0.0138,0.03622l-6.92684,-2.6388c-1.45484,-0.51569 -2.49684,-1.90391 -2.49684,-3.5355c0,-1.53403 0.92111,-2.85292 2.24042,-3.43376l5.55017,-2.59008l0.05475,0.11733l0.36954,-0.28472c5.79786,-1.18945 11.619,-2.27953 17.4563,-3.2922c0.77041,-1.14838 1.72403,-2.20458 2.66495,-3.13311c1.14546,-1.13036 2.68827,-1.69479 4.24691,-2.23356c-4.96007,-0.45865 -9.55332,-2.16576 -9.62205,-8.4273c-0.02432,-2.2159 3.41781,-2.87236 5.37366,-3.9142c6.71058,-3.57458 14.79778,-4.57945 22.10365,-6.28506c4.502,-1.05102 9.02002,-2.02321 13.54461,-2.96423c-0.33143,-0.25256 -0.58906,-0.53361 -0.7646,-0.85208c-0.70552,0.16927 -1.41226,0.26353 -2.1173,0.1426c-0.1126,-0.01931 -0.22485,-0.03997 -0.33677,-0.06191v0.07706h-4.87622c-2.07107,0 -3.75,-1.67893 -3.75,-3.75c0,-1.68671 1.1136,-3.11333 2.64568,-3.58475l2.46137,-0.82085c10.50155,-3.51298 21.2932,-5.89465 32.05632,-8.38567c4.2013,-1.92373 8.62421,-3.39075 13.17337,-4.0835c6.11483,-1.93977 12.31012,-3.70074 18.51858,-4.88504c0.1014,-0.03839 0.20277,-0.0769 0.30411,-0.11554c3.75643,-1.43243 7.48359,-2.95549 11.12045,-4.66893c0.61327,-0.28893 2.12142,-1.13075 3.88498,-2.06487c-2.26831,0.01791 -4.51068,0.09534 -6.65023,0.29918c-8.9413,0.85186 -18.30098,3.76601 -26.6271,7.04218c-3.17237,1.24827 -9.51142,4.21098 -12.46822,6.03727c-1.22518,0.75674 -2.0247,2.26508 -3.41259,2.64911c-2.58909,0.71641 -5.36154,0.34701 -8.0423,0.52051l4.0152,-8.44758c3.46092,-2.40525 6.99106,-4.72988 10.61178,-6.87815c-8.60126,3.89569 -16.89683,8.46809 -24.2863,14.21766c0,0 -2.96007,2.30228 -5.26235,-0.65779c-2.30228,-2.96007 0.65779,-5.26235 0.65779,-5.26235c12.86962,-10.006 28.27301,-16.69057 43.5064,-22.29001c7.41238,-2.72462 15.00496,-5.11012 22.93691,-5.13157c0.90188,-0.00244 5.58627,-0.02193 6.11289,0.10032c4.39097,1.01925 8.20429,4.75887 12.16071,6.72l0.07055,0.08625l0.0205,-0.03588l2.56245,1.46426c1.16358,0.63662 1.95268,1.87217 1.95268,3.29203c0,0.10442 -0.00427,0.20785 -0.01264,0.31011c0.70183,0.68147 1.13792,1.63513 1.13792,2.69064c0,1.42933 -0.79966,2.67188 -1.97601,3.30469l-5.93701,3.33957l-0.02125,-0.03778c-0.07322,0.0546 -0.14678,0.10878 -0.2207,0.16254c-1.42352,1.03518 -3.33101,1.15694 -4.92708,1.89894c-0.60733,0.28234 -1.21277,0.56887 -1.81702,0.85808c0.90151,0.48546 1.77079,1.42167 1.77079,3.22716c0,3.75 -3.75,3.75 -3.75,3.75c-3.11913,0 -6.25655,-0.35834 -9.35737,-0.02087c-2.22656,0.24232 -4.46181,0.59598 -6.69853,1.03439c-0.68343,0.24845 -1.36819,0.49164 -2.05418,0.7299c0.53407,0.64796 0.85483,1.47829 0.85483,2.38354c0,1.50515 -0.88675,2.80318 -2.16632,3.40017l-5.05724,2.49134c4.44795,-0.5559 11.0256,-1.37687 11.11942,-1.38221c2.77344,-0.15778 5.69019,-0.81257 8.33367,0.04118c0.19185,0.06196 0.37936,0.13243 0.56302,0.21046l0.02215,-0.06644l3.29381,1.09794c1.53234,0.47126 2.64618,1.89801 2.64618,3.58491c0,1.08063 -0.45709,2.0545 -1.18847,2.73882c0.53602,0.05356 1.06674,0.14292 1.58973,0.28429c0.09495,0.02567 0.18955,0.05226 0.28383,0.07975l0.00693,-0.03695l5.93593,1.11299c1.77332,0.29776 3.12449,1.84012 3.12449,3.69806c0,1.53977 -0.92802,2.86279 -2.25526,3.44026l-4.79949,2.21515l-0.03607,-0.07816l-0.21355,0.18262c-15.78722,4.72804 -32.04675,7.99266 -48.46629,10.24089c4.20235,-0.37678 8.41304,-0.6207 12.63769,-0.62097c2.56552,-0.00017 5.19555,-0.56655 7.69655,0.00515c0.0644,0.01472 0.12869,0.02977 0.19289,0.04513l0.00312,-0.02968l7.08374,0.74566c1.90719,0.17628 3.40047,1.78072 3.40047,3.73393c0,1.75792 -1.2096,3.23332 -2.8419,3.6393l-3.9937,1.08919c-4.57137,1.44311 -9.14968,2.78297 -13.73908,4.00857c2.60487,1.05929 4.9202,2.58606 5.83634,4.99125c0.72339,1.89916 -1.40115,3.8154 -2.10173,5.7231c-1.44738,1.55966 -2.65344,3.38448 -4.34214,4.67899c-0.99428,0.76219 -2.33079,0.92089 -3.51104,1.34106c-1.75988,0.62653 -3.54458,1.19858 -5.3485,1.70203c2.51231,-0.09337 5.02534,-0.16668 7.53894,-0.1658c2.56212,0.00089 5.21752,-0.6804 7.68637,0.00463c0.06093,0.01691 0.12161,0.03441 0.18206,0.05248l0.00385,-0.03859l4.06776,0.40583c1.91599,0.16762 3.4189,1.77609 3.4189,3.73558c0,2.02093 -1.59863,3.66849 -3.60031,3.74707l-7.47185,0.33932l-0.00123,-0.02706l-0.08381,0.02996c-0.69394,0.00009 -1.38787,0.00017 -2.08181,0.00025c0.31983,0.55206 0.50291,1.19321 0.50291,1.87713c0,0.7538 -0.22241,1.45566 -0.60519,2.04352c3.98162,0.91151 11.82601,6.00609 12.91452,6.61894c-1.73634,2.32621 -2.93536,5.17403 -5.20902,6.97864c-1.6783,1.33207 -4.06662,1.35202 -6.10784,2.00359c-2.47848,0.79115 -4.91338,1.75022 -7.4509,2.32448c-12.14032,2.74744 -24.84738,2.58883 -37.21386,2.49032c-4.38286,-0.03491 -12.24292,0.37311 -16.29989,-1.75044c-2.18088,-1.14154 -5.28512,-2.65371 -5.92533,-4.89411c-3.46201,1.15623 -6.94865,2.30888 -9.98837,4.28293c-4.19612,2.72503 -8.63823,8.84405 -3.05018,12.76223c1.7541,1.22992 3.99832,1.54053 5.98479,2.34273c7.52462,3.03866 15.84486,3.80837 23.90228,3.99184c5.89969,0.1441 11.51239,0.35611 17.17501,-0.07328c1.86906,-0.92416 3.71905,-1.52876 4.78885,-1.51818c0.12462,0.00123 0.24908,0.00398 0.37341,0.00816l-0.00901,-0.07211l5.94282,-0.74285c0.17117,-0.02392 0.34605,-0.03629 0.52381,-0.03629c2.07107,0 3.75,1.67893 3.75,3.75c0,1.22975 -0.59194,2.32124 -1.50643,3.00509c3.00963,-0.25479 6.01266,-0.59684 9.00423,-1.00336l0.21247,0.06949l-0.00184,-0.08025l4.94588,-0.11327c0.03317,-0.00087 0.06644,-0.0013 0.09982,-0.0013c2.04451,0 3.70688,1.63615 3.74917,3.67053c5.3883,-2.18919 10.83008,-4.17199 16.21024,-6.00574c3.26335,-1.11227 11.95616,-4.44995 15.48833,-4.03676c0.1747,0.02044 0.34783,0.04679 0.51951,0.07853l0.00616,-0.06776l4.08795,0.37163c1.93012,0.15351 3.44857,1.76846 3.44857,3.73806c0,1.49701 -0.87719,2.78914 -2.14561,3.39043l-4.42846,2.21423l-0.04687,-0.09374l-0.23128,0.21894c-0.67886,0.21288 -1.35946,0.42951 -2.04171,0.64917c2.02141,0.05684 3.64262,1.71334 3.64262,3.74849c0,1.15712 -0.52408,2.19183 -1.34782,2.87971l-3.34494,2.83034c0.67189,2.15934 -0.40561,4.21275 -2.80251,6.70786zM320.56322,248.07804l0.00879,0.05715l-4.80952,0.73993c-0.20701,0.03542 -0.41981,0.05387 -0.63691,0.05387c-2.07107,0 -3.75,-1.67893 -3.75,-3.75c0,-1.19717 0.561,-2.26332 1.43444,-2.9499l3.72389,-2.97911l0.06514,0.08143l0.17019,-0.25509c1.90464,-1.09163 3.80928,-2.18327 5.71392,-3.2749c1.66953,-0.9223 3.34833,-1.82897 5.04635,-2.66793c-3.03873,0.75222 -6.08179,1.38557 -9.12066,1.84278c-2.77906,1.31089 -5.53793,2.68801 -8.28085,4.13983c-6.53075,3.45671 -12.46639,7.19575 -18.18892,11.8422c-1.83714,1.49168 -3.85575,2.7816 -5.52188,4.46214c-1.027,1.03588 -1.77636,2.32936 -2.62472,3.52552c2.79393,-0.18344 5.63785,0.14327 8.41524,-0.23993c3.94202,-0.54388 7.78136,-1.3093 11.57633,-2.2748c5.7794,-2.16384 11.40872,-4.76526 17.00559,-7.34957c-0.0242,-0.17213 -0.03672,-0.34802 -0.03672,-0.52682c0,-0.16642 0.01084,-0.33031 0.03185,-0.491c-0.07387,0.00554 -0.14772,0.01027 -0.22156,0.01421zM269.88313,191.14773c-0.62769,0.2864 -1.26176,0.55334 -1.92838,0.77927c1.80759,0.2532 3.56962,0.87839 5.39131,1.03569c4.52285,0.39055 9.0793,0.11872 13.61881,0.07931c9.66386,-0.0839 19.5673,-0.20506 29.04814,-2.35064c1.88697,-0.42704 4.65735,-1.83446 7.33051,-2.63254c-0.56508,-0.28393 -1.1141,-0.63584 -1.73118,-0.70023c-7.00645,-0.73113 -14.70337,0.06805 -21.73309,0.29874c-4.8962,0.16067 -9.82185,-0.08704 -14.689,0.46922c-4.86715,0.55626 -9.60993,1.90881 -14.41608,2.85718c-0.296,0.05841 -0.59311,0.11271 -0.89104,0.16401zM307.08538,153.49289c-1.20009,0.24404 -2.40126,0.4795 -3.60358,0.70619l2.24498,0.74833c1.53234,0.47126 2.64618,1.89801 2.64618,3.58491c0,1.80837 -1.28003,3.31778 -2.98347,3.67159l-1.14859,0.26394c0.16575,-0.02318 0.33152,-0.04663 0.49731,-0.07035c5.85642,-0.8379 11.62185,-1.55822 15.69675,-5.72185c-2.35869,-0.00448 -4.81297,-1.50685 -7.15995,-2.14924c-2.01805,-0.55236 -4.09723,-0.84474 -6.18962,-1.03352zM266.53093,142.97402c9.83012,-1.43193 19.68078,-2.72287 29.5184,-3.9761c0.01273,-0.00162 0.02547,-0.00324 0.0382,-0.00487c-8.06313,0.78458 -16.13895,1.36279 -24.19097,1.78688c-0.32591,0.12904 -0.65141,0.25861 -0.9765,0.3887c-1.46949,0.58805 -2.93262,1.19031 -4.38913,1.80539zM270.00525,133.36856c3.26492,-1.25369 6.56116,-2.41579 9.8906,-3.44899c3.65656,-1.13471 7.30925,-2.26006 10.9673,-3.34813c-0.35651,-0.26527 -0.68654,-0.56118 -0.98515,-0.89131c-3.79964,0.76089 -7.59651,1.53406 -11.38135,2.36013c-7.11165,1.55217 -14.64955,2.88314 -21.60178,5.03446c-0.35687,0.11043 -0.70763,0.24137 -1.0545,0.38512c1.88237,0.10407 3.78035,0.24081 4.94799,0.31757c3.06823,-0.11567 6.14114,-0.251 9.21689,-0.40886zM321.80262,118.94154c2.89203,-0.50991 5.80243,-0.95169 8.7354,-1.31264c0.15142,-0.01863 0.30271,-0.03734 0.45387,-0.0561c0.22089,-0.06331 0.44164,-0.12712 0.66226,-0.19142c-0.56255,0.07649 -1.12534,0.15048 -1.6885,0.22068c-2.72833,0.34014 -5.44907,0.80589 -8.16303,1.33947zM289.61157,269.2223c1.19762,0.13327 2.35963,0.1639 3.45497,0.02555c0.62413,-0.07883 1.03716,-0.73888 1.62821,-0.95428c0.41136,-0.14991 0.82592,-0.29032 1.24307,-0.42282l-1.33665,-0.3819c-1.66617,0.56925 -3.3324,1.13886 -4.98961,1.73345zM342.07162,228.83647c0.79779,-0.03427 1.60396,-0.0306 2.41926,0.015c1.77074,-0.88617 3.54835,-1.75837 5.34001,-2.60191c-2.56925,0.85781 -5.15752,1.73252 -7.75927,2.58691zM297.20469,176.3827c-8.08769,0.49055 -16.14223,1.15459 -24.19669,2.08487c3.62601,0.16409 7.26281,0.3676 10.87997,0.35801c4.41726,-0.93892 8.91472,-1.69459 13.31672,-2.44288zM244.37355,154.24457c-2.53391,0.43307 -5.06643,0.87357 -7.59753,1.32115c4.06289,0.39165 8.16414,1.09397 12.18124,1.23552c-1.74209,-0.55996 -3.46723,-1.35033 -4.58371,-2.55666zM307.46871,145.75044c1.95319,-0.41259 3.90353,-0.84822 5.85136,-1.30599c-2.7164,0.32932 -5.42687,0.72636 -8.14355,1.05286c0.76801,0.07169 1.53234,0.15581 2.29219,0.25313zM345.51365,123.30273c-4.58285,0.30964 -9.1176,1.14808 -13.67658,1.72241c-6.93367,1.86194 -13.9675,3.20329 -21.19093,3.68456c-2.82832,0.63633 -5.64872,1.32673 -8.45704,2.06717c14.58809,-1.65872 29.09533,-4.04856 43.32455,-7.47414z" fill-opacity="0.20392" fill="#875c00" stroke="none" stroke-width="0.5" stroke-linecap="butt"></path></g></g></svg>