<svg version="1.1" xmlns="http://www.w3.org/2000/svg" xmlns:xlink="http://www.w3.org/1999/xlink" width="1152.90807" height="576.42427" viewBox="0,0,1152.90807,576.42427"><g transform="translate(95.39167,0.93991)"><g stroke="none" stroke-width="0" stroke-miterlimit="10"><path d="M480.00633,575.48436v-575.20658h575.20657v575.20658z" fill="#2f0040"></path><g fill="#e000ff"><path d="M911.11621,96.2486v-48.00207h48.00484v48.00207z"></path><path d="M815.12721,96.2486v-48.00207h48.00485v48.00207z"></path><path d="M719.11751,96.2486v-48.00207h48.00484v48.00207z"></path><path d="M623.10781,96.2486v-48.00207h48.00485v48.00207z"></path><path d="M527.09813,96.2486v-48.00207h48.00485v48.00207z"></path><path d="M863.14468,48.27985v-48.00207h48.00485v48.00207z"></path><path d="M767.15568,48.27985v-48.00207h48.00485v48.00207z"></path><path d="M671.14598,48.27985v-48.00207h48.00485v48.00207z"></path><path d="M575.1363,48.27985v-48.00207h48.00485v48.00207z"></path><path d="M479.80879,48.27985v-48.00207h48.00484v48.00207z"></path><path d="M912.05435,192.31684v-48.00207h48.00484v48.00207z"></path><path d="M816.06535,192.31684v-48.00207h48.00485v48.00207z"></path><path d="M720.05565,192.31684v-48.00207h48.00484v48.00207z"></path><path d="M623.10781,192.31684v-48.00207h48.00485v48.00207z"></path><path d="M528.03628,192.31684v-48.00207h48.00485v48.00207z"></path><path d="M863.14468,144.34809v-48.00207h48.00485v48.00207z"></path><path d="M767.15568,144.34809v-48.00207h48.00485v48.00207z"></path><path d="M672.08412,144.34809v-48.00207h48.00485v48.00207z"></path><path d="M575.1363,144.34809v-48.00207h48.00485v48.00207z"></path><path d="M480.06475,144.34809v-48.00207h48.00484v48.00207z"></path><path d="M912.05435,288.34603v-48.00207h48.00484v48.00207z"></path><path d="M816.06535,288.34603v-48.00207h48.00485v48.00207z"></path><path d="M719.11751,288.34603v-48.00207h48.00484v48.00207z"></path><path d="M624.04597,288.34603v-48.00207h48.00485v48.00207z"></path><path d="M528.03628,288.34603v-48.00207h48.00485v48.00207z"></path><path d="M864.08282,240.37728v-48.00207h48.00485v48.00207z"></path><path d="M768.09382,240.37728v-48.00207h48.00485v48.00207z"></path><path d="M671.14598,240.37728v-48.00207h48.00485v48.00207z"></path><path d="M576.07444,240.37728v-48.00207h48.00485v48.00207z"></path><path d="M480.06475,240.37728v-48.00207h48.00484v48.00207z"></path><path d="M912.05435,384.41426v-48.00207h48.00484v48.00207z"></path><path d="M815.12721,384.41426v-48.00207h48.00485v48.00207z"></path><path d="M720.05565,384.41426v-48.00207h48.00484v48.00207z"></path><path d="M624.04597,384.41426v-48.00207h48.00485v48.00207z"></path><path d="M528.03628,384.41426v-48.00207h48.00485v48.00207z"></path><path d="M864.08282,336.44551v-48.00207h48.00485v48.00207z"></path><path d="M767.15568,336.44551v-48.00207h48.00485v48.00207z"></path><path d="M672.08412,336.44551v-48.00207h48.00485v48.00207z"></path><path d="M576.07444,336.44551v-48.00207h48.00485v48.00207z"></path><path d="M480.06475,336.44551v-48.00207h48.00484v48.00207z"></path><path d="M1007.22582,96.2486v-48.00207h48.00484v48.00207z"></path><path d="M959.2543,48.27985v-48.00207h48.00485v48.00207z"></path><path d="M1008.16396,192.31684v-48.00207h48.00484v48.00207z"></path><path d="M959.2543,144.34809v-48.00207h48.00485v48.00207z"></path><path d="M1008.16396,288.34603v-48.00207h48.00484v48.00207z"></path><path d="M960.19244,240.37728v-48.00207h48.00484v48.00207z"></path><path d="M1008.16396,384.41426v-48.00207h48.00484v48.00207z"></path><path d="M960.19244,336.44551v-48.00207h48.00484v48.00207z"></path><path d="M912.05435,480.37519v-48.00207h48.00484v48.00207z"></path><path d="M816.06535,480.37519v-48.00207h48.00485v48.00207z"></path><path d="M720.05565,480.37519v-48.00207h48.00484v48.00207z"></path><path d="M624.04597,480.37519v-48.00207h48.00485v48.00207z"></path><path d="M528.03628,480.37519v-48.00207h48.00485v48.00207z"></path><path d="M863.14468,432.40644v-48.00207h48.00485v48.00207z"></path><path d="M768.09382,432.40644v-48.00207h48.00485v48.00207z"></path><path d="M672.08412,432.40644v-48.00207h48.00485v48.00207z"></path><path d="M576.07444,432.40644v-48.00207h48.00485v48.00207z"></path><path d="M480.06475,432.40644v-48.00207h48.00484v48.00207z"></path><path d="M1008.16396,480.37519v-48.00207h48.00484v48.00207z"></path><path d="M960.19244,432.40644v-48.00207h48.00484v48.00207z"></path></g><path d="M-95.04059,575.48435v-575.20657h575.20657v575.20657z" fill="#2f0040"></path><g fill="#e000ff"><path d="M336.06931,96.2486v-48.00207h48.00484v48.00207z"></path><path d="M240.0803,96.2486v-48.00207h48.00485v48.00207z"></path><path d="M144.07061,96.2486v-48.00207h48.00484v48.00207z"></path><path d="M48.06092,96.2486v-48.00207h48.00485v48.00207z"></path><path d="M-47.94876,96.2486v-48.00207h48.00485v48.00207z"></path><path d="M288.09776,48.27985v-48.00207h48.00484v48.00207z"></path><path d="M192.10877,48.27985v-48.00207h48.00485v48.00207z"></path><path d="M96.09908,48.27985v-48.00207h48.00485v48.00207z"></path><path d="M0.08939,48.27985v-48.00207h48.00485v48.00207z"></path><path d="M-95.23812,48.27985v-48.00207h48.00485v48.00207z"></path><path d="M337.00744,192.31684v-48.00207h48.00484v48.00207z"></path><path d="M241.01845,192.31684v-48.00207h48.00484v48.00207z"></path><path d="M145.00875,192.31684v-48.00207h48.00484v48.00207z"></path><path d="M48.06092,192.31684v-48.00207h48.00485v48.00207z"></path><path d="M-47.01062,192.31684v-48.00207h48.00485v48.00207z"></path><path d="M288.09776,144.34809v-48.00207h48.00484v48.00207z"></path><path d="M192.10877,144.34809v-48.00207h48.00485v48.00207z"></path><path d="M97.03722,144.34809v-48.00207h48.00485v48.00207z"></path><path d="M0.08939,144.34809v-48.00207h48.00485v48.00207z"></path><path d="M-94.98215,144.34809v-48.00207h48.00485v48.00207z"></path><path d="M337.00744,288.34603v-48.00207h48.00484v48.00207z"></path><path d="M241.01845,288.34603v-48.00207h48.00484v48.00207z"></path><path d="M144.07061,288.34603v-48.00207h48.00484v48.00207z"></path><path d="M48.99906,288.34603v-48.00207h48.00485v48.00207z"></path><path d="M-47.01062,288.34603v-48.00207h48.00485v48.00207z"></path><path d="M289.03592,240.37728v-48.00207h48.00484v48.00207z"></path><path d="M193.04691,240.37728v-48.00207h48.00485v48.00207z"></path><path d="M96.09908,240.37728v-48.00207h48.00485v48.00207z"></path><path d="M1.02753,240.37728v-48.00207h48.00485v48.00207z"></path><path d="M-94.98215,240.37728v-48.00207h48.00485v48.00207z"></path><path d="M337.00744,384.41426v-48.00207h48.00484v48.00207z"></path><path d="M240.0803,384.41426v-48.00207h48.00485v48.00207z"></path><path d="M145.00875,384.41426v-48.00207h48.00484v48.00207z"></path><path d="M48.99906,384.41426v-48.00207h48.00485v48.00207z"></path><path d="M-47.01062,384.41426v-48.00207h48.00485v48.00207z"></path><path d="M289.03592,336.44551v-48.00207h48.00484v48.00207z"></path><path d="M192.10877,336.44551v-48.00207h48.00485v48.00207z"></path><path d="M97.03722,336.44551v-48.00207h48.00485v48.00207z"></path><path d="M1.02753,336.44551v-48.00207h48.00485v48.00207z"></path><path d="M-94.98215,336.44551v-48.00207h48.00485v48.00207z"></path><path d="M432.17891,96.2486v-48.00207h48.00485v48.00207z"></path><path d="M384.20739,48.27985v-48.00207h48.00485v48.00207z"></path><path d="M433.11706,192.31684v-48.00207h48.00484v48.00207z"></path><path d="M384.20739,144.34809v-48.00207h48.00485v48.00207z"></path><path d="M433.11706,288.34603v-48.00207h48.00484v48.00207z"></path><path d="M385.14554,240.37728v-48.00207h48.00484v48.00207z"></path><path d="M433.11706,384.41426v-48.00207h48.00484v48.00207z"></path><path d="M385.14554,336.44551v-48.00207h48.00484v48.00207z"></path><path d="M337.00744,480.37519v-48.00207h48.00484v48.00207z"></path><path d="M241.01845,480.37519v-48.00207h48.00484v48.00207z"></path><path d="M145.00875,480.37519v-48.00207h48.00484v48.00207z"></path><path d="M48.99906,480.37519v-48.00207h48.00485v48.00207z"></path><path d="M-47.01062,480.37519v-48.00207h48.00485v48.00207z"></path><path d="M288.09776,432.40644v-48.00207h48.00484v48.00207z"></path><path d="M193.04691,432.40644v-48.00207h48.00485v48.00207z"></path><path d="M97.03722,432.40644v-48.00207h48.00485v48.00207z"></path><path d="M1.02753,432.40644v-48.00207h48.00485v48.00207z"></path><path d="M-94.98215,432.40644v-48.00207h48.00485v48.00207z"></path><path d="M433.11706,480.37519v-48.00207h48.00484v48.00207z"></path><path d="M385.14554,432.40644v-48.00207h48.00484v48.00207z"></path></g><g fill-opacity="0.1451" fill="#dec100"><path d="M480.59333,534.70737v-535.64728h576.92308v535.64728z"></path><path d="M-95.39167,534.70737v-535.64728h576.92308v535.64728z"></path></g></g></g></svg>