<svg version="1.1" xmlns="http://www.w3.org/2000/svg" xmlns:xlink="http://www.w3.org/1999/xlink" width="121.8513" height="199.80766" viewBox="0,0,121.8513,199.80766"><g transform="translate(-210.67911,-79.94563)"><g stroke-miterlimit="10"><path d="M305.36388,220.82498c-0.04117,-6.05401 4.8332,-10.96175 10.8872,-10.96175c6.05401,0 10.99513,4.90775 11.0363,10.96175c0.04117,6.05401 -4.8332,10.96175 -10.8872,10.96175c-6.05401,0 -10.99513,-4.90775 -11.0363,-10.96175z" fill="#d6aa6c" stroke="#804a0f" stroke-width="2.5" stroke-linecap="butt"></path><path d="M283.55158,260.44279c13.03151,0 28.45207,3.79846 28.50205,11.14755c0.04745,6.9775 -6.4312,6.68852 -19.46271,6.68852c-13.03151,0 -22.47639,0.66056 -22.52384,-6.31694c-0.04745,-6.9775 0.45299,-11.51913 13.4845,-11.51913z" fill="#c7bed6" stroke="#5f5775" stroke-width="2.5" stroke-linecap="butt"></path><path d="M270.61476,272.16961c0.04745,6.9775 -9.40641,6.31694 -22.43792,6.31694c-13.03151,0 -19.50623,0.28897 -19.55369,-6.68853c-0.04998,-7.34909 15.31892,-11.14754 28.35043,-11.14754c13.03151,0 13.59374,4.54163 13.64119,11.51913z" fill="#f1f2ff" stroke="#5f5775" stroke-width="2.5" stroke-linecap="butt"></path><g stroke-linecap="butt"><path d="M264.21926,193.70145c-9.96739,0 -25.37003,-3.83015 -25.20195,-11.40093c0.06116,-2.75463 -5.24649,-5.91505 -5.26101,-8.05116c-0.05052,-7.42938 12.27835,-9.20209 26.2681,-9.20209c13.98975,0 34.1948,-2.95843 34.29397,11.624c0.09917,14.58242 -16.10935,17.03018 -30.0991,17.03018z" fill="#c23200" stroke="#490012" stroke-width="2.5"></path><path d="M286.10223,171.87625c0.00563,0.82843 -9.22393,1.5 -20.6148,1.5c-11.39087,0 -25.62787,-0.42157 -25.6335,-1.25c-0.00563,-0.82843 8.21883,-2.25 19.6097,-2.25c11.39087,0 26.63297,1.17157 26.6386,2z" fill="#670000" stroke="none" stroke-width="0"></path></g><g stroke="#12002b" stroke-width="2.5" stroke-linecap="butt"><path d="M272.57959,262.9819l-0.65461,-41.6175h17.83607l9.19348,40.50275z" fill="#0d0b3e"></path><path d="M271.34751,264.19704l-1.16418,-8.59553l29.83469,-2.94862l1.18187,11.19553z" fill="#5a5e90"></path></g><g stroke="#12002b" stroke-width="2.5" stroke-linecap="butt"><path d="M244.16355,262.06931l8.6426,-40.50275h17.83607l-0.08856,41.6175z" fill="#313663"></path><path d="M241.2377,263.59842l1.02959,-11.19553l29.87479,2.94862l-1.04728,8.59553z" fill="#7b7fa8"></path></g><path d="M244.37341,161.45832c-3.92866,-2.80725 -1.85028,-27 -1.85028,-27l68.6712,0.66666c0,0 -6.88671,18.23179 -16.83905,23.66666c-9.95234,5.43487 -30.78217,6.34084 -37.9604,6.25876c-3.1034,-0.03548 -4.37968,-6.74291 -4.37968,-6.74291c0,0 -6.56921,3.91724 -7.6418,3.15082z" fill="#683318" stroke="#45180a" stroke-width="2.5" stroke-linecap="butt"></path><g><g><path d="M248.86506,226.21168c0,0 -3.28655,-50.48471 -0.35707,-54.51397c2.87398,-3.95293 14.33822,-3.65123 25.50448,-3.73344c10.56762,-0.07781 20.90183,-0.69078 22.28299,1.00393c4.39346,5.39088 -2.03655,58.50548 -2.03655,58.50548z" fill="#ffb400" stroke="#651f00" stroke-width="2.5" stroke-linecap="butt"></path><path d="M269.04834,181.82325l0.14555,21.4024" fill="none" stroke="#ffffff" stroke-width="3" stroke-linecap="round"></path><path d="M277.98301,181.0105l0.88092,10.02391" fill="none" stroke="#ffffff" stroke-width="2.5" stroke-linecap="round"></path><path d="M248.58573,184.39775c0,0 -1.05375,-11.54907 2.54359,-13.50722c2.4416,-1.32904 12.92968,-1.83574 23.21951,-1.99041c10.09103,-0.15167 19.99775,0.02884 21.30089,0.74571c1.02015,0.56119 0.7247,8.53342 0.7247,8.53342z" fill="#df7b00" stroke="none" stroke-width="0" stroke-linecap="butt"></path><path d="M284.48505,181.01049l-21.13516,-0.54183" fill="none" stroke="#ffffff" stroke-width="2.5" stroke-linecap="round"></path></g><path d="M256.02695,222.94143c0,0 1.20829,-5.4689 1.22862,-8.14904c0.02054,-2.70791 -1.10596,-8.01596 -1.10596,-8.01596l34.66647,0.49875c0,0 1.45918,5.38029 1.43874,8.07285c-0.02046,2.69577 -1.5614,8.09215 -1.5614,8.09215z" fill="#ffb400" stroke="#651f00" stroke-width="1.5" stroke-linecap="butt"></path></g><path d="M265.97966,173.34166l-3.1563,-14.33334l21.00113,0.16666l-3.39499,14.00001c0,0 -4.27013,1.39474 -6.59054,1.34041c-2.42116,-0.05668 -7.8593,-1.17374 -7.8593,-1.17374z" fill="#d6aa6c" stroke="#804a0f" stroke-width="2.5" stroke-linecap="butt"></path><g><g stroke-linecap="butt"><g stroke="#804a0f" stroke-width="2.5"><path d="M291.79407,137.83841c-0.04187,-6.15662 4.91512,-11.14755 11.07174,-11.14755c6.15662,0 11.18148,4.99093 11.22335,11.14755c0.04187,6.15662 -4.91512,11.14754 -11.07173,11.14754c-6.15662,0 -11.18149,-4.99092 -11.22336,-11.14754z" fill="#d6aa6c"></path><g fill="#ffe4b7"><path d="M237.36953,129.5821c-0.13677,-20.11162 16.05604,-36.41531 36.16766,-36.41531c20.11162,0 36.52618,16.30369 36.66296,36.41531c0.13677,20.11162 -16.05604,36.41531 -36.16766,36.41531c-20.11162,0 -36.52618,-16.30369 -36.66296,-36.41531z"></path><path d="M225.48654,138.41212c-0.04187,-6.15662 4.91512,-11.14754 11.07173,-11.14754c6.15662,0 11.18148,4.99093 11.22335,11.14754c0.04187,6.15662 -4.91512,11.14754 -11.07173,11.14754c-6.15662,0 -11.18148,-4.99093 -11.22335,-11.14754z"></path></g></g><path d="M245.99557,142.22722l9.43067,-17.81542l53.05343,-0.52341c0,0 0.50038,6.20627 0.24824,9.33842c-0.2553,3.17132 -1.77068,9.57344 -1.77068,9.57344c0,0 -16.609,-7.47454 -23.2504,-7.09481c-6.93279,0.39638 -37.71125,6.52179 -37.71125,6.52179z" fill="#d6aa6c" stroke="none" stroke-width="0"></path></g><g fill="none" stroke="#d6aa6c" stroke-width="0.5" stroke-linecap="round"><path d="M238.27032,140.69641l-4.88726,-4.42857"></path><path d="M238.10124,136.83926l-4.5452,3.85714"></path></g></g><g stroke-linecap="butt"><g stroke="#45180a"><path d="M270.60296,87.62786c11.50902,-1.33299 49.19329,-6.13115 49.19329,-6.13115l-10.88163,19.68979l21.95505,8.19265c0,0 -3.28316,7.74205 -8.33929,10.49598c-1.79663,0.97857 -5.81708,3.18525 -5.81708,3.18525l-6.8629,12.43298c0,0 0.07114,-12.83172 -0.66953,-12.67817c-15.77329,3.26992 -37.0058,2.57515 -39.43744,2.34275c-3.88465,0.42717 -12.47127,-0.1447 -12.47127,-0.1447l-11.91185,19.57838c0,0 -11.90309,-19.85616 -10.04028,-27.05117c4.20067,-16.22492 19.24158,-28.05466 35.28293,-29.91259z" fill="#865b00" stroke-width="2.5"></path><path d="M284.64901,103.47167l32.91127,-20.4l-10.27351,18.6c0,0 -8.49583,1.59144 -12.90979,1.88971c-4.46472,0.3017 -9.72797,-0.08971 -9.72797,-0.08971z" fill="#683318" stroke-width="0"></path><path d="M256.83597,123.605l-11.51323,18.41676l6.16472,-25.55009c0,0 26.97277,1.65758 44.13023,0.28013c17.15745,-1.37745 33.92716,-6.54679 33.92716,-6.54679c0,0 -3.31022,5.40732 -5.50421,7.37699c-2.10975,1.89404 -7.9152,4.47301 -7.9152,4.47301l-4.79156,8.51284c0,0 0.11464,-8.08843 -1.61381,-8.59429c-2.70449,-0.79151 -12.53184,2.21158 -23.86411,2.49493c-14.00114,0.35007 -29.01999,-0.86348 -29.01999,-0.86348z" fill="#683318" stroke-width="0"></path></g><g fill="#f5c827" stroke="#000000" stroke-width="0"><path d="M264.0731,103.93296c-1.44478,4.45665 -5.56247,7.09642 -9.19712,5.89611c-3.63465,-1.20032 -5.40989,-5.78619 -3.96511,-10.24284c1.44478,-4.45665 5.56247,-7.09642 9.19712,-5.89611c3.63465,1.20032 5.40989,5.78619 3.96511,10.24284z"></path><path d="M271.72911,98.57052c-0.79954,2.46631 -3.07827,3.92716 -5.08969,3.26291c-2.01142,-0.66426 -2.99384,-3.20208 -2.1943,-5.66839c0.79954,-2.46631 3.07827,-3.92717 5.08969,-3.26291c2.01142,0.66426 2.99384,3.20208 2.1943,5.6684z"></path><path d="M245.41148,114.75362c-0.0741,1.99246 -1.1783,3.39282 -2.46629,3.12778c-1.28799,-0.26504 -2.27204,-2.0951 -2.19794,-4.08756c0.0741,-1.99246 1.1783,-3.39282 2.46629,-3.12778c1.28799,0.26504 2.27204,2.0951 2.19794,4.08756z"></path><path d="M280.8446,95.46433c-0.0741,1.99246 -1.17831,3.39281 -2.46629,3.12778c-1.28799,-0.26503 -2.27204,-2.0951 -2.19794,-4.08756c0.0741,-1.99246 1.1783,-3.39282 2.46629,-3.12778c1.28798,0.26503 2.27204,2.09511 2.19794,4.08756z"></path><path d="M251.88824,107.0728c0.77175,2.73865 -0.01837,5.34883 -1.76479,5.83c-1.74643,0.48117 -3.78781,-1.34889 -4.55957,-4.08754c-0.77175,-2.73865 0.01837,-5.34883 1.76479,-5.83c1.74643,-0.48117 3.78781,1.34889 4.55957,4.08754z"></path></g></g><path d="M211.9294,221.21296c-0.04606,-6.77228 5.40663,-12.2623 12.17891,-12.2623c6.77228,0 12.29964,5.49002 12.34569,12.2623c0.04606,6.77228 -5.40663,12.2623 -12.17891,12.2623c-6.77228,0 -12.29964,-5.49002 -12.34569,-12.2623z" fill="#ffe4b7" stroke="#804a0f" stroke-width="2.5" stroke-linecap="butt"></path><path d="M265.03917,135.94136c-1.4958,-0.10625 -3.70083,-0.40451 -4.76529,-1.59414c-0.77437,0.36073 -1.56331,0.70661 -2.42399,0.96142c-0.08492,0.04487 -0.17475,0.08178 -0.26849,0.10974c-0.13553,0.04041 -0.27923,0.06212 -0.42815,0.06212c-0.82843,0 -1.50457,-0.67157 -1.5102,-1.5c-0.00384,-0.56428 0.3044,-1.05578 0.76316,-1.31185c3.64532,-3.94739 17.47629,-3.43444 19.59457,-2.64381c1.51371,0.56498 7.91174,3.3157 3.53906,4.88055c-0.54946,0.19663 -1.82302,-0.5004 -3.09401,-1.19989c-1.67726,3.33158 -7.95834,2.4808 -11.40665,2.23586z" fill="#000000" stroke="none" stroke-width="0.5" stroke-linecap="butt"></path><path d="M293.26045,133.41328c-1.26147,0.69949 -2.52555,1.39652 -3.07769,1.19989c-4.39396,-1.56485 1.96665,-4.31557 3.47268,-4.88055c2.10751,-0.79063 15.93151,-1.30358 19.63053,2.64381c0.46224,0.25607 0.77716,0.74757 0.781,1.31185c0.00563,0.82843 -0.66138,1.5 -1.4898,1.5c-0.14893,0 -0.29293,-0.0217 -0.429,-0.06212c-0.09412,-0.02795 -0.18445,-0.06486 -0.26998,-0.10974c-0.86414,-0.25482 -1.65781,-0.6007 -2.43708,-0.96142c-1.04828,1.18963 -3.24925,1.48789 -4.7436,1.59413c-3.44497,0.24495 -9.71449,1.09572 -11.43707,-2.23586z" fill="#000000" stroke="none" stroke-width="0.5" stroke-linecap="butt"></path><path d="M272.87687,147.00474c6.5371,0.68951 13.00299,1.32662 19.61612,1.25601c1.71213,-0.01828 6.90758,-1.56238 5.85647,1.65666c-0.49173,1.50591 -4.93494,1.34045 -5.72946,1.34334c-7.71417,0.028 -15.87972,-0.28349 -23.48573,-1.78747c-1.99587,-0.39465 -5.86126,-0.58402 -7.47765,-1.96146c-2.92861,-2.49569 3.16288,-6.29105 4.19928,-4.49869c0.44388,0.26093 0.74375,0.74219 0.74749,1.29272c0.00226,0.33275 -0.104,0.6402 -0.28564,0.88898c-0.02771,1.82915 4.37608,1.57965 6.55914,1.80991z" fill="#000000" stroke="none" stroke-width="0.5" stroke-linecap="butt"></path></g></g></svg>