<svg version="1.1" xmlns="http://www.w3.org/2000/svg" xmlns:xlink="http://www.w3.org/1999/xlink" width="119.93866" height="199.80938" viewBox="0,0,119.93866,199.80938"><g transform="translate(-181.57912,-99.80273)"><g stroke-miterlimit="10"><path d="M251.50499,280.30161c13.03151,0 28.42624,3.79846 28.42624,11.14755c0,6.9775 -6.47669,6.68852 -19.5082,6.68852c-13.03151,0 -22.48088,0.66056 -22.48088,-6.31694c0,-6.9775 0.53133,-11.51913 13.56284,-11.51913z" fill="#c7bed6" stroke="#5f5775" stroke-width="2.5" stroke-linecap="butt"></path><path d="M238.48842,292.02843c0,6.9775 -9.44937,6.31694 -22.48088,6.31694c-13.03151,0 -19.5082,0.28897 -19.5082,-6.68853c0,-7.34909 15.39473,-11.14754 28.42624,-11.14754c13.03151,0 13.56285,4.54163 13.56285,11.51913z" fill="#f1f2ff" stroke="#5f5775" stroke-width="2.5" stroke-linecap="butt"></path><g stroke-linecap="butt"><path d="M232.62655,213.56027c-9.96739,0 -25.34398,-3.83015 -25.12442,-11.40093c0.07989,-2.75463 -5.20626,-5.91505 -5.20626,-8.05116c0,-7.42938 12.34093,-9.20209 26.33068,-9.20209c13.98975,0 34.21492,-2.95843 34.21492,11.624c0,14.58242 -16.22517,17.03018 -30.21492,17.03018z" fill="#c23200" stroke="#490012" stroke-width="2.5"></path><path d="M254.65794,191.73507c0,0.82843 -9.23413,1.5 -20.625,1.5c-11.39087,0 -25.625,-0.42157 -25.625,-1.25c0,-0.82843 8.23413,-2.25 19.625,-2.25c11.39087,0 26.625,1.17157 26.625,2z" fill="#670000" stroke="none" stroke-width="0"></path></g><g stroke="#12002b" stroke-width="2.5" stroke-linecap="butt"><path d="M240.51573,282.84072l-0.37159,-41.6175h17.83607l8.91804,40.50275z" fill="#0d0b3e"></path><path d="M239.27539,284.05584l-1.10573,-8.59553l29.85474,-2.94862l1.10573,11.19553z" fill="#5a5e90"></path></g><g stroke="#12002b" stroke-width="2.5" stroke-linecap="butt"><path d="M212.1059,281.92813l8.91804,-40.50275h17.83607l-0.37158,41.6175z" fill="#313663"></path><path d="M209.16965,283.45724l1.10573,-11.19553l29.85474,2.94862l-1.10573,8.59553z" fill="#7b7fa8"></path></g><path d="M212.99997,181.31714c-3.90957,-2.80725 -1.66666,-27 -1.66666,-27l68.66667,0.66666c0,0 -7.0107,18.23179 -17,23.66666c-9.9893,5.43487 -30.82529,6.34084 -38.00296,6.25876c-3.10316,-0.03548 -4.33382,-6.74291 -4.33382,-6.74291c0,0 -6.59585,3.91724 -7.66323,3.15082z" fill="#683318" stroke="#45180a" stroke-width="2.5" stroke-linecap="butt"></path><g><g><path d="M217.05126,246.0705c0,0 -2.94322,-50.48471 0.01366,-54.51397c2.90086,-3.95293 14.36305,-3.65123 25.52987,-3.73344c10.56815,-0.07781 20.90653,-0.69078 22.27616,1.00393c4.3568,5.39088 -2.43442,58.50548 -2.43442,58.50548z" fill="#ffb400" stroke="#651f00" stroke-width="2.5" stroke-linecap="butt"></path><path d="M237.53641,223.08447v-21.4024" fill="none" stroke="#ffffff" stroke-width="3" stroke-linecap="round"></path><path d="M247.28936,210.89323l-0.81275,-10.02391" fill="none" stroke="#ffffff" stroke-width="2.5" stroke-linecap="round"></path><path d="M217.05629,204.25657c0,0 -0.97521,-11.54907 2.63545,-13.50722c2.45064,-1.32904 12.94216,-1.83574 23.23305,-1.99041c10.09206,-0.15167 19.99755,0.02884 21.29582,0.74571c1.01633,0.56119 0.66667,8.53342 0.66667,8.53342z" fill="#df7b00" stroke="none" stroke-width="0" stroke-linecap="butt"></path><path d="M231.84717,200.32748l21.13148,0.54183" fill="none" stroke="#ffffff" stroke-width="2.5" stroke-linecap="round"></path></g><path d="M224.23539,242.80025c0,0 1.24548,-5.4689 1.28404,-8.14904c0.03896,-2.70791 -1.05145,-8.01596 -1.05145,-8.01596l34.66308,0.49875c0,0 1.42259,5.38029 1.38384,8.07285c-0.03879,2.69577 -1.61643,8.09215 -1.61643,8.09215z" fill="#ffb400" stroke="#651f00" stroke-width="1.5" stroke-linecap="butt"></path></g><path d="M234.52541,193.20048l-3.05882,-14.33334l21,0.16666l-3.4902,14.00001c0,0 -4.27962,1.39474 -6.59966,1.34041c-2.42077,-0.05668 -7.85132,-1.17374 -7.85132,-1.17374z" fill="#d6aa6c" stroke="#804a0f" stroke-width="2.5" stroke-linecap="butt"></path><g><g stroke-linecap="butt"><g stroke="#804a0f" stroke-width="2.5"><path d="M260.58126,157.69723c0,-6.15662 4.99093,-11.14755 11.14755,-11.14755c6.15662,0 11.14754,4.99093 11.14754,11.14755c0,6.15662 -4.99093,11.14754 -11.14754,11.14754c-6.15662,0 -11.14755,-4.99092 -11.14755,-11.14754z" fill="#d6aa6c"></path><g fill="#ffe4b7"><path d="M206.21287,149.4409c0,-20.11162 16.30369,-36.41531 36.41531,-36.41531c20.11162,0 36.41531,16.30369 36.41531,36.41531c0,20.11162 -16.30369,36.41531 -36.41531,36.41531c-20.11162,0 -36.41531,-16.30369 -36.41531,-36.41531z"></path><path d="M194.26983,158.27094c0,-6.15662 4.99093,-11.14754 11.14754,-11.14754c6.15662,0 11.14754,4.99093 11.14754,11.14754c0,6.15662 -4.99093,11.14754 -11.14754,11.14754c-6.15662,0 -11.14754,-4.99093 -11.14754,-11.14754z"></path></g></g><path d="M214.75292,162.08604l9.55183,-17.81542l53.05699,-0.52341c0,0 0.45817,6.20627 0.18473,9.33842c-0.27687,3.17132 -1.83579,9.57344 -1.83579,9.57344c0,0 -16.55817,-7.47454 -23.20215,-7.09481c-6.93549,0.39638 -37.7556,6.52179 -37.7556,6.52179z" fill="#d6aa6c" stroke="none" stroke-width="0"></path></g><g fill="none" stroke="#d6aa6c" stroke-width="0.5" stroke-linecap="round"><path d="M202.18094,156.12666l4.85714,4.42857"></path><path d="M206.89523,156.69807l-4.57143,3.85714"></path></g></g><g stroke-linecap="butt"><g stroke="#45180a"><path d="M239.73161,107.48668c11.51809,-1.33299 49.23499,-6.13115 49.23499,-6.13115l-11.01553,19.68979l21.89934,8.19265c0,0 -3.33581,7.74205 -8.41067,10.49598c-1.80328,0.97857 -5.83874,3.18525 -5.83874,3.18525l-6.94745,12.43298c0,0 0.1584,-12.83172 -0.58331,-12.67817c-15.79553,3.26992 -37.02331,2.57515 -39.45337,2.34275c-3.88756,0.42717 -12.47029,-0.1447 -12.47029,-0.1447l-12.04499,19.57838c0,0 -11.76806,-19.85616 -9.85632,-27.05117c4.31101,-16.22492 19.43237,-28.05466 35.48635,-29.91259z" fill="#865b00" stroke-width="2.5"></path><path d="M253.66992,123.33049l33.05,-20.4l-10.4,18.6c0,0 -8.50665,1.59144 -12.92264,1.88971c-4.46677,0.3017 -9.72736,-0.08971 -9.72736,-0.08971z" fill="#683318" stroke-width="0"></path><path d="M225.71996,143.46382l-11.63848,18.41676l6.33848,-25.55009c0,0 26.9615,1.65758 44.12832,0.28013c17.16682,-1.37745 33.97168,-6.54679 33.97168,-6.54679c0,0 -3.34699,5.40732 -5.55438,7.37699c-2.12263,1.89404 -7.94562,4.47301 -7.94562,4.47301l-4.84945,8.51284c0,0 0.16965,-8.08843 -1.55536,-8.59429c-2.69911,-0.79151 -12.54688,2.21158 -23.88108,2.49493c-14.00352,0.35007 -29.01412,-0.86348 -29.01412,-0.86348z" fill="#683318" stroke-width="0"></path></g><g fill="#f5c827" stroke="#000000" stroke-width="0"><path d="M233.09087,123.79178c-1.47509,4.45665 -5.61073,7.09642 -9.23722,5.89611c-3.62649,-1.20032 -5.37054,-5.78619 -3.89545,-10.24284c1.47509,-4.45665 5.61073,-7.09642 9.23722,-5.89611c3.62649,1.20032 5.37054,5.78619 3.89545,10.24284z"></path><path d="M240.78335,118.42934c-0.81631,2.46631 -3.10498,3.92716 -5.11188,3.26291c-2.0069,-0.66426 -2.97206,-3.20208 -2.15575,-5.66839c0.81631,-2.46631 3.10498,-3.92717 5.11188,-3.26291c2.0069,0.66426 2.97206,3.20208 2.15575,5.6684z"></path><path d="M214.35566,134.61244c-0.08765,1.99246 -1.20137,3.39282 -2.48756,3.12778c-1.28619,-0.26504 -2.25779,-2.0951 -2.17014,-4.08756c0.08765,-1.99246 1.20137,-3.39282 2.48756,-3.12778c1.28619,0.26504 2.25779,2.0951 2.17014,4.08756z"></path><path d="M249.91996,115.32315c-0.08765,1.99246 -1.20138,3.39281 -2.48756,3.12778c-1.28619,-0.26503 -2.25779,-2.0951 -2.17014,-4.08756c0.08765,-1.99246 1.20137,-3.39282 2.48756,-3.12778c1.28618,0.26503 2.25779,2.09511 2.17014,4.08756z"></path><path d="M220.88466,126.93162c0.75313,2.73865 -0.05475,5.34883 -1.80444,5.83c-1.7497,0.48117 -3.77864,-1.34889 -4.53177,-4.08754c-0.75313,-2.73865 0.05475,-5.34883 1.80444,-5.83c1.7497,-0.48117 3.77864,1.34889 4.53177,4.08754z"></path></g></g><path d="M256.29278,168.35746l-10.69873,-0.42633" fill="none" stroke="#000000" stroke-width="3" stroke-linecap="round"></path><g stroke="#804a0f" stroke-width="2.5" stroke-linecap="butt"><path d="M253.68591,202.62785c-6.72969,-0.75829 -11.57048,-6.82849 -10.8122,-13.55818c0.38515,-3.4182 3.06066,-22.15479 6.62039,-25.33745c0.79979,0.31003 3.96697,0.27364 4.04355,0.98162c0.79115,2.64096 -0.42578,8.2333 -0.3357,12.12631c0.0275,1.18874 2.09781,1.25278 3.22995,1.41733c6.70187,0.97404 11.57049,6.82849 10.8122,13.55819c-0.75829,6.72969 -6.82849,11.57048 -13.55819,10.8122z" fill="#ffe4b7"></path><path d="M253.68591,202.62785c-6.72969,-0.75829 -11.57048,-6.82849 -10.8122,-13.55818c0.38515,-3.4182 3.06066,-22.15479 6.62039,-25.33745c0.79979,0.31003 3.96697,0.27364 4.04355,0.98162c0.79115,2.64096 -0.42578,8.2333 -0.3357,12.12631c0.0275,1.18874 2.09781,1.25278 3.22995,1.41733c6.70187,0.97404 11.57049,6.82849 10.8122,13.55819c-0.75829,6.72969 -6.82849,11.57048 -13.55819,10.8122z" fill="none"></path></g><path d="M243.51578,154.07405c-2.34134,2.84832 -7.31841,1.25459 -11.28231,1.1063c-2.26633,-0.08479 -5.97994,0.18064 -5.49993,-2.83717c-1.99773,-0.02683 -3.67002,-0.148 -3.8715,-0.50058l-0.98493,-1.72363c0.57252,-1.00191 1.69703,-1.51507 2.93377,-1.76909c0.93822,-0.1927 1.94102,-0.23625 2.81642,-0.23091c5.76366,0.0352 11.7177,0.21439 17.45395,0.93211c1.0679,0.13361 3.23001,-0.02124 3.89247,1.17441c1.61968,2.92328 -1.84658,3.13296 -4.85214,2.88431c-0.17468,0.3672 -0.37774,0.6868 -0.60581,0.96426z" fill="#000000" stroke="none" stroke-width="0.5" stroke-linecap="butt"></path><path d="M256.76092,152.95674c-3.00556,0.24866 -6.47182,0.03898 -4.85215,-2.8843c0.66246,-1.19565 2.82457,-1.0408 3.89248,-1.17441c5.73625,-0.71772 11.69029,-0.89691 17.45395,-0.93211c0.8754,-0.00535 1.8782,0.03821 2.81642,0.23091c1.23674,0.25402 2.36125,0.76718 2.93377,1.76909l-0.98493,1.72363c-0.20148,0.35259 -1.87377,0.47375 -3.8715,0.50058c0.48001,3.01781 -3.2336,2.75239 -5.49993,2.83717c-3.9639,0.14829 -8.94097,1.74202 -11.28231,-1.1063c-0.22807,-0.27746 -0.43113,-0.59706 -0.6058,-0.96426z" fill="#000000" stroke="none" stroke-width="0.5" stroke-linecap="butt"></path><path d="M228.62035,174.51443c-0.74628,0.07463 -0.82091,-0.67165 -0.82091,-0.67165l-0.07933,-0.80262c-0.0017,-1.59853 0.615,-5.54575 -0.34948,-6.81241c-0.75555,-0.99226 -3.47674,-2.06911 -4.63084,-2.56161c0,0 -0.68936,-0.29543 -0.39392,-0.98479c0.29544,-0.68936 0.9848,-0.39392 0.9848,-0.39392c1.32918,0.57188 4.27887,1.75758 5.16558,2.94888c1.30855,1.75804 0.72448,5.58169 0.72199,7.72914l0.07375,0.72807c0,0 0.07463,0.74628 -0.67165,0.82091z" fill="#000000" stroke="none" stroke-width="0.5" stroke-linecap="butt"></path><path d="M267.1309,174.50439l0.07375,-0.72808c-0.00248,-2.14745 -0.58655,-5.9711 0.72199,-7.72914c0.88671,-1.1913 3.8364,-2.377 5.16558,-2.94888c0,0 0.68936,-0.29544 0.9848,0.39392c0.29544,0.68936 -0.39392,0.9848 -0.39392,0.9848c-1.15409,0.4925 -3.87529,1.56935 -4.63083,2.56161c-0.96449,1.26666 -0.34779,5.21388 -0.34949,6.81241l-0.07933,0.80262c0,0 -0.07462,0.74628 -0.8209,0.67165c-0.74628,-0.07463 -0.67165,-0.82091 -0.67165,-0.82091z" fill="#000000" stroke="none" stroke-width="0.5" stroke-linecap="butt"></path><path d="M182.82912,242.31001c0,-6.77228 5.49002,-12.2623 12.2623,-12.2623c6.77228,0 12.2623,5.49002 12.2623,12.2623c0,6.77228 -5.49002,12.2623 -12.2623,12.2623c-6.77228,0 -12.2623,-5.49002 -12.2623,-12.2623z" fill="#ffe4b7" stroke="#804a0f" stroke-width="2.5" stroke-linecap="butt"></path></g></g></svg>