<svg version="1.1" xmlns="http://www.w3.org/2000/svg" xmlns:xlink="http://www.w3.org/1999/xlink" width="85.93189" height="59.63889" viewBox="0,0,85.93189,59.63889"><g transform="translate(-197.03405,-150.18055)"><g stroke-width="2.5" stroke-miterlimit="10"><path d="M253.28971,190.50894c13.03151,0 28.42624,3.79846 28.42624,11.14755c0,6.9775 -6.47669,6.68852 -19.5082,6.68852c-13.03151,0 -22.48088,0.66056 -22.48088,-6.31694c0,-6.9775 0.53133,-11.51913 13.56284,-11.51913z" fill="#c7bed6" stroke="#5f5775"></path><path d="M240.27314,202.23576c0,6.9775 -9.44937,6.31694 -22.48088,6.31694c-13.03151,0 -19.5082,0.28897 -19.5082,-6.68853c0,-7.34909 15.39473,-11.14754 28.42624,-11.14754c13.03151,0 13.56285,4.54163 13.56285,11.51913z" fill="#f1f2ff" stroke="#5f5775"></path><g stroke="#12002b"><path d="M242.30045,193.04805l-0.37159,-41.6175h17.83607l8.91804,40.50275z" fill="#0d0b3e"></path><path d="M241.06011,194.26319l-1.10573,-8.59553l29.85474,-2.94862l1.10573,11.19553z" fill="#5a5e90"></path></g><g stroke="#12002b"><path d="M213.89062,192.13546l8.91804,-40.50275h17.83607l-0.37158,41.6175z" fill="#313663"></path><path d="M210.95437,193.66457l1.10573,-11.19553l29.85474,2.94862l-1.10573,8.59553z" fill="#7b7fa8"></path></g></g></g></svg>