<svg version="1.1" xmlns="http://www.w3.org/2000/svg" xmlns:xlink="http://www.w3.org/1999/xlink" width="225.11966" height="203.74749" viewBox="0,0,225.11966,203.74749"><g transform="translate(-22.15569,-80.50582)"><g stroke-miterlimit="10"><path d="M161.38312,161.30833c-0.88342,0.76642 -7.37616,-3.15082 -7.37616,-3.15082c0,0 -0.32295,6.70743 -3.15323,6.74291c-6.54648,0.08208 -25.68689,-0.82389 -35.46057,-6.25876c-9.77369,-5.43487 -18.35517,-23.66666 -18.35517,-23.66666l62.64248,-0.66666c0,0 4.93846,24.19275 1.70266,27z" fill="#683318" stroke="#45180a" stroke-width="2.5" stroke-linecap="butt"></path><path d="M111.89322,231.53675c-6.054,0 -10.96175,-4.90774 -10.96175,-10.96175c0,-6.054 4.90774,-10.96175 10.96175,-10.96175c6.054,0 10.96175,4.90774 10.96175,10.96175c0,6.054 -4.90774,10.96175 -10.96175,10.96175z" fill="#d6aa6c" stroke="#804a0f" stroke-width="2.5" stroke-linecap="butt"></path><g stroke-linecap="butt"><path d="M123.88354,177.52129c0,-14.58243 20.22517,-11.624 34.21492,-11.624c13.98975,0 26.33068,1.77271 26.33068,9.20209c0,2.13611 -5.28615,5.29653 -5.20626,8.05116c0.21956,7.57078 -15.15703,11.40093 -25.12442,11.40093c-13.98975,0 -30.21492,-2.44776 -30.21492,-17.03018z" fill="#c23200" stroke="#490012" stroke-width="2.5"></path><path d="M158.69207,170.72627c11.39087,0 19.625,1.42157 19.625,2.25c0,0.82843 -14.23413,1.25 -25.625,1.25c-11.39087,0 -20.625,-0.67157 -20.625,-1.5c0,-0.82843 15.23413,-2 26.625,-2z" fill="#670000" stroke="none" stroke-width="0"></path></g><path d="M140.29306,275.96194c0,6.9775 -9.44937,6.31694 -22.48088,6.31694c-13.03151,0 -19.5082,0.28898 -19.5082,-6.68852c0,-7.34909 15.39473,-11.14755 28.42624,-11.14755c13.03151,0 13.56284,4.54163 13.56284,11.51913z" fill="#c7bed6" stroke="#5f5775" stroke-width="2.5" stroke-linecap="butt"></path><path d="M160.23586,276.66963c0,6.9775 -9.44937,6.31694 -22.48088,6.31694c-13.03151,0 -19.5082,0.28897 -19.5082,-6.68853c0,-7.34909 15.39473,-11.14754 28.42624,-11.14754c13.03151,0 13.56285,4.54163 13.56285,11.51913z" fill="#f1f2ff" stroke="#5f5775" stroke-width="2.5" stroke-linecap="butt"></path><g stroke="#12002b" stroke-width="2.5" stroke-linecap="butt"><path d="M108.33696,265.36717l8.91804,-40.50275h17.83607l-0.37159,41.6175z" fill="#0d0b3e"></path><path d="M106.10508,267.34843l1.10573,-11.19553l29.85474,2.94862l-1.10573,8.59553z" fill="#5a5e90"></path></g><g stroke="#12002b" stroke-width="2.5" stroke-linecap="butt"><path d="M125.24678,267.18408l-0.37158,-41.6175h17.83607l8.91804,40.50275z" fill="#313663"></path><path d="M124.71082,267.94706l-1.10573,-8.59553l29.85474,-2.94862l1.10573,11.19553z" fill="#7b7fa8"></path></g><g><g><path d="M108.08848,226.7237c0,0 -6.79122,-53.1146 -2.43442,-58.50548c1.36963,-1.69471 11.70801,-1.08174 22.27616,-1.00393c11.16682,0.08221 22.62901,-0.21949 25.52987,3.73344c2.95688,4.02926 0.01366,54.51397 0.01366,54.51397z" fill="#ffb400" stroke="#651f00" stroke-width="2.5" stroke-linecap="butt"></path><path d="M113.7886,200.609v-21.4024" fill="none" stroke="#ffffff" stroke-width="3" stroke-linecap="round"></path><path d="M105.63773,177.42927c0,0 -0.34966,-7.97223 0.66667,-8.53342c1.29827,-0.71687 11.20376,-0.89738 21.29582,-0.74571c10.29089,0.15467 20.78241,0.66137 23.23305,1.99041c3.61066,1.95815 2.63545,13.50722 2.63545,13.50722z" fill="#df7b00" stroke="none" stroke-width="0" stroke-linecap="butt"></path><path d="M121.9945,179.45201l-16.13148,0.04183" fill="none" stroke="#ffffff" stroke-width="2.5" stroke-linecap="round"></path></g><path d="M106.37654,223.35687c0,0 -2.32764,-5.14638 -2.36643,-7.84215c-0.03875,-2.69256 1.88384,-8.07285 1.88384,-8.07285l26.66308,-0.74875c0,0 -1.09041,5.30805 -1.05145,8.01596c0.03856,2.68014 1.28404,8.14904 1.28404,8.14904z" fill="#ffb400" stroke="#651f00" stroke-width="1.5" stroke-linecap="butt"></path></g><path d="M128.14828,173.76542c-2.32004,0.05433 -6.59966,-1.34041 -6.59966,-1.34041l-3.4902,-14.00001l21,-0.16666l-3.05882,14.33334c0,0 -5.43055,1.11706 -7.85132,1.17374z" fill="#d6aa6c" stroke="#804a0f" stroke-width="2.5" stroke-linecap="butt"></path><g><g stroke-linecap="butt"><g fill="#ffe4b7" stroke="#804a0f" stroke-width="2.5"><g><path d="M127.89683,165.24742c-20.11162,0 -36.41531,-16.30369 -36.41531,-36.41531c0,-20.11162 16.30369,-36.41531 36.41531,-36.41531c20.11162,0 36.41531,16.30369 36.41531,36.41531c0,20.11162 -16.30369,36.41531 -36.41531,36.41531z"></path><path d="M154.7743,149.14302c-6.15661,0 -11.14754,-4.99092 -11.14754,-11.14754c0,-6.15661 4.99092,-11.14754 11.14754,-11.14754c6.15661,0 11.14754,4.99092 11.14754,11.14754c0,6.15661 -4.99092,11.14754 -11.14754,11.14754z"></path></g></g><path d="M151.22025,123.66183c0,0 -7.99786,8.25972 -8.63096,11.53069c-0.46024,2.37787 0.22445,6.4514 0.22445,6.4514l-1.95045,-0.08452c0,0 -12.02132,0.56966 -21.11964,-0.89902c-10.21938,-1.64965 -17.79752,-5.34768 -20.89384,-5.12158c-6.64398,-0.37973 -4.03548,6.51147 -4.03548,6.51147c0,0 -1.55892,-6.40212 -1.83579,-9.57344c-0.27344,-3.13215 0.18473,-9.33842 0.18473,-9.33842l58.05699,0.52341z" fill="#d6aa6c" stroke="none" stroke-width="0"></path></g><g fill="none" stroke="#d6aa6c" stroke-width="0.5" stroke-linecap="round"><path d="M157.34406,136.18452l-4.85714,4.42857"></path><path d="M152.29644,136.08929l4.57143,3.85714"></path></g></g><g stroke-linecap="butt"><g stroke="#45180a"><path d="M124.89281,86.62785c4.50768,0.62404 21.27741,1.43314 27.10605,5.82124c6.5586,4.93765 5.80457,9.67532 5.80457,9.67532c0,0 6.57374,4.60787 9.57353,9.16604c4.91459,7.94356 -0.34547,21.45022 -0.34547,21.45022c0,0 -4.37409,-5.76794 -6.9819,-6.92198c-1.55895,-0.68989 -5.47424,-1.08906 -6.25822,-1.40232c-1.24333,-0.4968 -7.47271,19.17525 -7.47271,19.17525l-10.06921,-19.57838c0,0 -7.17488,0.57187 -10.42475,0.1447c-2.03145,0.2324 -19.77717,0.92717 -32.98172,-2.34275c-0.62005,-0.15355 -7.19585,-1.96149 -8.70333,-2.94006c-4.24241,-2.75393 -6.13171,-9.99598 -6.13171,-9.99598l17.18297,-7.94265l-5.83616,-18.93979z" fill="#865b00" stroke-width="2.5"></path><path d="M114.58983,105.47169c0,0 -7.09565,-0.10859 -10.82972,-0.41029c-3.69162,-0.29827 -7.65528,-3.38971 -7.65528,-3.38971l-4.64711,-18.35l23.1321,22.15z" fill="#683318" stroke-width="0"></path><path d="M136.60608,122.60503c0,0 -12.54836,1.21355 -24.25484,0.86348c-9.47501,-0.28335 -27.26304,-4.49245 -29.03749,-6.38649c-1.8453,-1.96967 -3.74395,-7.37699 -3.74395,-7.37699c0,0 10.2262,4.66934 24.57709,6.04679c14.35089,1.37745 36.88983,-0.28013 36.88983,-0.28013l5.29875,25.55009l-9.72938,-18.41676z" fill="#683318" stroke-width="0"></path></g><g fill="#f5c827" stroke="#000000" stroke-width="0"><path d="M137.61706,102.68298c-1.23313,-4.45665 0.22484,-9.04252 3.25647,-10.24284c3.03163,-1.20031 6.4889,1.43946 7.72202,5.89611c1.23312,4.45665 -0.22485,9.04252 -3.25648,10.24284c-3.03164,1.20031 -6.4889,-1.43946 -7.72202,-5.89611z"></path><path d="M130.66122,98.32055c-0.68241,-2.46632 0.12442,-5.00414 1.80213,-5.6684c1.67771,-0.66426 3.59096,0.7966 4.27337,3.26291c0.68241,2.46631 -0.12442,5.00413 -1.80213,5.66839c-1.67771,0.66425 -3.59096,-0.7966 -4.27337,-3.26291z"></path><path d="M155.18148,108.91608c1.07521,-0.26504 2.00624,1.13532 2.07952,3.12778c0.07327,1.99246 -0.73896,3.82252 -1.81417,4.08756c-1.07522,0.26504 -2.00624,-1.13532 -2.07952,-3.12778c-0.07327,-1.99246 0.73896,-3.82252 1.81417,-4.08756z"></path><path d="M125.78715,90.87679c1.07521,-0.26504 2.00624,1.13532 2.07952,3.12778c0.07326,1.99246 -0.73896,3.82253 -1.81417,4.08756c-1.0752,0.26503 -2.00624,-1.13532 -2.07952,-3.12778c-0.07327,-1.99245 0.73897,-3.82253 1.81417,-4.08756z"></path><path d="M151.13829,101.28528c1.46269,0.48117 2.13805,3.09135 1.50846,5.83c-0.62959,2.73865 -2.32572,4.56871 -3.78841,4.08754c-1.46269,-0.48117 -2.13805,-3.09135 -1.50846,-5.83c0.62959,-2.73865 2.32572,-4.56871 3.78841,-4.08754z"></path></g></g><path d="M149.69645,235.30862c-6.77228,0 -12.2623,-5.49002 -12.2623,-12.2623c0,-6.77228 5.49002,-12.2623 12.2623,-12.2623c6.77228,0 12.2623,5.49002 12.2623,12.2623c0,6.77228 -5.49002,12.2623 -12.2623,12.2623z" fill="#ffe4b7" stroke="#804a0f" stroke-width="2.5" stroke-linecap="butt"></path><path d="M119.12851,134.54981c0.91557,0.17818 1.95519,0.17126 2.92772,0.2858c0.27178,-0.27401 0.64858,-0.44371 1.06501,-0.44371c0.82843,0 1.5,0.67157 1.5,1.5c0,0.30077 -0.08852,0.58087 -0.24094,0.81566c-0.1052,1.89359 -3.73058,0.81147 -5.62684,0.84224c-1.74754,0.02836 -4.33963,0.97055 -5.6985,-0.10855c-2.61803,-2.07903 1.62957,-3.19999 3.06123,-3.49393c1.00307,-0.20595 2.00719,0.40686 3.01233,0.60248z" fill="#00c4ff" stroke="none" stroke-width="0.5" stroke-linecap="butt"></path><path d="M111.74337,133.89301c-1.26623,0.69949 -2.53505,1.39652 -3.08585,1.19989c-4.38332,-1.56485 1.996,-4.31557 3.50587,-4.88055c2.1129,-0.79063 15.94039,-1.30358 19.61255,2.64381c0.4605,0.25607 0.77208,0.74757 0.77208,1.31185c0,0.82843 -0.67157,1.5 -1.5,1.5c-0.14892,0 -0.29277,-0.02171 -0.42857,-0.06212c-0.09393,-0.02796 -0.18401,-0.06487 -0.26924,-0.10974c-0.86241,-0.25481 -1.65371,-0.60069 -2.43053,-0.96142c-1.05637,1.18963 -3.25937,1.48789 -4.75445,1.59414c-3.44665,0.24494 -9.72194,1.09572 -11.42186,-2.23586z" fill="#000000" stroke="none" stroke-width="0.5" stroke-linecap="butt"></path><path d="M114.93396,147.19225c2.18149,-0.23026 6.58698,0.01924 6.54683,-1.80991c-0.18334,-0.24878 -0.29169,-0.55623 -0.29169,-0.88898c0,-0.55053 0.29659,-1.03179 0.7387,-1.29272c1.02421,-1.79236 7.14151,2.003 4.22987,4.49869c-1.60702,1.37744 -5.47112,1.56681 -7.46431,1.96146c-5.71383,1.13135 -11.74888,1.58792 -17.67236,1.73279c-0.85409,-0.95217 -1.68381,-1.92835 -2.48217,-2.96414c5.50266,-0.11897 10.92405,-0.6597 16.39515,-1.23719z" fill="#000000" stroke="none" stroke-width="0.5" stroke-linecap="butt"></path><path d="M93.46609,240.01986c-2.51373,0.02792 -5.02777,0.00198 -7.54165,0.00023c-4.3773,-0.00305 -22.99463,0.34053 -17.51452,-7.3717c-4.70829,0.73309 -9.41222,1.48651 -14.11172,2.29153c-2.58042,0.44203 -5.13959,1.59719 -7.74266,1.31795c-0.11804,-0.01266 -0.2358,-0.02667 -0.3533,-0.04196l-0.00096,0.05221l-7.00203,-0.12853c-2.04329,-0.03218 -3.68976,-1.69858 -3.68976,-3.74953c0,-1.70657 1.13997,-3.14688 2.69996,-3.601l7.06888,-2.23733l0.0358,0.11311l0.32358,-0.20754c12.47725,-1.38576 24.96477,-2.66571 37.4538,-3.93154c-6.34174,0.17405 -12.683,0.36649 -19.02314,0.59705c-8.96503,0.326 -17.93973,0.82664 -26.91134,0.82012c-2.58861,-0.00188 -5.2441,0.5752 -7.76583,-0.00943c-0.08689,-0.02015 -0.17334,-0.04155 -0.25937,-0.06414l-0.00513,0.03589l-3.69676,-0.52811c-1.84644,-0.23377 -3.27425,-1.8102 -3.27425,-3.72011c0,-1.3223 0.68439,-2.48475 1.71827,-3.15245l3.16704,-2.11136l0.1019,0.15285l0.33066,-0.40134c1.3299,-0.45079 12.95906,-4.40947 13.67086,-4.57363c0.23056,-0.05317 14.70223,-1.92813 15.04257,-1.97236c9.38695,-1.21988 18.81764,-2.00352 28.26915,-2.54727c-0.63225,-0.11523 -1.26443,-0.23061 -1.89788,-0.33511c-0.13644,-0.02251 -0.2747,-0.04454 -0.41466,-0.06622c-0.17058,0.00013 -0.34117,0.0002 -0.51176,0.0002c-8.84637,0 -17.83503,0.49126 -26.64334,-0.37764c-2.67997,-0.26437 -5.5302,0.17026 -8.03816,-0.81068c-1.38007,-0.53979 -2.55071,-1.45648 -3.68253,-2.44303c-2.22791,0.27815 -4.47324,0.83464 -6.65885,0.41588c-0.09003,-0.01725 -0.17985,-0.03523 -0.26947,-0.05393l-0.0033,0.04291l-6.9338,-0.53337c-1.95231,-0.13091 -3.49536,-1.756 -3.49536,-3.74149c0,-1.84332 1.32998,-3.376 3.08269,-3.6908l2.61141,-0.52228l0.02594,0.12971l0.22722,-0.17139c2.52275,-0.16037 5.04639,-0.30771 7.57079,-0.44281c0.39493,-1.51913 1.71836,-2.66379 3.32817,-2.79183l7.43112,-0.67556c1.2625,-0.41252 2.56609,-0.62024 3.89032,-0.7238c-0.41728,-0.07938 -0.82821,-0.18957 -1.23087,-0.33987c-2.77103,-1.0343 -6.63533,-2.42076 -7.08326,-5.3444c-0.28796,-1.8795 1.45934,-3.20477 3.15563,-4.54394c-3.79273,-0.86943 -7.3841,-2.56708 -11.07203,-3.83946c-0.64395,-2.34921 -2.97336,-4.84566 -1.93184,-7.04764c1.0991,-2.32372 4.51378,-2.48641 6.897,-3.44972c4.41126,-1.78306 8.38736,-2.4844 12.65732,-3.01691c0.67352,-0.64505 1.58719,-1.04136 2.59341,-1.04136c0.13938,0 0.27699,0.0076 0.41243,0.02242l3.12979,0.30459c20.29323,-2.42 40.61444,-4.7146 60.99735,-6.21166c-15.64339,-0.7436 -31.86638,-1.40182 -46.80707,-6.11291c-0.49547,-0.15623 -15.05412,-3.723 -11.02893,-9.76873c1.28082,-1.92376 9.74302,-3.53944 14.48009,-4.25861c-3.55934,-0.10424 -7.11926,-0.19359 -10.67567,-0.38405c-2.58672,-0.13853 -5.30406,0.40547 -7.76003,-0.41826c-0.08665,-0.02906 -0.17286,-0.05907 -0.25866,-0.08998l-0.00928,0.04642l-5.29094,-1.05819c-1.75271,-0.3148 -3.08269,-1.84748 -3.08269,-3.6908c0,-0.55328 0.11982,-1.07857 0.33493,-1.55135c-0.84648,-0.02115 -1.69323,-0.04078 -2.54035,-0.05819c-1.90311,-0.03913 -11.37809,0.07125 -11.72946,0.00049h-4.82315c-2.07107,0 -3.75,-1.67893 -3.75,-3.75c0,-1.74267 1.1887,-3.2077 2.79951,-3.62849l3.67163,-1.04904l0.04185,0.14649l0.28832,-0.22486c13.59497,-1.35476 26.72709,-2.20957 40.38165,-2.20967c7.49165,-0.00005 14.98497,-0.02081 22.47914,-0.06094c-0.75192,-0.46396 -1.4176,-1.28769 -1.57914,-2.74159c-0.41412,-3.72706 3.31295,-4.14118 3.31295,-4.14118c15.15001,-1.66594 30.88243,-0.5648 46.09617,0.03182c22.69568,0.89003 45.37584,2.01995 68.07116,2.92753l5.8855,0.23542c2.01006,0.0694 3.61826,1.72076 3.61826,3.74773c0,1.88225 -1.38676,3.44061 -3.19431,3.70911l-6.37006,1.06168l-0.00551,-0.03308c-0.06159,0.02031 -0.12333,0.04026 -0.18521,0.05986c-0.02155,0.00682 -15.12153,0.95133 -15.22742,0.95611c-10.01995,0.4524 -20.0771,0.59266 -30.10542,0.73777c-3.9331,0.05691 -7.86626,0.11567 -11.79949,0.17489c0.89354,0.68543 1.46963,1.76405 1.46963,2.97722c0,2.07042 -1.67788,3.74895 -3.74806,3.75c-0.00008,0 -0.00017,0 -0.00025,0l-5.32151,0.00275v-0.00021c-0.00032,0.00007 -0.00065,0.00014 -0.00097,0.00021c-2.44284,0.53306 -5.00065,0.00015 -7.50097,0c-1.52495,-0.00009 -3.04829,0.02111 -4.57075,0.05607l5.91568,0.4925c1.94229,0.14119 3.47419,1.7617 3.47419,3.74001c0,1.95923 -1.5025,3.56753 -3.41812,3.73552l-7.42152,0.74215c-5.39494,1.83152 -12.88163,0.12626 -18.4846,0.34138c-6.93092,0.26611 -13.86789,1.12468 -20.78882,1.6014c-4.93519,0.33994 -9.89619,0.36782 -14.81202,0.92121c-0.7633,0.08593 -1.52009,0.23614 -2.27495,0.40127c3.87336,1.03745 7.78861,1.93455 11.7433,2.58146c11.56163,1.89125 23.58206,2.17702 35.26067,2.77592c12.00308,0.61576 23.98745,1.52834 35.97337,2.41027l0.04252,0.01867l0.00143,-0.01466l5.939,0.5776c1.92,0.16363 3.42731,1.77395 3.42731,3.73631c0,0.79483 -0.24728,1.53191 -0.66912,2.1385c1.17755,2.17772 1.28475,5.20956 2.14609,7.59803c0.61197,1.69698 1.22346,3.38761 1.83663,5.07392c4.09993,0.35636 8.19347,0.78591 12.27851,1.35027c2.54326,0.35136 5.2444,0.107 7.62925,1.05782c0.06334,0.02525 0.12636,0.05109 0.18909,0.0775l0.00844,-0.03375l4.21114,1.05279c1.66995,0.37897 2.91659,1.87243 2.91659,3.65706c0,1.88225 -1.38676,3.44061 -3.19431,3.70911l-3.15463,0.52577l-0.01766,-0.10597l-0.22045,0.13785c-2.40743,0.09168 -4.81486,0.18336 -7.22229,0.27504c-2.99625,0.11066 -5.99415,0.2017 -8.99339,0.27597c0.00255,0.00676 0.00511,0.01353 0.00766,0.02029c2.41559,-0.00886 4.83129,-0.01358 7.24711,-0.01358c5.71901,0 11.43801,0 17.15702,0h7.5c2.07107,0 3.75,1.67893 3.75,3.75c0,0.85686 -0.28738,1.6466 -0.77102,2.27808l-1.58221,2.11314l-0.11116,-0.08323c-0.25588,0.39091 -0.56293,0.74249 -0.94137,1.0392c-2.13737,1.67576 -5.29423,1.26492 -7.98972,1.59786c-4.16172,0.51405 -8.37767,0.39094 -12.56788,0.55335c-2.08903,0.08097 -4.17793,0.14873 -6.26674,0.20677c-0.5216,1.44378 -1.90426,2.47569 -3.52793,2.47569c-0.52239,0 -1.01983,-0.10682 -1.47168,-0.2998l-1.34328,-0.53731c-0.45272,0.19387 -0.95131,0.3012 -1.47497,0.3012h-3.51986l0.21496,0.02866c1.86192,0.21951 3.30624,1.8031 3.30624,3.72402c0,1.07446 -0.45188,2.04337 -1.17596,2.72707c0.4041,0.59839 0.64005,1.31968 0.64005,2.09609c0,2.01849 -1.59478,3.66451 -3.59306,3.74678l-3.74652,0.17832c-0.06816,0.00323 -0.13633,0.00645 -0.20449,0.00964c-0.07832,1.87888 -1.53911,3.40059 -3.39176,3.57453l-4.74149,0.50675l-0.00314,-0.02936c-0.04568,0.01418 -0.09147,0.02808 -0.13737,0.04171c-0.01309,0.00388 -15.03026,0.4724 -15.13523,0.47563c-1.7824,0.0549 -3.5648,0.10943 -5.34722,0.16371c-8.90532,0.49867 -17.81122,0.98529 -26.71207,1.55842c-4.53472,0.29199 -9.07947,0.51599 -13.62352,0.49065c-2.75958,-0.01539 -5.6963,0.89193 -8.27847,-0.08169c-0.24418,-0.09207 -0.48245,-0.19479 -0.7155,-0.30689l-0.02905,0.06537l-0.31952,-0.14201c-11.51083,0.5229 -23.00006,1.32663 -34.43375,2.81249c-3.71063,0.48221 -7.4728,0.67506 -11.16744,1.24483c3.43806,-0.10921 6.87523,-0.25564 10.3147,-0.38071c27.31342,-0.99322 54.64566,-1.40014 81.95446,-2.41066l6.99703,-0.25879c0.05318,-0.00224 0.10665,-0.00337 0.16039,-0.00337c2.07107,0 3.75,1.67893 3.75,3.75c0,0.22343 -0.01954,0.4423 -0.05701,0.65499c0.37525,0.58396 0.59291,1.27883 0.59291,2.02453c0,0.89469 -0.31332,1.7162 -0.83622,2.36079c3.81822,-0.141 7.62657,-0.25827 11.40255,-0.42241c6.06715,-0.26374 12.10695,-0.59769 18.16934,-0.95424c2.4842,-0.1461 4.98393,-0.75168 7.4526,-0.43837l6.89283,-0.53022c0.10829,-0.0094 0.21789,-0.0142 0.32861,-0.0142c2.07107,0 3.75,1.67893 3.75,3.75c0,1.89621 -1.4074,3.46371 -3.23459,3.71487l-7.11561,1.10054c-6.32419,1.12954 -12.64664,2.25692 -18.97294,3.3564c0.74925,0.28643 1.49883,0.57088 2.25568,0.82454c1.9726,0.66111 4.42865,1.31634 6.47391,2.50962c8.33572,-0.89768 16.67258,-1.72877 25.06831,-2.27357l0.09694,0.02213l-0.00033,-0.02467l7.49096,-0.10052c0.01953,-0.0003 0.03909,-0.00045 0.05868,-0.00045c2.07107,0 3.75,1.67893 3.75,3.75c0,1.34586 -0.70899,2.52612 -1.77386,3.18766l-2.42118,1.55701l-0.04473,-0.06956c-0.14652,0.12033 -0.29905,0.23435 -0.45836,0.34126c-2.23373,1.49898 -5.18123,1.44949 -7.77428,2.16544c-4.01915,1.10971 -8.11636,1.92714 -12.21307,2.70302c-1.76813,0.33487 -3.53693,0.66604 -5.3065,0.99287c1.92786,0.20539 3.3694,0.3598 3.58296,0.38253l0.37072,0.20973l0.03308,-0.09763l2.99489,1.0148l1.5851,-0.07205c0.06508,-0.00336 0.13059,-0.00506 0.1965,-0.00506c1.68174,0 3.10491,1.10703 3.58056,2.63213c0.44387,0.6161 0.70535,1.37235 0.70535,2.18968c0,1.28406 -0.64538,2.41739 -1.62947,3.0933l-6.08523,4.29545c-1.23968,1.07223 -2.45043,1.95498 -3.48502,2.40435c-10.48833,4.55555 -21.88894,6.26481 -33.06503,7.98407c-20.04363,3.08339 -40.23471,5.17557 -60.21279,8.68632l-0.21548,-0.04946l0.00422,0.06848l-4.90581,0.30222c-0.08745,0.0061 -0.17572,0.0092 -0.26472,0.0092c-2.07107,0 -3.75,-1.67893 -3.75,-3.75c0,-1.16807 0.53405,-2.21141 1.37131,-2.89916l5.73966,-4.78305l0.03461,0.04153c0.12347,-0.11492 0.24884,-0.22804 0.37626,-0.33923c2.01077,-1.75474 4.85227,-2.22372 7.2834,-3.32458c0.79112,-0.35823 1.58768,-0.69722 2.3892,-1.01874c-1.37391,0.00328 -2.74813,0.00846 -4.1226,0.0149c-4.41639,1.43491 -9.49239,3.0581 -13.69419,0.08338c-12.17341,0.07095 -24.35233,0.07964 -36.49768,-0.40497l-5.8855,-0.23542c-2.01006,-0.0694 -3.61826,-1.72076 -3.61826,-3.74773c0,-1.13293 0.5024,-2.14852 1.29657,-2.83613l4.27129,-3.73738l0.04821,0.05509c0.20986,-0.18984 0.42854,-0.37098 0.65728,-0.54218c2.22895,-1.66821 5.3588,-1.51279 8.04444,-2.2466c4.86439,-1.32912 9.76825,-2.51392 14.68286,-3.64325c9.72425,-2.23455 19.45628,-4.4541 29.1968,-6.63729c-0.06504,-0.07886 -0.12692,-0.16043 -0.18545,-0.24451c-0.06392,0.00141 -0.09802,0.00215 -0.09923,0.00217zM153.99948,237.34222c-5.41503,0.01568 -10.87257,-0.0143 -16.31204,0.11584c-0.55014,0.72748 -1.35941,1.2481 -2.29046,1.42454l-2.77299,0.58379c-7.66981,1.61455 -15.33369,3.26886 -22.99208,4.95219c3.08866,-0.30841 6.17488,-0.63583 9.26237,-0.96793c2.50883,-0.89078 11.47295,-2.49285 12.2644,-2.64684c7.64769,-1.48803 15.16071,-2.57639 22.8408,-3.46159zM94.10878,232.45849c1.22292,-0.01636 2.44571,-0.03541 3.6685,-0.05645c0.32365,-0.19719 0.64579,-0.39717 0.96724,-0.59843c-1.54244,0.21574 -3.08508,0.43387 -4.62827,0.65381c-0.00249,0.00035 -0.00498,0.00071 -0.00747,0.00106zM100.93264,181.01503c0.11402,-0.03578 0.22802,-0.07161 0.34202,-0.10749c-5.12265,-0.28582 -10.2258,-0.5794 -15.33939,-0.75288c-6.2942,0.07687 -12.61081,0.10141 -18.88785,-0.17821c-1.4669,0.24121 -2.92133,0.54601 -4.37033,0.87876c10.9473,0.31398 21.91308,0.32736 32.86559,0.21807c1.79671,-0.01793 3.59336,-0.03743 5.38996,-0.05824zM145.84923,164.08319c3.88259,-1.71866 7.73573,-3.49374 11.55594,-5.32371c-0.27178,0.01897 -0.54252,0.04239 -0.81175,0.07235c-7.39472,0.82275 -14.76177,1.23167 -22.18856,1.66014c-6.54969,0.37787 -13.08269,0.88072 -19.61028,1.4461c8.54844,0.33199 17.08781,0.8239 25.60767,1.72004c1.80751,0.19012 3.62887,0.29764 5.44696,0.4251zM125.23817,172.57053c0.30653,-0.11698 0.61293,-0.2343 0.91918,-0.35198c-19.73857,-1.23582 -39.4734,-2.49938 -59.18092,-4.21669c-2.06913,0.08076 -4.1727,0.33641 -6.09139,-0.34941c-0.03439,-0.01229 -0.06866,-0.02484 -0.10279,-0.03762c-2.05251,0.24756 -4.10521,0.49347 -6.1584,0.73509c-2.25287,0.26511 -4.40045,1.06869 -6.57772,1.73628c1.24615,0.3511 2.49905,0.66944 3.77581,0.87623c4.79674,0.7769 9.65964,1.254 14.55758,1.53458c3.61649,-0.53274 7.31785,0.00131 10.97578,0.00166c3.93648,0.00037 7.85702,0.10985 11.77487,0.27398c6.47888,-0.1046 12.9356,-0.27398 19.29962,-0.27398c5.59826,0 11.20185,0.0313 16.80837,0.07187zM167.14639,162.33781c-2.87834,1.43817 -5.76639,2.8363 -8.66528,4.19592c0.26528,0.09233 0.53047,0.18499 0.79576,0.27721c2.76115,0.1821 5.5207,0.35937 8.27802,0.55045c-0.24538,-0.80672 -0.44879,-1.62306 -0.57393,-2.45697c-0.12789,-0.8522 -0.00074,-1.70917 0.16543,-2.56661zM125.07277,265.45033c-6.66286,1.17427 -13.79415,2.27535 -20.24655,4.37847c-0.48162,0.15698 -0.95531,0.33489 -1.42312,0.52827c20.5013,-2.98314 41.21059,-4.82376 61.5272,-8.80121c4.70943,-0.92198 10.29798,-2.65213 14.93144,-4.4943c-7.10655,0.61635 -14.20567,1.30447 -21.30829,1.97598c-0.43395,0.07011 -14.71055,2.37989 -14.92419,2.40145c-3.74628,0.37804 -7.55755,0.93297 -11.31337,0.78878c-0.45889,1.23504 -1.54985,2.1628 -2.8798,2.39019l-4.33779,0.82759l-0.00197,-0.01034zM74.42626,255.8208c-2.06546,0.26985 -4.12545,0.5864 -6.18335,0.92117c2.67995,0.00248 5.3602,-0.0053 8.04029,-0.01763c-0.0007,-0.02986 -0.00105,-0.0598 -0.00105,-0.08983c0,-0.37014 0.05363,-0.72775 0.15353,-1.0655c-0.67013,0.08064 -1.33996,0.16432 -2.00942,0.25178zM125.21144,115.41784c-5.12993,-0.11788 -10.25869,-0.11386 -15.33899,0.14457c5.11287,-0.0396 10.22595,-0.08792 15.33899,-0.14457z" fill-opacity="0.20392" fill="#875c00" stroke="none" stroke-width="0.5" stroke-linecap="butt"></path><path d="M73.60129,263.24491c1.37101,0 1.99016,0.75187 2.26976,1.43095c4.63453,0.84273 9.43468,1.91604 14.05376,2.33255c0.51458,0.0464 1.0321,0.08184 1.55189,0.10824c0.10909,-1.16517 1.01782,-2.09799 2.17184,-2.2441l3.71495,-0.53071l0.0046,0.03222c0.05701,-0.0176 0.11425,-0.03463 0.17173,-0.05105c1.65933,-0.47413 3.45148,-0.00513 5.17722,-0.00629c4.41874,-0.00298 8.82129,0.27274 13.23436,0.48424l0.06905,0.02778c0.00555,-0.00003 0.01109,-0.00006 0.01664,-0.00008l0.00224,-0.01882l0.15173,0.01803c1.50385,-0.00778 3.00769,-0.018 4.51152,-0.03144c-4.14688,-0.79161 -8.31136,-1.50277 -12.46553,-1.91844c-1.99936,-0.20006 -6.61602,0.39931 -8.04668,-0.00066c-0.06679,-0.01867 -0.1332,-0.0383 -0.19924,-0.05884l-0.00556,0.03334l-3.1749,-0.52915c-1.20503,-0.179 -2.12954,-1.21791 -2.12954,-2.47274c0,-1.22888 0.88665,-2.25067 2.05512,-2.46053l2.63411,-0.52682l0.02048,0.10242l0.22346,-0.1388c16.14433,-0.04015 32.27838,0.85638 48.42581,0.52428c1.76126,-0.03622 3.57091,-0.04687 5.39124,-0.0758c-9.4935,-1.0655 -19.01702,-1.92518 -28.53901,-2.46765c-6.25451,-0.35632 -13.93835,0.79974 -19.9733,-1.0399l-4.94096,-0.53911c-1.26734,-0.12154 -2.25838,-1.18927 -2.25838,-2.48847c0,-1.38071 1.11929,-2.5 2.5,-2.5h4.99954c1.15178,-0.00057 2.30398,0.00173 3.45649,0.00576c-3.06107,-0.27981 -6.12566,-0.53253 -9.19553,-0.74671c-8.01908,-0.55947 -17.17978,-0.35699 -24.97926,-2.4c-1.20409,-0.3154 -2.35239,-0.92443 -3.44052,-1.67684l-4.42369,-2.21185c-0.84561,-0.40086 -1.43041,-1.26228 -1.43041,-2.26029c0,-1.38071 1.11929,-2.5 2.5,-2.5h4.1104c10.71875,0.00001 21.43113,0.23797 32.14405,0.39675c0.1679,-0.12783 0.35246,-0.2349 0.54985,-0.31739l4.51691,-2.00751l0.05707,0.12841l0.36506,-0.27248c12.95857,-0.92292 25.92462,-1.47927 38.90378,-2.00903c22.74038,-0.92716 45.51256,-0.14048 68.25137,-0.74051c3.0757,-0.08116 6.16358,-0.33768 9.24357,-0.58464c-8.61586,-0.88057 -17.27086,-1.31979 -25.94842,-1.92557c-18.44641,-1.28775 -36.88804,-2.63025 -55.32233,-4.08014c-21.48505,-1.68984 -42.78733,-3.93624 -64.1762,-6.57472c-4.61821,-0.56969 -9.64512,-1.01303 -14.5308,-1.77534c-3.38042,0.13205 -6.74165,0.12246 -9.77739,-0.42539h-5c-1.38071,0 -2.5,-1.11929 -2.5,-2.5c0,-1.04532 0.64155,-1.94079 1.55239,-2.31416l-2.3192,-1.19218c-0.18149,-0.08863 -0.35066,-0.1986 -0.50423,-0.32663c-0.76056,-0.12638 -1.2724,-0.21588 -1.3449,-0.23925c-1.20093,-0.38711 -2.4105,-1.11925 -3.57311,-1.9946l-4.29908,-2.45662c-0.77572,-0.42441 -1.30179,-1.24811 -1.30179,-2.19469c0,-1.20237 0.84881,-2.20649 1.97991,-2.44583l4.22645,-0.98855c9.85714,-2.27254 20.44248,-1.17264 30.51815,-0.8252c8.86604,0.30573 17.72218,0.75666 26.57614,1.23132c-1.74136,-0.30857 -3.47217,-0.66133 -5.18614,-1.07358c-1.4321,-0.04074 -2.88895,0.02879 -4.22523,-0.4449c-0.09005,-0.03192 -0.17961,-0.06493 -0.26871,-0.09897l-0.00802,0.02405l-4.68873,-1.56291c-0.95742,-0.29445 -1.66978,-1.14842 -1.75545,-2.18028l-2.3296,-1.1648c-0.84561,-0.40086 -1.43041,-1.26228 -1.43041,-2.26029c0,-0.99877 0.58569,-1.86075 1.43236,-2.26121l3.17362,-1.5835l0.08259,0.16553l0.46179,-0.36227c4.97611,-0.05334 9.93303,-0.01155 14.87552,0.1373c7.78397,-1.06783 15.85042,-0.84328 23.64548,-1.38454c1.74314,-0.12104 3.48495,-0.26756 5.22523,-0.4349c-3.89462,-0.07255 -7.78915,-0.17334 -11.68454,-0.31331c-11.7172,-0.27611 -23.43272,-0.59567 -35.15036,-0.95682c-5.89324,-0.18163 -11.75104,-0.6341 -17.63232,-1.05419c-0.66213,-0.04729 -10.12693,-0.70683 -10.48888,-0.80392c-1.34294,-0.36021 -2.75057,-1.16416 -4.11088,-2.13062l-4.36609,-2.32858c-0.8125,-0.41278 -1.3692,-1.2565 -1.3692,-2.23024c0,-1.11305 0.72739,-2.05622 1.73275,-2.38006l2.91884,-1.01631c6.38568,-2.17727 13.4464,-2.23509 20.42849,-2.03774c-2.15518,-2.46444 -3.21306,-5.58295 -1.85108,-9.44336c0.65312,-1.85123 2.62282,-2.92256 3.98364,-4.33741c1.30751,-1.35942 2.39194,-3.02921 4.01913,-3.98307c1.62719,-0.95386 3.62214,-1.05406 5.43884,-1.5612c2.95021,-0.82358 5.91274,-1.60229 8.8706,-2.39798c-1.81254,-0.04768 -3.62562,-0.10767 -5.44008,-0.18276c-1.86521,-0.07719 -3.78205,0.18285 -5.59409,-0.26599c-1.1348,-0.28109 -2.43629,-1.07188 -3.7186,-2.04077l-4.29908,-2.45662c-0.77572,-0.42441 -1.30179,-1.24811 -1.30179,-2.19469c0,-1.17087 0.80492,-2.15374 1.89159,-2.42545l3.06411,-0.83989c1.68596,-0.4581 3.37192,-0.9162 5.05788,-1.3743c4.19258,-0.32118 8.38515,-0.61362 12.57813,-0.87728c-0.06142,-0.01934 -0.12291,-0.03877 -0.18445,-0.05829c-1.70992,-0.54233 -3.57607,-0.73641 -5.12548,-1.64044c-2.03026,-1.18459 -3.61283,-3.00805 -5.41925,-4.51207c0.93153,-2.18904 1.30887,-4.70909 2.79459,-6.56712c0.72352,-0.90483 1.64888,-1.64998 2.70844,-2.27231c-1.85875,0.01573 -3.71806,0.02398 -5.57831,0.02319c-2.4413,-0.00103 -6.92138,0.19072 -9.43675,-0.50473l-4.93437,-0.58051c-1.25819,-0.13038 -2.23928,-1.1939 -2.23928,-2.48657c0,-1.01572 0.60573,-1.88996 1.47567,-2.28119l4.05769,-1.93156l0.0331,0.06953l0.20407,-0.16783c1.70137,-0.41873 3.40273,-0.83746 5.1041,-1.25618c8.23844,-1.99227 16.7392,-2.09314 25.17104,-2.81834c12.93072,-1.11214 25.77233,-2.53874 38.61796,-4.37358c6.34382,-0.90614 12.62967,-2.17528 18.90135,-3.49522c-11.78527,0.01737 -23.53362,0.13447 -35.3232,0.863c-24.12253,1.4903 -49.44183,2.19038 -73.03214,7.86925c-4.73569,1.14002 -9.45452,2.99507 -14.07341,4.53478c0,0 -2.37171,0.79057 -3.16228,-1.58114c-0.79057,-2.37171 1.58114,-3.16228 1.58114,-3.16228c4.75429,-1.58468 9.61032,-3.47918 14.48433,-4.65249c23.87934,-5.74845 49.47467,-6.48927 73.89397,-7.9986c14.94044,-0.92324 29.81544,-0.87484 44.78097,-0.87484h5c1.38071,0 2.5,1.11929 2.5,2.5c0,0.80412 -0.37964,1.51956 -0.96946,1.97688l-3.37321,2.66446l-0.0321,-0.04063c-0.14322,0.11762 -0.29119,0.23012 -0.44452,0.33685c-1.52058,1.05839 -3.60552,0.85435 -5.41161,1.2671c-4.85501,1.10952 -9.74024,2.05501 -14.62321,3.03112c-16.09696,3.2178 -32.54234,4.71115 -48.88182,6.11659c-6.9783,0.60024 -14.0495,0.71596 -20.93298,1.95762c0.34848,0.01175 0.70317,0.0187 1.06494,0.01854c4.98191,-0.00217 9.95209,0.0005 14.93252,-0.13063c4.57127,-0.12036 9.14268,-0.23806 13.71413,-0.35538c13.18806,-1.89709 26.83109,-1.45113 40.0622,-1.87332c5.02943,-0.16048 10.04221,-0.3238 15.07464,-0.32019c1.73189,0.00124 3.53539,-0.48525 5.19565,0.00767c0.06328,0.01879 0.1262,0.03841 0.18879,0.05882l0.00567,-0.03587l3.3532,0.52973c1.21452,0.17066 2.14898,1.21398 2.14898,2.47555c0,1.38071 -1.11929,2.5 -2.5,2.5h-4.96871c-0.82522,0.02763 -1.65044,0.05526 -2.47566,0.08289c-18.56657,0.61907 -37.13858,1.07765 -55.70934,1.56167c-2.4133,0.35905 -4.80916,0.80141 -7.18142,1.3482c-6.18258,1.42504 -12.69036,1.60037 -16.91058,6.77086c8.76184,3.86279 17.76722,5.53049 27.01428,6.32212c12.08706,-0.48048 24.18311,-0.72133 36.29788,-0.72133c4.82315,0 9.6463,0 14.46945,0c1.66667,0 3.33333,0 5,0c0.83423,0 1.75644,-0.37292 2.50268,0h5c1.38071,0 2.5,1.11929 2.5,2.5c0,1.38071 -1.11929,2.5 -2.5,2.5h-2.62089c-20.4192,1.28344 -41.02756,2.79564 -61.46452,0.74473c-10.68877,0.4586 -21.36857,1.09777 -32.05235,1.86596c-0.62234,0.17223 -1.24469,0.34446 -1.86703,0.51669c0.54264,0.41121 1.04094,0.92542 1.68908,1.07819c4.19705,0.98927 10.03034,0.34597 14.35194,0.42215c9.78468,0.1725 19.56839,0.12251 29.3497,-0.07219c13.25309,-1.32974 26.57549,-2.13311 39.86732,-2.70005c5.03634,-0.21482 10.04731,-0.42948 15.08878,-0.44569c1.45196,-0.00467 2.9561,-0.37619 4.3727,-0.13094c0.79776,-0.06307 1.59611,-0.12167 2.39515,-0.17503l3.02534,-0.20169c0.06292,-0.00474 0.12648,-0.00716 0.19061,-0.00716c1.38071,0 2.5,1.11929 2.5,2.5c0,1.30615 -1.00167,2.37835 -2.27874,2.49034l-4.94768,0.49477l-0.0022,-0.02196c-0.03917,0.01053 -0.07841,0.02088 -0.11771,0.03105c-0.00826,0.00214 -0.84047,0.00588 -2.02328,0.0102c-5.15684,0.44552 -10.29316,1.06072 -15.44221,1.63152c-13.87056,0.65082 -27.72465,1.1577 -41.59184,1.416c-3.54416,0.36843 -7.07904,0.77057 -10.59753,1.2019c-7.51234,0.92094 -15.07577,1.44519 -22.38504,3.43091c-3.21788,0.8697 -6.4277,1.76977 -9.65363,2.60909c-1.40106,0.36452 -2.96587,0.31576 -4.2148,1.04789c-1.24893,0.73213 -1.94903,2.14268 -2.97328,3.16578c-0.94398,0.94292 -2.32569,1.53857 -2.92816,2.72904c-1.57991,3.12184 1.25844,4.10835 3.01465,5.74289c0.80794,0.75197 1.76643,1.43617 2.82222,2.05715c0.5022,0.00645 1.00225,0.01006 1.49984,0.01006c11.57611,0 23.13392,0.17541 34.70718,0.42783c6.17095,0.13459 12.30464,0.60385 18.46141,1.04286c4.14828,0.2958 6.48884,0.07672 10.33508,1.96285l4.71358,1.4885c1.04078,0.30225 1.8015,1.26284 1.8015,2.40111c0,1.27153 -0.94927,2.32135 -2.17779,2.47943l-2.48818,0.36106c4.3707,0.01822 8.74314,0.01931 13.1187,0.01891c1.16094,-0.40486 2.32631,-0.77098 3.49013,-0.53611c0.17055,0.03442 0.33711,0.07878 0.5002,0.13182l0.01668,-0.08341l1.53979,0.30796c1.56503,-0.1316 3.12423,-0.31079 4.67526,-0.55182l2.02492,-0.31153c0,0 2.47093,-0.38014 2.85107,2.09079c0.38014,2.47093 -2.09079,2.85107 -2.09079,2.85107l-2.02492,0.31153c-1.1679,0.178 -2.3394,0.32348 -3.51379,0.44184c-0.37271,0.22078 -0.80771,0.34751 -1.27231,0.34751h-2.50804c-0.35338,0 -0.70673,0.00002 -1.06007,0.00005c-0.1218,0.00559 -0.24363,0.01096 -0.36547,0.01614c-0.9537,0.22363 -2.01861,0.20445 -2.96888,0.4466c-3.30166,0.84134 -6.63466,1.59316 -10.00503,2.09255c-4.65827,0.69022 -9.32795,1.31829 -14.01003,1.81992c3.60784,0.50613 7.21364,1.08471 10.81929,1.7405c5.03646,0.91602 9.94455,1.79791 14.87794,3.1785c1.71282,0.47933 3.64514,0.47858 5.1351,1.44993c0.09428,0.06146 0.18646,0.12538 0.27671,0.19154l0.02292,-0.03819l2.64024,1.58414c0.74893,0.43183 1.25305,1.24069 1.25305,2.16731c0,0.45399 -0.12101,0.87971 -0.33253,1.24667l0.13369,0.00955c1.30732,0.08128 2.34247,1.16732 2.34247,2.49512c0,1.25484 -0.92451,2.29374 -2.12954,2.47274l-3.1749,0.52915l-0.00604,-0.03624c-0.06585,0.02152 -0.13209,0.04212 -0.19876,0.06174c-1.66479,0.49001 -3.4708,0.00707 -5.2062,0.00852c-6.69108,0.00558 -13.36758,-0.07945 -20.05666,-0.23868c-3.40276,-0.081 -6.80411,-0.19314 -10.20447,-0.32771c0.48253,0.45578 0.78364,1.10159 0.78364,1.81773c0,1.08863 -0.69581,2.01474 -1.66696,2.35785l-2.95752,1.12322l-0.02301,-0.06058l-0.15384,0.12029c-1.55321,0.33909 -3.1068,0.65275 -4.66102,0.94275c1.55718,0.1072 3.11517,0.21789 4.67413,0.33196c6.22636,0.45559 12.44144,0.95374 18.65869,1.51894c3.31964,0.30179 6.75483,-0.01379 9.95893,0.90536l4.95408,0.45037c1.28675,0.10234 2.29905,1.17897 2.29905,2.49204c0,1.38071 -1.11929,2.5 -2.5,2.5h-0.48478c13.97137,1.06166 27.9466,2.06892 41.92458,3.04472c13.42017,0.93686 26.78118,1.49426 40.03624,3.83515l4.8817,0.86213c1.19416,0.18839 2.10732,1.22223 2.10732,2.46934c0,1.17852 -0.81547,2.16657 -1.91293,2.43068l-4.78213,1.2641l-0.00817,-0.0309c-0.07506,0.02774 -0.15044,0.05474 -0.22617,0.08097c-0.05426,0.01879 -10.00751,0.6795 -10.21586,0.69341c-6.15954,0.41114 -12.26834,0.89082 -18.44199,0.89167c-21.02721,0.00289 -42.11818,-0.12087 -63.13075,0.73774c-1.44678,0.05905 -2.89327,0.12116 -4.33954,0.18576c0.59967,0.45668 0.98674,1.17821 0.98674,1.99015c0,1.30866 -1.00551,2.38246 -2.28609,2.49098l-4.95003,0.47873l-0.00386,-0.0399l-0.11633,0.04861c-6.1727,0.0035 -12.34541,0.00626 -18.51811,0.0029c-2.47653,-0.00135 -6.67952,0.21603 -9.23193,-0.54385l-0.78401,-0.10488c-7.74836,-0.09747 -15.49568,-0.2367 -23.24484,-0.32845c1.31512,0.08337 2.6055,0.16469 3.83421,0.27458c7.66958,0.68594 15.39694,0.82896 23.05726,1.60896c10.86179,1.10597 21.68797,2.60061 32.5491,3.73995h2.58228v0c1.38071,0 2.5,1.11929 2.5,2.5c0,0.89193 -0.46709,1.67477 -1.17001,2.11725c6.92574,0.73394 13.83538,1.59595 20.71194,2.51458l2.90615,0.38823c1.241,0.1466 2.20359,1.20219 2.20359,2.48261c0,1.22065 -0.87483,2.23698 -2.0317,2.45621l-4.84602,1.02021c-3.26402,1.26331 -6.89527,1.14496 -10.29936,1.28966c-4.99949,0.21253 -9.97009,0.41317 -14.97457,0.41344c-3.29168,0.00018 -6.58234,-0.02653 -9.87242,-0.06827l3.26916,1.06925c1.02841,0.30998 1.77742,1.26451 1.77742,2.39399c0,1.16178 -0.79247,2.13847 -1.86634,2.41899l-3.6982,1.05663l-0.00838,-0.02932c-0.07588,0.02929 -0.15223,0.05758 -0.22908,0.0848c-1.44633,0.51222 -8.08095,0.49375 -10.12913,0.50556c-0.30018,0.25722 -0.66205,0.44451 -1.06037,0.53661l-4.18453,1.06494l-0.00827,-0.03251c-0.07137,0.02701 -0.14311,0.05324 -0.21523,0.07864c-3.25337,1.14573 -10.01785,0.56642 -13.43166,0.567c-4.60012,0.00078 -9.41509,0.40778 -14.00304,-0.01217c-5.3529,-0.48996 -10.93236,-1.81732 -16.24182,-2.70138l-2.089,-3.5378c0,0 0,-2.5 2.5,-2.5zM75.92444,178.39228c0,-0.92661 0.50412,-1.73548 1.25305,-2.16731l0.68435,-0.41061c-0.22187,-0.09087 -0.44498,-0.18479 -0.66882,-0.28178c-0.89723,0.00037 -1.79437,0.00064 -2.69141,0.00064c-6.9894,0 -14.43921,-0.90861 -21.23974,0.71885c0.75381,0.46072 1.42628,1.12249 2.27513,1.34572c3.0563,0.80374 6.30811,0.39587 9.4603,0.62102c3.66529,0.26181 7.33908,0.61199 11.01099,0.81789c-0.0547,-0.2056 -0.08385,-0.42161 -0.08385,-0.64443zM115.75831,176.24866c0,0.19414 -0.01508,0.37321 -0.04289,0.53837c5.57368,0.10998 11.15363,0.03089 16.728,-0.11883c-4.44389,-0.42599 -9.11378,-0.42603 -13.40414,-0.60167c-1.09787,-0.04494 -2.19595,-0.08616 -3.29419,-0.12394c0.00869,0.09762 0.01322,0.19958 0.01322,0.30607zM73.1656,208.78219c6.31112,0.78968 12.63966,1.50849 18.97701,2.17398c7.34997,-0.3157 14.65582,-0.91979 21.94005,-2.00657c-3.15216,-0.10796 -6.33405,-0.09969 -9.42936,-0.15443c-10.49019,-0.18551 -20.99187,-0.18301 -31.4877,-0.01298zM53.41968,204.32034c6.99621,-0.2913 13.98826,-0.43501 20.98097,-0.50211c-0.34836,-0.01254 -0.69674,-0.02482 -1.04513,-0.03684c-8.90244,-0.30698 -18.40047,-1.36236 -27.20927,0.27486c0.47273,0.35761 0.93501,0.74165 1.48845,0.91627c0.4727,0.14915 0.95488,0.28848 1.44515,0.41904l4.08658,-1.02165l0.01644,0.06578zM99.4653,192.41075c-1.79407,0.29562 -3.55938,0.67754 -5.27757,1.17619c0.08047,0.02171 0.16109,0.04329 0.24185,0.06477c5.58758,-0.03974 11.56057,1.13115 16.87635,1.4794c12.05392,0.78969 23.99717,1.84348 36.00862,2.38283c-1.371,-0.25996 -2.74902,-0.51081 -4.13815,-0.76346c-14.57816,-2.65145 -29.0545,-3.80666 -43.7111,-4.33973z" fill="#865b00" stroke="none" stroke-width="0.5" stroke-linecap="butt"></path><path d="M106.94684,234.14578c-1.3832,0.032 -2.76657,0.00227 -4.14986,0.00026c-2.40865,-0.0035 -12.653,0.3903 -9.63752,-8.44905c-2.59078,0.84023 -5.17916,1.70376 -7.7651,2.62643c-1.4199,0.50663 -2.8281,1.83061 -4.26047,1.51056c-0.06495,-0.01451 -0.12975,-0.03057 -0.19441,-0.04809l-0.00053,0.05984l-3.85293,-0.14731c-1.12434,-0.03688 -2.03032,-1.94682 -2.03032,-4.29751c0,-1.95598 0.62728,-3.60679 1.48568,-4.12727l3.88971,-2.56431l0.0197,0.12964l0.17805,-0.23787c6.86572,-1.58828 13.73708,-3.05529 20.60928,-4.50612c-3.4896,0.19949 -6.97893,0.42005 -10.46765,0.68431c-4.93309,0.37364 -9.87149,0.94745 -14.8082,0.93998c-1.42441,-0.00215 -2.88561,0.65926 -4.27322,-0.01081c-0.04781,-0.02309 -0.09538,-0.04762 -0.14272,-0.07351l-0.00282,0.04114l-2.03417,-0.60529c-1.01602,-0.26793 -1.80168,-2.07475 -1.80168,-4.26379c0,-1.51555 0.37659,-2.84789 0.94549,-3.61317l1.74269,-2.41993l0.05607,0.17519l0.18195,-0.45999c0.73179,-0.51667 7.13084,-5.0539 7.52251,-5.24205c0.12687,-0.06094 8.09003,-2.20992 8.27731,-2.26061c5.16525,-1.39816 10.35457,-2.29633 15.55535,-2.91954c-0.3479,-0.13207 -0.69576,-0.26431 -1.04433,-0.38409c-0.07508,-0.0258 -0.15116,-0.05105 -0.22817,-0.0759c-0.09386,0.00015 -0.18773,0.00023 -0.2816,0.00023c-4.86779,0 -9.81388,0.56306 -14.66073,-0.43283c-1.47468,-0.30301 -3.04304,0.19514 -4.42307,-0.92916c-0.7594,-0.61868 -1.40355,-1.66934 -2.02634,-2.80007c-1.22593,0.3188 -2.46144,0.95662 -3.66409,0.47666c-0.04954,-0.01977 -0.09896,-0.04038 -0.14828,-0.06181l-0.00182,0.04918l-3.81538,-0.61132c-1.07428,-0.15004 -1.92335,-2.01263 -1.92335,-4.2883c0,-2.11271 0.73183,-3.86939 1.69628,-4.2302l1.43695,-0.59861l0.01427,0.14867l0.12503,-0.19644c1.38817,-0.18381 2.77682,-0.35268 4.16589,-0.50753c0.21731,-1.74115 0.94554,-3.05309 1.83135,-3.19985l4.08904,-0.77429c0.6947,-0.47281 1.41201,-0.71089 2.14068,-0.82958c-0.22961,-0.09098 -0.45573,-0.21727 -0.6773,-0.38954c-1.52478,-1.18546 -3.65115,-2.77455 -3.89763,-6.12546c-0.15845,-2.15418 0.80301,-3.67314 1.73641,-5.20802c-2.08698,-0.99649 -4.06317,-2.94225 -6.09248,-4.40058c-0.35434,-2.69254 -1.63612,-5.55384 -1.06301,-8.07763c0.60479,-2.66332 2.48375,-2.84979 3.79513,-3.95388c2.42733,-2.04365 4.61522,-2.84749 6.9648,-3.45782c0.37061,-0.73932 0.87337,-1.19355 1.42705,-1.19355c0.0767,0 0.15242,0.00871 0.22694,0.0257l1.72219,0.3491c11.16653,-2.77367 22.34845,-5.40362 33.56432,-7.11947c-8.60791,-0.85227 -17.53475,-1.60669 -25.756,-7.00629c-0.27264,-0.17906 -8.28366,-4.2671 -6.06876,-11.19639c0.70478,-2.20491 5.36118,-4.05672 7.9678,-4.88099c-1.95856,-0.11947 -3.91743,-0.22188 -5.87438,-0.44018c-1.42337,-0.15878 -2.91861,0.46473 -4.27002,-0.47939c-0.04768,-0.03331 -0.09512,-0.0677 -0.14233,-0.10313l-0.00511,0.0532l-2.91139,-1.21284c-0.96444,-0.36081 -1.69628,-2.11748 -1.69628,-4.2302c0,-0.63414 0.06593,-1.2362 0.1843,-1.77807c-0.46578,-0.02424 -0.93171,-0.04674 -1.39785,-0.06669c-1.0472,-0.04485 -6.26089,0.08166 -6.45424,0.00056h-2.65398c-1.13962,0 -2.06347,-1.9243 -2.06347,-4.29805c0,-1.99735 0.65409,-3.67649 1.54045,-4.15878l2.02035,-1.20235l0.02303,0.1679l0.15865,-0.25772c7.48075,-1.55275 14.70681,-2.53249 22.22035,-2.53261c4.12235,-0.00006 8.24561,-0.02385 12.36934,-0.06985c-0.41375,-0.53177 -0.78005,-1.47588 -0.86894,-3.14226c-0.22787,-4.27176 1.82298,-4.7464 1.82298,-4.7464c8.33643,-1.90941 16.99333,-0.64734 25.36482,0.03647c12.4885,1.0201 24.96845,2.31516 37.45675,3.35538l3.23855,0.26983c1.10605,0.07954 1.99098,1.97224 1.99098,4.29545c0,2.15733 -0.76308,3.94344 -1.7577,4.25118l-3.50518,1.21684l-0.00303,-0.03791c-0.03389,0.02328 -0.06786,0.04614 -0.10191,0.06861c-0.01186,0.00782 -8.32075,1.09036 -8.37902,1.09584c-5.51356,0.51852 -11.0476,0.67928 -16.56577,0.84559c-2.16422,0.06523 -4.32848,0.13257 -6.49277,0.20045c0.49168,0.7856 0.80868,2.02186 0.80868,3.41233c0,2.373 -0.92327,4.29685 -2.0624,4.29805c-0.00004,0 -0.00009,0 -0.00014,0l-2.92821,0.00315v-0.00024c-0.00018,0.00008 -0.00036,0.00016 -0.00053,0.00024c-1.34419,0.61096 -2.75165,0.00017 -4.12747,0c-0.83912,-0.0001 -1.67735,0.0242 -2.5151,0.06426l3.25515,0.56448c1.06876,0.16182 1.9117,2.01917 1.9117,4.2866c0,2.24556 -0.82676,4.08891 -1.88085,4.28145l-4.08376,0.85061c-2.96861,2.09919 -7.08823,0.14471 -10.17131,0.39127c-3.8138,0.305 -7.63093,1.28905 -11.43923,1.83544c-2.71563,0.38962 -5.44546,0.42158 -8.15044,1.05584c-0.42001,0.09849 -0.83644,0.27065 -1.25181,0.45991c2.13135,1.18907 4.28575,2.21728 6.46185,2.95873c6.36189,2.16765 12.97623,2.49518 19.40249,3.18161c6.6048,0.70575 13.1993,1.7517 19.79466,2.76252l0.0234,0.0214l0.00079,-0.0168l3.26799,0.66201c1.0565,0.18754 1.88591,2.03321 1.88591,4.28236c0,0.91099 -0.13607,1.75579 -0.36819,2.45103c0.64796,2.49599 0.70694,5.97092 1.1809,8.70845c0.33674,1.94499 0.67322,3.8827 1.01062,5.81546c2.25602,0.40844 4.50853,0.90077 6.75636,1.54761c1.39945,0.40271 2.88578,0.12264 4.19806,1.21242c0.03485,0.02894 0.06953,0.05856 0.10405,0.08883l0.00464,-0.03868l2.31722,1.20665c0.9189,0.43436 1.60488,2.14608 1.60488,4.19153c0,2.15733 -0.76308,3.94344 -1.7577,4.25118l-1.73586,0.60261l-0.00972,-0.12146l-0.1213,0.158c-1.32471,0.10508 -2.64942,0.21016 -3.97413,0.31524c-1.64871,0.12683 -3.29833,0.23118 -4.94869,0.3163c0.0014,0.00775 0.00281,0.01551 0.00421,0.02326c1.3292,-0.01015 2.65846,-0.01556 3.98779,-0.01556c3.14694,0 6.29386,0 9.4408,0h4.12694c1.13962,0 2.06347,1.9243 2.06347,4.29805c0,0.98209 -0.15813,1.88724 -0.42426,2.61101l-0.87062,2.42197l-0.06117,-0.09539c-0.1408,0.44804 -0.30976,0.851 -0.518,1.19108c-1.17611,1.92067 -2.9132,1.44978 -4.39641,1.83138c-2.29002,0.58918 -4.60989,0.44807 -6.91559,0.63422c-1.14951,0.0928 -2.29894,0.17047 -3.44833,0.23699c-0.28701,1.65478 -1.04784,2.8375 -1.94127,2.8375c-0.28745,0 -0.56117,-0.12243 -0.8098,-0.34361l-0.73915,-0.61584c-0.24911,0.2222 -0.52347,0.34522 -0.81162,0.34522h-1.93683l0.11828,0.03285c1.02454,0.25159 1.81929,2.06662 1.81929,4.26827c0,1.23149 -0.24865,2.342 -0.64708,3.12562c0.22236,0.68584 0.35219,1.51255 0.35219,2.40243c0,2.31349 -0.87754,4.20006 -1.97711,4.29436l-2.06156,0.20438c-0.03751,0.0037 -0.07502,0.00739 -0.11252,0.01105c-0.0431,2.15347 -0.84691,3.89757 -1.86635,4.09693l-2.60905,0.58081l-0.00173,-0.03365c-0.02514,0.01625 -0.05033,0.03218 -0.07559,0.04781c-0.0072,0.00445 -8.27053,0.54144 -8.32829,0.54514c-0.98078,0.06292 -1.96156,0.12542 -2.94235,0.18764c-4.90023,0.57155 -9.80078,1.12929 -14.69855,1.78618c-2.49527,0.33466 -4.99606,0.5914 -7.49646,0.56236c-1.51848,-0.01764 -3.13444,1.02228 -4.5553,-0.09363c-0.13436,-0.10553 -0.26547,-0.22326 -0.39371,-0.35174l-0.01599,0.07492l-0.17582,-0.16276c-6.33393,0.59932 -12.65598,1.52051 -18.94747,3.22353c-2.04181,0.55268 -4.11197,0.77372 -6.14498,1.42676c1.89182,-0.12517 3.78316,-0.293 5.67575,-0.43635c15.02945,-1.13838 30.06925,-1.60477 45.09616,-2.76297l3.85018,-0.29661c0.02926,-0.00257 0.05869,-0.00386 0.08826,-0.00386c1.13962,0 2.06347,1.9243 2.06347,4.29805c0,0.25608 -0.01075,0.50694 -0.03137,0.75071c0.20648,0.6693 0.32625,1.46573 0.32625,2.32041c0,1.02545 -0.17241,1.96702 -0.46014,2.70581c2.10101,-0.16161 4.19659,-0.29602 6.27435,-0.48414c3.3385,-0.30228 6.66195,-0.68504 9.99784,-1.0937c1.36695,-0.16745 2.74245,-0.86154 4.10086,-0.50244l3.79284,-0.60771c0.05959,-0.01077 0.1199,-0.01628 0.18082,-0.01628c1.13962,0 2.06347,1.9243 2.06347,4.29805c0,2.17333 -0.77443,3.96992 -1.77986,4.25778l-3.91543,1.26138c-3.47994,1.29462 -6.95892,2.58676 -10.44003,3.84693c0.41228,0.32829 0.82474,0.65431 1.24121,0.94504c1.08544,0.75773 2.4369,1.50872 3.56233,2.87639c4.5868,-1.02887 9.17423,-1.98142 13.79406,-2.60584l0.05334,0.02536l-0.00018,-0.02828l4.12197,-0.11521c0.01075,-0.00034 0.02151,-0.00052 0.03229,-0.00052c1.13962,0 2.06347,1.9243 2.06347,4.29805c0,1.54255 -0.39013,2.8953 -0.97608,3.65352l-1.33228,1.78456l-0.02461,-0.07973c-0.08062,0.13792 -0.16455,0.2686 -0.25222,0.39113c-1.22913,1.71805 -2.85102,1.66133 -4.27787,2.48191c-2.21157,1.27189 -4.4661,2.20878 -6.72035,3.09806c-0.97293,0.38381 -1.94623,0.76338 -2.91995,1.13797c1.06082,0.23541 1.85404,0.41238 1.97155,0.43844l0.20399,0.24038l0.0182,-0.1119l1.64796,1.16311l0.87222,-0.08258c0.03581,-0.00385 0.07186,-0.0058 0.10813,-0.0058c0.92539,0 1.7085,1.26882 1.97023,3.01681c0.24424,0.70614 0.38812,1.57291 0.38812,2.50969c0,1.47172 -0.35513,2.77068 -0.89663,3.54537l-3.34845,4.92321c-0.68214,1.22893 -1.34837,2.24069 -1.91766,2.75574c-5.7713,5.22133 -12.04458,7.18039 -18.19432,9.15091c-11.02918,3.53402 -22.1395,5.93196 -33.13261,9.95579l-0.11857,-0.05669l0.00232,0.07849l-2.69946,0.34639c-0.04812,0.00699 -0.09669,0.01054 -0.14566,0.01054c-1.13962,0 -2.06347,-1.9243 -2.06347,-4.29805c0,-1.33878 0.29387,-2.5346 0.75458,-3.32286l3.1583,-5.48208l0.01904,0.0476c0.06794,-0.13172 0.13693,-0.26137 0.20704,-0.38881c1.10644,-2.01119 2.67,-2.54871 4.00775,-3.81046c0.43532,-0.41058 0.87363,-0.79912 1.31468,-1.16763c-0.75601,0.00376 -1.51218,0.0097 -2.2685,0.01708c-2.43016,1.64462 -5.22327,3.50503 -7.53535,0.09557c-6.69852,0.08132 -13.40008,0.09128 -20.08317,-0.46415l-3.23855,-0.26983c-1.10605,-0.07954 -1.99098,-1.97224 -1.99098,-4.29545c0,-1.2985 0.27645,-2.46252 0.71345,-3.25062l2.35031,-4.28358l0.02653,0.06314c0.11548,-0.21758 0.23581,-0.4252 0.36167,-0.62142c1.2265,-1.91201 2.94873,-1.73388 4.42652,-2.57493c2.67667,-1.52337 5.37506,-2.88132 8.07937,-4.1757c5.35085,-2.56112 10.70599,-5.10505 16.06579,-7.60731c-0.03579,-0.09039 -0.06984,-0.18388 -0.10205,-0.28024c-0.03517,0.00162 -0.05394,0.00246 -0.0546,0.00249zM140.25587,231.07681c-2.97967,0.01797 -5.98273,-0.01639 -8.97584,0.13277c-0.30272,0.8338 -0.74803,1.43051 -1.26035,1.63273l-1.52586,0.66911c-4.22038,1.85051 -8.4375,3.74659 -12.65159,5.67593c1.69956,-0.35348 3.39778,-0.72875 5.0967,-1.10939c1.38051,-1.02096 6.31309,-2.85717 6.74859,-3.03367c4.20821,-1.7055 8.34231,-2.95292 12.56835,-3.96749zM107.30049,225.47934c0.67292,-0.01875 1.34577,-0.04059 2.01862,-0.0647c0.17809,-0.22601 0.35535,-0.45521 0.53223,-0.68589c-0.84874,0.24727 -1.69759,0.49728 -2.54675,0.74936c-0.00137,0.0004 -0.00274,0.00081 -0.00411,0.00121zM111.05538,166.51761c0.06274,-0.04101 0.12547,-0.08208 0.1882,-0.1232c-2.81878,-0.32759 -5.62684,-0.66408 -8.44063,-0.86291c-3.46344,0.0881 -6.93921,0.11623 -10.3932,-0.20425c-0.80717,0.27646 -1.60749,0.62581 -2.40481,1.00719c6.02385,0.35987 12.05786,0.3752 18.08458,0.24994c0.98866,-0.02055 1.97728,-0.0429 2.96587,-0.06675zM135.77112,147.11124c2.13643,-1.96984 4.25665,-4.00434 6.35876,-6.10175c-0.14955,0.02174 -0.29853,0.04859 -0.44667,0.08292c-4.06901,0.94299 -8.12279,1.41167 -12.20945,1.90276c-3.60402,0.43309 -7.19886,1.00943 -10.79073,1.65744c4.70385,0.38051 9.40272,0.94431 14.09084,1.97142c0.9946,0.21791 1.99682,0.34114 2.99724,0.48723zM124.42971,156.83898c0.16867,-0.13408 0.33727,-0.26854 0.50579,-0.40342c-10.86132,-1.41643 -21.72058,-2.86466 -32.56482,-4.83294c-1.13856,0.09256 -2.29606,0.38558 -3.35184,-0.40048c-0.01892,-0.01409 -0.03778,-0.02847 -0.05656,-0.04312c-1.12941,0.28374 -2.25893,0.56559 -3.38871,0.84252c-1.23966,0.30385 -2.42139,1.22488 -3.61945,1.99003c0.6857,0.40241 1.37512,0.76728 2.07767,1.00429c2.63945,0.89044 5.3153,1.43727 8.01044,1.75885c1.99001,-0.6106 4.02671,0.0015 6.03952,0.0019c2.16608,0.00042 4.32339,0.1259 6.47922,0.31402c3.56506,-0.11989 7.11793,-0.31402 10.61978,-0.31402c3.08049,0 6.16392,0.03587 9.24895,0.08237zM147.49007,145.11078c-1.58383,1.64835 -3.17301,3.25081 -4.76815,4.80914c0.14597,0.10582 0.2919,0.21203 0.43787,0.31772c1.51935,0.20871 3.03781,0.41189 4.55505,0.6309c-0.13502,-0.92462 -0.24695,-1.86026 -0.31581,-2.81605c-0.07037,-0.97675 -0.00041,-1.95896 0.09103,-2.94171zM124.33869,263.29282c-3.6663,1.34589 -7.59035,2.60788 -11.14084,5.01837c-0.26502,0.17992 -0.52567,0.38383 -0.78308,0.60547c11.28102,-3.41912 22.67649,-5.52874 33.85588,-10.08748c2.5914,-1.05672 5.66655,-3.03973 8.21616,-5.15113c-3.91044,0.70643 -7.81679,1.49511 -11.72507,2.26476c-0.23878,0.08036 -8.09461,2.7277 -8.21217,2.75241c-2.06142,0.43329 -4.15861,1.06932 -6.22528,0.90406c-0.25251,1.41554 -0.85282,2.47889 -1.58464,2.73951l-2.38691,0.94854l-0.00108,-0.01185zM96.47001,252.25597c-1.13654,0.30929 -2.27006,0.6721 -3.40244,1.0558c1.47467,0.00284 2.9495,-0.00607 4.42424,-0.02021c-0.00039,-0.03422 -0.00058,-0.06854 -0.00058,-0.10296c0,-0.42423 0.02951,-0.83411 0.08448,-1.22122c-0.36874,0.09243 -0.73732,0.18833 -1.1057,0.28858zM124.415,91.33363c-2.82279,-0.13511 -5.64493,-0.1305 -8.44041,0.1657c2.8134,-0.04539 5.62692,-0.10077 8.44041,-0.1657z" fill-opacity="0.55686" fill="#875c00" stroke="none" stroke-width="0.5" stroke-linecap="butt"></path></g></g></svg>