<svg version="1.1" xmlns="http://www.w3.org/2000/svg" xmlns:xlink="http://www.w3.org/1999/xlink" width="480" height="420" viewBox="0,0,480,420"><g transform="translate(0,30)"><g stroke="none" stroke-miterlimit="10"><path d="M0,390v-420h480v420z" fill="#000000" stroke-width="NaN"></path><text transform="translate(99.86387,155.64466) scale(0.93337,0.93337)" font-size="40" xml:space="preserve" fill="#ffffff" stroke-width="1" font-family="Sans Serif" font-weight="normal" text-anchor="start"><tspan x="0" dy="0">winteranimates</tspan></text><path d="M273.24321,234.16161c0,2.5 -2.5,2.5 -2.5,2.5c-5.2381,0 -11.19048,0 -16.42857,0c-9.3802,0 -18.69189,-0.33723 -28.04797,-1.07869c-1.12832,-0.08942 -10.47149,0.32614 -9.4472,-4.4338c0.48875,-2.27124 3.66523,-2.86021 5.57786,-4.17903c1.99678,-1.37684 4.29128,-2.26275 6.46108,-3.34662c9.4076,-4.69937 19.32895,-8.35143 28.44814,-13.74389c3.5712,-2.11176 6.59513,-5.12583 9.84378,-7.68355c0.23546,-2.10402 1.3806,-4.15149 1.11801,-6.2523c-0.15688,-1.25515 -1.23094,-2.21066 -1.81084,-3.33481c-1.2032,-2.33242 -2.51875,-4.65801 -4.26099,-6.62079c-2.91681,-3.28603 -6.45466,-6.51591 -10.75186,-8.00604c-0.96863,-0.33589 -2.04696,-0.12122 -3.06918,-0.19961c-4.3848,-0.33627 -8.34783,-0.31997 -12.74732,-0.22237c-4.19925,0.09316 -9.92019,0.10187 -13.87828,1.74701c-1.1446,0.47574 -1.9492,1.53193 -2.93523,2.28306c-2.65161,2.01992 -5.33333,4 -8,6c0,0 -2,1.5 -3.5,-0.5c-1.5,-2 0.5,-3.5 0.5,-3.5c3.53505,-2.65129 7.84834,-7.14476 11.92191,-8.8598c4.55557,-1.91796 10.92235,-2.05326 15.77651,-2.16894c5.27698,-0.12576 12.32359,-1.08173 17.38586,0.63682c5.19088,1.76222 9.49887,5.49507 13.03463,9.46806c2.03527,2.28694 3.65433,4.95479 4.99608,7.70654c0.78528,1.6105 2.05699,3.08704 2.28845,4.86377c0.16193,1.24298 -1.33362,7.63277 -1.73913,9.46199c-3.69247,3.28697 -7.30723,6.91149 -11.58479,9.45931c-7.885,4.69649 -16.33247,7.73733 -24.57354,11.57807c-2.37382,1.10631 -4.70062,2.31169 -7.02603,3.51643c-0.68885,0.35688 -1.36761,0.85562 -2.06992,1.31147c0.1329,0.01263 0.26566,0.02345 0.39823,0.03173c1.65686,0.10358 3.31086,0.2497 4.96762,0.35491c7.59548,0.48234 15.11545,0.71108 22.72412,0.71108c5.2381,0 10.47619,0 15.71429,0h0.71429c0,0 2.5,0 2.5,2.5z" fill="#ffffff" stroke-width="0.5"></path><text transform="translate(2.5,352.85714) scale(0.5,0.5)" font-size="40" xml:space="preserve" fill="#ffffff" stroke-width="1" font-family="Sans Serif" font-weight="normal" text-anchor="start"><tspan x="0" dy="0">fin</tspan></text></g></g></svg>