<svg version="1.1" xmlns="http://www.w3.org/2000/svg" xmlns:xlink="http://www.w3.org/1999/xlink" width="123.38536" height="199.81111" viewBox="0,0,123.38536,199.81111"><g transform="translate(-176.60967,-79.94219)"><g stroke-miterlimit="10"><path d="M271.29943,220.82499c0.04117,-6.05401 4.9823,-10.96175 11.0363,-10.96175c6.05401,0 10.92837,4.90775 10.8872,10.96175c-0.04117,6.05401 -4.9823,10.96175 -11.0363,10.96175c-6.05401,0 -10.92837,-4.90775 -10.8872,-10.96175z" fill="#d6aa6c" stroke="#804a0f" stroke-width="2.5" stroke-linecap="butt"></path><path d="M248.94828,260.4428c13.03151,0 28.40041,3.79846 28.35043,11.14755c-0.04745,6.9775 -6.52218,6.68852 -19.55369,6.68852c-13.03151,0 -22.48537,0.66056 -22.43792,-6.31694c0.04745,-6.9775 0.60967,-11.51913 13.64118,-11.51913z" fill="#c7bed6" stroke="#5f5775" stroke-width="2.5" stroke-linecap="butt"></path><path d="M235.85196,272.16962c-0.04745,6.9775 -9.49233,6.31694 -22.52384,6.31694c-13.03151,0 -19.51017,0.28897 -19.46271,-6.68853c0.04998,-7.34909 15.47054,-11.14754 28.50205,-11.14754c13.03151,0 13.53196,4.54163 13.48451,11.51913z" fill="#f1f2ff" stroke="#5f5775" stroke-width="2.5" stroke-linecap="butt"></path><g stroke-linecap="butt"><path d="M230.52373,193.70146c-9.96739,0 -25.31793,-3.83015 -25.04689,-11.40093c0.09862,-2.75463 -5.16603,-5.91505 -5.15151,-8.05116c0.05052,-7.42938 12.40351,-9.20209 26.39326,-9.20209c13.98975,0 34.23504,-2.95843 34.13587,11.624c-0.09917,14.58242 -16.34099,17.03018 -30.33074,17.03018z" fill="#c23200" stroke="#490012" stroke-width="2.5"></path><path d="M252.70354,171.87626c-0.00563,0.82843 -9.24433,1.5 -20.6352,1.5c-11.39087,0 -25.62213,-0.42157 -25.6165,-1.25c0.00563,-0.82843 8.24943,-2.25 19.6403,-2.25c11.39087,0 26.61703,1.17157 26.6114,2z" fill="#670000" stroke="none" stroke-width="0"></path></g><g stroke="#12002b" stroke-width="2.5" stroke-linecap="butt"><path d="M237.94176,262.98191l-0.08857,-41.6175h17.83607l8.6426,40.50275z" fill="#0d0b3e"></path><path d="M236.69315,264.19705l-1.04728,-8.59553l29.87479,-2.94862l1.02959,11.19553z" fill="#5a5e90"></path></g><g stroke="#12002b" stroke-width="2.5" stroke-linecap="butt"><path d="M209.53813,262.06932l9.19348,-40.50275h17.83607l-0.6546,41.6175z" fill="#313663"></path><path d="M206.59148,263.59843l1.18187,-11.19553l29.83469,2.94862l-1.16418,8.59553z" fill="#7b7fa8"></path></g><path d="M211.11642,161.45833c-3.89048,-2.80725 -1.48304,-27 -1.48304,-27l68.66214,0.66666c0,0 -7.13469,18.23179 -17.16095,23.66666c-10.02626,5.43487 -30.86841,6.34084 -38.04552,6.25876c-3.10292,-0.03548 -4.28796,-6.74291 -4.28796,-6.74291c0,0 -6.62249,3.91724 -7.68466,3.15082z" fill="#683318" stroke="#45180a" stroke-width="2.5" stroke-linecap="butt"></path><g><g><path d="M214.72735,226.21169c0,0 -2.59989,-50.48471 0.38439,-54.51397c2.92774,-3.95293 14.38788,-3.65123 25.55526,-3.73344c10.56868,-0.07781 20.91123,-0.69078 22.26933,1.00393c4.32014,5.39088 -2.83229,58.50548 -2.83229,58.50548z" fill="#ffb400" stroke="#651f00" stroke-width="2.5" stroke-linecap="butt"></path><path d="M235.36881,203.22566l0.14555,-21.4024" fill="none" stroke="#ffffff" stroke-width="3" stroke-linecap="round"></path><path d="M244.46009,181.01051l0.74458,10.02391" fill="none" stroke="#ffffff" stroke-width="2.5" stroke-linecap="round"></path><path d="M215.01674,184.39776c0,0 -0.89667,-11.54907 2.72731,-13.50722c2.45968,-1.32904 12.95464,-1.83574 23.24659,-1.99041c10.09309,-0.15167 19.99735,0.02884 21.29075,0.74571c1.01251,0.56119 0.60864,8.53342 0.60864,8.53342z" fill="#df7b00" stroke="none" stroke-width="0" stroke-linecap="butt"></path><path d="M229.83434,180.46867l21.1278,0.54183" fill="none" stroke="#ffffff" stroke-width="2.5" stroke-linecap="round"></path></g><path d="M221.93372,222.94144c0,0 1.28267,-5.4689 1.33946,-8.14904c0.05738,-2.70791 -0.99694,-8.01596 -0.99694,-8.01596l34.65969,0.49875c0,0 1.386,5.38029 1.32894,8.07285c-0.05712,2.69577 -1.67146,8.09215 -1.67146,8.09215z" fill="#ffb400" stroke="#651f00" stroke-width="1.5" stroke-linecap="butt"></path></g><path d="M232.56104,173.34167l-2.96134,-14.33334l20.99887,0.16666l-3.58541,14.00001c0,0 -4.28911,1.39474 -6.60878,1.34041c-2.42038,-0.05668 -7.84334,-1.17374 -7.84334,-1.17374z" fill="#d6aa6c" stroke="#804a0f" stroke-width="2.5" stroke-linecap="butt"></path><g><g stroke-linecap="butt"><g stroke="#804a0f" stroke-width="2.5"><path d="M258.85834,137.83842c0.04187,-6.15662 5.06674,-11.14755 11.22336,-11.14755c6.15662,0 11.1136,4.99093 11.07173,11.14755c-0.04187,6.15662 -5.06674,11.14754 -11.22335,11.14754c-6.15662,0 -11.11361,-4.99092 -11.07174,-11.14754z" fill="#d6aa6c"></path><g fill="#ffe4b7"><path d="M204.5461,129.58211c0.13677,-20.11162 16.55134,-36.41531 36.66296,-36.41531c20.11162,0 36.30444,16.30369 36.16766,36.41531c-0.13677,20.11162 -16.55134,36.41531 -36.66296,36.41531c-20.11162,0 -36.30444,-16.30369 -36.16766,-36.41531z"></path><path d="M192.54301,138.41213c0.04187,-6.15662 5.06674,-11.14754 11.22335,-11.14754c6.15662,0 11.1136,4.99093 11.07173,11.14754c-0.04187,6.15662 -5.06674,11.14754 -11.22335,11.14754c-6.15662,0 -11.1136,-4.99093 -11.07173,-11.14754z"></path></g></g><path d="M213.00015,142.22723l9.67299,-17.81542l53.06055,-0.52341c0,0 0.41596,6.20627 0.12122,9.33842c-0.29844,3.17132 -1.9009,9.57344 -1.9009,9.57344c0,0 -16.50734,-7.47454 -23.1539,-7.09481c-6.93819,0.39638 -37.79995,6.52179 -37.79995,6.52179z" fill="#d6aa6c" stroke="none" stroke-width="0"></path></g><g fill="none" stroke="#d6aa6c" stroke-width="0.5" stroke-linecap="round"><path d="M205.29572,140.69642l-4.82702,-4.42857"></path><path d="M205.1791,136.83927l-4.59766,3.85714"></path></g></g><g stroke-linecap="butt"><g stroke="#45180a"><path d="M238.35015,87.62787c11.52716,-1.33299 49.27669,-6.13115 49.27669,-6.13115l-11.14943,19.68979l21.84363,8.19265c0,0 -3.38846,7.74205 -8.48205,10.49598c-1.80993,0.97857 -5.8604,3.18525 -5.8604,3.18525l-7.032,12.43298c0,0 0.24566,-12.83172 -0.49709,-12.67817c-15.81777,3.26992 -37.04082,2.57515 -39.4693,2.34275c-3.89047,0.42717 -12.46931,-0.1447 -12.46931,-0.1447l-12.17813,19.57838c0,0 -11.63303,-19.85616 -9.67236,-27.05117c4.42135,-16.22492 19.62316,-28.05466 35.68977,-29.91259z" fill="#865b00" stroke-width="2.5"></path><path d="M252.18071,103.47168l33.18873,-20.4l-10.52649,18.6c0,0 -8.51747,1.59144 -12.93549,1.88971c-4.46882,0.3017 -9.72675,-0.08971 -9.72675,-0.08971z" fill="#683318" stroke-width="0"></path><path d="M224.09383,123.60501l-11.76373,18.41676l6.51224,-25.55009c0,0 26.95023,1.65758 44.12641,0.28013c17.17619,-1.37745 34.0162,-6.54679 34.0162,-6.54679c0,0 -3.38376,5.40732 -5.60455,7.37699c-2.13551,1.89404 -7.97604,4.47301 -7.97604,4.47301l-4.90734,8.51284c0,0 0.22466,-8.08843 -1.49691,-8.59429c-2.69373,-0.79151 -12.56192,2.21158 -23.89805,2.49493c-14.0059,0.35007 -29.00825,-0.86348 -29.00825,-0.86348z" fill="#683318" stroke-width="0"></path></g><g fill="#f5c827" stroke="#000000" stroke-width="0"><path d="M231.59853,103.93297c-1.5054,4.45665 -5.65899,7.09642 -9.27732,5.89611c-3.61833,-1.20032 -5.33119,-5.78619 -3.82579,-10.24284c1.5054,-4.45665 5.65899,-7.09642 9.27732,-5.89611c3.61833,1.20032 5.33119,5.78619 3.82579,10.24284z"></path><path d="M239.32747,98.57053c-0.83308,2.46631 -3.13169,3.92716 -5.13407,3.26291c-2.00238,-0.66426 -2.95028,-3.20208 -2.1172,-5.66839c0.83308,-2.46631 3.13169,-3.92717 5.13407,-3.26291c2.00238,0.66426 2.95028,3.20208 2.1172,5.6684z"></path><path d="M212.78973,114.75363c-0.1012,1.99246 -1.22444,3.39282 -2.50883,3.12778c-1.28439,-0.26504 -2.24354,-2.0951 -2.14234,-4.08756c0.1012,-1.99246 1.22444,-3.39282 2.50883,-3.12778c1.28439,0.26504 2.24354,2.0951 2.14234,4.08756z"></path><path d="M248.48521,95.46434c-0.1012,1.99246 -1.22445,3.39281 -2.50883,3.12778c-1.28439,-0.26503 -2.24354,-2.0951 -2.14234,-4.08756c0.1012,-1.99246 1.22444,-3.39282 2.50883,-3.12778c1.28438,0.26503 2.24354,2.09511 2.14234,4.08756z"></path><path d="M219.37096,107.07281c0.73451,2.73865 -0.09113,5.34883 -1.84409,5.83c-1.75297,0.48117 -3.76947,-1.34889 -4.50397,-4.08754c-0.73451,-2.73865 0.09113,-5.34883 1.84409,-5.83c1.75297,-0.48117 3.76947,1.34889 4.50397,4.08754z"></path></g></g><path d="M177.85967,221.21297c0.04606,-6.77228 5.57341,-12.2623 12.34569,-12.2623c6.77228,0 12.22496,5.49002 12.17891,12.2623c-0.04606,6.77228 -5.57341,12.2623 -12.34569,12.2623c-6.77228,0 -12.22496,-5.49002 -12.17891,-12.2623z" fill="#ffe4b7" stroke="#804a0f" stroke-width="2.5" stroke-linecap="butt"></path><path d="M232.12924,135.94136c-1.49436,-0.10625 -3.69533,-0.40451 -4.74361,-1.59414c-0.77927,0.36073 -1.57293,0.70661 -2.43707,0.96142c-0.08554,0.04487 -0.17587,0.08178 -0.26999,0.10974c-0.13607,0.04041 -0.28007,0.06212 -0.42899,0.06212c-0.82843,0 -1.49543,-0.67157 -1.4898,-1.5c0.00384,-0.56428 0.31876,-1.05578 0.781,-1.31185c3.699,-3.94739 17.52301,-3.43444 19.63053,-2.64381c1.50603,0.56498 7.86664,3.3157 3.47268,4.88055c-0.55214,0.19663 -1.81622,-0.5004 -3.07769,-1.19989c-1.72258,3.33158 -7.99208,2.4808 -11.43707,2.23586z" fill="#000000" stroke="none" stroke-width="0.5" stroke-linecap="butt"></path><path d="M260.38491,133.41329c-1.27099,0.69949 -2.54455,1.39652 -3.09401,1.19989c-4.37268,-1.56485 2.02535,-4.31557 3.53906,-4.88055c2.11827,-0.79063 15.94925,-1.30358 19.59457,2.64381c0.45876,0.25607 0.767,0.74757 0.76316,1.31185c-0.00563,0.82843 -0.68178,1.5 -1.5102,1.5c-0.14893,0 -0.29263,-0.0217 -0.42816,-0.06212c-0.09374,-0.02795 -0.18357,-0.06486 -0.26848,-0.10974c-0.86068,-0.25482 -1.64963,-0.6007 -2.424,-0.96142c-1.06446,1.18963 -3.26949,1.48789 -4.76528,1.59413c-3.44831,0.24495 -9.72939,1.09572 -11.40665,-2.23586z" fill="#000000" stroke="none" stroke-width="0.5" stroke-linecap="butt"></path><path d="M239.81647,147.00475c6.52772,0.68951 12.98495,1.32662 19.59904,1.25601c1.71237,-0.01828 6.92884,-1.56238 5.83393,1.65666c-0.51221,1.50591 -4.95318,1.34045 -5.74774,1.34334c-7.71455,0.028 -15.87586,-0.28349 -23.46141,-1.78747c-1.99051,-0.39465 -5.85332,-0.58402 -7.45097,-1.96146c-2.89467,-2.49569 3.24844,-6.29105 4.26046,-4.49869c0.44034,0.26093 0.73365,0.74219 0.72991,1.29272c-0.00226,0.33275 -0.1127,0.6402 -0.29774,0.88898c-0.05259,1.82915 4.3546,1.57965 6.53452,1.80991z" fill="#000000" stroke="none" stroke-width="0.5" stroke-linecap="butt"></path></g></g></svg>