<svg version="1.1" xmlns="http://www.w3.org/2000/svg" xmlns:xlink="http://www.w3.org/1999/xlink" width="66.53376" height="72.38991" viewBox="0,0,66.53376,72.38991"><g transform="translate(-198.91486,-140.2275)"><g stroke-miterlimit="10"><g stroke-linecap="butt"><path d="M230.49554,177.56421c-9.96739,0 -25.34398,-3.83015 -25.12442,-11.40093c0.07989,-2.75463 -5.20626,-5.91505 -5.20626,-8.05116c0,-7.42938 12.34093,-9.20209 26.33068,-9.20209c13.98975,0 34.21492,-2.95843 34.21492,11.624c0,14.58242 -16.22517,17.03018 -30.21492,17.03018z" fill="#c23200" stroke="#490012" stroke-width="2.5"></path><path d="M252.52693,155.73901c0,0.82843 -9.23413,1.5 -20.625,1.5c-11.39087,0 -25.625,-0.42157 -25.625,-1.25c0,-0.82843 8.23413,-2.25 19.625,-2.25c11.39087,0 26.625,1.17157 26.625,2z" fill="#670000" stroke="none" stroke-width="0"></path></g><g><g><path d="M214.92025,210.07444c0,0 -2.94322,-50.48471 0.01366,-54.51397c2.90086,-3.95293 14.36305,-3.65123 25.52987,-3.73344c10.56815,-0.07781 20.90653,-0.69078 22.27616,1.00393c4.3568,5.39088 -2.43442,58.50548 -2.43442,58.50548z" fill="#ffb400" stroke="#651f00" stroke-width="2.5" stroke-linecap="butt"></path><path d="M235.4054,187.08841v-21.4024" fill="none" stroke="#ffffff" stroke-width="3" stroke-linecap="round"></path><path d="M244.3456,164.87326l0.81275,10.02391" fill="none" stroke="#ffffff" stroke-width="2.5" stroke-linecap="round"></path><path d="M214.92528,168.26051c0,0 -0.97521,-11.54907 2.63545,-13.50722c2.45064,-1.32904 12.94216,-1.83574 23.23305,-1.99041c10.09206,-0.15167 19.99755,0.02884 21.29582,0.74571c1.01633,0.56119 0.66667,8.53342 0.66667,8.53342z" fill="#df7b00" stroke="none" stroke-width="0" stroke-linecap="butt"></path><path d="M229.71616,164.33142l21.13148,0.54183" fill="none" stroke="#ffffff" stroke-width="2.5" stroke-linecap="round"></path></g><path d="M222.10438,206.80419c0,0 1.24548,-5.4689 1.28404,-8.14904c0.03896,-2.70791 -1.05145,-8.01596 -1.05145,-8.01596l34.66308,0.49875c0,0 1.42259,5.38029 1.38384,8.07285c-0.03879,2.69577 -1.61643,8.09215 -1.61643,8.09215z" fill="#ffb400" stroke="#651f00" stroke-width="1.5" stroke-linecap="butt"></path></g><path d="M231.86344,155.82316l-3.05882,-14.33334l21,0.16666l-3.4902,14.00001c0,0 -4.27962,1.39474 -6.59966,1.34041c-2.42077,-0.05668 -7.85132,-1.17374 -7.85132,-1.17374z" fill="#d6aa6c" stroke="#804a0f" stroke-width="2.5" stroke-linecap="butt"></path></g></g></svg>