<svg version="1.1" xmlns="http://www.w3.org/2000/svg" xmlns:xlink="http://www.w3.org/1999/xlink" width="971.47147" height="855.85586" viewBox="0,0,971.47147,855.85586"><defs><radialGradient cx="479.90241" cy="36.42958" r="252.25225" gradientUnits="userSpaceOnUse" id="color-1"><stop offset="0" stop-color="#ffc500" stop-opacity="0.36471"></stop><stop offset="1" stop-color="#ffc500" stop-opacity="0"></stop></radialGradient><linearGradient x1="240.41292" y1="177.52779" x2="240.41292" y2="366.47731" gradientUnits="userSpaceOnUse" id="color-2"><stop offset="0" stop-color="#de7a00" stop-opacity="0"></stop><stop offset="1" stop-color="#de7a00" stop-opacity="0.44314"></stop></linearGradient><linearGradient x1="119.96469" y1="152.48873" x2="119.96469" y2="257.05672" gradientUnits="userSpaceOnUse" id="color-3"><stop offset="0" stop-color="#ffffff"></stop><stop offset="1" stop-color="#ff6f00"></stop></linearGradient><radialGradient cx="12.93544" cy="387.78093" r="252.25225" gradientUnits="userSpaceOnUse" id="color-4"><stop offset="0" stop-color="#ffc500" stop-opacity="0.36471"></stop><stop offset="1" stop-color="#ffc500" stop-opacity="0"></stop></radialGradient><radialGradient cx="401.82433" cy="242.13529" r="85.58558" gradientUnits="userSpaceOnUse" id="color-5"><stop offset="0" stop-color="#ffc500" stop-opacity="0.36471"></stop><stop offset="1" stop-color="#ffc500" stop-opacity="0"></stop></radialGradient><radialGradient cx="150.32283" cy="-40.89775" r="119.36937" gradientUnits="userSpaceOnUse" id="color-6"><stop offset="0" stop-color="#ffc500" stop-opacity="0.36471"></stop><stop offset="1" stop-color="#ffc500" stop-opacity="0"></stop></radialGradient></defs><g transform="translate(239.31681,215.82267)"><g stroke-miterlimit="10"><path d="M-19.47796,367.84157v-387.44884h520.46385v387.44884z" fill="#000000" stroke="none" stroke-width="0" stroke-linecap="butt"></path><path d="M227.65016,288.68183v-504.5045h504.5045v504.5045z" fill="url(#color-1)" stroke="none" stroke-width="0" stroke-linecap="butt"></path><path d="M-22.20645,366.47731v-188.94952h525.23875v188.94952z" fill="url(#color-2)" stroke="none" stroke-width="0" stroke-linecap="butt"></path><path d="M173.87702,252.62724c0,4.05439 -4.05439,4.42948 -4.05439,4.42948c-8.49491,0 -18.14821,0 -26.64311,0c-15.21238,0 -30.31366,-0.5469 -45.48692,-1.74937c-1.82986,-0.14502 -16.98219,0.52892 -15.32104,-7.19054c0.79263,-3.68339 5.9441,-4.63856 9.04592,-6.77736c3.23829,-2.2329 6.9594,-3.66963 10.47829,-5.4274c15.25682,-7.62122 31.34681,-13.54397 46.1359,-22.28922c5.79161,-3.42476 10.69568,-8.31284 15.96419,-12.46083c0.38186,-3.4122 2.23899,-6.7327 1.81314,-10.1397c-0.25442,-2.03555 -1.99628,-3.58515 -2.93674,-5.40824c-1.9513,-3.78261 -4.08479,-7.55415 -6.91028,-10.7373c-4.73035,-5.32913 -10.46787,-10.56721 -17.43688,-12.98383c-1.57088,-0.54473 -3.31967,-0.19659 -4.97746,-0.32372c-7.11107,-0.54535 -13.53813,-0.51891 -20.67302,-0.36063c-6.81015,0.15108 -16.08811,0.16521 -22.50716,2.83322c-1.85626,0.77153 -3.16112,2.48441 -4.76022,3.70256c-4.30026,3.27581 -8.64935,6.48702 -12.97404,9.73053c0,0 -3.24351,2.43263 -5.67614,-0.81088c-2.43263,-3.24351 0.81088,-5.67614 0.81088,-5.67614c5.73298,-4.29974 12.72808,-11.58705 19.33441,-14.36842c7.38802,-3.11046 17.71337,-3.32988 25.58563,-3.51749c8.55797,-0.20395 19.98584,-1.7543 28.1956,1.03277c8.41833,2.85789 15.40484,8.91165 21.13897,15.35487c3.30071,3.70886 5.92643,8.03545 8.10242,12.49812c1.27353,2.61184 3.33593,5.00642 3.7113,7.88784c0.26261,2.01581 -2.1628,12.37848 -2.82044,15.34503c-5.98828,5.33066 -11.85053,11.20874 -18.78769,15.34068c-12.78753,7.61655 -26.48726,12.54805 -39.85225,18.77679c-3.84975,1.79416 -7.62325,3.74899 -11.3945,5.70279c-1.11715,0.57877 -2.92606,2.16491 -2.71107,2.17834c2.68702,0.16798 5.3694,0.40495 8.05626,0.57558c12.318,0.78224 24.51355,1.1532 36.85294,1.1532c8.49491,0 16.98981,0 25.48472,0h1.1584c0,0 4.05439,0 4.05439,4.05439z" fill="url(#color-3)" stroke="#ffffff" stroke-width="25" stroke-linecap="butt"></path><text transform="translate(17.3396,135.9536) scale(0.68353,0.68353)" font-size="40" xml:space="preserve" fill="#ffffff" stroke="#ffffff" stroke-width="20" stroke-linecap="butt" font-family="Sans Serif" font-weight="normal" text-anchor="start"><tspan x="0" dy="0">winteranimates</tspan></text><path d="M173.87702,252.71382c0,4.05439 -4.05439,4.3429 -4.05439,4.3429c-8.49491,0 -18.14821,0 -26.64311,0c-15.21238,0 -30.31366,-0.5469 -45.48692,-1.74937c-1.82986,-0.14502 -16.98219,0.52892 -15.32104,-7.19054c0.79263,-3.68339 5.9441,-4.63856 9.04592,-6.77736c3.23829,-2.2329 6.9594,-3.66963 10.47829,-5.4274c15.25682,-7.62122 31.34681,-13.54397 46.1359,-22.28922c5.79161,-3.42476 10.69568,-8.31284 15.96419,-12.46083c0.38186,-3.4122 2.23899,-6.7327 1.81314,-10.1397c-0.25442,-2.03555 -1.99628,-3.58515 -2.93674,-5.40824c-1.9513,-3.78261 -4.08479,-7.55415 -6.91028,-10.7373c-4.73035,-5.32913 -10.46787,-10.56721 -17.43688,-12.98383c-1.57088,-0.54473 -3.31967,-0.19659 -4.97746,-0.32372c-7.11107,-0.54535 -13.53813,-0.51891 -20.67302,-0.36063c-6.81015,0.15108 -16.08811,0.16521 -22.50716,2.83322c-1.85626,0.77153 -3.16112,2.48441 -4.76022,3.70256c-4.30026,3.27581 -8.64935,6.48702 -12.97404,9.73053c0,0 -3.24351,2.43263 -5.67614,-0.81088c-2.43263,-3.24351 0.81088,-5.67614 0.81088,-5.67614c5.73298,-4.29974 12.72808,-11.58705 19.33441,-14.36842c7.38802,-3.11046 17.71337,-3.32988 25.58563,-3.51749c8.55797,-0.20395 19.98584,-1.7543 28.1956,1.03277c8.41833,2.85789 15.40484,8.91165 21.13897,15.35487c3.30071,3.70886 5.92643,8.03545 8.10242,12.49812c1.27353,2.61184 3.33593,5.00642 3.7113,7.88784c0.26261,2.01581 -2.1628,12.37848 -2.82044,15.34503c-5.98828,5.33066 -11.85053,11.20874 -18.78769,15.34068c-12.78753,7.61655 -26.48726,12.54805 -39.85225,18.77679c-3.84975,1.79416 -7.62325,3.74899 -11.3945,5.70279c-1.11715,0.57877 -2.21793,1.38761 -3.3569,2.12688c0.21553,0.02048 0.43084,0.03803 0.64583,0.05146c2.68702,0.16798 5.3694,0.40495 8.05626,0.57558c12.318,0.78224 24.51355,1.1532 36.85294,1.1532c8.49491,0 16.98981,0 25.48472,0h1.1584c0,0 4.05439,0 4.05439,4.05439z" fill="#ffffff" stroke="#ff6f00" stroke-width="9" stroke-linecap="butt"></path><path d="M404.83129,270.69113c-4.32333,-0.07815 -8.65317,0.20961 -12.97213,0c-1.07247,-0.05205 -2.36576,-0.02201 -3.125,-0.78125c-4.26227,-4.26227 -3.76114,-11.38775 3.125,-11.71875c6.9219,-0.33272 13.85674,0.30736 20.78631,0.3751c7.36903,0.07204 14.73991,-0.08095 22.10915,-0.08082c4.50802,-1.86428 13.20693,-1.26983 15.21531,-1.02065c1.36327,0.16915 0.01904,-2.75129 0.15537,-4.11822c0.342,-3.42916 1.10084,-3.2441 3.87518,-5.09366c5.52632,-3.68421 15.99959,2.70293 13.26934,-9.77954c-1.33969,-6.12495 -12.72638,-6.23588 -15.23799,-11.25912c-1.28201,-2.56401 -0.42029,-4.53719 -0.40616,-7.13998c0.07106,-13.08818 0.18734,-19.43079 -12.63524,-24.50894c-3.58846,-1.42114 -8.7296,-1.1631 -12.52484,-1.69521c-7.62097,-1.0685 -16.66263,-3.61866 -24.36784,-3.6659c-5.74291,-0.0352 -6.73996,-0.33092 -10.62707,-0.3751c-1.15558,-0.01313 -4.75996,0.27261 -5.40925,-0.86365l-3.07791,-5.38635c0.90382,-1.58169 1.21422,-3.76084 2.4759,-4.98226c0.19241,-0.18627 0.40696,-0.35028 0.6491,-0.48649c0.17697,-0.09955 0.35092,-0.18843 0.52216,-0.26759c0.09951,-0.32602 0.22496,-0.64073 0.37394,-0.94172c1.18628,-4.71475 2.7146,-9.1318 4.10157,-13.98622c1.36164,-4.76574 1.56806,-9.88544 2.37995,-14.75276c0.24274,-1.45523 1.09477,-3.11141 1.12528,-4.51452c0.39828,-18.32044 2.58006,-37.58182 7.44751,-55.22634c3.64481,-13.21246 7.11234,-19.19532 5.68077,-33.65749c-0.26324,-2.6594 -0.29458,-6.78091 -1.88734,-9.05094c-1.27218,-1.81312 -4.59944,-1.91443 -6.51702,-1.91443c-2.90679,0 -7.09838,0.05903 -10.9101,0.94064c-0.38686,0.57639 -0.86712,1.08482 -1.41913,1.50362c-0.19241,0.18628 -0.40695,0.35028 -0.6491,0.48649c-0.91846,0.51664 -1.64429,0.66277 -2.2587,0.7217c-0.28175,0.03907 -0.56951,0.05935 -0.86197,0.05955c-0.77341,0.06452 -1.39296,0.25404 -2.12273,1.48981c-4.8072,8.14039 -5.76681,26.17945 -8.08137,35.49693c-2.23847,9.01115 -6.48025,17.26148 -9.12029,26.08046c-2.04457,6.82981 -5.1348,13.31105 -7.34862,20.12611c-1.15753,3.56336 -2.08724,7.59488 -3.61302,10.89757c-2.72695,5.90279 -4.39807,14.81477 -7.34931,20.2428c-2.85145,5.24449 0.38227,10.55567 -8.82236,12.85683c-2.43426,0.60856 -5.0183,-0.04737 -7.52744,-0.03371c-10.32554,0.05622 -8.05131,-14.47435 -12.846,-20.32151c-1.91415,-2.33433 -2.7745,-6.02674 -4.79692,-8.20325c-6.4108,-6.89924 -11.00851,-17.75806 -14.95783,-26.18768c-1.38205,-2.94991 -3.58926,-5.99345 -5.68099,-8.4338c-2.25109,-2.62628 -3.59166,-6.83705 -5.24469,-9.93471c-2.70576,-5.07039 -6.27051,-8.79827 -10.09369,-12.97299c-2.43942,-2.66374 -7.24147,-9.21865 -7.5091,-14.27254c-2.091,-2.13285 -3.98518,-5.20621 -5.65099,-7.34306c-3.82035,-4.90064 -14.04056,-7.61847 -20.06983,-7.48425c-2.61114,0.05812 -8.18608,4.33987 -10.19728,5.61648c-1.26857,0.80523 -2.16098,3.61928 -2.83257,4.7386c-0.10178,0.16963 -0.40445,0.5562 -0.77164,1.03576c-0.004,0.1397 -0.01544,0.27595 -0.03307,0.40969c-0.00881,1.22146 -0.36801,2.35961 -0.98208,3.31892c-0.07257,0.34194 -0.12467,0.70906 -0.14304,1.11122c-0.21206,4.64335 1.09214,10.61917 3.5428,14.66836c4.45024,7.35308 10.1941,14.66067 12.54384,23.05229c0.61371,2.19173 4.47486,5.38782 5.75915,7.52123c4.83313,8.02862 9.49294,16.56221 14.07954,24.78325c4.5732,8.19702 8.86798,16.93792 14.3491,24.57215c2.52754,3.52042 9.62649,6.02538 13.20677,11.78488c1.59272,2.56217 0.33198,7.30079 -2.42,9.13545c-0.05039,0.03359 -0.36152,0.03813 -0.8207,0.02424c-0.10989,0.08322 -0.22623,0.15994 -0.34976,0.22943c-0.78579,0.44201 -1.61035,0.67124 -2.45666,0.74593c-0.21958,0.02335 -0.44257,0.03532 -0.66834,0.03532c-0.23557,0 -0.46811,-0.01303 -0.69691,-0.03842c-3.15897,-0.26709 -6.48764,-2.18355 -9.15647,-2.90797c-2.22972,-0.60523 -11.41904,-2.50196 -13.31807,0.07853c-1.73165,2.35304 -3.82194,9.16608 -2.63658,11.67151c1.16587,2.46424 3.66384,5.33148 3.98037,8.1012c0.44772,3.91757 -2.96535,7.1659 0.76756,10.55474c4.61761,4.19199 10.59776,2.62568 10.11016,11.40261c-0.29008,5.22135 -5.33389,3.04977 -7.57387,5.13117c-1.89738,1.76306 -4.82824,8.58515 -4.85859,11.29123c-0.07412,6.60987 7.10461,7.62954 7.54082,12.75967c0.43847,5.15685 -5.43085,8.23701 -4.91516,13.96381c0.48666,5.40447 3.84931,12.08267 5.36282,17.22281c4.60043,15.62381 10.07431,30.41112 17.16853,44.9885c0.99401,-0.66661 2.18995,-1.05547 3.47671,-1.05547c2.03393,0 3.84095,0.97156 4.98227,2.4759c0.18628,0.19241 0.35027,0.40696 0.48648,0.6491c2.2278,3.96046 1.68397,5.48266 5.69252,8.85403c2.47219,2.07921 6.59207,3.29032 7.22559,6.45788c0.09502,0.4751 0.17246,0.92579 0.23136,1.35351c4.21315,0.61428 10.72249,0.08556 11.01419,0.08955c8.48012,0.11609 17.47543,0.9029 25.85584,-1.12528c9.97396,-2.41384 22.71928,-10.36877 30.64864,-16.86929c6.3306,-5.18985 9.8942,-17.28641 15.22014,-24.06081c2.39788,-3.05002 3.58067,-2.40176 6.61814,-1.56043c1.03415,0.28644 2.56833,-0.06108 3.09901,0.8716c3.57918,6.29042 4.21044,17.36259 2.543,24.03237c-0.69833,2.79329 -3.28537,6.12565 -4.59148,8.80787c-1.97415,4.05412 -0.31877,8.95766 -1.41002,13.32266c-0.88843,3.55373 -5.03028,5.02979 -7.29154,7.50655c-2.61674,2.86611 -3.91046,8.70156 -8.80125,8.70156c-2.09954,0 -3.98415,-1.6404 -5.46875,-3.125c-4.07598,-4.07598 2.38214,-11.73807 5.10418,-14.12073c0.67754,-0.59307 4.51313,-3.15328 4.61719,-4.1488c0.21698,-2.07591 -0.03894,-4.17431 -0.03894,-6.26153c0,-0.33309 0.74762,-2.5796 0.59105,-2.65972c-0.27957,-0.14306 -0.42683,0.4609 -0.63376,0.69713c-0.86524,0.98777 -1.72555,1.8139 -2.75231,2.65679c-2.16109,1.77408 -4.50956,3.40206 -6.87565,4.92169c-8.06135,5.17742 -16.97721,9.81063 -25.92665,13.00686c-8.01745,2.86338 -21.97422,2.84963 -29.2353,2.13064c-4.42627,-0.43829 -7.49106,-0.09639 -12.89945,-0.22411c-5.5011,-0.12991 -20.97497,-6.47023 -24.29938,-10.45774c-4.76626,-5.71695 -7.67916,-13.77924 -10.92319,-20.37903c-1.80175,-3.66555 -4.21349,-8.75642 -5.50499,-12.42327c-5.4748,-15.54419 -11.40226,-31.3154 -15.46427,-47.28511c-0.87768,-3.45058 -0.33519,-7.24338 0.61607,-10.61906c0.38142,-1.35352 1.99395,-4.00755 1.78256,-4.58643c-1.25247,-3.42992 -4.22186,-5.77594 -5.02428,-9.5507c-1.47658,-6.94618 2.39816,-17.60526 6.30241,-23.35692c0.57872,-0.85257 -1.56748,-1.35003 -2.23808,-2.1324c-0.67475,-0.7872 -2.51561,-3.92353 -2.85363,-4.86998c-1.79223,-5.01824 0.12627,-8.3743 -0.5389,-11.59626c-0.34764,-1.68388 -1.69291,-2.99491 -2.46184,-4.53278c-1.49688,-2.99376 -1.57038,-7.06241 -1.57038,-10.27749c0,-2.14165 1.12983,-3.70528 1.91441,-5.4431c1.47145,-3.25922 1.87966,-6.47663 4.08115,-9.45324c2.72448,-3.68374 8.93286,-4.98132 14.85215,-5.06463c-2.24719,-3.23882 -4.15927,-6.95564 -6.07383,-10.23808c-5.75663,-9.86953 -10.94336,-19.69729 -17.07586,-29.24572c-2.14343,-3.33736 -3.2798,-7.22987 -5.34958,-10.52241c-1.43639,-2.28495 -3.6288,-4.09952 -5.15304,-6.35681c-2.1142,-3.131 -3.01221,-7.46703 -4.85096,-10.8272c-1.47905,-2.70283 -3.70739,-5.46159 -5.27658,-8.30259c-2.58628,-4.68246 -4.69592,-9.05741 -5.99761,-13.76102c-3.86282,-4.26699 -3.36636,-14.81819 -0.37898,-19.211c2.56527,-3.77211 4.60005,-8.09397 7.72272,-11.44795c2.29984,-2.47019 5.90233,-4.03393 9.01488,-5.32319c2.94573,-1.22016 4.75204,-2.84515 7.98236,-3.563c5.94601,-1.32133 15.2736,1.64056 20.61056,4.57026c6.71724,3.6874 10.68025,6.95894 15.3375,12.92384c0.41438,0.53073 1.4978,1.74892 2.35111,2.90028c0.1105,0.14053 0.21511,0.28591 0.31345,0.43577c0.54585,0.78524 0.92282,1.49063 0.82274,1.85761c0.0244,0.0945 0.04663,0.18986 0.06666,0.28603c0.36696,0.32648 0.6953,0.6964 0.97188,1.11127c0.61697,0.92545 -0.82639,3.34139 -0.18755,4.21981c1.60103,2.20141 3.32325,4.34292 5.26629,6.28596c15.40094,15.40095 22.0882,40.09306 35.41662,57.08952c3.54379,4.51906 6.59028,10.77407 9.01702,16.05064c0.75658,1.64506 1.02178,3.39906 1.43681,5.15282c0.1837,0.77623 0.30518,2.92709 0.75738,2.26998c1.11163,-1.61535 1.13097,-5.41773 1.66521,-7.35433c1.89268,-6.86096 4.85924,-14.18091 7.50188,-20.63016c6.52952,-15.93498 11.76301,-32.15284 17.76051,-48.21803c3.36967,-9.02615 2.86805,-19.38863 5.79349,-28.74393c-0.31023,-0.5439 -0.53667,-1.12611 -0.65786,-1.73248c-0.54313,-2.71748 1.80605,-6.87027 3.12335,-9.11891c0.52871,-0.90252 1.09293,-1.76351 1.69037,-2.58354c1.68656,-3.99869 4.19335,-7.34942 8.70918,-8.4271c0.34938,-0.08338 0.788,-0.17778 1.27949,-0.26695c5.33825,-2.87684 11.5731,-4.24632 18.14393,-4.24632c15.52596,0 22.46371,10.53851 22.72841,25.04363c0.12841,7.03668 0.12457,11.81652 -0.9368,18.01998c-2.14487,12.53633 -8.27038,23.97923 -9.56583,36.76294c-1.77439,17.51001 -3.36205,33.66842 -6.26109,51.04977c-0.70693,4.23845 -2.00246,10.9985 -3.75701,16.24051c5.68673,0.4366 10.8359,1.34073 16.87893,2.03552c18.60899,2.13952 42.85483,3.46324 46.59097,26.07155c0.82351,4.98326 0.4818,8.31753 0.5617,14.17163c0.00824,0.6037 1.0892,0.52339 1.6146,0.82086c1.64624,0.93209 3.22985,1.99502 4.80689,3.10918c4.69615,3.31779 9.14652,7.99004 9.33245,14.17186c0.23704,7.88086 -0.353,12.66546 -6.13198,17.61888c-2.942,2.52171 -8.64777,1.40128 -11.30894,3.6194c-0.32143,0.26792 -0.34032,1.86708 -0.50921,2.49358c-0.19365,0.71834 -1.54033,1.57479 -0.94558,2.02175c0.83664,0.62874 2.28946,0.1308 3.01129,0.88858c3.81112,4.0009 3.7809,9.70529 3.50633,14.99322c-0.23513,4.52841 -3.85834,7.49947 -6.75169,10.4522c-0.80678,0.82334 -0.87732,3.28747 -1.83058,4.46984c-1.4351,1.78001 -3.52897,2.68975 -5.61382,3.35305c-0.08152,0.02594 -0.56095,0.32193 -0.57516,0.44423c-0.66636,5.73703 8.24482,7.59733 11.81539,9.86951c4.41884,2.81199 8.50896,15.0644 7.45699,19.79827c-1.77312,7.97902 -8.70797,15.49308 -16.80826,17.51815c-0.11538,0.02884 -0.23071,0.05973 -0.34596,0.09231c0.54209,1.03083 2.53191,0.83509 3.63437,1.47112c1.45027,0.8367 2.22147,4.28173 2.26703,6.04792c0.10652,4.12937 -0.07408,6.79342 0.75019,10.50263c0.53798,2.42093 -3.36789,7.1603 -6.25,7.00018c-2.09632,-0.11646 -4.18293,-1.46526 -5.46875,-3.125c-1.80086,-2.32456 -1.42021,-9.0237 -1.53144,-11.35034c-0.02927,-0.6121 -1.17825,-0.34212 -1.75122,-0.55947c-1.13342,-0.42996 -1.75599,-1.69053 -2.46517,-2.67367c-2.10272,-2.91498 -2.05745,-7.87737 -1.78511,-11.04715c0,-0.21731 0.0111,-0.43204 0.03274,-0.64364c0.2642,-2.58254 2.1008,-4.69948 4.53683,-5.37786c4.31344,-3.01562 12.01315,-4.55942 12.68475,-9.3306c1.21632,-8.64103 -8.08837,-10.34053 -13.70384,-13.33545c-1.00282,-0.53483 -1.49387,-2.29851 -1.964,-3.42148c-1.54625,-3.69336 -3.73917,-8.13781 -4.21213,-12.15025c-0.68946,-5.84923 3.94524,-6.07418 6.37659,-9.97155c0.47014,-0.75362 0.41885,-2.93309 0.61633,-3.723c0.26042,-1.04167 1.38097,-1.65178 2.16679,-2.38347c2.75503,-2.56526 6.28064,-0.65115 6.21913,-5.28892c-0.02852,-2.15008 -6.51851,-3.20551 -8.47911,-3.6372c-1.66231,-0.36602 -3.27301,-0.63655 -4.77943,-0.91866c-10.89067,3.2119 -25.35495,-1.15985 -36.91169,-1.36876z" fill="#ffffff" stroke="none" stroke-width="0.5" stroke-linecap="butt"></path><path d="M424.95916,374.21336c0,6.9775 -9.44937,6.31694 -22.48088,6.31694c-13.03151,0 -19.5082,0.28898 -19.5082,-6.68852c0,-7.34909 15.39473,-11.14755 28.42624,-11.14755c13.03151,0 13.56284,4.54163 13.56284,11.51913z" fill="#c7bed6" stroke="#5f5775" stroke-width="2.5" stroke-linecap="butt"></path><path d="M424.41288,374.42105c0,-6.9775 0.53134,-11.51913 13.56285,-11.51913c13.03151,0 28.42624,3.79845 28.42624,11.14754c0,6.9775 -6.47669,6.68853 -19.5082,6.68853c-13.03151,0 -22.48088,0.66056 -22.48088,-6.31694z" fill="#f1f2ff" stroke="#5f5775" stroke-width="2.5" stroke-linecap="butt"></path><g stroke-linecap="butt"><path d="M400.05984,278.92269c0,-14.58243 20.22517,-11.624 34.21492,-11.624c13.98975,0 26.33068,1.77271 26.33068,9.20209c0,2.13611 -5.28615,5.29653 -5.20626,8.05116c0.21956,7.57078 -15.15703,11.40093 -25.12442,11.40093c-13.98975,0 -30.21492,-2.44776 -30.21492,-17.03018z" fill="#c23200" stroke="#490012" stroke-width="2.5"></path><path d="M434.86837,272.12769c11.39087,0 19.625,1.42157 19.625,2.25c0,0.82843 -14.23413,1.25 -25.625,1.25c-11.39087,0 -20.625,-0.67157 -20.625,-1.5c0,-0.82843 15.23413,-2 26.625,-2z" fill="#670000" stroke="none" stroke-width="0"></path></g><g stroke="#12002b" stroke-width="2.5" stroke-linecap="butt"><path d="M396.00306,364.11859l8.91804,-40.50275h17.83607l-0.37159,41.6175z" fill="#0d0b3e"></path><path d="M393.77118,366.09986l1.10573,-11.19553l29.85474,2.94862l-1.10573,8.59553z" fill="#5a5e90"></path></g><g stroke="#12002b" stroke-width="2.5" stroke-linecap="butt"><path d="M424.41288,365.43549l-0.37158,-41.6175h17.83607l8.91804,40.50275z" fill="#313663"></path><path d="M423.87692,366.19848l-1.10573,-8.59553l29.85474,-2.94862l1.10573,11.19553z" fill="#7b7fa8"></path></g><path d="M449.90133,263.70975c-1.06738,0.76642 -7.66323,-3.15082 -7.66323,-3.15082c0,0 -1.23066,6.70743 -4.33382,6.74291c-7.17767,0.08208 -28.01366,-0.82389 -38.00296,-6.25876c-9.9893,-5.43487 -17,-23.66666 -17,-23.66666l68.66667,-0.66666c0,0 2.24291,24.19275 -1.66666,27z" fill="#683318" stroke="#45180a" stroke-width="2.5" stroke-linecap="butt"></path><g><g><path d="M400.46478,329.72511c0,0 -6.79122,-53.1146 -2.43442,-58.50548c1.36963,-1.69471 11.70801,-1.08174 22.27616,-1.00393c11.16682,0.08221 22.62901,-0.21949 25.52987,3.73344c2.95688,4.02926 0.01366,54.51397 0.01366,54.51397z" fill="#ffb400" stroke="#651f00" stroke-width="2.5" stroke-linecap="butt"></path><path d="M425.3649,305.47709v-21.4024" fill="none" stroke="#ffffff" stroke-width="3" stroke-linecap="round"></path><path d="M416.4247,283.26194l-0.81275,10.02391" fill="none" stroke="#ffffff" stroke-width="2.5" stroke-linecap="round"></path><path d="M398.01403,280.43069c0,0 -0.34966,-7.97223 0.66667,-8.53342c1.29827,-0.71687 11.20376,-0.89738 21.29582,-0.74571c10.29089,0.15467 20.78241,0.66137 23.23305,1.99041c3.61066,1.95815 2.63545,13.50722 2.63545,13.50722z" fill="#df7b00" stroke="none" stroke-width="0" stroke-linecap="butt"></path><path d="M409.92266,283.26192l21.13148,-0.54183" fill="none" stroke="#ffffff" stroke-width="2.5" stroke-linecap="round"></path></g><path d="M404.00284,325.69162c0,0 -1.57764,-5.39638 -1.61643,-8.09215c-0.03875,-2.69256 1.38384,-8.07285 1.38384,-8.07285l34.66308,-0.49875c0,0 -1.09041,5.30805 -1.05145,8.01596c0.03856,2.68014 1.28404,8.14904 1.28404,8.14904z" fill="#ffb400" stroke="#651f00" stroke-width="1.5" stroke-linecap="butt"></path></g><path d="M420.52458,276.76684c-2.32004,0.05433 -6.59966,-1.34041 -6.59966,-1.34041l-3.4902,-14.00001l21,-0.16666l-3.05882,14.33334c0,0 -5.43055,1.11706 -7.85132,1.17374z" fill="#d6aa6c" stroke="#804a0f" stroke-width="2.5" stroke-linecap="butt"></path><g><g stroke-linecap="butt"><g stroke="#804a0f" stroke-width="2.5"><path d="M391.1725,251.23737c-6.15661,0 -11.14754,-4.99092 -11.14754,-11.14754c0,-6.15662 4.99092,-11.14755 11.14754,-11.14755c6.15662,0 11.14755,4.99093 11.14755,11.14755c0,6.15662 -4.99093,11.14754 -11.14755,11.14754z" fill="#d6aa6c"></path><g fill="#ffe4b7"><path d="M420.27313,268.24881c-20.11162,0 -36.41531,-16.30369 -36.41531,-36.41531c0,-20.11162 16.30369,-36.41531 36.41531,-36.41531c20.11162,0 36.41531,16.30369 36.41531,36.41531c0,20.11162 -16.30369,36.41531 -36.41531,36.41531z"></path><path d="M457.48394,251.8111c-6.15661,0 -11.14754,-4.99092 -11.14754,-11.14754c0,-6.15661 4.99092,-11.14754 11.14754,-11.14754c6.15661,0 11.14754,4.99092 11.14754,11.14754c0,6.15661 -4.99092,11.14754 -11.14754,11.14754z"></path></g></g><path d="M448.14838,244.47866c0,0 -30.82011,-6.12541 -37.7556,-6.52179c-6.64398,-0.37973 -23.20215,7.09481 -23.20215,7.09481c0,0 -1.55892,-6.40212 -1.83579,-9.57344c-0.27344,-3.13215 0.18473,-9.33842 0.18473,-9.33842l53.05699,0.52341l9.55183,17.81542z" fill="#d6aa6c" stroke="none" stroke-width="0"></path></g><g fill="none" stroke="#d6aa6c" stroke-width="0.5" stroke-linecap="round"><path d="M460.72037,238.51928l-4.85714,4.42857"></path><path d="M460.57751,242.94784l-4.57143,-3.85714"></path></g></g><g stroke-linecap="butt"><g stroke="#45180a"><path d="M423.16969,189.8793c16.05398,1.85793 31.17534,13.68767 35.48635,29.91259c1.91174,7.19501 -9.85632,27.05117 -9.85632,27.05117l-12.04499,-19.57838c0,0 -8.58273,0.57187 -12.47029,0.1447c-2.43006,0.2324 -23.65784,0.92717 -39.45337,-2.34275c-0.74171,-0.15355 -0.58331,12.67817 -0.58331,12.67817l-6.94745,-12.43298c0,0 -4.03546,-2.20668 -5.83874,-3.18525c-5.07486,-2.75393 -8.41067,-10.49598 -8.41067,-10.49598l21.89934,-8.19265l-11.01553,-19.68979c0,0 37.7169,4.79816 49.23499,6.13115z" fill="#865b00" stroke-width="2.5"></path><path d="M399.50403,205.81282c-4.41599,-0.29827 -12.92264,-1.88971 -12.92264,-1.88971l-10.4,-18.6l33.05,20.4c0,0 -5.26059,0.39141 -9.72736,0.08971z" fill="#683318" stroke-width="0"></path><path d="M437.18136,225.85645c0,0 -15.0106,1.21355 -29.01412,0.86348c-11.3342,-0.28335 -21.18197,-3.28644 -23.88108,-2.49493c-1.72501,0.50586 -1.55536,8.59429 -1.55536,8.59429l-4.84945,-8.51284c0,0 -5.82299,-2.57897 -7.94562,-4.47301c-2.20739,-1.96967 -5.55438,-7.37699 -5.55438,-7.37699c0,0 16.80486,5.16934 33.97168,6.54679c17.16682,1.37745 44.12832,-0.28013 44.12832,-0.28013l6.33848,25.55009l-11.63848,-18.41676z" fill="#683318" stroke-width="0"></path></g><g fill="#f5c827" stroke="#000000" stroke-width="0"><path d="M433.70589,195.94156c3.62649,-1.20031 7.76213,1.43946 9.23722,5.89611c1.47509,4.45665 -0.26896,9.04252 -3.89545,10.24284c-3.62649,1.20031 -7.76213,-1.43946 -9.23722,-5.89611c-1.47509,-4.45665 0.26896,-9.04252 3.89545,-10.24284z"></path><path d="M422.11796,200.82197c-0.81631,-2.46632 0.14885,-5.00414 2.15575,-5.6684c2.0069,-0.66426 4.29557,0.7966 5.11188,3.26291c0.81631,2.46631 -0.14885,5.00413 -2.15575,5.66839c-2.0069,0.66425 -4.29557,-0.7966 -5.11188,-3.26291z"></path><path d="M450.71579,212.9175c1.28619,-0.26504 2.39991,1.13532 2.48756,3.12778c0.08765,1.99246 -0.88395,3.82252 -2.17014,4.08756c-1.28619,0.26504 -2.39991,-1.13532 -2.48756,-3.12778c-0.08765,-1.99246 0.88395,-3.82252 2.17014,-4.08756z"></path><path d="M415.15149,193.62821c1.28619,-0.26504 2.39991,1.13532 2.48756,3.12778c0.08765,1.99246 -0.88395,3.82253 -2.17014,4.08756c-1.28618,0.26503 -2.39991,-1.13532 -2.48756,-3.12778c-0.08765,-1.99245 0.88396,-3.82253 2.17014,-4.08756z"></path><path d="M446.54842,205.2367c1.74969,0.48117 2.55757,3.09135 1.80444,5.83c-0.75313,2.73865 -2.78207,4.56871 -4.53177,4.08754c-1.74969,-0.48117 -2.55757,-3.09135 -1.80444,-5.83c0.75313,-2.73865 2.78207,-4.56871 4.53177,-4.08754z"></path></g></g><path d="M450.48942,337.68321c-6.77228,0 -12.2623,-5.49002 -12.2623,-12.2623c0,-6.77228 5.49002,-12.2623 12.2623,-12.2623c6.77228,0 12.2623,5.49002 12.2623,12.2623c0,6.77228 -5.49002,12.2623 -12.2623,12.2623z" fill="#ffe4b7" stroke="#804a0f" stroke-width="2.5" stroke-linecap="butt"></path><path d="M421.9259,235.95692c-1.26623,0.69949 -2.53505,1.39652 -3.08585,1.19989c-4.38332,-1.56485 1.996,-4.31557 3.50587,-4.88055c2.1129,-0.79063 15.94039,-1.30358 19.61255,2.64381c0.4605,0.25607 0.77208,0.74757 0.77208,1.31185c0,0.82843 -0.67157,1.5 -1.5,1.5c-0.14892,0 -0.29277,-0.02171 -0.42857,-0.06212c-0.09393,-0.02796 -0.18401,-0.06487 -0.26924,-0.10974c-0.86241,-0.25481 -1.65371,-0.60069 -2.43053,-0.96142c-1.05637,1.18963 -3.25937,1.48789 -4.75445,1.59414c-3.44665,0.24494 -9.72194,1.09572 -11.42186,-2.23586z" fill="#000000" stroke="none" stroke-width="0.5" stroke-linecap="butt"></path><path d="M405.10928,235.66471c-1.69992,3.33158 -7.97522,2.48081 -11.42186,2.23586c-1.49507,-0.10624 -3.69807,-0.4045 -4.75444,-1.59413c-0.77682,0.36072 -1.56813,0.7066 -2.43054,0.96142c-0.08522,0.04488 -0.1753,0.08179 -0.26923,0.10974c-0.1358,0.04042 -0.27965,0.06212 -0.42858,0.06212c-0.82842,0 -1.5,-0.67157 -1.5,-1.5c0,-0.56428 0.31158,-1.05578 0.77208,-1.31185c3.67217,-3.94739 17.49966,-3.43444 19.61255,-2.64381c1.50987,0.56498 7.88919,3.3157 3.50587,4.88055c-0.5508,0.19663 -1.81962,-0.5004 -3.08585,-1.19989z" fill="#000000" stroke="none" stroke-width="0.5" stroke-linecap="butt"></path><path d="M423.79105,249.25618c2.18149,-0.23026 6.58698,0.01924 6.54683,-1.80991c-0.18334,-0.24878 -0.29169,-0.55623 -0.29169,-0.88898c0,-0.55053 0.29659,-1.03179 0.7387,-1.29272c1.02421,-1.79236 7.14151,2.003 4.22987,4.49869c-1.60702,1.37744 -5.47112,1.56681 -7.46431,1.96146c-7.59578,1.50398 -15.75921,1.81547 -23.47357,1.78747c-0.79454,-0.00289 -5.23663,0.16257 -5.7386,-1.34334c-1.07301,-3.21904 4.13295,-1.67494 5.8452,-1.65666c6.61361,0.07061 13.07517,-0.5665 19.60758,-1.25601z" fill="#000000" stroke="none" stroke-width="0.5" stroke-linecap="butt"></path><g stroke="none" stroke-width="0.5" stroke-linecap="butt"><path d="M301.50711,292.4072c1.70659,1.70659 0,3.41314 0,3.41314l-0.68296,0.58104c-6.27348,3.75168 -12.46755,5.75187 -19.62294,5.99027c3.55108,12.35119 8.1033,22.66957 17.74,33.29207c2.67737,2.95126 4.17426,6.97247 7.25232,9.50308c5.52519,4.54253 15.28157,2.70045 21.71596,2.23836c6.81514,-0.79123 13.34875,-2.18974 19.58932,-4.4184c-5.86325,-4.46329 -12.54854,-7.94107 -17.33103,-13.72322c-4.85753,-5.87285 -7.94368,-15.38856 -8.99648,-22.75822c0,0 -0.34132,-2.38921 2.04789,-2.73052c2.38921,-0.34131 2.73052,2.04789 2.73052,2.04789c2.4355,17.04852 12.73037,23.9684 25.12037,33.81946v-0.00007c0.52438,0.11705 1.28814,0.42716 1.65438,1.24883c3.5621,-1.59296 7.02231,-3.49313 10.37825,-5.74545l4.08812,-1.5868c0,0 4.18796,-1.39599 6.59353,1.78244l0.66358,-0.38707c11.23089,-6.07088 12.64947,-22.72655 13.34648,-34.27367c-0.01366,-27.89206 -7.176,-53.721 -10.12412,-81.29639c-1.18376,-11.0722 -2.52011,-20.09599 0.45909,-30.45301c-0.0518,-0.40235 -0.05179,-0.6553 -0.05179,-0.6553v-2.64924c0,-23.1712 6.98495,-44.03555 9.79181,-66.75612c3.38807,-16.95279 12.75952,-34.8495 12.72677,-52.01844c-0.00342,-1.79463 0.49925,-12.57926 -1.36887,-13.74393c-0.75281,-0.46934 -1.52763,0.95549 -2.38627,1.17847c-2.61807,0.67992 -5.84987,1.45387 -7.15886,3.82097c-7.01833,12.69161 -10.19832,28.30107 -15.39339,41.8183c-8.74289,22.63223 -11.78794,46.90371 -23.24636,68.63017c-3.9813,7.54898 -10.72123,16.25685 -20.89306,14.10428c-4.99939,-1.05796 -9.61558,-7.84735 -12.33785,-11.65203c-6.33285,-8.85094 -12.12879,-17.96792 -18.16843,-27.02811c-15.20436,-21.96775 -27.56728,-45.48139 -43.55643,-66.89514c-3.22202,-4.31516 -6.04239,-8.56671 -11.58578,-9.57576c-2.01737,-0.36721 -5.52193,-1.43862 -6.12957,0.51981c-0.37129,1.19669 0.6715,2.43053 0.76654,3.67988c0.49763,6.54044 0.35024,10.42009 2.77927,16.63108c2.81608,10.12016 9.4504,17.75279 14.86433,26.55867c15.04681,24.47402 29.82064,48.9728 48.10678,71.32253c0,0 3.82072,4.66979 -0.84906,8.49054c-1.44043,1.17855 -2.80008,1.54923 -3.99173,1.4983c-0.08029,0.41 -0.2043,0.84189 -0.37908,1.29635c-2.16596,5.63148 -7.79744,3.46554 -7.79744,3.46554c-3.9479,-1.52301 -6.83222,-2.82068 -10.98642,-3.69856c-1.83563,-0.38791 -3.70201,-0.69477 -5.57708,-0.75906c-1.08355,-0.03715 -11.38245,0.07199 -11.74536,2.03609c-0.48674,2.63434 2.42937,4.80436 4.02483,6.95638c1.99091,2.68536 4.04771,5.25776 6.10339,7.81853c2.10244,-5.63976 6.47311,-10.51797 12.29865,-11.5747c3.33046,-0.60414 6.7305,1.02826 9.92455,2.14858c10.23109,3.58863 19.74068,12.1759 28.49859,18.27607c5.80629,4.04426 11.7519,7.83625 17.52295,11.85228c-0.04212,-0.7384 0.26587,-1.35439 0.26587,-1.35439l0.00002,-0.00005l0.92088,-1.80008c6.38878,-9.56685 15.91621,-16.7597 27.81439,-16.86661c0,0 2.41346,0 2.41346,2.41347c0,2.41347 -2.41346,2.41347 -2.41346,2.41347c-10.20231,-0.118 -18.40018,6.60528 -23.79815,14.71718l-0.6198,1.28126c0,0 -0.52678,1.0536 -1.58038,1.32063c4.30361,3.10181 8.47652,6.37868 12.38367,10.03556l0.55191,-0.83924c3.67998,-2.90368 5.70178,-6.54405 10.05755,-8.74776c0,0 2.15868,-1.07932 3.238,1.07933c1.07932,2.15867 -1.07932,3.238 -1.07932,3.238c-3.9561,1.94962 -5.84256,5.48312 -9.20085,8.19962l0.26582,-0.03492c0,0 -0.21564,0.43129 -0.64695,0.81194c0.7933,1.64106 1.24323,4.15591 -1.27165,6.67077c-4.26645,4.26645 -8.53288,0 -8.53288,0c-12.40653,-12.51258 -28.77041,-22.39016 -43.5843,-31.86018c-4.41744,-2.82392 -13.59847,-11.17926 -19.16329,-11.04891c-1.60942,0.0377 -2.97271,4.39567 -3.08774,4.82297c-1.67299,6.21455 6.30465,12.78978 10.04409,16.90926c7.8823,5.38767 13.61222,11.4751 20.71239,17.62705c7.54917,6.54097 13.72467,11.64449 18.94765,20.52796l1.60768,6.81779c0,0 1.07932,5.93632 -4.857,7.01567h-0.00002c-3.93443,0.71535 -5.73538,-1.65105 -6.50257,-3.32843c-6.19828,11.08528 -19.53377,8.57419 -29.79163,4.81495c-7.32952,-2.68609 -14.76463,-7.30784 -20.88628,-13.21661c1.08275,5.11881 2.8236,10.02828 4.12302,15.41069c0.54055,2.23902 1.07621,4.4059 1.62472,6.51082c6.82607,-0.02594 12.55448,-1.77546 18.45083,-5.32629l-0.24675,0.14486c0,0 1.70658,-1.70659 3.41314,0zM329.04464,359.43895c-7.08448,0.50357 -15.29711,1.5763 -22.20906,-0.68088c-9.08428,-2.96661 -10.98575,-8.54943 -16.82001,-14.95319c-7.89869,-8.66969 -14.82603,-18.06017 -18.87387,-29.38704c-2.36792,-6.62602 -2.96342,-13.69831 -4.60417,-20.49687c-2.29344,-9.50294 -5.40377,-17.56087 -5.46835,-27.47253c0,0 0.00002,-3.3791 2.5288,-5.07974c-1.75512,-3.67192 -2.9402,-7.54685 -3.38252,-11.54582c-0.43628,-3.94454 0.0475,-14.59919 2.32164,-17.34371c1.86071,-2.24556 5.23833,-2.40658 8.09848,-3.27869c-5.99765,-7.46689 -14.447,-15.4113 -17.09587,-23.68513c-1.0989,-3.43243 -2.6162,-7.30876 -1.44076,-10.71576c5.05667,-14.65672 25.79163,-11.01944 38.60601,-6.98461c-16.43885,-21.09331 -30.19429,-43.83465 -44.18859,-66.55228c-5.94967,-9.65839 -12.80881,-18.00319 -16.04355,-29.07553c-2.63227,-6.94573 -3.7408,-12.97252 -3.40231,-20.45838c0.1445,-3.19574 -0.94772,-6.86543 0.76654,-9.56634c5.81587,-9.16318 19.44064,-8.19141 27.42547,-3.51393c9.59328,5.61973 15.39044,19.04653 21.62482,27.70147c11.79052,16.36833 21.21671,34.23194 32.73724,50.86843c6.00023,8.99964 11.83925,17.98733 18.03794,26.83992c1.66517,2.37808 2.60215,5.88243 5.32382,6.89268c4.26493,1.58309 9.51414,-12.43665 10.24872,-14.15728c8.48996,-19.88624 12.08885,-41.07566 19.79077,-61.18001c4.01668,-10.43533 7.3038,-21.1005 11.52193,-31.45522c0.50441,-1.23825 4.46737,-11.79282 4.87565,-12.38544c4.40792,-6.39807 17.39793,-14.31118 25.77815,-9.12986c7.3664,4.5545 7.47317,16.9248 7.46197,24.22861c-0.02783,18.12342 -9.31867,36.1465 -12.88261,53.95142c-2.7201,21.52211 -9.30873,41.38228 -9.62424,63.20523c1.65044,2.4787 0.46916,5.55008 0.46916,5.55008c-5.04955,12.8599 -1.56617,27.36848 0.34152,40.69331c2.15821,15.07447 6.79928,29.6615 8.41568,44.80697c0.91825,8.604 0.47683,17.35992 0.47285,25.9981c-1.07339,16.69678 -4.08223,34.99899 -19.32755,44.32063l-5.2985,3.09078c0,0 -4.87283,2.84248 -7.94355,-1.68129c-11.76308,7.2129 -24.43702,10.9892 -38.24162,12.63187zM274.942,240.459c-1.09112,-0.03029 -2.54121,-0.90042 -3.27341,-0.09087c-0.70002,0.77402 0.50162,2.03696 0.57158,3.07823c0.2878,4.28284 -0.64903,6.12757 0.95476,10.28937c4.14913,10.76687 15.51556,19.88469 26.03196,23.83459c3.32488,1.24883 10.55789,3.29745 14.05768,2.76487c1.97035,-0.29982 0.77134,-3.93438 0.78488,-5.92735l-1.45785,0.51776c0,0 -3.326,-4.43465 0.64862,-7.99067c-1.72664,-1.51727 -3.55139,-3.04642 -5.48747,-4.73539c-7.20325,-6.28388 -12.84964,-12.14025 -20.79247,-17.69626c-1.66375,-1.80153 -3.64636,-3.82623 -5.60611,-6.00387c-1.17941,0.2578 -2.22065,0.07737 -3.09218,-0.28832c-1.31546,1.66947 -3.34001,2.24793 -3.34001,2.24793z" fill="#804a0f"></path><path d="M274.85866,240.37173c0,0 2.03904,-0.59028 3.3545,-2.25975c0.87153,0.36569 1.923,0.53974 3.10241,0.28194c1.95975,2.17765 3.95596,4.19588 5.61971,5.99741c7.94283,5.55601 13.75268,11.54737 20.95594,17.83125c1.93608,1.68896 3.75538,3.23744 5.48201,4.75471c-3.97461,3.55602 -0.66708,8.0233 -0.66708,8.0233l1.46152,-0.52263c-0.01354,1.99297 1.1712,5.6441 -0.79915,5.94392c-3.49979,0.53258 -10.77739,-1.48864 -14.10228,-2.73747c-10.51641,-3.9499 -22.03828,-13.21464 -26.18741,-23.98151c-1.60379,-4.1618 -0.64659,-6.04712 -0.9344,-10.32996c-0.06997,-1.04127 -1.26593,-2.31106 -0.5659,-3.08508c0.73219,-0.80955 2.18908,0.05355 3.28021,0.08384z" fill="#ffe4b7"></path><path d="M301.4839,292.52561c-1.70656,-1.70659 -3.41735,-0.0009 -3.41735,-0.0009l0.24701,-0.14481c-5.89635,3.55084 -11.64325,5.29449 -18.46932,5.32043c-0.54851,-2.10492 -1.08859,-4.27371 -1.62914,-6.51273c-1.29941,-5.38241 -2.92785,-10.50499 -4.0106,-15.6238c6.12165,5.90877 13.52657,10.51751 20.85609,13.2036c10.25785,3.75923 23.55343,6.2662 29.75171,-4.81908c0.76719,1.67738 2.55952,4.04465 6.49395,3.3293h0.00002c5.93633,-1.07935 4.84858,-7.01423 4.84858,-7.01423l-1.55849,-6.58152c-5.22298,-8.88347 -11.43176,-13.98481 -18.98093,-20.52578c-7.10017,-6.15195 -12.89084,-12.26115 -20.77314,-17.64882c-3.73944,-4.11947 -11.75468,-10.73789 -10.08169,-16.95244c0.11503,-0.4273 1.69698,-4.8869 3.3064,-4.9246c5.56482,-0.13035 14.6894,8.16381 19.10683,10.98773c14.81389,9.47002 31.06396,19.34963 43.47049,31.86221c0,0 4.25534,4.27345 8.52179,0.007c2.51488,-2.51486 2.05764,-5.02408 1.26434,-6.66514c0.43131,-0.38065 0.64548,-0.81071 0.64548,-0.81071l-0.26551,0.03466c3.35829,-2.7165 5.2287,-6.2334 9.1848,-8.18302c0,0 2.15498,-1.07448 1.07565,-3.23315c-1.07932,-2.15865 -3.04308,-0.937 -3.04308,-0.937c-4.35577,2.20371 -6.39585,5.86368 -10.07583,8.76737l-0.55341,0.84051c-3.90715,-3.65688 -8.08689,-6.92849 -12.39051,-10.0303c1.0536,-0.26702 1.43534,-1.51344 1.43534,-1.51344l0.61703,-1.27899c5.39797,-8.1119 13.55969,-14.78307 23.762,-14.66508c0,0 2.41141,0.0063 2.41141,-2.40716c0,-2.41347 -2.18093,-2.349 -2.18093,-2.349c-11.89819,0.10691 -21.46812,7.36442 -27.8569,16.93127l-0.92539,1.80344l-0.00002,0.00005c0,0 -0.31045,0.61767 -0.26833,1.35608c-5.77105,-4.01603 -11.75704,-7.79054 -17.56333,-11.8348c-8.7579,-6.10018 -18.41393,-14.78831 -28.64501,-18.37694c-3.19405,-1.12033 -6.354,-2.7737 -9.68446,-2.16956c-5.82554,1.05674 -10.20055,5.90678 -12.30299,11.54654c-2.05567,-2.56078 -4.34887,-5.08944 -6.33979,-7.7748c-1.59547,-2.15202 -4.51204,-4.33782 -4.02529,-6.97216c0.36291,-1.9641 10.66224,-2.07993 11.74579,-2.04278c1.87507,0.06429 3.98183,0.39257 5.81746,0.78049c4.1542,0.87787 7.03896,2.16355 10.98685,3.68657c0,0 5.39158,2.14905 7.55755,-3.48244c0.17478,-0.45445 0.30031,-0.89433 0.38061,-1.30433c1.19165,0.05093 2.55624,-0.33617 3.99667,-1.51471c4.66978,-3.82075 0.87587,-8.53227 0.87587,-8.53227c-18.28614,-22.34974 -33.04524,-46.86121 -48.09205,-71.33523c-5.41393,-8.80589 -12.0456,-16.44039 -14.86168,-26.56055c-2.42903,-6.211 -2.27688,-10.09378 -2.77451,-16.63422c-0.09504,-1.24935 -1.13698,-2.48372 -0.7657,-3.68041c0.60764,-1.95843 4.11595,-0.88922 6.13331,-0.52201c5.54339,1.00905 8.36789,5.25838 11.58991,9.57354c15.98915,21.41375 28.36728,44.92084 43.57164,66.88859c6.03965,9.06019 11.86872,18.17059 18.20157,27.02153c2.72226,3.80468 7.40697,10.61086 12.40636,11.66883c10.17183,2.15257 16.76532,-6.36568 20.74662,-13.91466c11.45842,-21.72646 14.53045,-45.97791 23.27335,-68.61014c5.19507,-13.51723 8.4861,-29.34091 15.50443,-42.03252c1.30899,-2.3671 4.54386,-3.13948 7.16193,-3.8194c0.85864,-0.22298 1.63444,-1.64728 2.38725,-1.17794c1.86811,1.16466 1.37064,11.95226 1.37406,13.74689c0.03275,17.16894 -9.32384,35.0763 -12.71191,52.02909c-2.80686,22.72056 -9.75235,43.64759 -9.75235,66.81879l0.00118,2.65428c0,0 0.00026,0.25423 0.05206,0.65658c-2.9792,10.35702 -1.64637,19.44142 -0.46261,30.51362c2.94812,27.57539 10.06366,53.46691 10.07732,81.35897c-0.69701,11.54712 -2.13792,28.21481 -13.36881,34.28569l-0.66416,0.38732c-2.40557,-3.17843 -6.59788,-1.78078 -6.59788,-1.78078l-4.09166,1.58801c-3.35595,2.25232 -6.82554,4.15512 -10.38765,5.74808c-0.36624,-0.82166 -1.13109,-1.13153 -1.65547,-1.24858v0.00007c-12.39,-9.85106 -22.7042,-16.76817 -25.1397,-33.81668c0,0 -0.34435,-2.38907 -2.73356,-2.04775c-2.38921,0.34131 -2.05422,2.48928 -2.05422,2.48928c1.0528,7.36966 4.13089,16.88577 8.98842,22.75862c4.78249,5.78215 11.50109,9.4986 17.36434,13.96188c-6.24057,2.22866 -12.79056,3.62925 -19.6057,4.42048c-6.43439,0.46208 -16.20872,2.30385 -21.73391,-2.23868c-3.07806,-2.53062 -4.58204,-6.5527 -7.25941,-9.50396c-9.63669,-10.6225 -14.21325,-20.94723 -17.76433,-33.29841c7.15539,-0.2384 13.41498,-2.46999 19.68846,-6.22167l0.68228,-0.58116c0,0 1.66102,-1.46955 -0.04556,-3.17614z" fill="#ffe4b7"></path><path d="M363.72044,303.10265c0,2.41346 -2.41346,2.41346 -2.41346,2.41346l-0.68453,-0.01863c-7.63456,-0.98158 -15.07052,-4.21608 -21.69714,-8.00271c0,0 -2.09546,-1.19742 -0.89804,-3.29288c1.19741,-2.09546 3.29288,-0.89805 3.29288,-0.89805c6.05029,3.45731 12.91155,6.55939 19.90101,7.404l0.08582,-0.01863c0,0 2.41346,0 2.41346,2.41346z" fill="#804a0f"></path><path d="M361.79459,309.65047c0,2.41346 -2.41347,2.41347 -2.41347,2.41347l-2.30386,-0.12386c-9.36209,-3.16647 -17.04367,-4.8166 -25.01008,-11.18971c0,0 -1.8846,-1.5077 -0.37691,-3.39227c1.50769,-1.8846 3.39227,-0.37691 3.39227,-0.37691c7.48314,5.9865 14.68185,7.46934 23.52112,10.37971l0.77747,-0.12386c0,0 2.41347,0 2.41347,2.41346z" fill="#804a0f"></path></g><text transform="translate(17.3396,135.9536) scale(0.68353,0.68353)" font-size="40" xml:space="preserve" fill="#ffffff" stroke="#869cff" stroke-width="7" stroke-linecap="butt" font-family="Sans Serif" font-weight="normal" text-anchor="start"><tspan x="0" dy="0">winteranimates</tspan></text><path d="M173.87702,253.00234c0,4.05439 -4.05439,4.05439 -4.05439,4.05439c-8.49491,0 -18.14821,0 -26.64311,0c-15.21238,0 -30.31366,-0.5469 -45.48692,-1.74937c-1.82986,-0.14502 -16.98219,0.52892 -15.32104,-7.19054c0.79263,-3.68339 5.9441,-4.63856 9.04592,-6.77736c3.23829,-2.2329 6.9594,-3.66963 10.47829,-5.4274c15.25682,-7.62122 31.34681,-13.54397 46.1359,-22.28922c5.79161,-3.42476 10.69568,-8.31284 15.96419,-12.46083c0.38186,-3.4122 2.23899,-6.7327 1.81314,-10.1397c-0.25442,-2.03555 -1.99628,-3.58515 -2.93674,-5.40824c-1.9513,-3.78261 -4.08479,-7.55415 -6.91028,-10.7373c-4.73035,-5.32913 -10.46787,-10.56721 -17.43688,-12.98383c-1.57088,-0.54473 -3.31967,-0.19659 -4.97746,-0.32372c-7.11107,-0.54535 -13.53813,-0.51891 -20.67302,-0.36063c-6.81015,0.15108 -16.08811,0.16521 -22.50716,2.83322c-1.85626,0.77153 -3.16112,2.48441 -4.76022,3.70256c-4.30026,3.27581 -8.64935,6.48702 -12.97404,9.73053c0,0 -3.24351,2.43263 -5.67614,-0.81088c-2.43263,-3.24351 0.81088,-5.67614 0.81088,-5.67614c5.73298,-4.29974 12.72808,-11.58705 19.33441,-14.36842c7.38802,-3.11046 17.71337,-3.32988 25.58563,-3.51749c8.55797,-0.20395 19.98584,-1.7543 28.1956,1.03277c8.41833,2.85789 15.40484,8.91165 21.13897,15.35487c3.30071,3.70886 5.92643,8.03545 8.10242,12.49812c1.27353,2.61184 3.33593,5.00642 3.7113,7.88784c0.26261,2.01581 -2.1628,12.37848 -2.82044,15.34503c-5.98828,5.33066 -11.85053,11.20874 -18.78769,15.34068c-12.78753,7.61655 -26.48726,12.54805 -39.85225,18.77679c-3.84975,1.79416 -7.62325,3.74899 -11.3945,5.70279c-1.11715,0.57877 -2.21793,1.38761 -3.3569,2.12688c0.21553,0.02048 0.43084,0.03803 0.64583,0.05146c2.68702,0.16798 5.3694,0.40495 8.05626,0.57558c12.318,0.78224 24.51355,1.1532 36.85294,1.1532c8.49491,0 16.98981,0 25.48472,0h1.1584c0,0 4.05439,0 4.05439,4.05439z" fill="#ff6f00" stroke="none" stroke-width="0.5" stroke-linecap="butt"></path><text transform="translate(17.3396,135.9536) scale(0.68353,0.68353)" font-size="40" xml:space="preserve" fill="#ffffff" stroke="none" stroke-width="1" stroke-linecap="butt" font-family="Sans Serif" font-weight="normal" text-anchor="start"><tspan x="0" dy="0">winteranimates</tspan></text><path d="M-239.31681,640.03319v-504.5045h504.5045v504.5045z" fill="url(#color-4)" stroke="none" stroke-width="0" stroke-linecap="butt"></path><path d="M316.23875,327.72087v-171.17117h171.17117v171.17117z" fill="url(#color-5)" stroke="none" stroke-width="0" stroke-linecap="butt"></path><path d="M30.95346,78.47163v-238.73874h238.73874v238.73874z" fill="url(#color-6)" stroke="none" stroke-width="0" stroke-linecap="butt"></path></g></g></svg>