<svg version="1.1" xmlns="http://www.w3.org/2000/svg" xmlns:xlink="http://www.w3.org/1999/xlink" width="108.49795" height="202.54426" viewBox="0,0,108.49795,202.54426"><g transform="translate(-183.69483,-97.92742)"><g stroke-miterlimit="10"><path d="M251.505,280.30159c13.03151,0 28.42624,3.79846 28.42624,11.14755c0,6.9775 -6.47669,6.68852 -19.5082,6.68852c-13.03151,0 -22.48088,0.66056 -22.48088,-6.31694c0,-6.9775 0.53133,-11.51913 13.56284,-11.51913z" fill="#c7bed6" stroke="#5f5775" stroke-width="2.5" stroke-linecap="butt"></path><g stroke="#12002b" stroke-width="2.5" stroke-linecap="butt"><path d="M240.51574,282.8407l-0.37159,-41.6175h17.83607l8.91804,40.50275z" fill="#0d0b3e"></path><path d="M239.2754,284.05584l-1.10573,-8.59553l29.85474,-2.94862l1.10573,11.19553z" fill="#5a5e90"></path></g><g stroke-linecap="butt"><path d="M217.6277,196.33268c0,-14.58243 20.22517,-11.624 34.21492,-11.624c13.98975,0 26.33068,1.77271 26.33068,9.20209c0,2.13611 -5.28615,5.29653 -5.20626,8.05116c0.21956,7.57078 -15.15703,11.40093 -25.12442,11.40093c-13.98975,0 -30.21492,-2.44776 -30.21492,-17.03018z" fill="#c23200" stroke="#490012" stroke-width="2.5"></path><path d="M252.43623,189.53766c11.39087,0 19.625,1.42157 19.625,2.25c0,0.82843 -14.23413,1.25 -25.625,1.25c-11.39087,0 -20.625,-0.67157 -20.625,-1.5c0,-0.82843 15.23413,-2 26.625,-2z" fill="#670000" stroke="none" stroke-width="0"></path></g><g><g><path d="M218.03264,247.13509c0,0 -6.79122,-53.1146 -2.43442,-58.50548c1.36963,-1.69471 11.70801,-1.08174 22.27616,-1.00393c11.16682,0.08221 22.62901,-0.21949 25.52987,3.73344c2.95688,4.02926 0.01366,54.51397 0.01366,54.51397z" fill="#ffb400" stroke="#651f00" stroke-width="2.5" stroke-linecap="butt"></path><path d="M242.93276,222.88706v-21.4024" fill="none" stroke="#ffffff" stroke-width="3" stroke-linecap="round"></path><path d="M233.99256,200.67191l-0.81275,10.02391" fill="none" stroke="#ffffff" stroke-width="2.5" stroke-linecap="round"></path><path d="M215.58189,197.84066c0,0 -0.34966,-7.97223 0.66667,-8.53342c1.29827,-0.71687 11.20376,-0.89738 21.29582,-0.74571c10.29089,0.15467 20.78241,0.66137 23.23305,1.99041c3.61066,1.95815 2.63545,13.50722 2.63545,13.50722z" fill="#df7b00" stroke="none" stroke-width="0" stroke-linecap="butt"></path><path d="M248.622,200.13007l-21.13148,0.54183" fill="none" stroke="#ffffff" stroke-width="2.5" stroke-linecap="round"></path></g><path d="M221.5707,243.10159c0,0 -1.57764,-5.39638 -1.61643,-8.09215c-0.03875,-2.69256 1.38384,-8.07285 1.38384,-8.07285l34.66308,-0.49875c0,0 -1.09041,5.30805 -1.05145,8.01596c0.03856,2.68014 1.28404,8.14904 1.28404,8.14904z" fill="#ffb400" stroke="#651f00" stroke-width="1.5" stroke-linecap="butt"></path></g><path d="M277.69299,181.31711c-1.06738,0.76642 -7.66323,-3.15082 -7.66323,-3.15082c0,0 -1.23066,6.70743 -4.33382,6.74291c-7.17767,0.08208 -28.01366,-0.82389 -38.00296,-6.25876c-9.9893,-5.43487 -17,-23.66666 -17,-23.66666l68.66667,-0.66666c0,0 2.24291,24.19275 -1.66666,27z" fill="#683318" stroke="#45180a" stroke-width="2.5" stroke-linecap="butt"></path><path d="M241.55646,191.21589c-2.32004,0.05433 -6.59966,-1.34041 -6.59966,-1.34041l-3.4902,-14.00001l21,-0.16666l-3.05882,14.33334c0,0 -5.43055,1.11706 -7.85132,1.17374z" fill="#d6aa6c" stroke="#804a0f" stroke-width="2.5" stroke-linecap="butt"></path><path d="M213.4838,166.96946c-6.15661,0 -11.14754,-4.99092 -11.14754,-11.14754c0,-6.15662 4.99092,-11.14755 11.14754,-11.14755c6.15662,0 11.14755,4.99093 11.14755,11.14755c0,6.15662 -4.99093,11.14754 -11.14755,11.14754z" fill="#d6aa6c" stroke="#804a0f" stroke-width="2.5" stroke-linecap="butt"></path><path d="M242.58442,183.8309c-20.11162,0 -36.41531,-16.30369 -36.41531,-36.41531c0,-20.11162 16.30369,-36.41531 36.41531,-36.41531c20.11162,0 36.41531,16.30369 36.41531,36.41531c0,20.11162 -16.30369,36.41531 -36.41531,36.41531z" fill="#ffe4b7" stroke="#804a0f" stroke-width="0" stroke-linecap="butt"></path><path d="M270.45966,160.21074c0,0 -30.82011,-6.12541 -37.7556,-6.52179c-6.64398,-0.37973 -23.20215,7.09481 -23.20215,7.09481c0,0 -1.55892,-6.40212 -1.83579,-9.57344c-0.27344,-3.13215 0.18473,-9.33842 0.18473,-9.33842l53.05699,0.52341l9.55183,17.81542z" fill="#d6aa6c" stroke="none" stroke-width="0" stroke-linecap="butt"></path><path d="M259.31982,177.66736l-0.14324,-0.92158c-3.17023,1.82359 -6.32479,3.9823 -9.7896,5.01212c-1.23666,0.36757 -2.62567,0.18812 -3.8683,0.49572c-3.63217,0.89912 -5.09145,1.68241 -8.89042,0.34747c-3.84331,-0.97026 -7.91067,-2.59385 -11.47962,-4.3518c-3.7271,-1.83584 -6.76909,-4.72456 -10.61205,-6.43194c0,0 -0.39024,-0.17344 -0.45091,-0.55303c-0.19932,-0.14068 -0.39753,-0.28478 -0.59457,-0.43241c0,0 -0.6,-0.45 -0.15,-1.05c0.45,-0.6 1.05,-0.15 1.05,-0.15c6.37679,4.78797 14.0645,5.66838 21.80676,6.15261c8.20817,0.68628 18.02585,-0.76631 25.89404,-3.0879c2.51272,-1.51233 5.47021,-2.24712 8.07806,-3.73983l0.79833,-0.32133c0,0 0.69635,-0.27854 0.9749,0.41782c0.27855,0.69636 -0.41782,0.9749 -0.41782,0.9749l-0.70182,0.27873c-0.40214,0.23165 -0.81223,0.44501 -1.22752,0.64568c0.00038,0.00975 0.00056,0.01954 0.00056,0.02939c0,0.32193 -0.20283,0.5965 -0.48768,0.70285l-0.73386,0.29354c-0.36326,0.14496 -0.72064,0.30097 -1.07369,0.46526l-0.50401,0.676l-0.00416,-0.0031l-0.00609,0.01653c-1.63358,1.9971 -2.87188,3.35571 -4.85833,3.86121c-0.06331,0.04463 -0.12741,0.08861 -0.19235,0.1319l0.0519,0.1946l-1.43284,0.38209c-0.0101,0.00294 -0.02028,0.00566 -0.03055,0.00818c-0.50731,0.44583 -1.00511,-0.04368 -1.00511,-0.04368z" fill="#d6aa6c" stroke="none" stroke-width="0.5" stroke-linecap="butt"></path><path d="M242.58443,183.98092c-20.11162,0 -36.41531,-16.30369 -36.41531,-36.41531c0,-20.11162 16.30369,-36.41531 36.41531,-36.41531c20.11162,0 36.41531,16.30369 36.41531,36.41531c0,20.11162 -16.30369,36.41531 -36.41531,36.41531z" fill="none" stroke="#804a0f" stroke-width="2.5" stroke-linecap="butt"></path><path d="M279.79524,167.54316c-6.15661,0 -11.14754,-4.99092 -11.14754,-11.14754c0,-6.15661 4.99092,-11.14754 11.14754,-11.14754c6.15661,0 11.14754,4.99092 11.14754,11.14754c0,6.15661 -4.99092,11.14754 -11.14754,11.14754z" fill="#ffe4b7" stroke="#804a0f" stroke-width="2.5" stroke-linecap="butt"></path><g fill="none" stroke="#d6aa6c" stroke-width="0.5" stroke-linecap="round"><path d="M278.17452,158.67991l4.85714,-4.42857"></path><path d="M282.88881,158.67991l-4.57143,-3.85714"></path></g><g stroke-linecap="butt"><g stroke="#45180a"><path d="M245.48099,105.61137c16.05398,1.85793 31.17534,13.68767 35.48635,29.91259c1.91174,7.19501 -9.85632,27.05117 -9.85632,27.05117l-12.04499,-19.57838c0,0 -8.58273,0.57187 -12.47029,0.1447c-2.43006,0.2324 -23.65784,0.92717 -39.45337,-2.34275c-0.74171,-0.15355 -0.58331,12.67817 -0.58331,12.67817l-6.94745,-12.43298c0,0 -4.03546,-2.20668 -5.83874,-3.18525c-5.07486,-2.75393 -8.41067,-10.49598 -8.41067,-10.49598l21.89934,-8.19265l-11.01553,-19.68979c0,0 37.7169,4.79816 49.23499,6.13115z" fill="#865b00" stroke-width="2.5"></path><path d="M221.81533,121.54489c-4.41599,-0.29827 -12.92264,-1.88971 -12.92264,-1.88971l-10.4,-18.6l33.05,20.4c0,0 -5.26059,0.39141 -9.72736,0.08971z" fill="#683318" stroke-width="0"></path><path d="M259.49266,141.58852c0,0 -15.0106,1.21355 -29.01412,0.86348c-11.3342,-0.28335 -21.18197,-3.28644 -23.88108,-2.49493c-1.72501,0.50586 -1.55536,8.59429 -1.55536,8.59429l-4.84945,-8.51284c0,0 -5.82299,-2.57897 -7.94562,-4.47301c-2.20739,-1.96967 -5.55438,-7.37699 -5.55438,-7.37699c0,0 16.80486,5.16934 33.97168,6.54679c17.16682,1.37745 44.12832,-0.28013 44.12832,-0.28013l6.33848,25.55009l-11.63848,-18.41676z" fill="#683318" stroke-width="0"></path></g><g fill="#f5c827" stroke="#000000" stroke-width="0"><path d="M256.01719,111.67363c3.62649,-1.20031 7.76213,1.43946 9.23722,5.89611c1.47509,4.45665 -0.26896,9.04252 -3.89545,10.24284c-3.62649,1.20031 -7.76213,-1.43946 -9.23722,-5.89611c-1.47509,-4.45665 0.26896,-9.04252 3.89545,-10.24284z"></path><path d="M244.42926,116.55404c-0.81631,-2.46632 0.14885,-5.00414 2.15575,-5.6684c2.0069,-0.66426 4.29557,0.7966 5.11188,3.26291c0.81631,2.46631 -0.14885,5.00413 -2.15575,5.66839c-2.0069,0.66425 -4.29557,-0.7966 -5.11188,-3.26291z"></path><path d="M273.02709,128.64957c1.28619,-0.26504 2.39991,1.13532 2.48756,3.12778c0.08765,1.99246 -0.88395,3.82252 -2.17014,4.08756c-1.28619,0.26504 -2.39991,-1.13532 -2.48756,-3.12778c-0.08765,-1.99246 0.88395,-3.82252 2.17014,-4.08756z"></path><path d="M237.46279,109.36028c1.28619,-0.26504 2.39991,1.13532 2.48756,3.12778c0.08765,1.99246 -0.88395,3.82253 -2.17014,4.08756c-1.28618,0.26503 -2.39991,-1.13532 -2.48756,-3.12778c-0.08765,-1.99245 0.88396,-3.82253 2.17014,-4.08756z"></path><path d="M268.85972,120.96877c1.74969,0.48117 2.55757,3.09135 1.80444,5.83c-0.75313,2.73865 -2.78207,4.56871 -4.53177,4.08754c-1.74969,-0.48117 -2.55757,-3.09135 -1.80444,-5.83c0.75313,-2.73865 2.78207,-4.56871 4.53177,-4.08754z"></path></g></g><path d="M228.91983,162.96598l10.69873,-0.42633" fill="none" stroke="#000000" stroke-width="3" stroke-linecap="round"></path><path d="M241.69684,149.62024c-0.22807,-0.27746 -0.43113,-0.59706 -0.60581,-0.96426c-3.00556,0.24865 -6.47182,0.03897 -4.85214,-2.88431c0.66246,-1.19565 2.82457,-1.0408 3.89247,-1.17441c5.73625,-0.71772 11.69029,-0.89691 17.45395,-0.93211c0.8754,-0.00534 1.8782,0.03821 2.81642,0.23091c1.23674,0.25402 2.36125,0.76718 2.93377,1.76909l-0.98493,1.72363c-0.20148,0.35258 -1.87377,0.47375 -3.8715,0.50058c0.48001,3.01781 -3.2336,2.75238 -5.49993,2.83717c-3.9639,0.14829 -8.94097,1.74202 -11.28231,-1.1063z" fill="#000000" stroke="none" stroke-width="0.5" stroke-linecap="butt"></path><path d="M227.84589,149.46716c-2.34134,2.84832 -7.31841,1.25459 -11.28231,1.1063c-2.26633,-0.08478 -5.97994,0.18064 -5.49993,-2.83717c-1.99773,-0.02683 -3.67002,-0.14799 -3.8715,-0.50058l-0.98493,-1.72363c0.57252,-1.00191 1.69703,-1.51507 2.93377,-1.76909c0.93822,-0.1927 1.94102,-0.23626 2.81642,-0.23091c5.76366,0.0352 11.7177,0.21439 17.45395,0.93211c1.06791,0.13361 3.23002,-0.02124 3.89248,1.17441c1.61967,2.92328 -1.84659,3.13296 -4.85215,2.8843c-0.17467,0.3672 -0.37773,0.6868 -0.6058,0.96426z" fill="#000000" stroke="none" stroke-width="0.5" stroke-linecap="butt"></path><path d="M256.59227,169.12295c-0.74628,-0.07463 -0.67165,-0.82091 -0.67165,-0.82091l0.07375,-0.72807c-0.00249,-2.14745 -0.58656,-5.9711 0.72199,-7.72914c0.88671,-1.1913 3.8364,-2.377 5.16558,-2.94888c0,0 0.68936,-0.29544 0.9848,0.39392c0.29544,0.68936 -0.39392,0.98479 -0.39392,0.98479c-1.1541,0.4925 -3.87529,1.56935 -4.63084,2.56161c-0.96448,1.26666 -0.34778,5.21388 -0.34948,6.81241l-0.07933,0.80262c0,0 -0.07463,0.74628 -0.82091,0.67165z" fill="#000000" stroke="none" stroke-width="0.5" stroke-linecap="butt"></path><path d="M217.41006,169.93382c-0.74628,0.07463 -0.8209,-0.67165 -0.8209,-0.67165l-0.07933,-0.80262c-0.0017,-1.59853 0.615,-5.54575 -0.34949,-6.81241c-0.75554,-0.99226 -3.47674,-2.06911 -4.63083,-2.56161c0,0 -0.68936,-0.29544 -0.39392,-0.9848c0.29544,-0.68936 0.9848,-0.39392 0.9848,-0.39392c1.32918,0.57188 4.27887,1.75758 5.16558,2.94888c1.30854,1.75804 0.72447,5.58169 0.72199,7.72914l0.07375,0.72808c0,0 0.07463,0.74628 -0.67165,0.82091z" fill="#000000" stroke="none" stroke-width="0.5" stroke-linecap="butt"></path><path d="M222.48548,299.22168c-10.54868,0 -19.16839,-1.31181 -18.11395,-9.88028c1.11059,-9.02479 14.14625,-13.68933 24.69493,-13.68933c10.54868,0 10.37226,4.78793 11.73801,13.31232c0.94556,5.9018 -7.77031,10.25729 -18.31898,10.25729z" fill="#f1f2ff" stroke="#5f5775" stroke-width="2.5" stroke-linecap="butt"></path><g stroke="#12002b" stroke-width="2.5" stroke-linecap="butt"><path d="M212.10331,276.92089l7.20006,-40.50275h19.58083l2.25372,41.6175z" fill="#313663"></path><path d="M208.97762,278.45l0.49788,-11.19553l32.96377,2.94862l-0.66417,8.59553z" fill="#7b7fa8"></path></g><path d="M203.48943,243.50084c0,-6.77228 5.49002,-12.2623 12.2623,-12.2623c6.77228,0 12.2623,5.49002 12.2623,12.2623c0,6.77228 -5.49002,12.2623 -12.2623,12.2623c-6.77228,0 -12.2623,-5.49002 -12.2623,-12.2623z" fill="#ffe4b7" stroke="#804a0f" stroke-width="2.5" stroke-linecap="butt"></path><g stroke="#804a0f" stroke-width="2.5" stroke-linecap="butt"><path d="M251.22925,202.62787c-6.7297,0.75828 -12.7999,-4.08251 -13.55819,-10.8122c-0.75829,-6.7297 4.11033,-12.58415 10.8122,-13.55819c1.13214,-0.16455 3.20245,-0.22859 3.22995,-1.41733c0.09008,-3.89301 -1.12685,-9.48535 -0.3357,-12.12631c0.07658,-0.70798 3.24376,-0.67159 4.04355,-0.98162c3.55973,3.18266 6.23524,21.91925 6.62039,25.33745c0.75828,6.72969 -4.08251,12.79989 -10.8122,13.55818z" fill="#ffe4b7"></path><path d="M251.22925,202.62787c-6.7297,0.75828 -12.7999,-4.08251 -13.55819,-10.8122c-0.75829,-6.7297 4.11033,-12.58415 10.8122,-13.55819c1.13214,-0.16455 3.20245,-0.22859 3.22995,-1.41733c0.09008,-3.89301 -1.12685,-9.48535 -0.3357,-12.12631c0.07658,-0.70798 3.24376,-0.67159 4.04355,-0.98162c3.55973,3.18266 6.23524,21.91925 6.62039,25.33745c0.75828,6.72969 -4.08251,12.79989 -10.8122,13.55818z" fill="none"></path></g></g></g></svg>