<svg version="1.1" xmlns="http://www.w3.org/2000/svg" xmlns:xlink="http://www.w3.org/1999/xlink" width="114.52352" height="199.79825" viewBox="0,0,114.52352,199.79825"><g transform="translate(-181.76108,-79.94)"><g stroke-miterlimit="10"><path d="M183.01108,220.82499c0,-6.05401 4.90775,-10.96175 10.96175,-10.96175c6.05401,0 10.96175,4.90775 10.96175,10.96175c0,6.05401 -4.90775,10.96175 -10.96175,10.96175c-6.05401,0 -10.96175,-4.90775 -10.96175,-10.96175z" fill="#d6aa6c" stroke="#804a0f" stroke-width="2.5" stroke-linecap="butt"></path><path d="M238.12647,271.96193c0,6.9775 -9.44937,6.31694 -22.48088,6.31694c-13.03151,0 -19.5082,0.28898 -19.5082,-6.68852c0,-7.34909 15.39473,-11.14755 28.42624,-11.14755c13.03151,0 13.56284,4.54163 13.56284,11.51913z" fill="#c7bed6" stroke="#5f5775" stroke-width="2.5" stroke-linecap="butt"></path><path d="M235.86565,272.16962c0,-6.9775 0.53134,-11.51913 13.56285,-11.51913c13.03151,0 28.42624,3.79845 28.42624,11.14754c0,6.9775 -6.47669,6.68853 -19.5082,6.68853c-13.03151,0 -22.48088,0.66056 -22.48088,-6.31694z" fill="#f1f2ff" stroke="#5f5775" stroke-width="2.5" stroke-linecap="butt"></path><g stroke="#12002b" stroke-width="2.5" stroke-linecap="butt"><path d="M209.17037,261.86716l8.91804,-40.50275h17.83607l-0.37159,41.6175z" fill="#0d0b3e"></path><path d="M206.93849,263.84843l1.10573,-11.19553l29.85474,2.94862l-1.10573,8.59553z" fill="#5a5e90"></path></g><g stroke="#12002b" stroke-width="2.5" stroke-linecap="butt"><path d="M235.86565,263.18406l-0.37158,-41.6175h17.83607l8.91804,40.50275z" fill="#313663"></path><path d="M235.32969,263.94705l-1.10573,-8.59553l29.85474,-2.94862l1.10573,11.19553z" fill="#7b7fa8"></path></g><path d="M232.73504,173.34167l-3.05882,-14.33334l21,0.16666l-3.4902,14.00001c0,0 -4.27962,1.39474 -6.59966,1.34041c-2.42077,-0.05668 -7.85132,-1.17374 -7.85132,-1.17374z" fill="#d6aa6c" stroke="#804a0f" stroke-width="2.5" stroke-linecap="butt"></path><g><g stroke="#804a0f" stroke-width="2.5" stroke-linecap="butt"><g><path d="M210.33409,150.48594c-5.91589,0 -10.71168,-4.99092 -10.71168,-11.14754c0,-6.15662 4.79578,-11.14755 10.71168,-11.14755c5.9159,0 10.71169,4.99093 10.71169,11.14755c0,6.15662 -4.79579,11.14754 -10.71169,11.14754z" fill="#d6aa6c"></path><g fill="#ffe4b7"><path d="M238.2969,167.49743c-19.32527,0 -34.99149,-16.30369 -34.99149,-36.41531c0,-20.11162 15.66623,-36.41531 34.99149,-36.41531c19.32527,0 34.99149,16.30369 34.99149,36.41531c0,20.11162 -15.66623,36.41531 -34.99149,36.41531z"></path><path d="M274.05279,151.05967c-5.91589,0 -10.71168,-4.99092 -10.71168,-11.14754c0,-6.15661 4.79578,-11.14754 10.71168,-11.14754c5.91589,0 10.71168,4.99092 10.71168,11.14754c0,6.15661 -4.79578,11.14754 -10.71168,11.14754z"></path></g></g></g><g fill="none" stroke="#d6aa6c" stroke-width="0.5" stroke-linecap="round"><path d="M277.16268,137.76785l-4.66723,4.42857"></path><path d="M277.02541,142.19641l-4.39269,-3.85714"></path></g></g><path d="M265.64405,221.42728c0,-6.77228 5.49002,-12.2623 12.2623,-12.2623c6.77228,0 12.2623,5.49002 12.2623,12.2623c0,6.77228 -5.49002,12.2623 -12.2623,12.2623c-6.77228,0 -12.2623,-5.49002 -12.2623,-12.2623z" fill="#ffe4b7" stroke="#804a0f" stroke-width="2.5" stroke-linecap="butt"></path><g stroke-linecap="butt"><path d="M214.91519,226.21169c0,0 -2.87426,-50.48471 0.01334,-54.51397c2.8329,-3.95293 14.02655,-3.65123 24.93174,-3.73344c10.32055,-0.07781 20.41672,-0.69078 21.75426,1.00393c4.25473,5.39088 -2.37739,58.50548 -2.37739,58.50548z" fill="#ffb400" stroke="#651f00" stroke-width="2.5"></path><path d="M214.92011,184.39776c0,0 -0.95236,-11.54907 2.57371,-13.50722c2.39323,-1.32904 12.63894,-1.83574 22.68873,-1.99041c9.85562,-0.15167 19.52904,0.02884 20.79689,0.74571c0.99252,0.56119 0.65105,8.53342 0.65105,8.53342c0,0 -0.55049,8.83783 -5.68521,15.3196c-7.06135,8.91386 -19.7463,16.26839 -23.93051,16.35551c-13.80224,0.28738 -16.91219,-6.64118 -16.91219,-6.64118z" fill="#df7b00" stroke="none" stroke-width="0"></path></g><g stroke-linecap="butt"><path d="M227.33947,193.70147c-9.73387,0 -24.75021,-3.83015 -24.53579,-11.40093c0.07802,-2.75463 -5.08429,-5.91505 -5.08429,-8.05116c0,-7.42938 12.0518,-9.20209 25.71379,-9.20209c13.66199,0 33.41332,-2.95843 33.41332,11.624c0,14.58242 -15.84504,17.03018 -29.50703,17.03018z" fill="#c23200" stroke="#490012" stroke-width="2.5"></path><path d="M248.8547,171.87627c0,0.82843 -9.01779,1.5 -20.14179,1.5c-11.124,0 -25.02464,-0.42157 -25.02464,-1.25c0,-0.82843 8.04122,-2.25 19.16522,-2.25c11.124,0 26.00122,1.17157 26.00122,2z" fill="#670000" stroke="none" stroke-width="0"></path></g><g stroke-linecap="butt"><path d="M206.59156,116.57734l70.91352,-1.33334c0,0 -9.13537,34.89846 -18.90159,40.33332c-9.76622,5.43487 -31.11456,4.34084 -38.13194,4.25876c-3.03386,-0.03548 -4.23704,-6.74291 -4.23704,-6.74291c0,0 -5.48412,5.6484 -7.49209,3.15082c-6.69038,-8.32173 -2.15086,-39.66665 -2.15086,-39.66665z" fill="#683318" stroke="#45180a" stroke-width="4.5"></path><g><g stroke="#45180a"><path d="M235.85476,87.62787c11.26087,-1.33299 48.13547,-6.13115 48.13547,-6.13115l-10.76953,19.68979l21.41028,8.19265c0,0 -3.26131,7.74205 -8.22284,10.49598c-1.76301,0.97857 -5.70835,3.18525 -5.70835,3.18525l-6.7923,12.43298c0,0 0.15486,-12.83172 -0.57028,-12.67817c-15.44278,3.26992 -36.1965,2.57515 -38.57229,2.34275c-3.80074,0.42717 -12.1918,-0.1447 -12.1918,-0.1447l-17.15317,19.57838c0,0 -6.12808,-19.85616 -4.25903,-27.05117c4.21474,-16.22492 18.9984,-28.05466 34.69387,-29.91259z" fill="#865b00" stroke-width="2.5"></path><path d="M249.48179,103.47168l32.31192,-20.4l-10.16775,18.6c0,0 -8.31668,1.59144 -12.63405,1.88971c-4.36702,0.3017 -9.51013,-0.08971 -9.51013,-0.08971z" fill="#683318" stroke-width="0"></path><path d="M222.15602,123.60501l-11.37857,18.41676l6.19693,-25.55009c0,0 26.35939,1.65758 43.14284,0.28013c16.78345,-1.37745 33.21302,-6.54679 33.21302,-6.54679c0,0 -3.27224,5.40732 -5.43034,7.37699c-2.07523,1.89404 -7.76818,4.47301 -7.76818,4.47301l-4.74115,8.51284c0,0 0.16586,-8.08843 -1.52063,-8.59429c-2.63883,-0.79151 -12.26668,2.21158 -23.34777,2.49493c-13.69079,0.35007 -28.36617,-0.86348 -28.36617,-0.86348z" fill="#683318" stroke-width="0"></path></g><g fill="#f5c827" stroke="#000000" stroke-width="0"><path d="M229.36232,103.93297c-1.44215,4.45665 -5.48543,7.09642 -9.03093,5.89611c-3.5455,-1.20032 -5.2506,-5.78619 -3.80846,-10.24284c1.44215,-4.45665 5.48543,-7.09642 9.03093,-5.89611c3.5455,1.20032 5.2506,5.78619 3.80846,10.24284z"></path><path d="M236.88301,98.57053c-0.79808,2.46631 -3.03564,3.92716 -4.99772,3.26291c-1.96208,-0.66426 -2.90569,-3.20208 -2.10761,-5.66839c0.79808,-2.46631 3.03564,-3.92717 4.99772,-3.26291c1.96208,0.66426 2.90569,3.20208 2.10761,5.6684z"></path><path d="M211.0455,114.75363c-0.08569,1.99246 -1.17454,3.39282 -2.43201,3.12778c-1.25747,-0.26504 -2.20737,-2.0951 -2.12168,-4.08756c0.08569,-1.99246 1.17454,-3.39282 2.43201,-3.12778c1.25747,0.26504 2.20737,2.0951 2.12168,4.08756z"></path><path d="M245.81558,95.46434c-0.08569,1.99246 -1.17455,3.39281 -2.43201,3.12778c-1.25747,-0.26503 -2.20737,-2.0951 -2.12168,-4.08756c0.08569,-1.99246 1.17454,-3.39282 2.43201,-3.12778c1.25746,0.26503 2.20737,2.09511 2.12168,4.08756z"></path><path d="M217.4287,107.07281c0.73631,2.73865 -0.05353,5.34883 -1.76414,5.83c-1.71063,0.48117 -3.69426,-1.34889 -4.43057,-4.08754c-0.73631,-2.73865 0.05353,-5.34883 1.76414,-5.83c1.71063,-0.48117 3.69426,1.34889 4.43057,4.08754z"></path></g></g><path d="M208.74242,156.244c-3.82226,-2.80725 -2.77005,-19.5 -2.77005,-19.5l12.07965,-18.74913l59.45304,-2.75087c0,0 -9.13537,34.89846 -18.90159,40.33332c-9.76622,5.43487 -31.11456,4.34084 -38.13194,4.25876c-3.03386,-0.03548 -4.23704,-6.74291 -4.23704,-6.74291c0,0 -6.44855,3.91724 -7.49209,3.15082z" fill="#683318" stroke="none" stroke-width="0"></path></g></g></g></svg>