<svg version="1.1" xmlns="http://www.w3.org/2000/svg" xmlns:xlink="http://www.w3.org/1999/xlink" width="58.42592" height="22.08398" viewBox="0,0,58.42592,22.08398"><g transform="translate(-210.78704,-171.63658)"><g fill="#000000" stroke="none" stroke-width="0.5" stroke-miterlimit="10"><path d="M220.16983,178.39708c-1.49508,-0.10625 -3.69808,-0.40451 -4.75445,-1.59414c-0.77682,0.36073 -1.56812,0.70661 -2.43053,0.96142c-0.08523,0.04487 -0.17531,0.08178 -0.26924,0.10974c-0.1358,0.04041 -0.27965,0.06212 -0.42857,0.06212c-0.82843,0 -1.5,-0.67157 -1.5,-1.5c0,-0.56428 0.31158,-1.05578 0.77208,-1.31185c3.67216,-3.94739 17.49965,-3.43444 19.61255,-2.64381c1.50987,0.56498 7.88919,3.3157 3.50587,4.88055c-0.5508,0.19663 -1.81962,-0.5004 -3.08585,-1.19989c-1.69992,3.33158 -7.97521,2.4808 -11.42186,2.23586z"></path><path d="M248.40831,175.869c-1.26623,0.69949 -2.53505,1.39652 -3.08585,1.19989c-4.38332,-1.56485 1.996,-4.31557 3.50587,-4.88055c2.11289,-0.79063 15.94038,-1.30358 19.61255,2.64381c0.4605,0.25607 0.77208,0.74757 0.77208,1.31185c0,0.82843 -0.67158,1.5 -1.5,1.5c-0.14893,0 -0.29278,-0.0217 -0.42858,-0.06212c-0.09393,-0.02795 -0.18401,-0.06486 -0.26923,-0.10974c-0.86241,-0.25482 -1.65372,-0.6007 -2.43054,-0.96142c-1.05637,1.18963 -3.25937,1.48789 -4.75444,1.59413c-3.44664,0.24495 -9.72194,1.09572 -11.42186,-2.23586z"></path><path d="M227.9323,189.46046c6.53241,0.68951 12.99397,1.32662 19.60758,1.25601c1.71225,-0.01828 6.91821,-1.56238 5.8452,1.65666c-0.50197,1.50591 -4.94406,1.34045 -5.7386,1.34334c-7.71436,0.028 -15.87779,-0.28349 -23.47357,-1.78747c-1.99319,-0.39465 -5.85729,-0.58402 -7.46431,-1.96146c-2.91164,-2.49569 3.20566,-6.29105 4.22987,-4.49869c0.44211,0.26093 0.7387,0.74219 0.7387,1.29272c0,0.33275 -0.10835,0.6402 -0.29169,0.88898c-0.04015,1.82915 4.36534,1.57965 6.54683,1.80991z"></path></g></g></svg>