<svg version="1.1" xmlns="http://www.w3.org/2000/svg" xmlns:xlink="http://www.w3.org/1999/xlink" width="57.12828" height="27.36505" viewBox="0,0,57.12828,27.36505"><g transform="translate(-211.43586,-171.67462)"><g stroke-miterlimit="10"><path d="M244.95867,192.06658l-10.69873,-0.42633" fill="none" stroke="#000000" stroke-width="3" stroke-linecap="round"></path><path d="M233.07453,177.78317c-2.34134,2.84832 -7.31841,1.25459 -11.28231,1.1063c-2.26633,-0.08479 -5.97994,0.18064 -5.49993,-2.83717c-1.99773,-0.02683 -3.67002,-0.148 -3.8715,-0.50058l-0.98493,-1.72363c0.57252,-1.00191 1.69703,-1.51507 2.93377,-1.76909c0.93822,-0.1927 1.94102,-0.23625 2.81642,-0.23091c5.76366,0.0352 11.7177,0.21439 17.45395,0.93211c1.0679,0.13361 3.23001,-0.02124 3.89247,1.17441c1.61968,2.92328 -1.84658,3.13296 -4.85214,2.88431c-0.17468,0.3672 -0.37774,0.6868 -0.60581,0.96426z" fill="#000000" stroke="none" stroke-width="0.5" stroke-linecap="butt"></path><path d="M246.31967,176.66586c-3.00556,0.24866 -6.47182,0.03898 -4.85215,-2.8843c0.66246,-1.19565 2.82457,-1.0408 3.89248,-1.17441c5.73625,-0.71772 11.69029,-0.89691 17.45395,-0.93211c0.8754,-0.00535 1.8782,0.03821 2.81642,0.23091c1.23674,0.25402 2.36125,0.76718 2.93377,1.76909l-0.98493,1.72363c-0.20148,0.35259 -1.87377,0.47375 -3.8715,0.50058c0.48001,3.01781 -3.2336,2.75239 -5.49993,2.83717c-3.9639,0.14829 -8.94097,1.74202 -11.28231,-1.1063c-0.22807,-0.27746 -0.43113,-0.59706 -0.6058,-0.96426z" fill="#000000" stroke="none" stroke-width="0.5" stroke-linecap="butt"></path><path d="M218.1791,198.22355c-0.74628,0.07463 -0.82091,-0.67165 -0.82091,-0.67165l-0.07933,-0.80262c-0.0017,-1.59853 0.615,-5.54575 -0.34948,-6.81241c-0.75555,-0.99226 -3.47674,-2.06911 -4.63084,-2.56161c0,0 -0.68936,-0.29543 -0.39392,-0.98479c0.29544,-0.68936 0.9848,-0.39392 0.9848,-0.39392c1.32918,0.57188 4.27887,1.75758 5.16558,2.94888c1.30855,1.75804 0.72448,5.58169 0.72199,7.72914l0.07375,0.72807c0,0 0.07463,0.74628 -0.67165,0.82091z" fill="#000000" stroke="none" stroke-width="0.5" stroke-linecap="butt"></path><path d="M256.68965,198.21351l0.07375,-0.72808c-0.00248,-2.14745 -0.58655,-5.9711 0.72199,-7.72914c0.88671,-1.1913 3.8364,-2.377 5.16558,-2.94888c0,0 0.68936,-0.29544 0.9848,0.39392c0.29544,0.68936 -0.39392,0.9848 -0.39392,0.9848c-1.15409,0.4925 -3.87529,1.56935 -4.63083,2.56161c-0.96449,1.26666 -0.34779,5.21388 -0.34949,6.81241l-0.07933,0.80262c0,0 -0.07462,0.74628 -0.8209,0.67165c-0.74628,-0.07463 -0.67165,-0.82091 -0.67165,-0.82091z" fill="#000000" stroke="none" stroke-width="0.5" stroke-linecap="butt"></path></g></g></svg>