<svg version="1.1" xmlns="http://www.w3.org/2000/svg" xmlns:xlink="http://www.w3.org/1999/xlink" width="191.28669" height="191.28669" viewBox="0,0,191.28669,191.28669"><g transform="translate(-144.35665,-84.35666)"><g stroke-miterlimit="10"><path d="M205.93985,217.71126c-3.90957,-2.80725 -1.66666,-27 -1.66666,-27l68.66667,0.66666c0,0 -7.0107,18.23179 -17,23.66666c-9.9893,5.43487 -30.82529,6.34084 -38.00296,6.25876c-3.10316,-0.03548 -4.33382,-6.74291 -4.33382,-6.74291c0,0 -6.59585,3.91724 -7.66323,3.15082z" fill="#683318" stroke="#45180a" stroke-width="2.5" stroke-linecap="butt"></path><g><g stroke-linecap="butt"><g stroke="#804a0f" stroke-width="2.5"><path d="M253.52114,194.09135c0,-6.15662 4.99093,-11.14755 11.14755,-11.14755c6.15662,0 11.14754,4.99093 11.14754,11.14755c0,6.15662 -4.99093,11.14754 -11.14754,11.14754c-6.15662,0 -11.14755,-4.99092 -11.14755,-11.14754z" fill="#d6aa6c"></path><g fill="#ffe4b7"><path d="M199.15275,185.83504c0,-20.11162 16.30369,-36.41531 36.41531,-36.41531c20.11162,0 36.41531,16.30369 36.41531,36.41531c0,20.11162 -16.30369,36.41531 -36.41531,36.41531c-20.11162,0 -36.41531,-16.30369 -36.41531,-36.41531z"></path><path d="M187.20971,194.66506c0,-6.15662 4.99093,-11.14754 11.14754,-11.14754c6.15662,0 11.14754,4.99093 11.14754,11.14754c0,6.15662 -4.99093,11.14754 -11.14754,11.14754c-6.15662,0 -11.14754,-4.99093 -11.14754,-11.14754z"></path></g></g><path d="M207.6928,198.48016l9.55183,-17.81542l53.05699,-0.52341c0,0 0.45817,6.20627 0.18473,9.33842c-0.27687,3.17132 -1.83579,9.57344 -1.83579,9.57344c0,0 -16.55817,-7.47454 -23.20215,-7.09481c-6.93549,0.39638 -37.7556,6.52179 -37.7556,6.52179z" fill="#d6aa6c" stroke="none" stroke-width="0"></path></g><g fill="none" stroke="#d6aa6c" stroke-width="0.5" stroke-linecap="round"><path d="M199.97796,196.94935l-4.85714,-4.42857"></path><path d="M199.83511,193.0922l-4.57143,3.85714"></path></g></g><g stroke-linecap="butt"><g stroke="#45180a"><path d="M232.67149,143.8808c11.51809,-1.33299 49.23499,-6.13115 49.23499,-6.13115l-11.01553,19.68979l21.89934,8.19265c0,0 -3.33581,7.74205 -8.41067,10.49598c-1.80328,0.97857 -5.83874,3.18525 -5.83874,3.18525l-6.94745,12.43298c0,0 0.1584,-12.83172 -0.58331,-12.67817c-15.79553,3.26992 -37.02331,2.57515 -39.45337,2.34275c-3.88756,0.42717 -12.47029,-0.1447 -12.47029,-0.1447l-12.04499,19.57838c0,0 -11.76806,-19.85616 -9.85632,-27.05117c4.31101,-16.22492 19.43237,-28.05466 35.48635,-29.91259z" fill="#865b00" stroke-width="2.5"></path><path d="M246.6098,159.72461l33.05,-20.4l-10.4,18.6c0,0 -8.50665,1.59144 -12.92264,1.88971c-4.46677,0.3017 -9.72736,-0.08971 -9.72736,-0.08971z" fill="#683318" stroke-width="0"></path><path d="M218.65984,179.85794l-11.63848,18.41676l6.33848,-25.55009c0,0 26.9615,1.65758 44.12832,0.28013c17.16682,-1.37745 33.97168,-6.54679 33.97168,-6.54679c0,0 -3.34699,5.40732 -5.55438,7.37699c-2.12263,1.89404 -7.94562,4.47301 -7.94562,4.47301l-4.84945,8.51284c0,0 0.16965,-8.08843 -1.55536,-8.59429c-2.69911,-0.79151 -12.54688,2.21158 -23.88108,2.49493c-14.00352,0.35007 -29.01412,-0.86348 -29.01412,-0.86348z" fill="#683318" stroke-width="0"></path></g><g fill="#f5c827" stroke="#000000" stroke-width="0"><path d="M226.03075,160.1859c-1.47509,4.45665 -5.61073,7.09642 -9.23722,5.89611c-3.62649,-1.20032 -5.37054,-5.78619 -3.89545,-10.24284c1.47509,-4.45665 5.61073,-7.09642 9.23722,-5.89611c3.62649,1.20032 5.37054,5.78619 3.89545,10.24284z"></path><path d="M233.72323,154.82346c-0.81631,2.46631 -3.10498,3.92716 -5.11188,3.26291c-2.0069,-0.66426 -2.97206,-3.20208 -2.15575,-5.66839c0.81631,-2.46631 3.10498,-3.92717 5.11188,-3.26291c2.0069,0.66426 2.97206,3.20208 2.15575,5.6684z"></path><path d="M207.29554,171.00656c-0.08765,1.99246 -1.20137,3.39282 -2.48756,3.12778c-1.28619,-0.26504 -2.25779,-2.0951 -2.17014,-4.08756c0.08765,-1.99246 1.20137,-3.39282 2.48756,-3.12778c1.28619,0.26504 2.25779,2.0951 2.17014,4.08756z"></path><path d="M242.85984,151.71727c-0.08765,1.99246 -1.20138,3.39281 -2.48756,3.12778c-1.28619,-0.26503 -2.25779,-2.0951 -2.17014,-4.08756c0.08765,-1.99246 1.20137,-3.39282 2.48756,-3.12778c1.28618,0.26503 2.25779,2.09511 2.17014,4.08756z"></path><path d="M213.82454,163.32574c0.75313,2.73865 -0.05475,5.34883 -1.80444,5.83c-1.7497,0.48117 -3.77864,-1.34889 -4.53177,-4.08754c-0.75313,-2.73865 0.05475,-5.34883 1.80444,-5.83c1.7497,-0.48117 3.77864,1.34889 4.53177,4.08754z"></path></g></g><path d="M144.35665,275.64335v-191.28669h191.28669v191.28669z" fill="none" stroke="none" stroke-width="NaN" stroke-linecap="butt"></path></g></g></svg>