<svg version="1.1" xmlns="http://www.w3.org/2000/svg" xmlns:xlink="http://www.w3.org/1999/xlink" width="188.72709" height="200.58598" viewBox="0,0,188.72709,200.58598"><g transform="translate(-149.97169,-84.4804)"><g stroke-miterlimit="10"><path d="M159.5092,143.58406c0,-12.68969 10.28704,-22.97673 22.97673,-22.97673c12.6897,0 22.97672,10.28704 22.97672,22.97673c0,12.6897 -10.28703,22.97672 -22.97672,22.97672c-12.68969,0 -22.97673,-10.28703 -22.97673,-22.97672z" fill-opacity="0.50196" fill="#7e00ff" stroke="#804a0f" stroke-width="0" stroke-linecap="butt"></path><text transform="translate(202.14844,260.68426) scale(0.70565,0.70565)" font-size="40" xml:space="preserve" fill="#ffffff" stroke="none" stroke-width="1" stroke-linecap="butt" font-family="Scratch" font-weight="normal" text-anchor="start"><tspan x="0" dy="0">E</tspan></text><path d="M186.46807,252.54288c0,-12.6897 10.28704,-22.97673 22.97673,-22.97673c12.6897,0 22.97672,10.28704 22.97672,22.97673c0,12.68969 -10.28703,22.97672 -22.97672,22.97672c-12.68969,0 -22.97673,-10.28703 -22.97673,-22.97672z" fill-opacity="0.50196" fill="#00ff2d" stroke="#804a0f" stroke-width="0" stroke-linecap="butt"></path><path d="M149.97169,199.32132c0,-12.68969 10.28704,-22.97673 22.97673,-22.97673c12.6897,0 22.97673,10.28704 22.97673,22.97673c0,12.6897 -10.28703,22.97673 -22.97673,22.97673c-12.68969,0 -22.97673,-10.28703 -22.97673,-22.97673z" fill-opacity="0.50196" fill="#00c1ff" stroke="#804a0f" stroke-width="0" stroke-linecap="butt"></path><path d="M172.97447,233.6517c0.04959,0.41438 0.11547,0.8331 0.20945,1.24457c2.60638,0.8232 5.51162,1.0622 7.91487,-0.37441c1.923,-1.14953 3.37064,-2.37389 5.51847,-3.04136c0.85327,-0.26516 1.88999,-1.27994 2.58314,-0.71609c1.18492,0.96387 1.74197,2.70954 1.7452,4.23699c0.0035,1.65712 -2.75641,2.80486 -3.90452,3.12771c-1.92719,0.54195 -3.43261,-0.06938 -5.29774,0.18205c-3.20703,0.43231 -6.44574,2.50475 -9.54196,3.49452c-1.36658,-1.63727 -3.42622,-3.1649 -4.0096,-5.32276c-0.03373,-0.12476 -0.06178,-0.24639 -0.08448,-0.36513c-0.61173,-0.26381 -1.20038,-0.55006 -1.50275,-0.79756c-3.73298,-3.05566 -1.85283,-9.24956 -1.42457,-13.24169c0.26042,-2.42759 0.08109,-5.28509 1.4906,-7.43073c1.78421,-2.71601 6.32727,-4.30068 9.3256,-4.66822c0,0 1.45103,-0.16122 1.64909,1.26597c0.065,0.07042 0.1284,0.15093 0.18956,0.24266c0.83205,1.24808 -0.41602,2.08013 -0.41602,2.08013l-0.58615,0.37685c-3.15324,1.53999 -3.72485,4.33198 -4.59238,7.4973c-0.09739,0.35532 -0.08612,0.77694 -0.10818,1.1933c0.31047,-0.21993 0.67971,-0.37717 1.01056,-0.56477c1.3792,-0.78205 2.48771,-1.31723 4.09643,-1.46752c3.31861,-0.31004 9.79331,0.48345 11.84195,3.79084c0.04266,0.06888 0.08321,0.1388 0.12184,0.20963l0.04096,-0.03186l0.98329,1.26423c0.20296,0.25586 0.32418,0.57951 0.32418,0.93147c0,0.82843 -0.67157,1.5 -1.5,1.5c-0.1994,0 -0.3897,-0.0389 -0.56375,-0.10954l-2.156,-0.81692l0.00256,-0.00675l-0.02535,-0.00209c-2.81149,-1.20657 -10.45053,-2.33307 -12.36549,1.41789c-0.56536,1.1074 -0.3913,2.51462 -1.018,3.5885c-0.09399,0.16105 -0.2055,0.31803 -0.32683,0.4734c0.31411,0.37509 0.37601,0.83942 0.37601,0.83942z" fill="#ffe4b7" stroke="none" stroke-width="0.5" stroke-linecap="butt"></path><path d="M215.98336,250.18363c1.11553,12.98368 -1.35115,28.64706 -8.67327,29.27616c-6.95189,0.59729 -7.21839,-5.88036 -8.33392,-18.86404c-1.11553,-12.98368 -2.58256,-22.34181 4.36933,-22.93911c6.95189,-0.5973 11.52233,-0.45669 12.63787,12.52698z" fill="#c7bed6" stroke="#5f5775" stroke-width="2.5" stroke-linecap="butt"></path><g stroke-linecap="butt"><path d="M232.62656,208.52352c-9.96739,0 -25.34398,-3.83015 -25.12442,-11.40093c0.07989,-2.75463 -5.20626,-5.91505 -5.20626,-8.05116c0,-7.42938 12.34093,-9.20209 26.33068,-9.20209c13.98975,0 34.21492,-2.95843 34.21492,11.624c0,14.58242 -16.22517,17.03018 -30.21492,17.03018z" fill="#c23200" stroke="#490012" stroke-width="2.5"></path><path d="M254.65795,186.69832c0,0.82843 -9.23413,1.5 -20.625,1.5c-11.39087,0 -25.625,-0.42157 -25.625,-1.25c0,-0.82843 8.23413,-2.25 19.625,-2.25c11.39087,0 26.625,1.17157 26.625,2z" fill="#670000" stroke="none" stroke-width="0"></path></g><g stroke="#12002b" stroke-width="2.5" stroke-linecap="butt"><path d="M212.51286,239.45207l41.43293,-3.93281l1.52681,17.7706l-39.59066,12.35245z" fill="#0d0b3e"></path><path d="M211.196,238.3203l8.46932,-1.83747l5.49345,29.49275l-11.05978,2.06004z" fill="#5a5e90"></path></g><path d="M212.99998,176.28039c-3.90957,-2.80725 -1.66666,-27 -1.66666,-27l68.66667,0.66666c0,0 -7.0107,18.23179 -17,23.66666c-9.9893,5.43487 -30.82529,6.34084 -38.00296,6.25876c-3.10316,-0.03548 -4.33382,-6.74291 -4.33382,-6.74291c0,0 -6.59585,3.91724 -7.66323,3.15082z" fill="#683318" stroke="#45180a" stroke-width="2.5" stroke-linecap="butt"></path><g><g><path d="M217.05127,241.03375c0,0 -2.94322,-50.48471 0.01366,-54.51397c2.90086,-3.95293 14.36305,-3.65123 25.52987,-3.73344c10.56815,-0.07781 20.90653,-0.69078 22.27616,1.00393c4.3568,5.39088 -2.43442,58.50548 -2.43442,58.50548z" fill="#ffb400" stroke="#651f00" stroke-width="2.5" stroke-linecap="butt"></path><path d="M237.53642,218.04772v-21.4024" fill="none" stroke="#ffffff" stroke-width="3" stroke-linecap="round"></path><path d="M247.28937,205.85648l-0.81275,-10.02391" fill="none" stroke="#ffffff" stroke-width="2.5" stroke-linecap="round"></path><path d="M217.0563,199.21982c0,0 -0.97521,-11.54907 2.63545,-13.50722c2.45064,-1.32904 12.94216,-1.83574 23.23305,-1.99041c10.09206,-0.15167 19.99755,0.02884 21.29582,0.74571c1.01633,0.56119 0.66667,8.53342 0.66667,8.53342z" fill="#df7b00" stroke="none" stroke-width="0" stroke-linecap="butt"></path><path d="M252.97866,195.83256l-21.13148,-0.54183" fill="none" stroke="#ffffff" stroke-width="2.5" stroke-linecap="round"></path></g><path d="M224.2354,237.7635c0,0 1.24548,-5.4689 1.28404,-8.14904c0.03896,-2.70791 -1.05145,-8.01596 -1.05145,-8.01596l34.66308,0.49875c0,0 1.42259,5.38029 1.38384,8.07285c-0.03879,2.69577 -1.61643,8.09215 -1.61643,8.09215z" fill="#ffb400" stroke="#651f00" stroke-width="1.5" stroke-linecap="butt"></path></g><path d="M234.52542,188.16373l-3.05882,-14.33334l21,0.16666l-3.4902,14.00001c0,0 -4.27962,1.39474 -6.59966,1.34041c-2.42077,-0.05668 -7.85132,-1.17374 -7.85132,-1.17374z" fill="#d6aa6c" stroke="#804a0f" stroke-width="2.5" stroke-linecap="butt"></path><g><g stroke-linecap="butt"><g stroke="#804a0f" stroke-width="2.5"><path d="M260.58126,152.66048c0,-6.15662 4.99093,-11.14755 11.14755,-11.14755c6.15662,0 11.14754,4.99093 11.14754,11.14755c0,6.15662 -4.99093,11.14754 -11.14754,11.14754c-6.15662,0 -11.14755,-4.99092 -11.14755,-11.14754z" fill="#d6aa6c"></path><g fill="#ffe4b7"><path d="M206.21288,144.40417c0,-20.11162 16.30369,-36.41531 36.41531,-36.41531c20.11162,0 36.41531,16.30369 36.41531,36.41531c0,20.11162 -16.30369,36.41531 -36.41531,36.41531c-20.11162,0 -36.41531,-16.30369 -36.41531,-36.41531z"></path><path d="M194.26984,153.23419c0,-6.15662 4.99093,-11.14754 11.14754,-11.14754c6.15662,0 11.14754,4.99093 11.14754,11.14754c0,6.15662 -4.99093,11.14754 -11.14754,11.14754c-6.15662,0 -11.14754,-4.99093 -11.14754,-11.14754z"></path></g></g><path d="M214.75293,157.04929l9.55183,-17.81542l53.05699,-0.52341c0,0 0.45817,6.20627 0.18473,9.33842c-0.27687,3.17132 -1.83579,9.57344 -1.83579,9.57344c0,0 -16.55817,-7.47454 -23.20215,-7.09481c-6.93549,0.39638 -37.7556,6.52179 -37.7556,6.52179z" fill="#d6aa6c" stroke="none" stroke-width="0"></path></g><g fill="none" stroke="#d6aa6c" stroke-width="0.5" stroke-linecap="round"><path d="M207.03809,155.51848l-4.85714,-4.42857"></path><path d="M206.89524,151.66133l-4.57143,3.85714"></path></g></g><g stroke-linecap="butt"><g stroke="#45180a"><path d="M239.73162,102.44993c11.51809,-1.33299 49.23499,-6.13115 49.23499,-6.13115l-11.01553,19.68979l21.89934,8.19265c0,0 -3.33581,7.74205 -8.41067,10.49598c-1.80328,0.97857 -5.83874,3.18525 -5.83874,3.18525l-6.94745,12.43298c0,0 0.1584,-12.83172 -0.58331,-12.67817c-15.79553,3.26992 -37.02331,2.57515 -39.45337,2.34275c-3.88756,0.42717 -12.47029,-0.1447 -12.47029,-0.1447l-12.04499,19.57838c0,0 -11.76806,-19.85616 -9.85632,-27.05117c4.31101,-16.22492 19.43237,-28.05466 35.48635,-29.91259z" fill="#865b00" stroke-width="2.5"></path><path d="M253.66993,118.29374l33.05,-20.4l-10.4,18.6c0,0 -8.50665,1.59144 -12.92264,1.88971c-4.46677,0.3017 -9.72736,-0.08971 -9.72736,-0.08971z" fill="#683318" stroke-width="0"></path><path d="M225.71997,138.42707l-11.63848,18.41676l6.33848,-25.55009c0,0 26.9615,1.65758 44.12832,0.28013c17.16682,-1.37745 33.97168,-6.54679 33.97168,-6.54679c0,0 -3.34699,5.40732 -5.55438,7.37699c-2.12263,1.89404 -7.94562,4.47301 -7.94562,4.47301l-4.84945,8.51284c0,0 0.16965,-8.08843 -1.55536,-8.59429c-2.69911,-0.79151 -12.54688,2.21158 -23.88108,2.49493c-14.00352,0.35007 -29.01412,-0.86348 -29.01412,-0.86348z" fill="#683318" stroke-width="0"></path></g><g fill="#f5c827" stroke="#000000" stroke-width="0"><path d="M233.09088,118.75503c-1.47509,4.45665 -5.61073,7.09642 -9.23722,5.89611c-3.62649,-1.20032 -5.37054,-5.78619 -3.89545,-10.24284c1.47509,-4.45665 5.61073,-7.09642 9.23722,-5.89611c3.62649,1.20032 5.37054,5.78619 3.89545,10.24284z"></path><path d="M240.78336,113.39259c-0.81631,2.46631 -3.10498,3.92716 -5.11188,3.26291c-2.0069,-0.66426 -2.97206,-3.20208 -2.15575,-5.66839c0.81631,-2.46631 3.10498,-3.92717 5.11188,-3.26291c2.0069,0.66426 2.97206,3.20208 2.15575,5.6684z"></path><path d="M214.35567,129.57569c-0.08765,1.99246 -1.20137,3.39282 -2.48756,3.12778c-1.28619,-0.26504 -2.25779,-2.0951 -2.17014,-4.08756c0.08765,-1.99246 1.20137,-3.39282 2.48756,-3.12778c1.28619,0.26504 2.25779,2.0951 2.17014,4.08756z"></path><path d="M249.91997,110.2864c-0.08765,1.99246 -1.20138,3.39281 -2.48756,3.12778c-1.28619,-0.26503 -2.25779,-2.0951 -2.17014,-4.08756c0.08765,-1.99246 1.20137,-3.39282 2.48756,-3.12778c1.28618,0.26503 2.25779,2.09511 2.17014,4.08756z"></path><path d="M220.88467,121.89487c0.75313,2.73865 -0.05475,5.34883 -1.80444,5.83c-1.7497,0.48117 -3.77864,-1.34889 -4.53177,-4.08754c-0.75313,-2.73865 0.05475,-5.34883 1.80444,-5.83c1.7497,-0.48117 3.77864,1.34889 4.53177,4.08754z"></path></g></g><path d="M233.17871,162.89438l26.85894,0.42633" fill="none" stroke="#000000" stroke-width="3" stroke-linecap="round"></path><path d="M278.91157,242.04343c6.93874,0.73443 5.28723,10.06178 3.91557,23.0209c-1.37166,12.95912 -1.76602,19.43025 -8.70476,18.69581c-7.30827,-0.77355 -9.4652,-16.48257 -8.09354,-29.44169c1.37166,-12.95912 5.94399,-13.00947 12.88273,-12.27504z" fill="#f1f2ff" stroke="#5f5775" stroke-width="2.5" stroke-linecap="butt"></path><g stroke="#12002b" stroke-width="2.5" stroke-linecap="butt"><path d="M266.09043,267.21626l-39.33907,-13.13171l1.87738,-17.73699l41.34721,4.75007z" fill="#313663"></path><path d="M267.30198,270.29715l-11.01695,-2.27799l6.07467,-29.37854l8.4314,2.00433z" fill="#7b7fa8"></path></g><path d="M240.08877,151.78226c0.47434,1.42302 -0.94868,1.89737 -0.94868,1.89737l-0.62284,0.19293c-5.23685,0.96765 -12.52146,1.44884 -17.54734,-0.50652c0,0 -1.39272,-0.55709 -0.83563,-1.9498c0.55709,-1.39272 1.9498,-0.83562 1.9498,-0.83562c4.35389,1.80602 11.33545,1.20947 15.8803,0.34333l0.22702,-0.09036c0,0 1.42302,-0.47434 1.89737,0.94868z" fill="#000000" stroke="none" stroke-width="0.5" stroke-linecap="butt"></path><path d="M254.90676,150.83358l0.22702,0.09036c4.54485,0.86614 11.52642,1.46268 15.8803,-0.34333c0,0 1.39272,-0.55709 1.9498,0.83562c0.55708,1.39272 -0.83563,1.9498 -0.83563,1.9498c-5.02588,1.95535 -12.31049,1.47416 -17.54734,0.50652l-0.62284,-0.19293c0,0 -1.42302,-0.47434 -0.94868,-1.89737c0.47434,-1.42302 1.89737,-0.94868 1.89737,-0.94868z" fill="#000000" stroke="none" stroke-width="0.5" stroke-linecap="butt"></path><path d="M239.86764,143.30639c0.36093,0.17554 0.74822,0.32837 1.15411,0.46143c-0.49497,-0.94914 -0.48724,-2.0417 -0.17749,-3.09806c-0.87485,0.46362 -1.75477,0.98201 -2.6793,1.51682c0.8181,0.53829 1.57689,1.05863 1.70269,1.11981zM253.43624,143.90519c0.39847,-0.2192 1.24648,-1.03818 1.97136,-1.62891c-0.77468,-0.48338 -1.60896,-1.0894 -2.42435,-1.64571c-0.02188,1.39669 -0.71338,2.90498 -1.63661,3.91303c0.75629,-0.1094 1.48028,-0.30322 2.0896,-0.63841zM258.22535,143.92883c-2.83436,5.38099 -13.34758,4.15865 -17.77886,2.79958c-0.95499,-0.29289 -6.36719,-2.3945 -5.95284,-3.91378c-0.03102,-0.12016 -0.04752,-0.24616 -0.04752,-0.37601c0,-0.37751 0.13946,-0.72246 0.36967,-0.98612c0.0285,-0.13493 0.07514,-0.26317 0.13725,-0.38205c0.4614,-1.47314 3.12895,-2.83259 4.62242,-3.51478c4.67525,-2.13559 9.41401,-2.17867 14.13975,-0.21582c1.17394,0.4876 5.65284,3.0198 4.98811,5.01399c-0.06275,0.18825 -0.14183,0.34129 -0.23559,0.4627c0.04234,0.32998 -0.02994,0.70896 -0.24239,1.1123z" fill="#000000" stroke="none" stroke-width="0.5" stroke-linecap="butt"></path><path d="M251.31063,144.5783c0.92323,-1.00805 1.64087,-2.60005 1.66276,-3.99674c0.81539,0.55631 1.70896,1.20378 2.48364,1.68716c-0.72489,0.59073 -1.62008,1.46723 -2.01855,1.68643c-0.60932,0.33518 -1.37155,0.51376 -2.12785,0.62315z" fill="#ffffff" stroke="none" stroke-width="0.5" stroke-linecap="butt"></path><path d="M238.11496,142.18545c0.92453,-0.53481 1.88585,-1.09097 2.7607,-1.55459c-0.30974,1.05636 -0.31499,2.22457 0.17998,3.17371c-0.40589,-0.13306 -0.81485,-0.27416 -1.17578,-0.4497c-0.1258,-0.06118 -0.94681,-0.63113 -1.7649,-1.16942z" fill="#ffffff" stroke="none" stroke-width="0.5" stroke-linecap="butt"></path><g fill="#804a0f" stroke="none" stroke-width="0.5" stroke-linecap="butt"><path d="M186.06407,226.01369c0,0.00748 -0.00003,0.01492 -0.00011,0.02232l0.48938,0.15733c0.46721,0.28549 0.93443,0.57099 1.40163,0.85648c1.63417,-0.78219 -1.07322,-3.10742 -1.72914,-3.5694c-2.30514,-1.62357 -5.31087,-2.6678 -8.21032,-1.81656c-0.60353,0.17719 -2.3999,1.84697 -2.67006,2.09834c-0.80071,0.745 -1.62054,1.48801 -2.39818,2.2645c-0.34932,-1.39348 -0.90634,-2.37918 -1.59133,-3.0232c4.00152,-3.86486 9.53321,-6.1147 14.52294,-3.3841c2.80023,1.53241 7.8993,5.73667 4.54677,9.34656c-0.63023,0.67862 -1.70587,0.72171 -2.55881,1.08256c-0.88505,-0.39064 -1.77011,-0.78127 -2.65516,-1.17191l-1.08876,-0.31365c0,0 -0.79318,-0.24406 -1.01806,-0.95909c-3.30167,0.25391 -6.56106,0.83238 -7.4304,4.55453c0,0 -0.3638,1.45522 -1.81902,1.09141c-1.45522,-0.36381 -1.09141,-1.81902 -1.09141,-1.81902c1.49266,-5.69371 6.31644,-6.56839 11.4974,-6.91379l0.30262,-0.00332c0,0 1.5,0 1.5,1.5z"></path><path d="M176.16754,239.70534c0,-1.5 1.5,-1.5 1.5,-1.5l1.15938,0.00111c2.06277,-0.0727 3.53039,-0.35834 5.49402,-0.84606c1.2697,-0.47783 4.73169,-1.2902 5.1027,-2.87954c0.03423,-0.14663 0.27393,-2.62671 -0.40763,-2.63952c-1.10398,-0.02075 -2.78023,1.46521 -3.66605,1.84242c-3.34404,1.424 -11.38514,5.91106 -12.91558,0.37952c-0.18484,-0.66809 0.20935,-1.37049 0.31402,-2.05574c0,0 0.29417,-1.47088 1.76504,-1.1767c1.47087,0.29417 1.1767,1.76505 1.1767,1.76505c-0.76439,2.56142 2.36405,0.75844 3.83744,0.14556c2.08199,-0.86604 4.17678,-1.62956 6.15873,-2.6774c1.00273,-0.53014 2.75787,-1.51047 3.95927,-1.1559c3.68544,1.08768 3.57363,6.29921 1.21428,8.54835c-1.4632,1.39485 -3.79805,2.07703 -5.64698,2.76825c-2.21254,0.55638 -3.9545,0.88378 -6.27066,0.9795l-1.27468,0.0011c0,0 -1.5,0 -1.5,-1.5z"></path><path d="M174.86833,213.17733c0.64875,-0.23721 1.35324,-0.20111 2.05233,-0.1915c2.04184,-3.10942 -3.94791,-1.63091 -5.57963,-0.34249c-4.37758,3.45658 -5.27522,8.88898 -5.70806,13.43462c-0.26655,2.7906 -1.32923,7.30526 1.34449,9.38654c0.36137,0.28129 3.34203,1.79069 3.59921,1.91922c1.43664,0.71794 2.31074,1.07867 4.02056,1.14598l1.2331,-0.08588c0,0 1.5049,-0.0916 1.48966,1.19085c-0.01524,1.28246 -1.52015,1.37406 -1.52015,1.37406l-1.6232,0.08798c-5.28278,-0.31287 -10.82109,-3.5072 -11.74846,-8.08282c-0.44602,-2.20066 -0.00971,-4.67656 0.20479,-6.93594c0.52978,-5.56369 2.04961,-12.72799 8.28275,-16.18907c3.44215,-1.91132 10.406,-2.27482 9.47683,2.70867c-0.11319,0.60709 -0.66518,1.11985 -0.99776,1.67978c0,0 -0.12278,0.19194 -0.35609,0.38365c-0.34286,0.83523 -1.46095,0.87862 -1.46095,0.87862c-0.55374,-0.01088 -1.1159,-0.16621 -1.66121,-0.03264c-0.81726,0.20019 -0.99964,1.22634 -1.30972,1.90752c-0.07908,0.17373 -0.16198,0.34954 -0.24581,0.5266c-1.16511,0.15136 -2.22548,0.43316 -3.0354,0.83301c-0.20024,0.09885 -0.37953,0.21643 -0.54215,0.34888c-0.03137,0.02555 -0.06213,0.05165 -0.09229,0.07828c0.66845,-2.57554 2.24546,-5.31763 4.17714,-6.02394z"></path><path d="M177.19138,213.43513c0.0961,0.01864 0.22781,0.04758 0.37614,0.08729c0.32217,0.02314 0.60662,0.13475 0.82307,0.3066c0.42693,0.22541 0.71937,0.54647 0.42886,0.97465c-0.06761,0.71008 -0.794,1.28573 -1.62243,1.28573c-0.34383,0 -0.6512,-0.09916 -0.88831,-0.26594c-0.18862,0.07322 -0.36311,0.16257 -0.51327,0.27856c-1.69291,1.30775 -2.58484,3.25018 -2.93742,5.08867c-0.65899,3.43621 -0.69691,0.81903 1.37782,2.75544c1.12659,1.05148 0.9809,1.66648 -0.67893,1.56889c-4.81791,-0.28329 -4.04173,-12.07187 3.6197,-12.07187z"></path></g><path d="M304.28211,233.50914c-0.12133,-0.15537 -0.23284,-0.31234 -0.32682,-0.47339c-0.6267,-1.07387 -0.45265,-2.4811 -1.018,-3.5885c-1.91496,-3.75096 -9.554,-2.62445 -12.36549,-1.41788l-0.02535,0.00209l0.00256,0.00675l-2.156,0.81692c-0.17404,0.07064 -0.36436,0.10954 -0.56375,0.10954c-0.82842,0 -1.5,-0.67157 -1.5,-1.5c0,-0.35196 0.12122,-0.6756 0.32418,-0.93147l0.98329,-1.26423l0.04096,0.03186c0.03863,-0.07083 0.07918,-0.14075 0.12185,-0.20963c2.04865,-3.30739 8.52333,-4.10088 11.84195,-3.79084c1.60872,0.15029 2.71722,0.68547 4.09643,1.46752c0.33085,0.1876 0.70009,0.34484 1.01056,0.56477c-0.02206,-0.41636 -0.0108,-0.83798 -0.10818,-1.1933c-0.86753,-3.16532 -1.43913,-5.95731 -4.59238,-7.4973l-0.58616,-0.37685c0,0 -1.24807,-0.83205 -0.41602,-2.08012c0.06116,-0.09174 0.12457,-0.17225 0.18957,-0.24267c0.19806,-1.42719 1.64909,-1.26596 1.64909,-1.26596c2.99833,0.36755 7.54139,1.9522 9.3256,4.66822c1.40951,2.14565 1.23018,5.00314 1.4906,7.43073c0.42826,3.99213 2.3084,10.18603 -1.42458,13.24169c-0.30237,0.2475 -0.89101,0.53375 -1.50275,0.79756c-0.0227,0.11874 -0.05075,0.24038 -0.08448,0.36514c-0.58339,2.15786 -2.64303,3.68549 -4.0096,5.32276c-3.09623,-0.98977 -6.33493,-3.06221 -9.54197,-3.49452c-1.86513,-0.25143 -3.37055,0.3599 -5.29774,-0.18205c-1.1481,-0.32286 -3.90802,-1.4706 -3.90452,-3.12772c0.00323,-1.52744 0.56028,-3.27311 1.7452,-4.23698c0.69315,-0.56384 1.72987,0.45093 2.58315,0.71609c2.14783,0.66747 3.59547,1.89183 5.51847,3.04135c2.40325,1.4366 5.30849,1.19761 7.91487,0.37441c0.09398,-0.41147 0.15987,-0.8302 0.20945,-1.24457c0,0 0.06191,-0.46433 0.37601,-0.83942z" fill="#d6aa6c" stroke="none" stroke-width="0.5" stroke-linecap="butt"></path><g fill="#804a0f" stroke="none" stroke-width="0.5" stroke-linecap="butt"><path d="M292.31649,225.21055l0.30262,0.00332c5.18097,0.34541 10.00474,1.22008 11.4974,6.91379c0,0 0.36381,1.45521 -1.09141,1.81902c-1.45522,0.36381 -1.81902,-1.09141 -1.81902,-1.09141c-0.86933,-3.72215 -4.12872,-4.30062 -7.4304,-4.55453c-0.22487,0.71503 -1.01806,0.95909 -1.01806,0.95909l-1.08877,0.31365c-0.88505,0.39064 -1.77011,0.78127 -2.65515,1.17191c-0.85294,-0.36085 -1.92857,-0.40395 -2.55881,-1.08256c-3.35253,-3.60989 1.74654,-7.81415 4.54677,-9.34656c4.98973,-2.7306 10.52143,-0.48076 14.52294,3.3841c-0.68499,0.64402 -1.24201,1.62972 -1.59134,3.02321c-0.77764,-0.77649 -1.59746,-1.5195 -2.39818,-2.2645c-0.27017,-0.25137 -2.06652,-1.92116 -2.67006,-2.09835c-2.89945,-0.85124 -5.90519,0.193 -8.21032,1.81657c-0.65592,0.46198 -3.3633,2.78721 -1.72913,3.5694c0.46721,-0.28549 0.93442,-0.57099 1.40163,-0.85649l0.48938,-0.15733c-0.00007,-0.00741 -0.00011,-0.01485 -0.00011,-0.02232c0,-1.5 1.5,-1.5 1.5,-1.5z"></path><path d="M299.21304,241.9022l-1.27469,-0.0011c-2.31616,-0.09572 -4.05811,-0.42312 -6.27065,-0.9795c-1.84893,-0.69121 -4.18377,-1.3734 -5.64698,-2.76825c-2.35935,-2.24914 -2.47117,-7.46067 1.21428,-8.54836c1.20139,-0.35457 2.95654,0.62577 3.95927,1.1559c1.98195,1.04784 4.07674,1.81137 6.15873,2.67741c1.47339,0.61289 4.60183,2.41586 3.83744,-0.14556c0,0 -0.29417,-1.47087 1.1767,-1.76504c1.47087,-0.29417 1.76504,1.1767 1.76504,1.1767c0.10467,0.68525 0.49887,1.38765 0.31402,2.05574c-1.53044,5.53154 -9.57154,1.04448 -12.91559,-0.37952c-0.88582,-0.37721 -2.56206,-1.86317 -3.66605,-1.84242c-0.68156,0.01281 -0.44187,2.4929 -0.40764,2.63952c0.37101,1.58934 3.83301,2.40171 5.1027,2.87954c1.96363,0.48772 3.43125,0.77336 5.49403,0.84605l1.15938,-0.00111c0,0 1.5,0 1.5,1.5c0,1.5 -1.5,1.5 -1.5,1.5z"></path><path d="M306.18939,219.89814c-0.03016,-0.02663 -0.06091,-0.05273 -0.09229,-0.07828c-0.16262,-0.13245 -0.3419,-0.25002 -0.54215,-0.34888c-0.80991,-0.39985 -1.87029,-0.68165 -3.0354,-0.83301c-0.08383,-0.17706 -0.16672,-0.35288 -0.2458,-0.52661c-0.31008,-0.68117 -0.49246,-1.70732 -1.30972,-1.90751c-0.54531,-0.13357 -1.10747,0.02176 -1.66121,0.03264c0,0 -1.11809,-0.04339 -1.46095,-0.87862c-0.23331,-0.19171 -0.35609,-0.38366 -0.35609,-0.38366c-0.33258,-0.55992 -0.88457,-1.07268 -0.99776,-1.67978c-0.92917,-4.9835 6.03468,-4.61999 9.47683,-2.70867c6.23314,3.46108 7.75297,10.62538 8.28275,16.18907c0.2145,2.25938 0.65081,4.73528 0.20479,6.93594c-0.92737,4.57562 -6.46567,7.76995 -11.74845,8.08282l-1.6232,-0.08798c0,0 -1.50491,-0.0916 -1.52016,-1.37406c-0.01524,-1.28246 1.48966,-1.19085 1.48966,-1.19085l1.23311,0.08588c1.70981,-0.06732 2.58391,-0.42805 4.02056,-1.14598c0.25718,-0.12852 3.23784,-1.63792 3.59921,-1.91922c2.67372,-2.08128 1.61104,-6.59593 1.34449,-9.38654c-0.43284,-4.54564 -1.33048,-9.97804 -5.70806,-13.43462c-1.63172,-1.28842 -7.62148,-2.76694 -5.57963,0.34248c0.69909,-0.00961 1.40358,-0.04572 2.05234,0.1915c1.93168,0.70631 3.50869,3.44841 4.17714,6.02394z"></path><path d="M299.70398,214.14c7.66143,0 8.43761,11.78859 3.6197,12.07187c-1.65983,0.0976 -1.80552,-0.51741 -0.67893,-1.56889c2.07473,-1.93641 2.0368,0.68077 1.37782,-2.75544c-0.35258,-1.83849 -1.2445,-3.78092 -2.93742,-5.08867c-0.15015,-0.11599 -0.32465,-0.20533 -0.51327,-0.27855c-0.23711,0.16678 -0.54448,0.26593 -0.88831,0.26593c-0.82842,0 -1.55482,-0.57565 -1.62243,-1.28573c-0.29051,-0.42818 0.00193,-0.74923 0.42886,-0.97464c0.21645,-0.17185 0.50089,-0.28346 0.82307,-0.3066c0.14832,-0.0397 0.28003,-0.06864 0.37613,-0.08729z"></path></g><path d="M224.56302,107.45713c0,-12.68969 10.28704,-22.97673 22.97673,-22.97673c12.6897,0 22.97673,10.28704 22.97673,22.97673c0,12.68969 -10.28703,22.97672 -22.97673,22.97672c-12.68969,0 -22.97673,-10.28703 -22.97673,-22.97672z" fill-opacity="0.50196" fill="#d400ff" stroke="#804a0f" stroke-width="0" stroke-linecap="butt"></path><path d="M284.9419,143.58406c0,-12.68969 10.28703,-22.97673 22.97673,-22.97673c12.6897,0 22.97672,10.28704 22.97672,22.97673c0,12.6897 -10.28703,22.97672 -22.97672,22.97672c-12.6897,0 -22.97673,-10.28703 -22.97673,-22.97672z" fill-opacity="0.50196" fill="#ff0000" stroke="#804a0f" stroke-width="0" stroke-linecap="butt"></path><path d="M292.74532,199.32132c0,-12.68969 10.28704,-22.97673 22.97673,-22.97673c12.68969,0 22.97673,10.28704 22.97673,22.97673c0,12.6897 -10.28703,22.97673 -22.97673,22.97673c-12.68969,0 -22.97673,-10.28703 -22.97673,-22.97673z" fill-opacity="0.50196" fill="#ff7b00" stroke="#804a0f" stroke-width="0" stroke-linecap="butt"></path><path d="M255.54276,252.54288c0,-12.6897 10.28703,-22.97673 22.97673,-22.97673c12.6897,0 22.97672,10.28704 22.97672,22.97673c0,12.68969 -10.28703,22.97672 -22.97672,22.97672c-12.6897,0 -22.97673,-10.28703 -22.97673,-22.97672z" fill-opacity="0.50196" fill="#fff700" stroke="#804a0f" stroke-width="0" stroke-linecap="butt"></path><text transform="translate(237.03975,115.59851) scale(0.70565,0.70565)" font-size="40" xml:space="preserve" fill="#ffffff" stroke="none" stroke-width="1" stroke-linecap="butt" font-family="Scratch" font-weight="normal" text-anchor="start"><tspan x="0" dy="0">W</tspan></text><text transform="translate(304.4892,151.72543) scale(0.70565,0.70565)" font-size="40" xml:space="preserve" fill="#ffffff" stroke="none" stroke-width="1" stroke-linecap="butt" font-family="Scratch" font-weight="normal" text-anchor="start"><tspan x="0" dy="0">I</tspan></text><text transform="translate(307.48011,207.4627) scale(0.70565,0.70565)" font-size="40" xml:space="preserve" fill="#ffffff" stroke="none" stroke-width="1" stroke-linecap="butt" font-family="Scratch" font-weight="normal" text-anchor="start"><tspan x="0" dy="0">N</tspan></text><text transform="translate(271.22312,260.68426) scale(0.70565,0.70565)" font-size="40" xml:space="preserve" fill="#ffffff" stroke="none" stroke-width="1" stroke-linecap="butt" font-family="Scratch" font-weight="normal" text-anchor="start"><tspan x="0" dy="0">T</tspan></text><text transform="translate(165.49681,207.4627) scale(0.70565,0.70565)" font-size="40" xml:space="preserve" fill="#ffffff" stroke="none" stroke-width="1" stroke-linecap="butt" font-family="Scratch" font-weight="normal" text-anchor="start"><tspan x="0" dy="0">R</tspan></text><path d="M171.72599,141.26089c-0.81124,-0.05765 -2.00659,-0.21949 -2.57978,-0.86499c-0.42151,0.19573 -0.85087,0.38341 -1.31882,0.52167c-0.04625,0.02435 -0.09512,0.04437 -0.14609,0.05955c-0.07369,0.02193 -0.15174,0.03371 -0.23254,0.03371c-0.44951,0 -0.81391,-0.3644 -0.81391,-0.81391c0,-0.30618 0.16906,-0.57287 0.41893,-0.71182c1.99253,-2.14187 9.49538,-1.86354 10.64185,-1.43454c0.81926,0.30656 4.28071,1.79911 1.9023,2.64821c-0.29887,0.10669 -0.98733,-0.27152 -1.67439,-0.65107c-0.92238,1.80773 -4.32738,1.34609 -6.19755,1.21319z" fill="#ffffff" stroke="none" stroke-width="0.5" stroke-linecap="butt"></path><path d="M187.04831,139.88915c-0.68706,0.37955 -1.37553,0.75776 -1.67439,0.65107c-2.37841,-0.84909 1.08304,-2.34165 1.9023,-2.64821c1.14646,-0.429 8.64932,-0.70733 10.64185,1.43454c0.24987,0.13894 0.41893,0.40563 0.41893,0.71182c0,0.44951 -0.3644,0.81391 -0.81391,0.81391c-0.08081,0 -0.15886,-0.01177 -0.23255,-0.03371c-0.05097,-0.01517 -0.09984,-0.03519 -0.14609,-0.05955c-0.46795,-0.13827 -0.89732,-0.32594 -1.31882,-0.52167c-0.57319,0.6455 -1.76855,0.80734 -2.57978,0.86498c-1.87016,0.13291 -5.27516,0.59454 -6.19755,-1.21319z" fill="#ffffff" stroke="none" stroke-width="0.5" stroke-linecap="butt"></path><path d="M177.70769,147.26393c3.54451,0.37413 7.05058,0.71983 10.63915,0.68152c0.92907,-0.00992 3.75385,-0.84775 3.17163,0.89891c-0.27237,0.81711 -2.68267,0.72733 -3.11379,0.7289c-4.18584,0.01519 -8.61535,-0.15382 -12.73686,-0.96989c-1.08151,-0.21414 -3.17819,-0.31689 -4.05017,-1.0643c-1.57987,-1.35417 1.7394,-3.41355 2.29514,-2.44101c0.23989,0.14158 0.40082,0.40272 0.40082,0.70144c0,0.18055 -0.05879,0.34738 -0.15827,0.48236c-0.02179,0.9925 2.36865,0.85712 3.55234,0.98206z" fill="#ffffff" stroke="none" stroke-width="0.5" stroke-linecap="butt"></path></g></g></svg>