<svg version="1.1" xmlns="http://www.w3.org/2000/svg" xmlns:xlink="http://www.w3.org/1999/xlink" width="109.14461" height="203.73244" viewBox="0,0,109.14461,203.73244"><g transform="translate(-149.10521,-80.50582)"><g stroke-miterlimit="10"><path d="M173.40122,161.30834c-3.2358,-2.80725 1.70266,-27 1.70266,-27l62.64248,0.66666c0,0 -8.58148,18.23179 -18.35517,23.66666c-9.77368,5.43487 -28.91409,6.34084 -35.46057,6.25876c-2.83028,-0.03548 -3.15323,-6.74291 -3.15323,-6.74291c0,0 -6.49274,3.91724 -7.37616,3.15082z" fill="#683318" stroke="#45180a" stroke-width="2.5" stroke-linecap="butt"></path><path d="M211.92938,220.575c0,-6.05401 4.90775,-10.96175 10.96175,-10.96175c6.05401,0 10.96175,4.90775 10.96175,10.96175c0,6.05401 -4.90775,10.96175 -10.96175,10.96175c-6.05401,0 -10.96175,-4.90775 -10.96175,-10.96175z" fill="#d6aa6c" stroke="#804a0f" stroke-width="2.5" stroke-linecap="butt"></path><g stroke-linecap="butt"><path d="M180.68589,194.55147c-9.96739,0 -25.34398,-3.83015 -25.12442,-11.40093c0.07989,-2.75463 -5.20626,-5.91505 -5.20626,-8.05116c0,-7.42938 12.34093,-9.20209 26.33068,-9.20209c13.98975,0 34.21492,-2.95843 34.21492,11.624c0,14.58242 -16.22517,17.03018 -30.21492,17.03018z" fill="#c23200" stroke="#490012" stroke-width="2.5"></path><path d="M202.71728,172.72627c0,0.82843 -9.23413,1.5 -20.625,1.5c-11.39087,0 -25.625,-0.42157 -25.625,-1.25c0,-0.82843 8.23413,-2.25 19.625,-2.25c11.39087,0 26.625,1.17157 26.625,2z" fill="#670000" stroke="none" stroke-width="0"></path></g><path d="M208.05413,264.44281c13.03151,0 28.42624,3.79846 28.42624,11.14755c0,6.9775 -6.47669,6.68852 -19.5082,6.68852c-13.03151,0 -22.48088,0.66056 -22.48088,-6.31694c0,-6.9775 0.53133,-11.51913 13.56284,-11.51913z" fill="#c7bed6" stroke="#5f5775" stroke-width="2.5" stroke-linecap="butt"></path><path d="M174.54848,276.66963c0,-6.9775 0.53134,-11.51913 13.56285,-11.51913c13.03151,0 28.42624,3.79845 28.42624,11.14754c0,6.9775 -6.47669,6.68853 -19.5082,6.68853c-13.03151,0 -22.48088,0.66056 -22.48088,-6.31694z" fill="#f1f2ff" stroke="#5f5775" stroke-width="2.5" stroke-linecap="butt"></path><g stroke="#12002b" stroke-width="2.5" stroke-linecap="butt"><path d="M200.06487,266.48192l-0.37159,-41.6175h17.83607l8.91804,40.50275z" fill="#0d0b3e"></path><path d="M198.82453,267.69705l-1.10573,-8.59553l29.85474,-2.94862l1.10573,11.19553z" fill="#5a5e90"></path></g><g stroke="#12002b" stroke-width="2.5" stroke-linecap="butt"><path d="M183.15504,266.06933l8.91804,-40.50275h17.83607l-0.37158,41.6175z" fill="#313663"></path><path d="M180.21879,267.59844l1.10573,-11.19553l29.85474,2.94862l-1.10573,8.59553z" fill="#7b7fa8"></path></g><g><g><path d="M181.3106,225.4617c0,0 -2.94322,-50.48471 0.01366,-54.51397c2.90086,-3.95293 14.36305,-3.65123 25.52987,-3.73344c10.56815,-0.07781 20.90653,-0.69078 22.27616,1.00393c4.3568,5.39088 -2.43442,58.50548 -2.43442,58.50548z" fill="#ffb400" stroke="#651f00" stroke-width="2.5" stroke-linecap="butt"></path><path d="M220.99575,179.2066v21.4024" fill="none" stroke="#ffffff" stroke-width="3" stroke-linecap="round"></path><path d="M181.31563,183.64777c0,0 -0.97521,-11.54907 2.63545,-13.50722c2.45064,-1.32904 12.94216,-1.83574 23.23305,-1.99041c10.09206,-0.15167 19.99755,0.02884 21.29582,0.74571c1.01633,0.56119 0.66667,8.53342 0.66667,8.53342z" fill="#df7b00" stroke="none" stroke-width="0" stroke-linecap="butt"></path><path d="M228.92133,179.49384l-16.13148,-0.04183" fill="none" stroke="#ffffff" stroke-width="2.5" stroke-linecap="round"></path></g><path d="M201.99473,222.85812c0,0 1.24548,-5.4689 1.28404,-8.14904c0.03896,-2.70791 -1.05145,-8.01596 -1.05145,-8.01596l26.66308,0.74875c0,0 1.92259,5.38029 1.88384,8.07285c-0.03879,2.69577 -2.36643,7.84215 -2.36643,7.84215z" fill="#ffb400" stroke="#651f00" stroke-width="1.5" stroke-linecap="butt"></path></g><path d="M198.78475,172.59168l-3.05882,-14.33334l21,0.16666l-3.4902,14.00001c0,0 -4.27962,1.39474 -6.59966,1.34041c-2.42077,-0.05668 -7.85132,-1.17374 -7.85132,-1.17374z" fill="#d6aa6c" stroke="#804a0f" stroke-width="2.5" stroke-linecap="butt"></path><g><g stroke-linecap="butt"><g fill="#ffe4b7" stroke="#804a0f" stroke-width="2.5"><g><path d="M170.47221,128.83211c0,-20.11162 16.30369,-36.41531 36.41531,-36.41531c20.11162,0 36.41531,16.30369 36.41531,36.41531c0,20.11162 -16.30369,36.41531 -36.41531,36.41531c-20.11162,0 -36.41531,-16.30369 -36.41531,-36.41531z"></path><path d="M168.86251,137.99548c0,-6.15662 4.99093,-11.14754 11.14754,-11.14754c6.15662,0 11.14754,4.99093 11.14754,11.14754c0,6.15662 -4.99093,11.14754 -11.14754,11.14754c-6.15662,0 -11.14754,-4.99093 -11.14754,-11.14754z"></path></g></g><path d="M183.56409,123.66182l58.05699,-0.52341c0,0 0.45817,6.20627 0.18473,9.33842c-0.27687,3.17132 -1.83579,9.57344 -1.83579,9.57344c0,0 2.6085,-6.8912 -4.03548,-6.51147c-3.09632,-0.2261 -10.67446,3.47193 -20.89384,5.12158c-9.09832,1.46868 -21.11964,0.89902 -21.11964,0.89902l-1.95045,0.08452c0,0 0.68469,-4.07353 0.22445,-6.4514c-0.6331,-3.27097 -8.63096,-11.53069 -8.63096,-11.53069z" fill="#d6aa6c" stroke="none" stroke-width="0"></path></g><g fill="none" stroke="#d6aa6c" stroke-width="0.5" stroke-linecap="round"><path d="M177.44029,136.18452l4.85714,4.42857"></path><path d="M177.91648,139.94643l4.57143,-3.85714"></path></g></g><g stroke-linecap="butt"><g stroke="#45180a"><path d="M245.4296,81.99671l-5.83616,18.93979l17.18297,7.94265c0,0 -1.8893,7.24205 -6.13171,9.99598c-1.50748,0.97857 -8.08328,2.78651 -8.70333,2.94006c-13.20455,3.26992 -30.95027,2.57515 -32.98172,2.34275c-3.24987,0.42717 -10.42475,-0.1447 -10.42475,-0.1447l-10.06921,19.57838c0,0 -6.22938,-19.67205 -7.47271,-19.17525c-0.78398,0.31326 -4.69927,0.71243 -6.25822,1.40232c-2.60781,1.15404 -6.9819,6.92198 -6.9819,6.92198c0,0 -5.26006,-13.50666 -0.34547,-21.45022c2.99979,-4.55817 9.57353,-9.16604 9.57353,-9.16604c0,0 -0.75403,-4.73767 5.80457,-9.67532c5.82864,-4.3881 22.59837,-5.1972 27.10605,-5.82124z" fill="#865b00" stroke-width="2.5"></path><path d="M220.19453,105.47169l23.1321,-22.15l-4.64711,18.35c0,0 -3.96366,3.09144 -7.65528,3.38971c-3.73407,0.3017 -10.82972,0.41029 -10.82972,0.41029z" fill="#683318" stroke-width="0"></path><path d="M198.17826,122.60502l-9.72938,18.41676l5.29875,-25.55009c0,0 22.53894,1.65758 36.88983,0.28013c14.35089,-1.37745 24.57709,-6.04679 24.57709,-6.04679c0,0 -1.89865,5.40732 -3.74395,7.37699c-1.77445,1.89404 -19.56248,6.10314 -29.03749,6.38649c-11.70648,0.35007 -24.25484,-0.86348 -24.25484,-0.86348z" fill="#683318" stroke-width="0"></path></g><g fill="#f5c827" stroke="#000000" stroke-width="0"><path d="M197.1673,102.68298c-1.23312,4.45665 -4.69038,7.09642 -7.72202,5.89611c-3.03163,-1.20032 -4.4896,-5.78619 -3.25648,-10.24284c1.23312,-4.45665 4.69039,-7.09642 7.72202,-5.89611c3.03163,1.20032 4.4896,5.78619 3.25647,10.24284z"></path><path d="M204.12313,98.32054c-0.68241,2.46631 -2.59566,3.92716 -4.27337,3.26291c-1.67771,-0.66426 -2.48454,-3.20208 -1.80213,-5.66839c0.68241,-2.46631 2.59566,-3.92717 4.27337,-3.26291c1.67771,0.66426 2.48454,3.20208 1.80213,5.6684z"></path><path d="M181.41704,113.00364c-0.07328,1.99246 -1.0043,3.39282 -2.07952,3.12778c-1.07521,-0.26504 -1.88744,-2.0951 -1.81417,-4.08756c0.07328,-1.99246 1.00431,-3.39282 2.07952,-3.12778c1.07521,0.26504 1.88744,2.0951 1.81417,4.08756z"></path><path d="M210.81137,94.96435c-0.07328,1.99246 -1.00432,3.39281 -2.07952,3.12778c-1.07521,-0.26503 -1.88743,-2.0951 -1.81417,-4.08756c0.07328,-1.99246 1.00431,-3.39282 2.07952,-3.12778c1.0752,0.26503 1.88744,2.09511 1.81417,4.08756z"></path><path d="M187.43447,105.37282c0.62959,2.73865 -0.04577,5.34883 -1.50846,5.83c-1.46269,0.48117 -3.15882,-1.34889 -3.78841,-4.08754c-0.62959,-2.73865 0.04577,-5.34883 1.50846,-5.83c1.46269,-0.48117 3.15882,1.34889 3.78841,4.08754z"></path></g></g><path d="M172.8256,223.04632c0,-6.77228 5.49002,-12.2623 12.2623,-12.2623c6.77228,0 12.2623,5.49002 12.2623,12.2623c0,6.77228 -5.49002,12.2623 -12.2623,12.2623c-6.77228,0 -12.2623,-5.49002 -12.2623,-12.2623z" fill="#ffe4b7" stroke="#804a0f" stroke-width="2.5" stroke-linecap="butt"></path><path d="M215.65583,134.5498c1.00514,-0.19562 2.00926,-0.80843 3.01233,-0.60248c1.43166,0.29394 5.67926,1.4149 3.06123,3.49393c-1.35887,1.0791 -3.95096,0.13691 -5.6985,0.10855c-1.89626,-0.03077 -5.52164,1.05135 -5.62684,-0.84224c-0.15242,-0.23479 -0.24094,-0.51489 -0.24094,-0.81566c0,-0.82843 0.67157,-1.5 1.5,-1.5c0.41643,0 0.79323,0.1697 1.06501,0.44371c0.97253,-0.11454 2.01215,-0.10762 2.92772,-0.2858z" fill="#00c4ff" stroke="none" stroke-width="0.5" stroke-linecap="butt"></path><path d="M211.61912,136.12887c-1.49508,-0.10625 -3.69808,-0.40451 -4.75445,-1.59414c-0.77682,0.36073 -1.56812,0.70661 -2.43053,0.96142c-0.08523,0.04487 -0.17531,0.08178 -0.26924,0.10974c-0.1358,0.04041 -0.27965,0.06212 -0.42857,0.06212c-0.82843,0 -1.5,-0.67157 -1.5,-1.5c0,-0.56428 0.31158,-1.05578 0.77208,-1.31185c3.67216,-3.94739 17.49965,-3.43444 19.61255,-2.64381c1.50987,0.56498 7.88919,3.3157 3.50587,4.88055c-0.5508,0.19663 -1.81962,-0.5004 -3.08585,-1.19989c-1.69992,3.33158 -7.97521,2.4808 -11.42186,2.23586z" fill="#000000" stroke="none" stroke-width="0.5" stroke-linecap="butt"></path><path d="M219.85037,147.19225c5.4711,0.57749 10.89249,1.11822 16.39515,1.23719c-0.79836,1.03579 -1.62808,2.01197 -2.48217,2.96414c-5.92348,-0.14487 -11.95853,-0.60144 -17.67236,-1.73279c-1.99319,-0.39465 -5.85729,-0.58402 -7.46431,-1.96146c-2.91164,-2.49569 3.20566,-6.29105 4.22987,-4.49869c0.44211,0.26093 0.7387,0.74219 0.7387,1.29272c0,0.33275 -0.10835,0.6402 -0.29169,0.88898c-0.04015,1.82915 4.36534,1.57965 6.54683,1.80991z" fill="#000000" stroke="none" stroke-width="0.5" stroke-linecap="butt"></path></g></g></svg>