<svg version="1.1" xmlns="http://www.w3.org/2000/svg" xmlns:xlink="http://www.w3.org/1999/xlink" width="207.78967" height="199.79433" viewBox="0,0,207.78967,199.79433"><g transform="translate(-110.02888,-79.94391)"><g stroke-miterlimit="10"><path d="M180.86815,220.82498c0,-6.05401 4.90775,-10.96175 10.96175,-10.96175c6.05401,0 10.96175,4.90775 10.96175,10.96175c0,6.05401 -4.90775,10.96175 -10.96175,10.96175c-6.05401,0 -10.96175,-4.90775 -10.96175,-10.96175z" fill="#d6aa6c" stroke="#804a0f" stroke-width="2.5" stroke-linecap="butt"></path><path d="M240.26986,271.96192c0,6.9775 -9.44937,6.31694 -22.48088,6.31694c-13.03151,0 -19.5082,0.28898 -19.5082,-6.68852c0,-7.34909 15.39473,-11.14755 28.42624,-11.14755c13.03151,0 13.56284,4.54163 13.56284,11.51913z" fill="#c7bed6" stroke="#5f5775" stroke-width="2.5" stroke-linecap="butt"></path><path d="M239.72358,272.16961c0,-6.9775 0.53134,-11.51913 13.56285,-11.51913c13.03151,0 28.42624,3.79845 28.42624,11.14754c0,6.9775 -6.47669,6.68853 -19.5082,6.68853c-13.03151,0 -22.48088,0.66056 -22.48088,-6.31694z" fill="#f1f2ff" stroke="#5f5775" stroke-width="2.5" stroke-linecap="butt"></path><g stroke="#12002b" stroke-width="2.5" stroke-linecap="butt"><path d="M211.31376,261.86715l8.91804,-40.50275h17.83607l-0.37159,41.6175z" fill="#0d0b3e"></path><path d="M209.08188,263.84842l1.10573,-11.19553l29.85474,2.94862l-1.10573,8.59553z" fill="#5a5e90"></path></g><g stroke="#12002b" stroke-width="2.5" stroke-linecap="butt"><path d="M239.72358,263.18406l-0.37158,-41.6175h17.83607l8.91804,40.50275z" fill="#313663"></path><path d="M239.18762,263.94704l-1.10573,-8.59553l29.85474,-2.94862l1.10573,11.19553z" fill="#7b7fa8"></path></g><g stroke-linecap="butt"><path d="M216.3327,226.21168c0,0 -2.94322,-50.48471 0.01366,-54.51397c2.90086,-3.95293 14.36305,-3.65123 25.52987,-3.73344c10.56815,-0.07781 20.90653,-0.69078 22.27616,1.00393c4.3568,5.39088 -2.43442,58.50548 -2.43442,58.50548z" fill="#ffb400" stroke="#651f00" stroke-width="2.5"></path><path d="M216.33773,184.39775c0,0 -0.97521,-11.54907 2.63545,-13.50722c2.45064,-1.32904 12.94216,-1.83574 23.23305,-1.99041c10.09206,-0.15167 19.99755,0.02884 21.29582,0.74571c1.01633,0.56119 0.66667,8.53342 0.66667,8.53342c0,0 -0.5637,8.83783 -5.8216,15.3196c-7.23076,8.91386 -20.22002,16.26839 -24.50462,16.35551c-14.13336,0.28738 -17.31792,-6.64118 -17.31792,-6.64118z" fill="#df7b00" stroke="none" stroke-width="0"></path></g><path d="M233.80685,173.34166l-3.05882,-14.33334l21,0.16666l-3.4902,14.00001c0,0 -4.27962,1.39474 -6.59966,1.34041c-2.42077,-0.05668 -7.85132,-1.17374 -7.85132,-1.17374z" fill="#d6aa6c" stroke="#804a0f" stroke-width="2.5" stroke-linecap="butt"></path><g><g stroke="#804a0f" stroke-width="2.5" stroke-linecap="butt"><g><path d="M211.19881,150.48594c-6.15661,0 -11.14754,-4.99092 -11.14754,-11.14754c0,-6.15662 4.99092,-11.14755 11.14754,-11.14755c6.15662,0 11.14755,4.99093 11.14755,11.14755c0,6.15662 -4.99093,11.14754 -11.14755,11.14754z" fill="#d6aa6c"></path><g fill="#ffe4b7"><path d="M240.29944,167.49742c-20.11162,0 -36.41531,-16.30369 -36.41531,-36.41531c0,-20.11162 16.30369,-36.41531 36.41531,-36.41531c20.11162,0 36.41531,16.30369 36.41531,36.41531c0,20.11162 -16.30369,36.41531 -36.41531,36.41531z"></path><path d="M277.51025,151.05966c-6.15661,0 -11.14754,-4.99092 -11.14754,-11.14754c0,-6.15661 4.99092,-11.14754 11.14754,-11.14754c6.15661,0 11.14754,4.99092 11.14754,11.14754c0,6.15661 -4.99092,11.14754 -11.14754,11.14754z"></path></g></g></g><g fill="none" stroke="#d6aa6c" stroke-width="0.5" stroke-linecap="round"><path d="M280.74668,137.76784l-4.85714,4.42857"></path><path d="M276.03239,138.33926l4.57143,3.85714"></path></g></g><path d="M209.08142,116.79165l72.53334,-1.33334c0,0 -9.34404,34.89846 -19.33334,40.33332c-9.9893,5.43487 -31.82529,4.34084 -39.00296,4.25876c-3.10316,-0.03548 -4.33382,-6.74291 -4.33382,-6.74291c0,0 -5.60939,5.6484 -7.66323,3.15082c-6.8432,-8.32173 -2.19999,-39.66665 -2.19999,-39.66665z" fill="#683318" stroke="#45180a" stroke-width="4.5" stroke-linecap="butt"></path><g stroke-linecap="butt"><g stroke="#45180a"><path d="M239.01305,87.62786c11.51809,-1.33299 49.23499,-6.13115 49.23499,-6.13115l-11.01553,19.68979l21.89934,8.19265c0,0 -3.33581,7.74205 -8.41067,10.49598c-1.80328,0.97857 -5.83874,3.18525 -5.83874,3.18525l-6.94745,12.43298c0,0 0.1584,-12.83172 -0.58331,-12.67817c-15.79553,3.26992 -37.02331,2.57515 -39.45337,2.34275c-3.88756,0.42717 -12.47029,-0.1447 -12.47029,-0.1447l-17.54499,19.57838c0,0 -6.26806,-19.85616 -4.35632,-27.05117c4.31101,-16.22492 19.43237,-28.05466 35.48635,-29.91259z" fill="#865b00" stroke-width="2.5"></path><path d="M252.95136,103.47167l33.05,-20.4l-10.4,18.6c0,0 -8.50665,1.59144 -12.92264,1.88971c-4.46677,0.3017 -9.72736,-0.08971 -9.72736,-0.08971z" fill="#683318" stroke-width="0"></path><path d="M225.0014,123.605l-11.63848,18.41676l6.33848,-25.55009c0,0 26.9615,1.65758 44.12832,0.28013c17.16682,-1.37745 33.97168,-6.54679 33.97168,-6.54679c0,0 -3.34699,5.40732 -5.55438,7.37699c-2.12263,1.89404 -7.94562,4.47301 -7.94562,4.47301l-4.84945,8.51284c0,0 0.16965,-8.08843 -1.55536,-8.59429c-2.69911,-0.79151 -12.54688,2.21158 -23.88108,2.49493c-14.00352,0.35007 -29.01412,-0.86348 -29.01412,-0.86348z" fill="#683318" stroke-width="0"></path></g><g fill="#f5c827" stroke="#000000" stroke-width="0"><path d="M232.37231,103.93296c-1.47509,4.45665 -5.61073,7.09642 -9.23722,5.89611c-3.62649,-1.20032 -5.37054,-5.78619 -3.89545,-10.24284c1.47509,-4.45665 5.61073,-7.09642 9.23722,-5.89611c3.62649,1.20032 5.37054,5.78619 3.89545,10.24284z"></path><path d="M240.06479,98.57052c-0.81631,2.46631 -3.10498,3.92716 -5.11188,3.26291c-2.0069,-0.66426 -2.97206,-3.20208 -2.15575,-5.66839c0.81631,-2.46631 3.10498,-3.92717 5.11188,-3.26291c2.0069,0.66426 2.97206,3.20208 2.15575,5.6684z"></path><path d="M213.6371,114.75362c-0.08765,1.99246 -1.20137,3.39282 -2.48756,3.12778c-1.28619,-0.26504 -2.25779,-2.0951 -2.17014,-4.08756c0.08765,-1.99246 1.20137,-3.39282 2.48756,-3.12778c1.28619,0.26504 2.25779,2.0951 2.17014,4.08756z"></path><path d="M249.2014,95.46433c-0.08765,1.99246 -1.20138,3.39281 -2.48756,3.12778c-1.28619,-0.26503 -2.25779,-2.0951 -2.17014,-4.08756c0.08765,-1.99246 1.20137,-3.39282 2.48756,-3.12778c1.28618,0.26503 2.25779,2.09511 2.17014,4.08756z"></path><path d="M220.1661,107.0728c0.75313,2.73865 -0.05475,5.34883 -1.80444,5.83c-1.7497,0.48117 -3.77864,-1.34889 -4.53177,-4.08754c-0.75313,-2.73865 0.05475,-5.34883 1.80444,-5.83c1.7497,-0.48117 3.77864,1.34889 4.53177,4.08754z"></path></g></g><path d="M272.93103,221.21296c0,-6.77228 5.49002,-12.2623 12.2623,-12.2623c6.77228,0 12.2623,5.49002 12.2623,12.2623c0,6.77228 -5.49002,12.2623 -12.2623,12.2623c-6.77228,0 -12.2623,-5.49002 -12.2623,-12.2623z" fill="#ffe4b7" stroke="#804a0f" stroke-width="2.5" stroke-linecap="butt"></path><path d="M211.28141,156.45832c-3.90957,-2.80725 -2.83332,-19.5 -2.83332,-19.5l12.35558,-18.74913l60.81108,-2.75087c0,0 -9.34404,34.89846 -19.33334,40.33332c-9.9893,5.43487 -31.82529,4.34084 -39.00296,4.25876c-3.10316,-0.03548 -4.33382,-6.74291 -4.33382,-6.74291c0,0 -6.59585,3.91724 -7.66323,3.15082z" fill="#683318" stroke="none" stroke-width="0" stroke-linecap="butt"></path><g stroke-linecap="butt"><path d="M231.90799,193.70146c-9.96739,0 -25.34398,-3.83015 -25.12442,-11.40093c0.07989,-2.75463 -5.20626,-5.91505 -5.20626,-8.05116c0,-7.42938 12.34093,-9.20209 26.33068,-9.20209c13.98975,0 34.21492,-2.95843 34.21492,11.624c0,14.58242 -16.22517,17.03018 -30.21492,17.03018z" fill="#c23200" stroke="#490012" stroke-width="2.5"></path><path d="M253.93938,171.87626c0,0.82843 -9.23413,1.5 -20.625,1.5c-11.39087,0 -25.625,-0.42157 -25.625,-1.25c0,-0.82843 8.23413,-2.25 19.625,-2.25c11.39087,0 26.625,1.17157 26.625,2z" fill="#670000" stroke="none" stroke-width="0"></path></g><path d="M114.33487,184.62854c-0.33541,0.67082 -1.00623,0.33541 -1.00623,0.33541l-0.1282,-0.06435c-0.03682,0.06993 -0.08891,0.14115 -0.16013,0.21237c-0.53033,0.53033 -1.06066,0 -1.06066,0c-0.32255,-0.32565 -0.6451,-0.6513 -0.96764,-0.97695l-0.59167,-0.33705c-0.23322,-0.12717 -0.39146,-0.37456 -0.39146,-0.65891c0,-0.41421 0.33579,-0.75 0.75,-0.75c0.08907,0 0.17452,0.01553 0.25378,0.04402l0.84894,0.28298l-0.03646,0.10937c0.32467,0.03327 0.64402,0.09447 0.95185,0.19775l1.20247,0.59912c0,0 0.67082,0.33541 0.33541,1.00623z" fill="#9966ff" stroke="none" stroke-width="0.5" stroke-linecap="butt"></path><path d="M316.31855,229.59031c0,-0.41421 0.33579,-0.75 0.75,-0.75c0.41421,0 0.75,0.33579 0.75,0.75c0,0.41421 -0.33579,0.75 -0.75,0.75c-0.41421,0 -0.75,-0.33579 -0.75,-0.75z" fill="#9966ff" stroke="none" stroke-width="0.5" stroke-linecap="butt"></path></g></g></svg>