<svg version="1.1" xmlns="http://www.w3.org/2000/svg" xmlns:xlink="http://www.w3.org/1999/xlink" width="108.49795" height="199.80938" viewBox="0,0,108.49795,199.80938"><g transform="translate(-196.19164,-103.41503)"><g stroke-miterlimit="10"><path d="M254.6768,283.91391c13.03151,0 28.42624,3.79846 28.42624,11.14755c0,6.9775 -6.47669,6.68852 -19.5082,6.68852c-13.03151,0 -22.48088,0.66056 -22.48088,-6.31694c0,-6.9775 0.53133,-11.51913 13.56284,-11.51913z" fill="#c7bed6" stroke="#5f5775" stroke-width="2.5" stroke-linecap="butt"></path><path d="M241.66023,295.64073c0,6.9775 -9.44937,6.31694 -22.48088,6.31694c-13.03151,0 -19.5082,0.28897 -19.5082,-6.68853c0,-7.34909 15.39473,-11.14754 28.42624,-11.14754c13.03151,0 13.56285,4.54163 13.56285,11.51913z" fill="#f1f2ff" stroke="#5f5775" stroke-width="2.5" stroke-linecap="butt"></path><g stroke-linecap="butt"><path d="M235.79836,217.17257c-9.96739,0 -25.34398,-3.83015 -25.12442,-11.40093c0.07989,-2.75463 -5.20626,-5.91505 -5.20626,-8.05116c0,-7.42938 12.34093,-9.20209 26.33068,-9.20209c13.98975,0 34.21492,-2.95843 34.21492,11.624c0,14.58242 -16.22517,17.03018 -30.21492,17.03018z" fill="#c23200" stroke="#490012" stroke-width="2.5"></path><path d="M257.82975,195.34737c0,0.82843 -9.23413,1.5 -20.625,1.5c-11.39087,0 -25.625,-0.42157 -25.625,-1.25c0,-0.82843 8.23413,-2.25 19.625,-2.25c11.39087,0 26.625,1.17157 26.625,2z" fill="#670000" stroke="none" stroke-width="0"></path></g><g stroke="#12002b" stroke-width="2.5" stroke-linecap="butt"><path d="M243.68754,286.45302l-0.37159,-41.6175h17.83607l8.91804,40.50275z" fill="#0d0b3e"></path><path d="M242.4472,287.66815l-1.10573,-8.59553l29.85474,-2.94862l1.10573,11.19553z" fill="#5a5e90"></path></g><g stroke="#12002b" stroke-width="2.5" stroke-linecap="butt"><path d="M215.27771,285.54043l8.91804,-40.50275h17.83607l-0.37158,41.6175z" fill="#313663"></path><path d="M212.34146,287.06954l1.10573,-11.19553l29.85474,2.94862l-1.10573,8.59553z" fill="#7b7fa8"></path></g><path d="M216.17178,184.92944c-3.90957,-2.80725 -1.66666,-27 -1.66666,-27l68.66667,0.66666c0,0 -7.0107,18.23179 -17,23.66666c-9.9893,5.43487 -30.82529,6.34084 -38.00296,6.25876c-3.10316,-0.03548 -4.33382,-6.74291 -4.33382,-6.74291c0,0 -6.59585,3.91724 -7.66323,3.15082z" fill="#683318" stroke="#45180a" stroke-width="2.5" stroke-linecap="butt"></path><path d="M220.22307,249.6828c0,0 -2.94322,-50.48471 0.01366,-54.51397c2.90086,-3.95293 14.36305,-3.65123 25.52987,-3.73344c10.56815,-0.07781 20.90653,-0.69078 22.27616,1.00393c4.3568,5.39088 -2.43442,58.50548 -2.43442,58.50548z" fill="#ffb400" stroke="#651f00" stroke-width="2.5" stroke-linecap="butt"></path><path d="M240.70822,205.29437v21.4024" fill="none" stroke="#ffffff" stroke-width="3" stroke-linecap="round"></path><path d="M250.46117,214.50553l-0.81275,-10.02391" fill="none" stroke="#ffffff" stroke-width="2.5" stroke-linecap="round"></path><path d="M220.2281,207.86887c0,0 -0.97521,-11.54907 2.63545,-13.50722c2.45064,-1.32904 12.94216,-1.83574 23.23305,-1.99041c10.09206,-0.15167 19.99755,0.02884 21.29582,0.74571c1.01633,0.56119 0.66667,8.53342 0.66667,8.53342z" fill="#df7b00" stroke="none" stroke-width="0" stroke-linecap="butt"></path><path d="M235.01898,203.93978l21.13148,0.54183" fill="none" stroke="#ffffff" stroke-width="2.5" stroke-linecap="round"></path><path d="M227.4072,246.41255c0,0 1.24548,-5.4689 1.28404,-8.14904c0.03896,-2.70791 -1.05145,-8.01596 -1.05145,-8.01596l34.66308,0.49875c0,0 1.42259,5.38029 1.38384,8.07285c-0.03879,2.69577 -1.61643,8.09215 -1.61643,8.09215z" fill="#ffb400" stroke="#651f00" stroke-width="1.5" stroke-linecap="butt"></path><path d="M237.69722,196.81278l-3.05882,-14.33334l21,0.16666l-3.4902,14.00001c0,0 -4.27962,1.39474 -6.59966,1.34041c-2.42077,-0.05668 -7.85132,-1.17374 -7.85132,-1.17374z" fill="#d6aa6c" stroke="#804a0f" stroke-width="2.5" stroke-linecap="butt"></path><g><g stroke-linecap="butt"><g stroke="#804a0f" stroke-width="2.5"><path d="M263.75307,161.30953c0,-6.15662 4.99093,-11.14755 11.14755,-11.14755c6.15662,0 11.14754,4.99093 11.14754,11.14755c0,6.15662 -4.99093,11.14754 -11.14754,11.14754c-6.15662,0 -11.14755,-4.99092 -11.14755,-11.14754z" fill="#d6aa6c"></path><g fill="#ffe4b7"><path d="M209.38468,153.05321c0,-20.11162 16.30369,-36.41531 36.41531,-36.41531c20.11162,0 36.41531,16.30369 36.41531,36.41531c0,20.11162 -16.30369,36.41531 -36.41531,36.41531c-20.11162,0 -36.41531,-16.30369 -36.41531,-36.41531z"></path><path d="M197.44164,161.88324c0,-6.15662 4.99093,-11.14754 11.14754,-11.14754c6.15662,0 11.14754,4.99093 11.14754,11.14754c0,6.15662 -4.99093,11.14754 -11.14754,11.14754c-6.15662,0 -11.14754,-4.99093 -11.14754,-11.14754z"></path></g></g><path d="M217.92473,165.69834l9.55183,-17.81542l53.05699,-0.52341c0,0 0.45817,6.20627 0.18473,9.33842c-0.27687,3.17132 -1.83579,9.57344 -1.83579,9.57344c0,0 -16.55817,-7.47454 -23.20215,-7.09481c-6.93549,0.39638 -37.7556,6.52179 -37.7556,6.52179z" fill="#d6aa6c" stroke="none" stroke-width="0"></path></g><g fill="none" stroke="#d6aa6c" stroke-width="0.5" stroke-linecap="round"><path d="M205.35275,159.73896l4.85714,4.42857"></path><path d="M205.49561,164.16751l4.57143,-3.85714"></path></g></g><g stroke-linecap="butt"><g stroke="#45180a"><path d="M242.90342,111.09898c11.51809,-1.33299 49.23499,-6.13115 49.23499,-6.13115l-11.01553,19.68979l21.89934,8.19265c0,0 -3.33581,7.74205 -8.41067,10.49598c-1.80328,0.97857 -5.83874,3.18525 -5.83874,3.18525l-6.94745,12.43298c0,0 0.1584,-12.83172 -0.58331,-12.67817c-15.79553,3.26992 -37.02331,2.57515 -39.45337,2.34275c-3.88756,0.42717 -12.47029,-0.1447 -12.47029,-0.1447l-12.04499,19.57838c0,0 -11.76806,-19.85616 -9.85632,-27.05117c4.31101,-16.22492 19.43237,-28.05466 35.48635,-29.91259z" fill="#865b00" stroke-width="2.5"></path><path d="M256.84173,126.94279l33.05,-20.4l-10.4,18.6c0,0 -8.50665,1.59144 -12.92264,1.88971c-4.46677,0.3017 -9.72736,-0.08971 -9.72736,-0.08971z" fill="#683318" stroke-width="0"></path><path d="M228.89177,147.07612l-11.63848,18.41676l6.33848,-25.55009c0,0 26.9615,1.65758 44.12832,0.28013c17.16682,-1.37745 33.97168,-6.54679 33.97168,-6.54679c0,0 -3.34699,5.40732 -5.55438,7.37699c-2.12263,1.89404 -7.94562,4.47301 -7.94562,4.47301l-4.84945,8.51284c0,0 0.16965,-8.08843 -1.55536,-8.59429c-2.69911,-0.79151 -12.54688,2.21158 -23.88108,2.49493c-14.00352,0.35007 -29.01412,-0.86348 -29.01412,-0.86348z" fill="#683318" stroke-width="0"></path></g><g fill="#f5c827" stroke="#000000" stroke-width="0"><path d="M236.26268,127.40408c-1.47509,4.45665 -5.61073,7.09642 -9.23722,5.89611c-3.62649,-1.20032 -5.37054,-5.78619 -3.89545,-10.24284c1.47509,-4.45665 5.61073,-7.09642 9.23722,-5.89611c3.62649,1.20032 5.37054,5.78619 3.89545,10.24284z"></path><path d="M243.95516,122.04164c-0.81631,2.46631 -3.10498,3.92716 -5.11188,3.26291c-2.0069,-0.66426 -2.97206,-3.20208 -2.15575,-5.66839c0.81631,-2.46631 3.10498,-3.92717 5.11188,-3.26291c2.0069,0.66426 2.97206,3.20208 2.15575,5.6684z"></path><path d="M217.52747,138.22474c-0.08765,1.99246 -1.20137,3.39282 -2.48756,3.12778c-1.28619,-0.26504 -2.25779,-2.0951 -2.17014,-4.08756c0.08765,-1.99246 1.20137,-3.39282 2.48756,-3.12778c1.28619,0.26504 2.25779,2.0951 2.17014,4.08756z"></path><path d="M253.09177,118.93545c-0.08765,1.99246 -1.20138,3.39281 -2.48756,3.12778c-1.28619,-0.26503 -2.25779,-2.0951 -2.17014,-4.08756c0.08765,-1.99246 1.20137,-3.39282 2.48756,-3.12778c1.28618,0.26503 2.25779,2.09511 2.17014,4.08756z"></path><path d="M224.05647,130.54392c0.75313,2.73865 -0.05475,5.34883 -1.80444,5.83c-1.7497,0.48117 -3.77864,-1.34889 -4.53177,-4.08754c-0.75313,-2.73865 0.05475,-5.34883 1.80444,-5.83c1.7497,-0.48117 3.77864,1.34889 4.53177,4.08754z"></path></g></g><path d="M203.4808,252.65407c0,-6.77228 5.49002,-12.2623 12.2623,-12.2623c6.77228,0 12.2623,5.49002 12.2623,12.2623c0,6.77228 -5.49002,12.2623 -12.2623,12.2623c-6.77228,0 -12.2623,-5.49002 -12.2623,-12.2623z" fill="#ffe4b7" stroke="#804a0f" stroke-width="2.5" stroke-linecap="butt"></path><path d="M225.67718,147.28308c0.23838,-1.58898 0.98987,-3.32757 1.36318,-4.07689c0.3256,-0.42567 0.55636,-0.94468 0.97678,-1.27703c1.28003,-1.01189 2.62754,-1.28401 3.56285,-0.80441c0.36446,0.07635 0.84658,0.31521 0.93975,1.03654c0.21231,0.4867 0.30954,1.11424 0.25318,1.88358c-0.12305,1.67973 -1.34097,3.97922 -2.19286,5.40938c-0.38174,0.64085 -1.85812,2.53675 -2.60747,2.51801c-2.49286,-0.06234 -2.64434,-1.75128 -2.50628,-3.4439c0.03292,-0.40358 0.10452,-0.82196 0.21087,-1.24528z" fill="#000000" stroke="none" stroke-width="0.5" stroke-linecap="butt"></path><path d="M258.67603,147.66446c0.23838,-1.58898 0.98987,-3.32757 1.36318,-4.07689c0.32559,-0.42567 0.55636,-0.94467 0.97678,-1.27702c1.28003,-1.01189 2.62754,-1.28401 3.56286,-0.80442c0.36446,0.07635 0.84658,0.31521 0.93974,1.03654c0.21231,0.4867 0.30954,1.11424 0.25318,1.88358c-0.12305,1.67973 -1.34097,3.97922 -2.19286,5.40937c-0.38173,0.64085 -1.85812,2.53675 -2.60748,2.51801c-2.49286,-0.06234 -2.64434,-1.75128 -2.50627,-3.4439c0.03292,-0.40358 0.10452,-0.82195 0.21087,-1.24527z" fill="#000000" stroke="none" stroke-width="0.5" stroke-linecap="butt"></path><path d="M248.37601,184.41823l-1.17208,0.13678c-2.43956,0 -4.0893,-0.18861 -5.81813,-1.49071c-0.12431,-0.06881 -0.23615,-0.14767 -0.33324,-0.23783c-0.0671,-0.06231 -0.13056,-0.12522 -0.19043,-0.18869c-0.17055,-0.14929 -0.34267,-0.30999 -0.51716,-0.48295c0,0 -0.65442,-0.65442 -0.27396,-1.40016c0.02237,-0.76215 0.4209,-1.51515 1.10614,-2.16629c1.35145,-1.28421 4.68517,-1.16551 6.37733,-1.16604c5.16718,-0.0016 8.90681,-0.47297 12.04991,4.29715c-3.03847,2.85506 -7.04286,2.71745 -11.04785,2.65833c-0.10791,0.03134 -0.18054,0.04041 -0.18054,0.04041z" fill="#000000" stroke="none" stroke-width="0.5" stroke-linecap="butt"></path><g stroke="#804a0f" stroke-width="2.5" stroke-linecap="butt"><path d="M268.26492,217.7944c-5.85296,3.40688 -13.35951,1.42393 -16.76639,-4.42901c-3.40688,-5.85295 -1.3115,-13.17329 4.42901,-16.7664c0.96974,-0.60699 2.83854,-1.5002 2.38449,-2.59915c-1.48695,-3.59897 -4.85505,-8.22618 -5.19568,-10.96197c-0.21533,-0.67878 2.69777,-1.92226 3.30471,-2.5284c4.54068,1.47756 14.54242,17.54565 16.27287,20.51853c3.40687,5.85295 1.42392,13.35951 -4.42901,16.76639z" fill="#ffe4b7"></path><path d="M268.26492,217.7944c-5.85296,3.40688 -13.35951,1.42393 -16.76639,-4.42901c-3.40688,-5.85295 -1.3115,-13.17329 4.42901,-16.7664c0.96974,-0.60699 2.83854,-1.5002 2.38449,-2.59915c-1.48695,-3.59897 -4.85505,-8.22618 -5.19568,-10.96197c-0.21533,-0.67878 2.69777,-1.92226 3.30471,-2.5284c4.54068,1.47756 14.54242,17.54565 16.27287,20.51853c3.40687,5.85295 1.42392,13.35951 -4.42901,16.76639z" fill="#d6aa6c"></path></g><path d="M240.58962,166.70405c0,-0.59367 0.28195,-0.90538 0.57804,-1.06905c0.13854,-0.22166 0.27707,-0.44331 0.41561,-0.66497c0,0 0.6625,-1.06 1.7225,-0.3975c1.06,0.6625 0.3975,1.7225 0.3975,1.7225c-0.22323,0.35717 -0.44647,0.71435 -0.6697,1.07152l-1.19394,0.5875c0,0 -1.25,0 -1.25,-1.25z" fill="#000000" stroke="none" stroke-width="0.5" stroke-linecap="butt"></path><path d="M255.04603,167.98976c-0.88388,0.88388 -1.76777,0 -1.76777,0l-0.384,-0.40176c-0.26788,-0.35717 -0.53576,-0.71435 -0.80364,-1.07152c0,0 -0.75,-1 0.25,-1.75c1,-0.75 1.75,0.25 1.75,0.25c0.26788,0.35717 0.53576,0.71435 0.80364,1.07152l0.15176,0.134c0,0 0.88388,0.88388 0,1.76777z" fill="#000000" stroke="none" stroke-width="0.5" stroke-linecap="butt"></path></g></g></svg>