<svg version="1.1" xmlns="http://www.w3.org/2000/svg" xmlns:xlink="http://www.w3.org/1999/xlink" width="188.63016" height="187.58815" viewBox="0,0,188.63016,187.58815"><g transform="translate(-150.68475,-127.8422)"><g stroke-miterlimit="10"><path d="M264.37216,296.11985c13.03151,0 28.42624,3.79846 28.42624,11.14755c0,6.9775 -6.47669,6.68852 -19.5082,6.68852c-13.03151,0 -22.48088,0.66056 -22.48088,-6.31694c0,-6.9775 0.53133,-11.51913 13.56284,-11.51913z" fill="#c7bed6" stroke="#5f5775" stroke-width="2.5" stroke-linecap="butt"></path><path d="M217.10901,307.84667c0,6.9775 -9.44937,6.31694 -22.48088,6.31694c-13.03151,0 -19.5082,0.28897 -19.5082,-6.68853c0,-7.34909 15.39473,-11.14754 28.42624,-11.14754c13.03151,0 13.56285,4.54163 13.56285,11.51913z" fill="#f1f2ff" stroke="#5f5775" stroke-width="2.5" stroke-linecap="butt"></path><g stroke="#12002b" stroke-width="2.5" stroke-linecap="butt"><path d="M253.3829,298.65896l-0.37159,-41.6175h17.83607l8.91804,40.50275z" fill="#0d0b3e"></path><path d="M252.14256,299.8741l-1.10573,-8.59553l29.85474,-2.94862l1.10573,11.19553z" fill="#5a5e90"></path></g><g stroke="#12002b" stroke-width="2.5" stroke-linecap="butt"><path d="M190.72649,297.74637l8.91804,-40.50275h17.83607l-0.37158,41.6175z" fill="#313663"></path><path d="M187.79024,299.27548l1.10573,-11.19553l29.85474,2.94862l-1.10573,8.59553z" fill="#7b7fa8"></path></g><path d="M271.40314,257.59323c-0.10323,0.06699 -0.27136,0.19399 -0.40628,0.38006l-0.28349,0.00057c-0.42492,0.04721 -0.85074,0.09528 -1.27567,0.14249c-13.50457,-0.02142 -27.0407,-0.3617 -40.53686,-0.62724c-6.06797,-0.5186 -12.17754,0.27884 -18.26333,0.05429c-3.94165,-0.14544 -8.04434,-0.79648 -11.99811,-0.66246c2.03352,-4.76296 4.03306,-9.46633 6.62142,-13.99595c0,0 0.12476,-0.21919 0.16434,-0.51633l0.36231,-0.27363c2.07867,-1.78389 3.1605,-3.77737 4.6884,-5.99874c2.66395,-3.87306 6.39534,-8.46492 6.44868,-13.34984c-0.07608,-0.71925 0.26517,-1.63184 -0.22722,-2.16162c-2.11266,-2.27311 -7.55439,-1.9861 -9.7504,-0.02227c-2.07865,1.85888 -3.31178,4.81077 -4.8361,7.097c-1.87441,2.81131 -4.1053,5.34042 -5.74137,8.30018l-1.05306,-0.81568c-4.43588,-5.19495 -5.94064,-11.34409 -6.22312,-17.77263c0.35242,-0.05444 0.61272,-0.24404 0.61272,-0.24404c4.91565,-3.57606 10.40022,-6.49912 15.41455,-9.90834c1.39818,-0.95062 2.60112,-2.16552 3.96801,-3.12021c0.4304,-0.3006 0.97435,-0.4122 1.41027,-0.70473c0.21271,-0.14273 0.52338,-0.53264 0.75294,-0.86061c-0.03881,0.12164 0.0031,0.31029 -0.04616,0.42526c3.49286,10.56884 15.09704,18.48322 26.0879,18.48322c2.79844,0 6.27993,0.27434 8.73668,-1.38691c1.97162,-1.3332 3.66231,-4.0583 4.68713,-6.23872c0.1168,-0.07864 0.35153,-0.30628 0.48352,-0.51538c5.83652,-2.87969 8.46308,-8.63279 8.30202,-15.12827c4.79921,0.52534 9.72547,1.42283 14.01616,3.54084c4.32716,3.38436 8.19131,7.41186 11.90895,11.52983c1.86748,2.06858 2.42136,5.03565 4.09723,7.21726c1.3157,1.71275 2.82947,3.43398 3.80851,5.42984c0,0 0.15207,0.30463 0.45618,0.51633l-0.28759,0.42536c-0.0829,0.11843 -0.14579,0.25227 -0.18377,0.39587c-0.17003,-0.07981 -0.40348,-0.10462 -0.40348,-0.10462c-3.99057,-0.79375 -9.10719,-1.96743 -13.16307,-1.93816c-1.27469,0.0092 -3.34609,0.03594 -4.26939,1.28348c-1.55293,2.09828 -0.34389,4.54521 1.41458,5.79838c3.04023,2.16661 7.63936,3.06578 11.3005,3.0742c0.95846,0 2.23634,0.00048 3.1948,0.00048c0,0 0.20579,0.01419 0.35697,-0.01703c0.35693,0.34135 0.71479,0.6627 1.07446,0.96369l-0.56923,0.59786c-2.76433,4.34865 -7.20044,6.18045 -11.91656,7.99689c-0.16427,-0.37817 -0.58643,-0.63738 -0.58643,-0.63738c-0.96179,-0.64119 -3.56747,-2.89184 -4.68832,-2.6936c-1.38432,0.24484 -2.67036,3.7797 -2.82061,4.88743c-0.26416,1.94748 0.78263,3.20217 0.98612,4.98824c0.20679,1.81504 -0.98384,4.46211 -1.82572,6.1653z" fill="#ffb400" stroke="none" stroke-width="0.5" stroke-linecap="butt"></path><path d="M225.38357,220.01481c-0.48911,0.32608 -0.90156,0.26879 -1.20127,0.1166c-0.79375,0.16634 -1.60689,0.2573 -2.41627,0.25978c-4.29169,0.79068 -8.7455,0.61164 -13.00956,1.51711c-6.71525,1.42598 -13.38468,3.26171 -20.07586,4.93523c0,0 -1.21267,0.30317 -1.51584,-0.90951c-0.30317,-1.21268 0.90951,-1.51584 0.90951,-1.51584c0.01909,-0.00477 0.03818,-0.00955 0.05728,-0.01432c-0.16639,-2.3135 -0.36964,-5.32476 1.34028,-7.10197c2.71382,-2.82062 7.40318,-5.066 10.81095,-6.92445c1.35973,-0.74153 2.04414,-2.06188 3.31943,-2.92561c1.79912,-1.21849 3.71139,-2.33053 5.51997,-3.56959c0.57897,-0.43742 1.02689,-1.462 1.73691,-1.31226c1.99237,0.42016 2.74878,3.76237 3.97844,5.06858c3.26269,3.4658 7.06229,6.15164 10.2152,9.65013l0.11759,0.17229l0.6116,-0.06903c0,0 1.24236,-0.13804 1.38039,1.10432c0.13804,1.24236 -1.10431,1.38039 -1.10431,1.38039l-0.56888,0.0621c-0.03302,0.02576 -0.06817,0.05113 -0.10556,0.07605z" fill="#df7b00" stroke="none" stroke-width="0.5" stroke-linecap="butt"></path><path d="M287.5644,212.04182c0.55902,1.11803 -0.55902,1.67705 -0.55902,1.67705l-0.8423,0.27361c-0.41008,-0.00026 -0.82015,-0.00053 -1.23023,-0.00079c-4.48138,0.31953 -8.72475,1.68331 -13.14562,2.39038c-7.86732,1.25828 -15.78846,1.1754 -23.61014,2.82438c0,0 -1.22319,0.25751 -1.4807,-0.96567c-0.05752,-0.27321 -0.04117,-0.49824 0.01893,-0.68298c-0.15877,-0.49341 0.08623,-0.9834 0.08623,-0.9834c2.07329,-4.13934 6.29513,-6.25598 9.20777,-9.71277c1.64827,-1.9562 2.16359,-5.37247 2.88064,-7.74376c0.21048,-0.69605 0.04182,-1.61564 0.58199,-2.10248c2.37204,-2.13789 6.53347,0.52689 8.83314,1.37486c7.37295,2.45997 14.50339,5.58141 17.6396,13.06738c0.23518,-0.09544 1.1364,-0.38245 1.61973,0.58421zM286.16308,211.49248l-0.20687,-0.00726c0.00103,0.00246 0.00205,0.00492 0.00308,0.00738c0.06793,-0.00004 0.13586,-0.00008 0.20379,-0.00012z" fill="#df7b00" stroke="none" stroke-width="0.5" stroke-linecap="butt"></path><path d="M294.78617,237.72217c1.23427,0.7771 2.51747,1.35301 3.84102,1.78024c-0.26203,0.2754 -0.33378,0.71664 -0.33378,0.71664c-0.33417,1.36759 -0.4062,2.78855 -0.4115,4.19636l0.17883,0.66775c0,0 0.59341,1.11098 1.71143,0.55196c0.93681,-0.4684 0.67573,-1.23154 0.57311,-1.49831c0.00538,-1.1125 0.07999,-2.23646 0.35613,-3.31154c0,0 0.09915,-0.42639 0.00736,-0.78379c1.92428,0.39134 4.0104,0.54541 6.26537,0.54541c3.403,0 6.21432,-0.18718 8.59974,-1.53058c0.05218,0.21298 0.13489,0.35784 0.13489,0.35784c1.89921,3.20664 1.40422,10.35577 -0.14031,13.60226c-0.29931,0.62912 -1.05647,2.88037 -1.88297,3.23314c-2.29391,0.97908 -5.93779,0.86527 -8.37974,0.48283c-3.4228,-0.71804 -7.06833,0.31839 -10.43182,-0.37848c-2.16721,-0.44901 -4.02924,-2.7116 -5.62948,-4.04726c-2.26598,-1.89133 -5.6626,-2.76738 -7.14582,-5.36307l-0.04625,-0.10422c4.87263,-1.92066 9.33833,-4.11158 12.23751,-8.66281z" fill="#ffe4b7" stroke="none" stroke-width="0.25" stroke-linecap="butt"></path><path d="M293.09515,233.25552c0,0 -0.61138,-0.61089 -1.32409,-0.31182c-0.20313,-0.05588 -0.36107,-0.05629 -0.36107,-0.05629l-0.31986,-0.00032c-0.95847,0 -1.91998,-0.00281 -2.87844,-0.00281c-2.98373,0.00789 -5.87813,-0.78799 -8.60057,-1.97617c-0.95642,-0.41742 -3.22195,-1.34198 -2.23697,-2.89818c0.45364,-0.71671 2.97654,-0.33517 3.68822,-0.20838c3.80051,0.67709 7.67189,0.97652 11.44667,1.73595c0,0 1.16913,0.23322 1.45159,-0.89904c0.55577,0.29666 0.9992,0.10315 1.27556,-0.11106c0.13203,-0.09465 0.18164,-0.13689 0.2683,-0.27473l0.52884,-0.80959c2.08991,-2.44039 3.986,-5.0333 5.02332,-8.0915c0,0 0.17043,-0.52542 -0.058,-0.99193c0.08402,-0.19316 0.10538,-0.3503 0.10538,-0.3503c0.95789,-6.76994 0.34462,-13.73876 1.30702,-20.52706c0.28393,-2.00275 0.58772,-5.66 2.9668,-6.04848c0.49923,2.48625 -0.00285,5.21911 -0.0048,7.731c-0.00359,4.62518 0.11475,9.45669 0.67916,14.03778l0.18822,0.85841c0,0 0.16621,1.18075 1.39194,0.9356c0.15489,-0.03098 0.27519,-0.06665 0.38657,-0.1245c0.56097,0 1.25922,0.01637 1.74535,0.01637c0,0 1.24854,0.01915 1.24854,-1.23085c0,-0.12002 -0.01089,-0.22456 -0.03172,-0.32263c2.26203,-6.07766 3.5551,-12.06208 6.3275,-17.95567c0.59318,-1.26097 2.94915,-7.16244 4.29174,-4.67397c0.33251,2.90164 -1.68258,5.36607 -2.56568,7.99367c-1.6377,4.87289 -3.54941,9.82666 -4.79401,14.80505l-0.03733,1.2704c0,0 -0.00103,1.25652 1.24897,1.25652c0.08418,0 0.16277,-0.00605 0.23599,-0.01662c0.07306,0.19121 0.11505,0.36165 0.35465,0.54135c1,0.75 1.74928,-0.24694 1.74928,-0.24694c3.11478,-4.1535 5.30766,-8.67313 8.85985,-12.47909c0.9908,-1.06159 5.67645,-5.77792 5.12572,-1.03324c-0.04369,0.37638 -0.25427,0.71507 -0.38171,1.0719c-3.05243,5.57435 -7.09028,11.00206 -11.55856,15.46785l-0.32009,0.3209c0,0 -0.88644,0.88889 -0.00255,1.77277c0.1878,0.1878 0.37556,0.29585 0.55489,0.34948c0.31467,0.65567 1.04139,0.60513 1.04139,0.60513h1.52725c0.18313,0.0206 0.366,0.0417 0.54913,0.0623c0.30144,0.26666 0.65426,0.29182 0.92465,0.25365c0.16329,-0.01651 0.31693,-0.06369 0.45552,-0.13691c2.95769,-1.481 6.08427,-1.86577 9.27198,-2.59104c0.82057,-0.1867 2.1413,-0.48966 2.98194,-0.08209c0.35396,0.17161 -0.71479,0.33118 -1.063,0.51418c-0.99085,0.52076 -1.80191,1.33767 -2.74625,1.93868c-2.18223,1.38885 -5.15127,2.63578 -7.74921,3.35786c-0.96392,-0.23114 -1.38358,0.74648 -1.38358,0.74648l-0.30761,0.83133c-1.9246,2.41053 -4.27935,3.99132 -6.14082,6.47681c-2.67175,4.29365 -5.80072,4.41479 -10.49422,4.41479c-5.60343,0 -9.72129,-0.77396 -13.84181,-4.915z" fill="#ffe4b7" stroke="none" stroke-width="0.25" stroke-linecap="butt"></path><path d="M235.30684,223.16238l2.79561,21.12414" fill="none" stroke="#ffffff" stroke-width="3" stroke-linecap="round"></path><path d="M246.1794,230.65164l-2.11512,-9.76007" fill="none" stroke="#ffffff" stroke-width="2.5" stroke-linecap="round"></path><path d="M250.51061,219.82345l-21.02121,2.93654" fill="none" stroke="#ffffff" stroke-width="2.5" stroke-linecap="round"></path><path d="M249.83512,208.3847c1.67181,-0.47861 2.85641,-1.46158 4.59455,-1.94653l0.10026,0.02255l-0.00411,-0.03704l0.6462,-0.0718c1.45897,-2.55078 2.0073,-5.66969 1.7622,-8.99936l-0.00318,-0.65563c0,0 0,-1.25 1.25,-1.25c0.27541,0 0.49014,0.06068 0.65756,0.1553c0.00223,0.00107 0.00337,0.00164 0.00337,0.00164l-0.0004,0.00004c0.02086,0.01188 0.04098,0.02429 0.06039,0.03717c5.45395,0.55559 11.03118,1.5227 15.91143,3.98931c4.53364,3.50784 8.62268,7.67294 12.46235,11.99858c1.87447,2.11172 2.41144,5.0731 4.12006,7.23843c1.37754,1.74576 2.84137,3.52164 3.92344,5.5245c1.4239,-1.78127 2.69581,-3.69524 3.4033,-5.86386c0,0 0.01886,-0.05658 0.0607,-0.1409c-0.16754,-0.37199 -0.11228,-0.7588 -0.11228,-0.7588c1.07903,-7.47585 -0.01917,-15.18739 1.61557,-22.6224c0.87847,-3.99542 2.36407,-6.24423 6.60883,-5.51177c1.55412,3.29996 0.96939,6.08978 0.97227,9.62091c0.00356,4.36754 0.05724,8.94745 0.57327,13.28669c0.08851,0 0.17703,0 0.26553,0c2.46308,-6.62219 3.58237,-13.35336 7.03335,-19.62848c1.38072,-2.51065 3.44393,-7.01113 6.97155,-4.7158c0.6196,0.40316 0.81217,1.23539 1.21825,1.85308c0.48675,3.75568 -1.42282,6.19356 -2.54182,9.58115c-1.53451,4.64549 -3.38436,9.30372 -4.62092,14.03405c3.3528,-4.88636 5.96726,-10.77071 10.84507,-14.30655c4.66412,-3.38093 7.34403,1.55092 6.03035,5.66628c-2.92156,5.37366 -6.71359,10.5823 -10.93926,15.02599l0.11789,0.00014c0.4299,0.04721 0.8598,0.09444 1.2897,0.14165c3.13516,-1.4599 7.29679,-2.715 10.69782,-2.85639c1.22499,-0.05093 3.73791,0.41817 4.27387,1.72729c1.06998,2.61351 -1.82259,3.27651 -3.16785,4.22782c-2.97286,2.10227 -6.52722,3.94183 -10.10093,4.94901l-0.32846,0.70856c-1.89995,2.37054 -4.19952,3.89824 -6.01542,6.31577c-0.66037,1.05225 -1.35641,1.90514 -2.0952,2.59595c0.29995,0.1943 0.4601,0.47456 0.4601,0.47456c2.23107,4.01199 1.84226,11.80561 -0.05233,15.87097c-0.68455,1.46889 -1.43749,3.57865 -2.99511,4.37914c-2.63173,1.3525 -7.10517,1.13548 -9.95984,0.70272c-3.43881,-0.75467 -7.08148,0.37032 -10.47508,-0.39927c-2.63484,-0.59752 -4.7157,-2.89643 -6.67336,-4.55248c-2.60022,-2.19962 -5.80776,-2.96141 -7.6739,-5.96587l-0.55342,-1.19799c0,0 -0.07745,-0.17038 -0.10648,-0.40926c-0.00671,-0.01605 -0.01329,-0.03243 -0.01971,-0.04913l0.00001,0.00003c-0.00164,-0.00427 -0.00326,-0.00853 -0.00486,-0.01278c-0.48635,0.06549 -0.9094,-0.21654 -0.9094,-0.21654c-0.69388,-0.46259 -2.3142,-2.14033 -2.86784,-2.36764c-0.17899,-0.07349 0.15188,0.39079 0.08865,0.57365c-0.12574,0.36363 -0.46961,0.61884 -0.62302,0.97168c-0.64686,1.48776 -0.2769,2.60629 0.18682,4.07498c0.9825,3.11178 -0.36028,6.60219 -1.77205,9.43905l-0.15146,0.12599c0.0001,0.00769 0.00014,0.01542 0.00014,0.0232c0,1.25 -1.25,1.25 -1.25,1.25l-1.20566,-0.00191c-0.42493,0.04721 -0.84986,0.09443 -1.27478,0.14164c-13.59365,0.01935 -27.16832,-0.36207 -40.753,-0.63633c-6.04615,-0.51902 -12.12221,0.29362 -18.1873,0.06818c-2.44869,-0.09102 -4.99397,-0.41024 -7.51802,-0.58609c0.02445,-0.14035 0.03721,-0.28473 0.03721,-0.43208c0,-0.87811 -0.45272,-1.65047 -1.13748,-2.09643c2.90273,0.14369 5.83737,0.51036 8.69044,0.61564c6.08579,0.22455 12.17884,-0.58435 18.24681,-0.06575c13.49616,0.26554 26.97851,0.61526 40.48308,0.63668c0.42493,-0.04721 0.84986,-0.09443 1.27478,-0.14164l0.28332,-0.0004c0.13492,-0.18607 0.30258,-0.3126 0.40581,-0.37959h0.00001c0.84188,-1.70319 2.02783,-4.34476 1.82104,-6.1598c-0.20349,-1.78607 -1.25293,-3.03675 -0.98877,-4.98423c0.15025,-1.10773 1.43284,-4.63558 2.81716,-4.88042c1.12085,-0.19824 3.81907,2.0903 4.78086,2.73149c0,0 0.33013,0.22008 0.4944,0.59825c4.71612,-1.81644 9.14888,-3.63695 11.91321,-7.9856l0.56912,-0.59721c-0.35967,-0.30099 -0.71764,-0.62158 -1.07457,-0.96293c-0.15118,0.03122 -0.25798,0.03122 -0.25798,0.03122c-0.95846,0 -2.23641,0 -3.19487,0c-3.66114,-0.00842 -8.35935,-0.92096 -11.39958,-3.08757c-1.75847,-1.25317 -2.96778,-3.69187 -1.41485,-5.79015c0.9233,-1.24754 3.09449,-1.2806 4.36918,-1.2898c4.05588,-0.02927 9.17264,1.14727 13.16321,1.94102c0,0 0.13347,0.02669 0.3035,0.1065c0.03798,-0.1436 0.10088,-0.27706 0.18378,-0.39549l0.2876,-0.42496c-0.30411,-0.2117 -0.45616,-0.51582 -0.45616,-0.51582c-0.97904,-1.99586 -2.49223,-3.71137 -3.80793,-5.42412c-1.67587,-2.18161 -2.22773,-5.14053 -4.09521,-7.20911c-3.71764,-4.11797 -7.57302,-8.12972 -11.90018,-11.51408c-4.29069,-2.11801 -9.20417,-3.00447 -14.00338,-3.52981c0.08479,3.41972 -0.60354,6.63338 -2.12614,9.3303c-0.01319,0.42433 -0.23787,0.79537 -0.57214,1.01125l-0.10065,0.06709c-1.33603,1.94388 -3.16191,3.56265 -5.50475,4.71858c-0.13199,0.2091 -0.31209,0.35298 -0.42889,0.43162c-1.02482,2.18042 -2.76734,4.99099 -4.73896,6.32419c-2.45675,1.66125 -5.88727,1.38594 -8.68571,1.38594c-10.99086,0 -22.65976,-7.98891 -26.15262,-18.55775c0.04926,-0.11497 0.08389,-0.23927 0.1227,-0.36091c-0.22956,0.32797 -0.53931,0.71677 -0.75202,0.8595c-0.43592,0.29253 -0.97879,0.40272 -1.40919,0.70332c-1.36689,0.95469 -2.56664,2.16472 -3.96482,3.11534c-3.60683,2.45227 -7.45407,4.64547 -11.15914,7.01439c-0.36693,-0.87758 -1.2199,-1.50136 -2.22242,-1.5349c3.95605,-2.56861 8.10452,-4.89919 11.97129,-7.54371c2.04357,-1.39761 4.34721,-4.14982 6.656,-4.8989c0.22301,-0.07235 0.46249,-0.15386 0.70741,-0.22453c0.09696,-0.20488 0.26543,-0.40119 0.55299,-0.52779c0.14366,-0.2422 0.32414,-0.38658 0.32414,-0.38658c0.8491,-0.67925 1.70206,-1.35373 2.56035,-2.02132l0.01759,-0.03124c0,0 0.77845,-0.77845 1.60481,-0.1437c0.18178,0.07509 0.29717,0.16163 0.29717,0.16163c7.47351,5.61218 15.0192,10.81034 24.16194,12.23716c3.0852,-0.25495 6.17184,-0.09319 9.1991,-0.95985zM293.12457,233.21508c4.12053,4.14104 8.20912,4.90543 13.81255,4.90543c4.6935,0 7.79887,-0.1153 10.47062,-4.40895c1.86147,-2.48549 4.20051,-4.05321 6.12511,-6.46374l0.30638,-0.82973c0,0 0.41781,-0.9749 1.38173,-0.74376c2.59793,-0.72208 5.56153,-1.9573 7.74376,-3.34615c0.94434,-0.60101 1.75423,-1.41352 2.74508,-1.93428c0.34821,-0.18301 1.41672,-0.3414 1.06276,-0.51301c-0.84064,-0.40757 -2.06343,-0.08448 -2.884,0.10222c-3.18771,0.72527 -6.31808,1.12105 -9.27577,2.60205c-0.13859,0.07322 -0.2926,0.12115 -0.45589,0.13766c-0.27039,0.03817 -0.62345,0.01347 -0.92489,-0.25319c-0.18313,-0.0206 -0.36626,-0.04121 -0.54939,-0.06181l-1.52831,0.00191c0,0 -0.81301,0 -1.12768,-0.65567c-0.17933,-0.05363 -0.36713,-0.16162 -0.55493,-0.34942c-0.88389,-0.88388 0,-1.76777 0,-1.76777l0.31949,-0.31949c4.46828,-4.46579 8.50637,-9.8553 11.5588,-15.42965c0.12744,-0.35683 0.33863,-0.69411 0.38232,-1.07049c0.55072,-4.74467 -4.04517,-0.07236 -5.03597,0.98923c-3.55219,3.80596 -5.74034,8.35872 -8.85512,12.51222c0,0 -0.75,1 -1.75,0.25c-0.2396,-0.1797 -0.37874,-0.37374 -0.4518,-0.56495c-0.07322,0.01057 -0.15172,0.01624 -0.2359,0.01624c-1.25,0 -1.25,-1.25 -1.25,-1.25l0.03732,-1.26163c1.2446,-4.97839 3.17539,-9.89702 4.81309,-14.76991c0.8831,-2.6276 2.90249,-5.08903 2.56998,-7.99067c-1.34259,-2.48847 -3.64805,3.32674 -4.24123,4.58771c-2.7724,5.89359 -4.04052,11.91204 -6.30255,17.9897c0.02083,0.09807 0.03235,0.20657 0.03235,0.32659c0,1.25 -1.25,1.25 -1.25,1.25c-0.48613,0 -1.19234,0 -1.75331,0c-0.11138,0.05785 -0.2428,0.10449 -0.39769,0.13547c-1.22573,0.24515 -1.47087,-0.98058 -1.47087,-0.98058l-0.17437,-0.88882c-0.56441,-4.58109 -0.65222,-9.42757 -0.64863,-14.05275c0.00195,-2.51189 0.51305,-5.14517 0.01382,-7.63142c-2.37908,0.38849 -2.67314,4.04406 -2.95707,6.04681c-0.9624,6.7883 -0.32066,13.68147 -1.27855,20.45141c0,0 -0.02226,0.15582 -0.10628,0.34898c0.22843,0.46651 0.0547,0.98773 0.0547,0.98773c-1.03732,3.0582 -2.93919,5.64551 -5.0291,8.0859l-0.52907,0.8094c-0.08666,0.13784 -0.1995,0.25756 -0.33153,0.35221c-0.27636,0.21421 -0.72158,0.40619 -1.27735,0.10953c-0.28246,1.13226 -1.45242,0.89827 -1.45242,0.89827c-3.77478,-0.75943 -7.65613,-1.07196 -11.45664,-1.74905c-0.71168,-0.12679 -3.14506,-0.55285 -3.5987,0.16386c-0.98498,1.5562 1.27791,2.47585 2.23433,2.89327c2.72244,1.18818 5.6096,1.97486 8.59333,1.96697c0.95846,0 1.91692,0 2.87539,0h0.31948c0,0 0.15744,0 0.36057,0.05588c0.71272,-0.29907 1.32204,0.31024 1.32204,0.31024zM294.31455,238.22006c-2.89918,4.55123 -7.33955,6.70017 -12.21218,8.62083l0.04626,0.10392c1.48322,2.59569 4.87491,3.44882 7.14089,5.34015c1.60024,1.33566 3.4401,3.57548 5.60731,4.02449c3.36349,0.69687 6.95978,-0.33759 10.38258,0.38045c2.44195,0.38244 6.0698,0.51221 8.36371,-0.46687c0.8265,-0.35277 1.57887,-2.59406 1.87818,-3.22318c1.54453,-3.24649 2.04181,-10.35702 0.1426,-13.56366c0,0 -0.08224,-0.14392 -0.13442,-0.3569c-2.38542,1.3434 -5.18936,1.54121 -8.59236,1.54121c-2.25497,0 -4.31221,-0.13834 -6.23649,-0.52968c0.09179,0.3574 0.00982,0.68528 0.00982,0.68528c-0.27614,1.07508 -0.34712,2.19985 -0.3525,3.31235c0.10262,0.26677 0.34326,1.12767 -0.59355,1.59607c-1.11803,0.55902 -1.67705,-0.55902 -1.67705,-0.55902l-0.22943,-0.75395c0.00529,-1.40781 0.09301,-2.83421 0.42718,-4.2018c0,0 0.08556,-0.34224 0.34759,-0.61764c-1.32355,-0.42723 -2.59031,-1.00791 -3.82458,-1.78501zM239.35639,216.93118c0,-1.25 1.25,-1.25 1.25,-1.25l1.11351,0.00965c1.02103,0.1297 2.11963,0.56087 2.90145,-0.38563c0.59722,-0.723 0.63324,-1.81331 1.24837,-2.52113c0.37181,-0.42784 0.88536,-0.89781 1.48696,-1.37162c-2.18214,0.25161 -4.38334,0.22304 -6.58366,0.42398c0.00103,0.0241 0.00209,0.0482 0.00321,0.07231c-0.10153,-0.014 -0.20288,-0.02846 -0.30405,-0.04335c-0.2231,0.0226 -0.44618,0.0478 -0.66922,0.07613c0,0 -0.69141,0.08643 -1.10633,-0.386c-8.63888,-1.74359 -15.97663,-6.67312 -23.16149,-12.0289c-0.6469,0.50667 -1.29089,1.01707 -1.93263,1.53025c0.2955,1.30113 0.71941,2.67543 1.29548,3.97607c0.61683,0.91266 1.33398,1.70462 2.16544,2.82375c0.56677,0.76284 1.16158,1.49844 1.78342,2.20286c1.57404,1.04046 3.42354,1.71554 4.8897,2.88384c2.88447,2.29846 4.28046,3.8719 8.09917,4.56762c2.54451,0.19457 5.17015,0.24716 7.7693,0.21566c-0.14621,-0.18229 -0.24864,-0.43767 -0.24864,-0.79548zM242.3532,218.29362c0.03117,0.04243 0.06275,0.08316 0.09472,0.12214c0.09049,-0.02626 0.18012,-0.05359 0.2689,-0.08203c-0.1231,-0.01234 -0.24503,-0.02598 -0.36361,-0.04011z" fill="#804a0f" stroke="none" stroke-width="0.5" stroke-linecap="butt"></path><path d="M239.64044,217.76196c-2.59914,0.0315 -5.25265,-0.00696 -7.79716,-0.20153c-3.81871,-0.69572 -5.26437,-2.29164 -8.14884,-4.5901c-1.46616,-1.1683 -3.32318,-1.86423 -4.89721,-2.90469c-0.62185,-0.70442 -1.21694,-1.44899 -1.78371,-2.21183c-0.83146,-1.11912 -1.54742,-1.91946 -2.16424,-2.83212c-0.57606,-1.30065 -0.99687,-2.68417 -1.29237,-3.9853c0.64174,-0.51318 1.28865,-1.02912 1.93554,-1.53579c7.18486,5.35577 14.61242,10.32809 23.2513,12.07168c0.41492,0.47243 1.01211,0.35251 1.01211,0.35251c0.22304,-0.02833 0.44566,-0.0522 0.66876,-0.0748c0.10117,0.01489 0.20244,0.02958 0.30397,0.04359c-0.00111,-0.0241 -0.00227,-0.04791 -0.0033,-0.07201c2.20032,-0.20094 4.49859,-0.14937 6.68073,-0.40098c-0.60161,0.47382 -1.11622,0.94868 -1.48803,1.37652c-0.61513,0.70782 -0.65421,1.80644 -1.25142,2.52945c-0.78182,0.94649 -1.88331,0.52058 -2.90433,0.39088l-1.11481,-0.00768c0,0 -1.25451,0.00559 -1.25451,1.25559c0,0.35781 0.10132,0.61434 0.24753,0.79663z" fill="#d6aa6c" stroke="none" stroke-width="0.5" stroke-linecap="butt"></path><g><g stroke-linecap="butt"><g stroke="#804a0f" stroke-width="2.5"><path d="M253.52115,185.7367c0,-6.15662 4.99093,-11.14755 11.14755,-11.14755c6.15662,0 11.14754,4.99093 11.14754,11.14755c0,6.15662 -4.99093,11.14754 -11.14754,11.14754c-6.15662,0 -11.14755,-4.99092 -11.14755,-11.14754z" fill="#d6aa6c"></path><g fill="#ffe4b7"><path d="M199.15275,177.48035c0,-20.11162 16.30369,-36.41531 36.41531,-36.41531c20.11162,0 36.41531,16.30369 36.41531,36.41531c0,20.11162 -16.30369,36.41531 -36.41531,36.41531c-20.11162,0 -36.41531,-16.30369 -36.41531,-36.41531z"></path><path d="M187.20971,186.31039c0,-6.15662 4.99093,-11.14754 11.14754,-11.14754c6.15662,0 11.14754,4.99093 11.14754,11.14754c0,6.15662 -4.99093,11.14754 -11.14754,11.14754c-6.15662,0 -11.14754,-4.99093 -11.14754,-11.14754z"></path></g></g><path d="M207.6928,190.12549l9.55183,-17.81542l53.05699,-0.52341c0,0 0.45817,6.20627 0.18473,9.33842c-0.27687,3.17132 -1.83579,9.57344 -1.83579,9.57344c0,0 -16.55817,-7.47454 -23.20215,-7.09481c-6.93549,0.39638 -37.7556,6.52179 -37.7556,6.52179z" fill="#d6aa6c" stroke="none" stroke-width="0"></path></g><g fill="none" stroke="#d6aa6c" stroke-width="0.5" stroke-linecap="round"><path d="M199.97796,188.59469l-4.85714,-4.42857"></path><path d="M195.26368,188.59466l4.57143,-3.85714"></path></g></g><g stroke-linecap="butt"><g stroke="#45180a"><path d="M232.67149,135.52615c11.51809,-1.33299 49.23499,-6.13115 49.23499,-6.13115l-11.01553,19.68979l21.89934,8.19265c0,0 -3.33581,7.74205 -8.41067,10.49598c-1.80328,0.97857 -5.83874,3.18525 -5.83874,3.18525l-6.94745,12.43298c0,0 0.1584,-12.83172 -0.58331,-12.67817c-15.79553,3.26992 -37.02331,2.57515 -39.45337,2.34275c-3.88756,0.42717 -12.47029,-0.1447 -12.47029,-0.1447l-12.04499,19.57838c0,0 -11.76806,-19.85616 -9.85632,-27.05117c4.31101,-16.22492 19.43237,-28.05466 35.48635,-29.91259z" fill="#865b00" stroke-width="2.5"></path><path d="M246.60983,151.36996l33.05,-20.4l-10.4,18.6c0,0 -8.50665,1.59144 -12.92264,1.88971c-4.46677,0.3017 -9.72736,-0.08971 -9.72736,-0.08971z" fill="#683318" stroke-width="0"></path><path d="M218.65984,171.50329l-11.63848,18.41676l6.33848,-25.55009c0,0 26.9615,1.65758 44.12832,0.28013c17.16682,-1.37745 33.97168,-6.54679 33.97168,-6.54679c0,0 -3.34699,5.40732 -5.55438,7.37699c-2.12263,1.89404 -7.94562,4.47301 -7.94562,4.47301l-4.84945,8.51284c0,0 0.16965,-8.08843 -1.55536,-8.59429c-2.69911,-0.79151 -12.54688,2.21158 -23.88108,2.49493c-14.00352,0.35007 -29.01412,-0.86348 -29.01412,-0.86348z" fill="#683318" stroke-width="0"></path></g><g fill="#f5c827" stroke="#000000" stroke-width="0"><path d="M226.03073,151.83125c-1.47509,4.45665 -5.61073,7.09642 -9.23722,5.89611c-3.62649,-1.20032 -5.37054,-5.78619 -3.89545,-10.24284c1.47509,-4.45665 5.61073,-7.09642 9.23722,-5.89611c3.62649,1.20032 5.37054,5.78619 3.89545,10.24284z"></path><path d="M233.72324,146.46881c-0.81631,2.46631 -3.10498,3.92716 -5.11188,3.26291c-2.0069,-0.66426 -2.97206,-3.20208 -2.15575,-5.66839c0.81631,-2.46631 3.10498,-3.92717 5.11188,-3.26291c2.0069,0.66426 2.97206,3.20208 2.15575,5.6684z"></path><path d="M207.29551,162.65191c-0.08765,1.99246 -1.20137,3.39282 -2.48756,3.12778c-1.28619,-0.26504 -2.25779,-2.0951 -2.17014,-4.08756c0.08765,-1.99246 1.20137,-3.39282 2.48756,-3.12778c1.28619,0.26504 2.25779,2.0951 2.17014,4.08756z"></path><path d="M242.85986,143.36262c-0.08765,1.99246 -1.20138,3.39281 -2.48756,3.12778c-1.28619,-0.26503 -2.25779,-2.0951 -2.17014,-4.08756c0.08765,-1.99246 1.20137,-3.39282 2.48756,-3.12778c1.28618,0.26503 2.25779,2.09511 2.17014,4.08756z"></path><path d="M213.82452,154.97108c0.75313,2.73865 -0.05475,5.34883 -1.80444,5.83c-1.7497,0.48117 -3.77864,-1.34889 -4.53177,-4.08754c-0.75313,-2.73865 0.05475,-5.34883 1.80444,-5.83c1.7497,-0.48117 3.77864,1.34889 4.53177,4.08754z"></path></g></g><path d="M218.51377,184.84195c-1.49508,-0.10625 -3.69808,-0.40451 -4.75445,-1.59414c-0.77682,0.36073 -1.56812,0.70661 -2.43053,0.96142c-0.08523,0.04487 -0.17531,0.08178 -0.26924,0.10974c-0.1358,0.04041 -0.27965,0.06212 -0.42857,0.06212c-0.82843,0 -1.5,-0.67157 -1.5,-1.5c0,-0.56428 0.31158,-1.05578 0.77208,-1.31185c3.67216,-3.94739 17.49965,-3.43444 19.61255,-2.64381c1.50987,0.56498 7.88919,3.3157 3.50587,4.88055c-0.5508,0.19663 -1.81962,-0.5004 -3.08585,-1.19989c-1.69992,3.33158 -7.97521,2.4808 -11.42186,2.23586z" fill="#000000" stroke="none" stroke-width="0.5" stroke-linecap="butt"></path><path d="M246.75225,182.31388c-1.26623,0.69949 -2.53505,1.39652 -3.08585,1.19989c-4.38332,-1.56485 1.996,-4.31557 3.50587,-4.88055c2.11289,-0.79063 15.94038,-1.30358 19.61255,2.64381c0.4605,0.25607 0.77208,0.74757 0.77208,1.31185c0,0.82843 -0.67158,1.5 -1.5,1.5c-0.14893,0 -0.29278,-0.0217 -0.42858,-0.06212c-0.09393,-0.02795 -0.18401,-0.06486 -0.26923,-0.10974c-0.86241,-0.25482 -1.65372,-0.6007 -2.43054,-0.96142c-1.05637,1.18963 -3.25937,1.48789 -4.75444,1.59413c-3.44664,0.24495 -9.72194,1.09572 -11.42186,-2.23586z" fill="#000000" stroke="none" stroke-width="0.5" stroke-linecap="butt"></path><path d="M229.53782,195.90533c6.53241,0.68951 12.99397,1.32662 19.60758,1.25601c1.71225,-0.01828 6.91821,-1.56238 5.8452,1.65666c-0.50197,1.50591 -4.94406,1.34045 -5.7386,1.34334c-7.71436,0.028 -15.87779,-0.28349 -23.47357,-1.78747c-1.99319,-0.39465 -5.85729,-0.58402 -7.46431,-1.96146c-2.91164,-2.49569 3.20566,-6.29105 4.22987,-4.49869c0.44211,0.26093 0.7387,0.74219 0.7387,1.29272c0,0.33275 -0.10835,0.6402 -0.29169,0.88898c-0.04015,1.82915 4.36534,1.57965 6.54683,1.80991z" fill="#000000" stroke="none" stroke-width="0.5" stroke-linecap="butt"></path><path d="M154.32828,258.80963c0.31643,-0.36757 0.31624,-0.86792 0.31624,-0.86792l-0.00045,-0.95878c-0.00558,-6.49946 -1.29366,-12.97305 -1.28988,-19.50093c0,0 -0.00046,-0.31799 -0.16034,-0.63287c-0.00539,-3.22147 -0.18124,-6.58847 0.14681,-9.78579c0.54628,-5.3243 4.31002,-10.51499 7.94586,-14.13283c1.36408,-1.36408 5.32844,-5.15794 5.15515,-0.46342c-0.07176,1.94398 -3.07824,4.88927 -4.11375,6.41017c-3.14141,4.61394 -3.99426,9.73281 -5.30182,14.98019c-0.10496,1.0765 -0.13944,2.16754 -0.01118,3.2415l-0.00965,0.00471c0,0 -0.00164,1.24798 1.24836,1.24798c1.25,0 1.17387,-1.18517 1.17387,-1.18517l-0.00991,-0.31509c-0.10926,-0.82817 -0.09669,-1.6776 -0.01083,-2.50852c1.23318,-4.91626 1.94943,-9.77189 4.92078,-14.09155c1.43409,-2.08484 4.34987,-4.99456 4.51213,-7.65252c0.18111,-2.96653 -1.94718,-5.74497 -5.14249,-4.92898c-1.32535,0.33845 -2.73393,1.92534 -3.7453,3.03259c-0.34696,-9.39177 3.84968,-19.14093 8.16017,-27.14075c0.85106,-0.80226 2.9572,-1.33914 3.70613,0.19856c1.15243,2.36615 -1.61145,7.21301 -2.02735,9.58545c-0.86454,4.93171 -0.96192,11.27169 -0.46124,16.22878c0.22943,0.92674 0.44956,1.84929 0.65667,2.78127l0.32438,1.28992c0,0 0.20483,1.19466 1.41751,0.89149c1.21268,-0.30317 0.9111,-1.52269 0.9111,-1.52269l-0.31409,-1.26621c-0.19636,-0.8836 -0.39874,-1.77222 -0.62053,-2.64979c-0.46134,-4.67012 -0.32755,-10.75686 0.49802,-15.3978c0.54036,-3.03762 2.20147,-5.86168 2.10476,-9.01602c-0.08834,-2.88118 -1.81334,-4.09727 -3.86202,-4.16358c0.04366,-0.14244 0.01905,-0.33801 0.01905,-0.33801c0.25282,-2.55228 -0.67044,-6.74952 0.73256,-8.97937c1.02682,-1.63196 4.57184,-1.34183 5.66792,0.02897c1.12477,1.40668 0.39669,5.50456 0.39669,7.16501c0.02565,2.12251 -0.50817,4.30481 -0.63394,6.4713c-0.48004,8.26909 0.02328,16.69759 0.02328,24.98278c0,0.42598 0.00375,1.00709 0.00375,1.43308c0,0 0.00023,0.03352 0.0058,0.09009c-0.01352,0.3374 -0.02234,1.06962 0.93739,1.24412c1.22983,0.22361 1.46093,-1.01566 1.46093,-1.01566c0.35037,-1.95648 1.06677,-3.60021 1.15601,-5.61459c0.12223,-2.7591 -0.37672,-5.7019 0.14261,-8.42872c0.37697,-1.97938 1.43222,-3.87716 1.90838,-5.84903c0.9737,-4.03232 1.40285,-8.06973 2.82945,-11.98645c0.19833,-0.44692 0.37721,-0.90332 0.5957,-1.34073c2.92527,-5.85628 3.06844,4.01729 3.0713,6.30488c0.00907,7.25902 -1.74713,14.49571 -1.74857,21.83472c-0.91493,10.92096 -0.80795,21.80854 6.59689,30.41695l1.29887,1.08993c0,0 0.64847,0.57012 1.34086,0.22114c0.05962,0.04108 0.12564,0.08034 0.19911,0.11707c1.11804,0.55901 1.67418,-0.55724 1.67418,-0.55724c1.59252,-3.20809 4.00535,-5.83742 5.9803,-8.80016c1.42207,-2.13333 2.54632,-4.82552 4.42177,-6.61621c1.11705,-1.06657 6.53956,-1.33464 5.99669,0.3723c0.02486,1.66032 -0.62031,2.78924 -1.32008,4.26571c-2.11145,4.45507 -5.2055,9.96741 -8.96267,13.18363l-0.57637,0.42904c0,0 -0.57487,0.43121 -0.52748,1.07433c-2.89825,5.08233 -5.10058,10.37835 -7.39717,15.73648l-0.53091,0.75771c0,0 -0.23487,0.35173 -0.22666,0.78237c-0.10992,0.11765 -0.168,0.21413 -0.168,0.21413l-0.86173,1.58397c0.13064,0.33229 0.62518,0.72635 0.39209,0.99681c-0.30096,0.34921 -0.92274,0.06551 -1.3769,0.14465c-2.10058,0.36603 -4.10306,0.90148 -6.2458,0.89449c-10.16211,0 -20.31058,-1.26239 -30.40609,-0.23397c-0.9787,0.0997 -1.71317,-2.94894 -1.98633,-3.78694z" fill="#ffe4b7" stroke="none" stroke-width="0.5" stroke-linecap="butt"></path><path d="M189.14226,217.38152c0.28248,6.42854 1.7877,12.5601 6.22358,17.75505l0.95436,0.83172c1.63607,-2.95976 3.86623,-5.49803 5.74064,-8.30934c1.52432,-2.28623 2.75861,-5.24824 4.83726,-7.10712c2.19601,-1.96383 7.73439,-2.22549 9.84705,0.04762c0.49239,0.52978 0.15215,1.43851 0.22823,2.15776c-0.05334,4.88492 -3.78513,9.45359 -6.44908,13.32665c-1.5279,2.22137 -2.6116,4.20907 -4.69027,5.99296l-0.36237,0.27348c-0.03958,0.29714 -0.16454,0.51583 -0.16454,0.51583c-2.58836,4.52962 -4.59269,9.22398 -6.62621,13.98694c0.22181,-0.00752 0.44406,-0.01259 0.66672,-0.01543c-0.73451,0.43545 -1.22691,1.23624 -1.22691,2.15203c0,0.12848 0.00969,0.2547 0.02838,0.37796c-0.26445,0.01894 -0.52774,0.04242 -0.78973,0.07092c0,0 -0.00403,0.0004 -0.01165,0.00093l-0.07302,0.11321c0,0 -0.0485,0.07276 -0.1391,0.16696c0.00517,0.40143 -0.19124,0.72878 -0.19124,0.72878l-0.54802,0.76376c0.02586,0.60667 0.4835,1.36844 0.07756,1.82003c-1.80361,2.00646 -7.1783,2.24116 -9.75628,2.24842c-6.27964,0 -12.51008,-0.70531 -18.77925,-0.70422c-3.09149,0.00054 -6.41674,-0.37158 -9.48797,-0.00746c-0.80557,0.09551 -1.58125,0.5545 -2.38796,0.4692c-2.73093,-0.28875 -3.30354,-3.42446 -4.08314,-5.49816c0,0 -0.29425,-0.78467 0.24159,-1.30997c-0.04758,-0.18774 -0.04758,-0.32919 -0.04758,-0.32919v-0.95846c0.00599,-6.44359 -1.2544,-12.86268 -1.27764,-19.33542c-0.16006,-0.315 -0.16006,-0.63256 -0.16006,-0.63256c0,-3.3553 -0.19099,-6.86594 0.1672,-10.20025c0.54343,-5.05876 3.51731,-9.88114 6.89658,-13.71661c-0.16372,-0.28509 -0.18967,-0.57052 -0.18967,-0.57052c-0.94102,-10.43283 3.54474,-21.59893 8.57922,-30.45131c0.61324,-0.51757 1.30494,-0.9154 2.01952,-1.1803c-0.26238,-0.39359 -0.21432,-0.87418 -0.21432,-0.87418c0.31575,-3.12575 -0.68323,-7.46716 1.18821,-10.19114c2.00798,-2.92273 7.60559,-2.76881 9.67333,-0.03023c1.60254,2.12248 0.8974,6.10792 0.8974,8.58856c-0.02007,2.21111 -0.5078,4.38725 -0.64139,6.62717c-0.17794,2.98366 -0.22628,5.99189 -0.2157,9.00765c0.35781,-0.94334 0.72067,-1.88627 0.95296,-2.84938c0.99925,-4.14312 1.46297,-8.26487 2.92622,-12.29469c0.54419,-1.22278 1.51526,-3.83557 2.68906,-4.55704c3.50172,-2.15232 5.20772,2.21599 5.6134,4.8177c0.8492,5.44608 -0.49035,10.79305 -1.10915,16.16476c-0.4337,3.76482 -0.47285,7.62597 -0.47209,11.41043c-0.2155,2.59919 -0.38565,5.20665 -0.40435,7.78264c-0.31274,0.7148 0.00893,1.8504 0.46792,2.79172c-0.10739,0.05141 -0.25241,0.10661 -0.4177,0.13214zM156.34024,262.55364c10.09551,-1.02842 20.21525,0.227 30.37737,0.227c2.14274,0.00699 4.13849,-0.52758 6.23907,-0.89361c0.45416,-0.07914 1.07449,0.20487 1.37545,-0.14433c0.23309,-0.27046 -0.26128,-0.66457 -0.39192,-0.99686l0.86042,-1.58365c0,0 0.05785,-0.09642 0.16777,-0.21407c-0.00821,-0.43063 0.22619,-0.78224 0.22619,-0.78224l0.53011,-0.75749c2.29658,-5.35813 4.4825,-10.64587 7.38075,-15.7282c-0.04739,-0.64312 0.52614,-1.07327 0.52614,-1.07327l0.57549,-0.4283c3.75717,-3.21622 6.83674,-8.70757 8.94819,-13.16264c0.69977,-1.47647 1.343,-2.59851 1.31814,-4.25883c0.54287,-1.70694 -4.78205,-1.41711 -5.8991,-0.35054c-1.87545,1.79068 -3.00581,4.49752 -4.42788,6.63085c-1.97495,2.96274 -4.40249,5.6073 -5.99501,8.81539c0,0 -0.55901,1.11803 -1.67705,0.55902c-0.07346,-0.03673 -0.13968,-0.07588 -0.1993,-0.11696c-0.69239,0.34898 -1.34277,-0.2201 -1.34277,-0.2201l-1.3432,-1.17956c-7.40484,-8.60841 -7.50548,-19.40321 -6.59055,-30.32417c0.00144,-7.33901 1.76517,-14.57393 1.7561,-21.83295c-0.00286,-2.28759 -0.14081,-12.16063 -3.06608,-6.30435c-0.21849,0.43741 -0.39665,0.89384 -0.59498,1.34076c-1.4266,3.91672 -1.85086,7.95406 -2.82456,11.98638c-0.47616,1.97187 -1.52552,3.86892 -1.90249,5.8483c-0.51933,2.72682 -0.01307,5.66768 -0.1353,8.42678c-0.08924,2.01438 -0.78692,3.64647 -1.13729,5.60295c0,0 -0.22361,1.22984 -1.45344,1.00623c-0.95973,-0.1745 -1.03434,-0.96176 -1.02082,-1.29916c-0.00557,-0.05657 -0.00557,-0.09042 -0.00557,-0.09042c0,-0.42598 0,-1.01171 0,-1.43769c0,-8.28519 -0.47763,-16.72862 0.00241,-24.99771c0.12577,-2.16649 0.66221,-4.34931 0.63656,-6.47182c0,-1.66045 0.74423,-5.65965 -0.38054,-7.06633c-1.09608,-1.3708 -4.63527,-1.66219 -5.66209,-0.03023c-1.403,2.22985 -0.47589,6.42584 -0.72871,8.97812c0,0 -0.01018,0.10181 -0.05384,0.24425c2.04868,0.06631 3.80554,1.37714 3.89388,4.25832c0.09671,3.15434 -1.556,5.97502 -2.09636,9.01264c-0.82557,4.64094 -0.93938,10.70908 -0.47804,15.3792c0.22179,0.87757 0.42769,1.75919 0.62405,2.64279l0.31561,1.26198c0,0 0.30317,1.21267 -0.90951,1.51584c-1.21268,0.30317 -1.51585,-0.9095 -1.51585,-0.9095l-0.32337,-1.29393c-0.20711,-0.93198 -0.42447,-1.86176 -0.6539,-2.7885c-0.50068,-4.95709 -0.38411,-11.31837 0.48043,-16.25008c0.4159,-2.37244 3.1885,-7.22351 2.03607,-9.58966c-0.74893,-1.5377 -2.81623,-0.90879 -3.66729,-0.10653c-4.31048,7.99982 -8.48009,17.71559 -8.13313,27.10736c1.01137,-1.10725 2.32551,-2.72584 3.65086,-3.06429c3.19531,-0.81599 5.41786,1.99489 5.23675,4.96142c-0.16226,2.65796 -3.07738,5.54569 -4.51147,7.63053c-2.97135,4.31966 -3.69634,9.1553 -4.92952,14.07156c-0.08586,0.83092 -0.1004,1.67784 0.00886,2.50601l0.00966,0.31479c0,0 0,1.25 -1.25,1.25c-1.25,0 -1.25,-1.25 -1.25,-1.25l0.00965,-0.0047c-0.12826,-1.07396 -0.0961,-2.16828 0.00886,-3.24478c1.30756,-5.24738 2.15268,-10.38787 5.29409,-15.00181c1.03551,-1.5209 4.04294,-4.48295 4.1147,-6.42693c0.17329,-4.69452 -3.69293,-0.88176 -5.05701,0.48232c-1.69145,1.68309 -3.41106,3.70135 -4.82155,5.91475c-0.03272,0.40412 -0.25766,0.75392 -0.58328,0.95787c-1.32475,2.28206 -2.28728,4.74176 -2.5432,7.23607c-0.32805,3.19732 -0.1578,6.55304 -0.15241,9.77451c0.15987,0.31488 0.15987,0.63218 0.15987,0.63218c-0.00378,6.52788 1.27237,12.98929 1.27795,19.48875v0.95846c0,0 0,0.50021 -0.31643,0.86778c0.27317,0.838 1.00466,3.88473 1.98337,3.78502z" fill="#804a0f" stroke="none" stroke-width="0.5" stroke-linecap="butt"></path><path d="M194.98904,212.21357c0.88388,0.88388 0,1.76777 0,1.76777l-0.21745,0.16872c-0.18715,0.28754 -0.44824,0.44419 -0.44824,0.44419c-0.99879,0.59925 -2.00284,1.18977 -3.01047,1.77402l-0.9215,0.78986c-0.21933,0.1903 -0.50561,0.30547 -0.81878,0.30547c-0.69036,0 -1.25,-0.55964 -1.25,-1.25c0,-0.30738 0.11095,-0.58884 0.29498,-0.80653l1.41117,-1.69341l0.04739,0.03949c0.05064,-0.08022 0.10363,-0.15912 0.15925,-0.23653c0.20726,-0.28841 2.86571,-1.20371 3.15931,-1.31062l-0.17342,0.00757c0,0 0.88388,-0.88388 1.76777,0z" fill="#804a0f" stroke="none" stroke-width="0.5" stroke-linecap="butt"></path><path d="M197.24608,258.28145c0,-0.27814 0.06189,-0.4944 0.15813,-0.66253c0.14741,-1.0124 1.23351,-1.0124 1.23351,-1.0124c1.36265,0.0026 2.72252,0.16808 4.07288,0.35072l0.00976,0.00619l0.00071,-0.00463l1.46975,0.22584c0.60961,0.08323 1.07932,0.60598 1.07932,1.23844c0,0.69036 -0.55964,1.25 -1.25,1.25c-0.04347,0 -0.08642,-0.00222 -0.12875,-0.00655l-1.54249,-0.14023l0.00855,-0.09404l-0.00842,-0.00129c-0.10685,-0.0147 -0.21377,-0.02931 -0.32075,-0.04374c-0.87708,0.11802 -1.76909,0.14421 -2.96564,0.14421h-0.56657c0,0 -1.25,0 -1.25,-1.25z" fill="#804a0f" stroke="none" stroke-width="0.5" stroke-linecap="butt"></path></g></g></svg>